<svg width="1280" height="720" xmlns="http://www.w3.org/2000/svg" xmlns:xlink="http://www.w3.org/1999/xlink" overflow="hidden"><g><rect x="0" y="0" width="1280" height="720" fill="#131321"/><text fill="#FFFFFF" font-family="Calibri,Calibri_MSFontService,sans-serif" font-weight="400" font-size="24" transform="translate(251.118 66)">1, Create(Mint)</text><path d="M197.5 540.667C197.5 536.709 200.709 533.5 204.667 533.5L291.333 533.5C295.291 533.5 298.5 536.709 298.5 540.667L298.5 569.333C298.5 573.291 295.291 576.5 291.333 576.5L204.667 576.5C200.709 576.5 197.5 573.291 197.5 569.333Z" stroke="#2F528F" stroke-width="1.33333" stroke-miterlimit="8" fill="#7030A0" fill-rule="evenodd"/><text fill="#FFFFFF" font-family="DengXian,DengXian_MSFontService,sans-serif" font-weight="400" font-size="21.3333" transform="translate(217.578 562)">Minter</text><path d="M355.5 538.663C355.5 531.946 360.946 526.5 367.663 526.5L463.337 526.5C470.054 526.5 475.5 531.946 475.5 538.663L475.5 569.337C475.5 576.054 470.054 581.5 463.337 581.5L367.663 581.5C360.946 581.5 355.5 576.054 355.5 569.337Z" stroke="#8497B0" stroke-width="1.33333" stroke-miterlimit="8" fill="#1C1E2C" fill-rule="evenodd"/><text fill="#FFFFFF" font-family="DengXian,DengXian_MSFontService,sans-serif" font-weight="400" font-size="14" transform="translate(385.335 550)">Compress</text><text fill="#FFFFFF" font-family="DengXian,DengXian_MSFontService,sans-serif" font-weight="400" font-size="14" transform="translate(377.915 567)">Evidence file</text><path d="M369.5 404.334C369.5 397.798 374.798 392.5 381.334 392.5L450.666 392.5C457.202 392.5 462.5 397.798 462.5 404.334L462.5 451.666C462.5 458.202 457.202 463.5 450.666 463.5L381.334 463.5C374.798 463.5 369.5 458.202 369.5 451.666Z" stroke="#2F528F" stroke-width="1.33333" stroke-miterlimit="8" fill="#7F6000" fill-rule="evenodd"/><text fill="#FFFFFF" font-family="Microsoft YaHei,Microsoft YaHei_MSFontService,sans-serif" font-weight="400" font-size="16" transform="translate(399.195 414)">IPFS</text><text fill="#FFFFFF" font-family="Microsoft YaHei,Microsoft YaHei_MSFontService,sans-serif" font-weight="400" font-size="16" transform="translate(411.748 434)">/</text><text fill="#FFFFFF" font-family="Microsoft YaHei,Microsoft YaHei_MSFontService,sans-serif" font-weight="400" font-size="16" transform="translate(404.248 453)">AR</text><text fill="#FFFFFF" font-family="DengXian,DengXian_MSFontService,sans-serif" font-weight="400" font-size="14.6667" transform="translate(479.919 505)">C</text><text fill="#FFFFFF" font-family="DengXian,DengXian_MSFontService,sans-serif" font-weight="400" font-size="14.6667" transform="translate(489.086 505)">ID</text><path d="M414.167 526.886 414.167 494.86 415.833 494.86 415.5 495.193 415.5 470.167 416.167 470.167 416.167 495.526 414.5 495.526 414.833 495.193 414.833 526.886ZM411.833 471.5 415.833 463.5 419.833 471.5Z" fill="#00B0F0"/><path d="M173 147.334C173 137.208 181.208 129 191.334 129L481.666 129C491.792 129 500 137.208 500 147.334L500 220.666C500 230.792 491.792 239 481.666 239L191.334 239C181.208 239 173 230.792 173 220.666Z" stroke="#2F5597" stroke-width="2" stroke-miterlimit="8" stroke-dasharray="8 6" fill="#222A35" fill-rule="evenodd"/><path d="M199.5 164.053C199.5 160.434 202.434 157.5 206.053 157.5L289.947 157.5C293.566 157.5 296.5 160.434 296.5 164.053L296.5 197.947C296.5 201.566 293.566 204.5 289.947 204.5L206.053 204.5C202.434 204.5 199.5 201.566 199.5 197.947Z" stroke="#8497B0" stroke-width="1.33333" stroke-miterlimit="8" fill="#1F4E79" fill-rule="evenodd"/><text fill="#FFFFFF" font-family="DengXian,DengXian_MSFontService,sans-serif" font-weight="400" font-size="16" transform="translate(214.49 186)">Truth Box</text><path d="M0-0.333333 39.4919-0.333333 39.4919 107.969 38.8252 107.969 38.8252 0 39.1585 0.333333 0 0.333333ZM43.1585 106.636 39.1585 114.636 35.1585 106.636Z" fill="#00B0F0" transform="matrix(-1.83697e-16 -1 -1 1.83697e-16 416.136 392.659)"/><path d="M248.237 323.278 248.171 211.167 248.837 211.166 248.904 323.277ZM244.505 212.502 248.5 204.5 252.505 212.498Z" fill="#00B0F0"/><text fill="#FFFFFF" font-family="DengXian,DengXian_MSFontService,sans-serif" font-weight="400" font-size="14" transform="translate(322.389 341)">Meta</text><text fill="#FFFFFF" font-family="DengXian,DengXian_MSFontService,sans-serif" font-weight="400" font-size="14" transform="translate(353.223 341)">data</text><text fill="#FFFFFF" font-family="DengXian,DengXian_MSFontService,sans-serif" font-weight="400" font-size="14" transform="translate(383.556 341)">CID</text><path d="M33 542.279C33 536.05 38.0496 531 44.2786 531L144.721 531C150.95 531 156 536.05 156 542.279L156 570.721C156 576.95 150.95 582 144.721 582L44.2786 582C38.0496 582 33 576.95 33 570.721Z" stroke="#00B050" stroke-width="2" stroke-miterlimit="8" fill="#1C1E2C" fill-rule="evenodd"/><text fill="#FFFFFF" font-family="DengXian,DengXian_MSFontService,sans-serif" font-weight="400" font-size="18.6667" transform="translate(48.0599 563)">Minter data</text><path d="M0-0.333333 100.448-0.333333 100.448 171.43 99.7817 171.43 99.7817 0 100.115 0.333333 0 0.333333ZM104.115 170.097 100.115 178.097 96.1151 170.097Z" fill="#00B0F0" transform="matrix(-1 1.22465e-16 1.22465e-16 1 195.615 353.5)"/><rect x="170" y="267" width="75" height="32" fill="#204367"/><text fill="#FFFFFF" font-family="DengXian,DengXian_MSFontService,sans-serif" font-weight="400" font-size="14" transform="translate(193.632 288)">Mint</text><path d="M798.5 540.667C798.5 536.709 801.709 533.5 805.667 533.5L892.333 533.5C896.291 533.5 899.5 536.709 899.5 540.667L899.5 569.333C899.5 573.291 896.291 576.5 892.333 576.5L805.667 576.5C801.709 576.5 798.5 573.291 798.5 569.333Z" stroke="#2F528F" stroke-width="1.33333" stroke-miterlimit="8" fill="#7030A0" fill-rule="evenodd"/><text fill="#FFFFFF" font-family="DengXian,DengXian_MSFontService,sans-serif" font-weight="400" font-size="21.3333" transform="translate(818.772 562)">Minter</text><path d="M774 157.667C774 147.91 781.91 140 791.667 140L1051.33 140C1061.09 140 1069 147.91 1069 157.667L1069 228.333C1069 238.09 1061.09 246 1051.33 246L791.667 246C781.91 246 774 238.09 774 228.333Z" stroke="#2F5597" stroke-width="2" stroke-miterlimit="8" stroke-dasharray="8 6" fill="#222A35" fill-rule="evenodd"/><path d="M0.333333-1.09668e-07 0.333436 312.438-0.333231 312.438-0.333333 1.09668e-07ZM4.0001 311.104 0.000104987 319.104-3.9999 311.104Z" fill="#00B0F0" transform="matrix(1 0 0 -1 849.5 533.604)"/><path d="M800.5 178.356C800.5 175.122 803.122 172.5 806.356 172.5L891.644 172.5C894.878 172.5 897.5 175.122 897.5 178.356L897.5 208.644C897.5 211.878 894.878 214.5 891.644 214.5L806.356 214.5C803.122 214.5 800.5 211.878 800.5 208.644Z" stroke="#8497B0" stroke-width="1.33333" stroke-miterlimit="8" fill="#1F4E79" fill-rule="evenodd"/><text fill="#FFFFFF" font-family="DengXian,DengXian_MSFontService,sans-serif" font-weight="400" font-size="14.6667" transform="translate(818.856 198)">Exchange</text><text fill="#FFFFFF" font-family="Calibri,Calibri_MSFontService,sans-serif" font-weight="400" font-size="24" transform="translate(875.469 68)">2, Sell / Auction</text><path d="M1038.5 341.961C1038.5 331.213 1047.21 322.5 1057.96 322.5L1170.04 322.5C1180.79 322.5 1189.5 331.213 1189.5 341.961L1189.5 391.039C1189.5 401.787 1180.79 410.5 1170.04 410.5L1057.96 410.5C1047.21 410.5 1038.5 401.787 1038.5 391.039Z" stroke="#92D050" stroke-width="1.33333" stroke-miterlimit="8" stroke-dasharray="5.33333 4" fill="#333F50" fill-rule="evenodd"/><text fill="#FFFFFF" font-family="DengXian,DengXian_MSFontService,sans-serif" font-weight="400" font-size="14" transform="translate(1072.46 354)">Box Deadline:</text><text fill="#FFFFFF" font-family="DengXian,DengXian_MSFontService,sans-serif" font-weight="400" font-size="14" transform="translate(1076.29 371)">Sell + 1 year</text><text fill="#FFFFFF" font-family="DengXian,DengXian_MSFontService,sans-serif" font-weight="400" font-size="14" transform="translate(1058.96 388)">Auction + 30 days</text><path d="M1057.5 193.167 1114.28 193.167 1114.28 315.455 1113.61 315.455 1113.61 193.5 1113.95 193.833 1057.5 193.833ZM1117.95 314.121 1113.95 322.121 1109.95 314.121Z" fill="#00B0F0"/><path d="M460.5 642.334C460.5 637.455 464.455 633.5 469.334 633.5L554.667 633.5C559.545 633.5 563.5 637.455 563.5 642.334L563.5 677.667C563.5 682.545 559.545 686.5 554.667 686.5L469.334 686.5C464.455 686.5 460.5 682.545 460.5 677.667Z" stroke="#C55A11" stroke-width="1.33333" stroke-miterlimit="8" fill="#0D0D0D" fill-rule="evenodd"/><text fill="#FFFFFF" font-family="DengXian,DengXian_MSFontService,sans-serif" font-weight="400" font-size="14.6667" transform="translate(472.048 656)">AES + ECDH</text><text fill="#FFFFFF" font-family="DengXian,DengXian_MSFontService,sans-serif" font-weight="400" font-size="14.6667" transform="translate(478.215 673)">Encryption</text><path d="M0-0.333333 28.9164-0.333333 28.9164 1.06709 28.583 0.733753 50.4994 0.733753 50.4994 1.40042 28.2497 1.40042 28.2497 0 28.583 0.333333 0 0.333333ZM49.1661-2.93291 57.1661 1.06709 49.1661 5.06709Z" fill="#00B0F0" transform="matrix(1 0 0 -1 298.5 554.567)"/><path d="M0-0.333333 21.5476-0.333333 21.5476 103.001 21.2142 102.668 156.232 102.668 156.232 103.335 20.8809 103.335 20.8809 0 21.2142 0.333333 0 0.333333ZM154.899 99.0014 162.899 103.001 154.899 107.001Z" fill="#00B0F0" transform="matrix(1.83697e-16 1 1 -1.83697e-16 437.5 467.5)"/><path d="M563.995 659.292 606.818 659.292 606.485 659.625 606.485 427.5 606.818 427.833 469.167 427.833 469.167 427.167 607.152 427.167 607.152 659.959 563.995 659.959ZM470.5 431.5 462.5 427.5 470.5 423.5Z" fill="#00B0F0"/><text fill="#FFFFFF" font-family="DengXian,DengXian_MSFontService,sans-serif" font-weight="400" font-size="14.6667" transform="translate(498.791 451)">EncryptionData</text><path d="M195.5 336.769C195.5 329.441 201.441 323.5 208.769 323.5L288.231 323.5C295.559 323.5 301.5 329.441 301.5 336.769L301.5 370.231C301.5 377.559 295.559 383.5 288.231 383.5L208.769 383.5C201.441 383.5 195.5 377.559 195.5 370.231Z" stroke="#8497B0" stroke-width="1.33333" stroke-miterlimit="8" fill="#1C1E2C" fill-rule="evenodd"/><text fill="#FFFFFF" font-family="DengXian,DengXian_MSFontService,sans-serif" font-weight="400" font-size="14" transform="translate(218.894 349)">Truth Box</text><text fill="#FFFFFF" font-family="DengXian,DengXian_MSFontService,sans-serif" font-weight="400" font-size="14" transform="translate(218.894 366)">mint data</text><path d="M0.333333-0.000146427 0.396336 143.423-0.27033 143.423-0.333333 0.000146427ZM4.06242 142.088 0.0659318 150.09-3.93758 142.092Z" fill="#00B0F0" transform="matrix(1 0 0 -1 248.5 533.59)"/><path d="M460.742 659.981 95.1667 659.981 95.1667 589.167 95.8334 589.167 95.8334 659.648 95.5001 659.314 460.742 659.314ZM91.5001 590.5 95.5001 582.5 99.5001 590.5Z" fill="#00B0F0"/><path d="M475.5 553.167 512.119 553.167 512.119 626.79 511.452 626.79 511.452 553.5 511.786 553.833 475.5 553.833ZM515.786 625.457 511.786 633.457 507.786 625.457Z" fill="#00B0F0"/><text fill="#FFFFFF" font-family="DengXian,DengXian_MSFontService,sans-serif" font-weight="400" font-size="14.6667" transform="translate(445.346 609)">Password</text><path d="M378.5 164.053C378.5 160.434 381.434 157.5 385.053 157.5L468.947 157.5C472.566 157.5 475.5 160.434 475.5 164.053L475.5 197.947C475.5 201.566 472.566 204.5 468.947 204.5L385.053 204.5C381.434 204.5 378.5 201.566 378.5 197.947Z" stroke="#8497B0" stroke-width="1.33333" stroke-miterlimit="8" fill="#1F4E79" fill-rule="evenodd"/><text fill="#FFFFFF" font-family="DengXian,DengXian_MSFontService,sans-serif" font-weight="400" font-size="16" transform="translate(392.192 186)">Truth NFT</text><path d="M296.5 181.167 371.478 181.167 371.478 181.833 296.5 181.833ZM370.145 177.5 378.145 181.5 370.145 185.5Z" fill="#00B0F0"/><path d="M973.5 178.356C973.5 175.122 976.122 172.5 979.356 172.5L1051.64 172.5C1054.88 172.5 1057.5 175.122 1057.5 178.356L1057.5 208.644C1057.5 211.878 1054.88 214.5 1051.64 214.5L979.356 214.5C976.122 214.5 973.5 211.878 973.5 208.644Z" stroke="#8497B0" stroke-width="1.33333" stroke-miterlimit="8" fill="#1F4E79" fill-rule="evenodd"/><text fill="#FFFFFF" font-family="DengXian,DengXian_MSFontService,sans-serif" font-weight="400" font-size="14.6667" transform="translate(984.877 198)">Truth Box</text><rect x="743" y="333" width="103" height="42" fill="#204367"/><text fill="#FFFFFF" font-family="DengXian,DengXian_MSFontService,sans-serif" font-weight="400" font-size="14" transform="translate(754.432 358)">Sell / Auction</text><path d="M897.5 193.167 966.566 193.167 966.566 193.833 897.5 193.833ZM965.233 189.5 973.233 193.5 965.233 197.5Z" fill="#00B0F0"/><path d="M329 431.168C329 401.804 352.804 378 382.168 378L599.832 378C629.196 378 653 401.804 653 431.168L653 643.832C653 673.196 629.196 697 599.832 697L382.168 697C352.804 697 329 673.196 329 643.832Z" stroke="#2F5597" stroke-width="2" stroke-miterlimit="8" stroke-dasharray="8 6" fill="none" fill-rule="evenodd"/><path d="M982.5 540C982.5 535.306 986.306 531.5 991 531.5L1075 531.5C1079.69 531.5 1083.5 535.306 1083.5 540L1083.5 574C1083.5 578.694 1079.69 582.5 1075 582.5L991 582.5C986.306 582.5 982.5 578.694 982.5 574Z" stroke="#2F528F" stroke-width="1.33333" stroke-miterlimit="8" fill="#993366" fill-rule="evenodd"/><text fill="#FFFFFF" font-family="DengXian,DengXian_MSFontService,sans-serif" font-weight="400" font-size="21.3333" transform="translate(1007.51 564)">Seller</text><text fill="#FFFFFF" font-family="DengXian,DengXian_MSFontService,sans-serif" font-weight="400" font-size="14.6667" transform="translate(477.549 411)">metad</text><text fill="#FFFFFF" font-family="DengXian,DengXian_MSFontService,sans-serif" font-weight="400" font-size="14.6667" transform="translate(517.883 411)">ata</text><text fill="#FFFFFF" font-family="DengXian,DengXian_MSFontService,sans-serif" font-weight="400" font-size="14.6667" transform="translate(108.274 648)">Minter Key Pair</text><text fill="#FFFFFF" font-family="DengXian,DengXian_MSFontService,sans-serif" font-weight="400" font-size="14.6667" transform="translate(100.135 381)">Box data</text><path d="M0-0.333333 20.9067-0.333333 20.9067 2.30835 20.5733 1.97501 34.48 1.97501 34.48 2.64168 20.24 2.64168 20.24 0 20.5733 0.333333 0 0.333333ZM33.1467-1.69165 41.1467 2.30835 33.1467 6.30835Z" fill="#00B0F0" transform="matrix(1 0 0 -1 156.5 557.808)"/><path d="M963 539.5C963 526.521 973.521 516 986.5 516L1186.5 516C1199.48 516 1210 526.521 1210 539.5L1210 633.5C1210 646.479 1199.48 657 1186.5 657L986.5 657C973.521 657 963 646.479 963 633.5Z" stroke="#2F5597" stroke-width="2" stroke-miterlimit="8" stroke-dasharray="8 6" fill="none" fill-rule="evenodd"/><path d="M0-0.333333 76.1445-0.333333 76.1445 183.65 75.8111 183.317 310.601 183.317 310.601 183.983 75.4778 183.983 75.4778 0 75.8111 0.333333 0 0.333333ZM309.268 179.65 317.268 183.65 309.268 187.65Z" fill="#00B0F0" transform="matrix(-1.83697e-16 -1 -1 1.83697e-16 1033.15 531.768)"/><text fill="#FF0000" font-family="DengXian,DengXian_MSFontService,sans-serif" font-weight="400" font-size="14.6667" transform="translate(1006.93 627)">Store deadline</text><text fill="#FF0000" font-family="DengXian,DengXian_MSFontService,sans-serif" font-weight="400" font-size="14.6667" transform="translate(1101.93 627)">Time</text><text fill="#FF0000" font-family="DengXian,DengXian_MSFontService,sans-serif" font-weight="400" font-size="14.6667" transform="translate(1136.77 627)">out</text></g></svg>