<svg width="1280" height="720" xmlns="http://www.w3.org/2000/svg" xmlns:xlink="http://www.w3.org/1999/xlink" overflow="hidden"><g><rect x="0" y="0" width="1280" height="720" fill="#131321"/><text fill="#FFFFFF" font-family="Calibri,Calibri_MSFontService,sans-serif" font-weight="400" font-size="24" transform="translate(289.474 63)">3</text><text fill="#FFFFFF" font-family="Calibri,Calibri_MSFontService,sans-serif" font-weight="400" font-size="24" transform="translate(301.64 63)">, Buy / Bid</text><path d="M1149.5 612.667C1149.5 608.709 1152.71 605.5 1156.67 605.5L1231.33 605.5C1235.29 605.5 1238.5 608.709 1238.5 612.667L1238.5 641.333C1238.5 645.291 1235.29 648.5 1231.33 648.5L1156.67 648.5C1152.71 648.5 1149.5 645.291 1149.5 641.333Z" stroke="#2F528F" stroke-width="1.33333" stroke-miterlimit="8" fill="#7030A0" fill-rule="evenodd"/><text fill="#FFFFFF" font-family="DengXian,DengXian_MSFontService,sans-serif" font-weight="400" font-size="21.3333" transform="translate(1163.72 634)">Minter</text><path d="M1144.5 439.115C1144.5 433.253 1149.25 428.5 1155.12 428.5L1232.88 428.5C1238.75 428.5 1243.5 433.253 1243.5 439.115L1243.5 465.885C1243.5 471.747 1238.75 476.5 1232.88 476.5L1155.12 476.5C1149.25 476.5 1144.5 471.747 1144.5 465.885Z" stroke="#8497B0" stroke-width="1.33333" stroke-miterlimit="8" fill="#1C1E2C" fill-rule="evenodd"/><text fill="#FFFFFF" font-family="DengXian,DengXian_MSFontService,sans-serif" font-weight="400" font-size="14" transform="translate(1174.05 448)">Minter</text><text fill="#FFFFFF" font-family="DengXian,DengXian_MSFontService,sans-serif" font-weight="400" font-size="14" transform="translate(1160.8 465)">Private Key</text><path d="M1194.17 605.574 1194.17 483.167 1194.83 483.167 1194.83 605.574ZM1190.5 484.5 1194.5 476.5 1198.5 484.5Z" fill="#00B0F0"/><path d="M897 149.5C897 139.835 904.835 132 914.5 132L1167.5 132C1177.16 132 1185 139.835 1185 149.5L1185 219.5C1185 229.165 1177.16 237 1167.5 237L914.5 237C904.835 237 897 229.165 897 219.5Z" stroke="#2F5597" stroke-width="2" stroke-miterlimit="8" stroke-dasharray="8 6" fill="#222A35" fill-rule="evenodd"/><path d="M974.735 296.956 974.208 211.169 974.874 211.165 975.402 296.952ZM970.549 212.524 974.5 204.5 978.549 212.475Z" fill="#00B0F0"/><path d="M922.5 435.167C922.5 430.38 926.38 426.5 931.167 426.5L1016.83 426.5C1021.62 426.5 1025.5 430.38 1025.5 435.167L1025.5 469.833C1025.5 474.62 1021.62 478.5 1016.83 478.5L931.167 478.5C926.38 478.5 922.5 474.62 922.5 469.833Z" stroke="#C55A11" stroke-width="1.33333" stroke-miterlimit="8" fill="#0D0D0D" fill-rule="evenodd"/><text fill="#FFFFFF" font-family="DengXian,DengXian_MSFontService,sans-serif" font-weight="400" font-size="14.6667" transform="translate(938.739 448)">Decryption</text><text fill="#FFFFFF" font-family="DengXian,DengXian_MSFontService,sans-serif" font-weight="400" font-size="14.6667" transform="translate(939.906 465)">Encryption</text><path d="M2.92958e-07-0.333333 112.789-0.333234 112.789 0.333432-2.92958e-07 0.333333ZM111.456-3.9999 119.456 0.000104987 111.456 4.0001Z" fill="#00B0F0" transform="matrix(-1 0 0 1 1144.96 451.5)"/><path d="M0-0.333333 205.377-0.333333 205.377 95.5344 204.71 95.5344 204.71 0 205.044 0.333333 0 0.333333ZM209.044 94.201 205.044 102.201 201.044 94.201Z" fill="#00B0F0" transform="matrix(-1 1.22465e-16 1.22465e-16 1 926.544 184.5)"/><path d="M926.5 169.217C926.5 166.059 929.06 163.5 932.217 163.5L1017.78 163.5C1020.94 163.5 1023.5 166.059 1023.5 169.217L1023.5 198.783C1023.5 201.941 1020.94 204.5 1017.78 204.5L932.217 204.5C929.06 204.5 926.5 201.941 926.5 198.783Z" stroke="#8497B0" stroke-width="1.33333" stroke-miterlimit="8" fill="#1F4E79" fill-rule="evenodd"/><text fill="#FFFFFF" font-family="DengXian,DengXian_MSFontService,sans-serif" font-weight="400" font-size="14.6667" transform="translate(944.565 189)">Exchange</text><text fill="#FFFFFF" font-family="Calibri,Calibri_MSFontService,sans-serif" font-weight="400" font-size="24" transform="translate(924.118 63)">4</text><text fill="#FFFFFF" font-family="Calibri,Calibri_MSFontService,sans-serif" font-weight="400" font-size="24" transform="translate(936.284 63)">, Deliver</text><path d="M253.5 416.01C253.5 410.758 257.758 406.5 263.01 406.5L342.991 406.5C348.242 406.5 352.5 410.758 352.5 416.01L352.5 439.991C352.5 445.243 348.242 449.5 342.991 449.5L263.01 449.5C257.758 449.5 253.5 445.243 253.5 439.991Z" stroke="#BF9000" stroke-width="1.33333" stroke-miterlimit="8" fill="#1C1E2C" fill-rule="evenodd"/><text fill="#FFC000" font-family="DengXian,DengXian_MSFontService,sans-serif" font-weight="700" font-size="14" transform="translate(269.465 432)">Truth Coin</text><path d="M0.333333-4.27823e-07 0.33343 75.1327-0.333237 75.1327-0.333333 4.27823e-07ZM4.00009 73.7994 0.000104987 81.7994-3.99991 73.7994Z" fill="#00B0F0" transform="matrix(1 0 0 -1 303.5 531.299)"/><path d="M227 136.334C227 123.447 237.447 113 250.334 113L527.666 113C540.553 113 551 123.447 551 136.334L551 229.666C551 242.553 540.553 253 527.666 253L250.334 253C237.447 253 227 242.553 227 229.666Z" stroke="#2F5597" stroke-width="2" stroke-miterlimit="8" stroke-dasharray="8 6" fill="#222A35" fill-rule="evenodd"/><path d="M0-0.333333 57.0822-0.333333 57.0822 112.06 56.4155 112.06 56.4155 0 56.7489 0.333333 0 0.333333ZM60.7489 110.726 56.7489 118.726 52.7489 110.726Z" fill="#00B0F0" transform="matrix(1.83697e-16 1 1 -1.83697e-16 125.5 597.5)"/><path d="M126.412 449.74 126.199 406.168 126.866 406.165 127.079 449.737ZM122.539 407.52 126.5 399.5 130.539 407.48Z" fill="#00B0F0"/><path d="M244 641.509C244 636.258 248.258 632 253.509 632L352.491 632C357.742 632 362 636.258 362 641.509L362 665.491C362 670.742 357.742 675 352.491 675L253.509 675C248.258 675 244 670.742 244 665.491Z" stroke="#00B050" stroke-width="2" stroke-miterlimit="8" fill="#1C1E2C" fill-rule="evenodd"/><text fill="#FFFFFF" font-family="DengXian,DengXian_MSFontService,sans-serif" font-weight="400" font-size="18.6667" transform="translate(259.882 659)">Buyer data</text><path d="M74.5001 538.334C74.5001 533.455 78.4549 529.5 83.3336 529.5L168.667 529.5C173.545 529.5 177.5 533.455 177.5 538.334L177.5 573.667C177.5 578.545 173.545 582.5 168.667 582.5L83.3336 582.5C78.4549 582.5 74.5001 578.545 74.5001 573.667Z" stroke="#C55A11" stroke-width="1.33333" stroke-miterlimit="8" fill="#0D0D0D" fill-rule="evenodd"/><text fill="#FFFFFF" font-family="DengXian,DengXian_MSFontService,sans-serif" font-weight="400" font-size="14.6667" transform="translate(86.5008 552)">AES + ECDH</text><text fill="#FFFFFF" font-family="DengXian,DengXian_MSFontService,sans-serif" font-weight="400" font-size="14.6667" transform="translate(92.6675 569)">Encryption</text><path d="M260.5 200.356C260.5 197.122 263.122 194.5 266.356 194.5L339.644 194.5C342.878 194.5 345.5 197.122 345.5 200.356L345.5 230.644C345.5 233.878 342.878 236.5 339.644 236.5L266.356 236.5C263.122 236.5 260.5 233.878 260.5 230.644Z" stroke="#8497B0" stroke-width="1.33333" stroke-miterlimit="8" fill="#1F4E79" fill-rule="evenodd"/><text fill="#FFFFFF" font-family="DengXian,DengXian_MSFontService,sans-serif" font-weight="400" font-size="14.6667" transform="translate(272.965 220)">Exchange</text><path d="M126.167 529.567 126.167 512.7 127.172 512.7 126.839 513.034 126.839 503.167 127.506 503.167 127.506 513.367 126.5 513.367 126.833 513.034 126.833 529.567ZM123.172 504.5 127.172 496.5 131.172 504.5Z" fill="#00B0F0"/><path d="M440.5 200.356C440.5 197.122 443.122 194.5 446.356 194.5L518.644 194.5C521.878 194.5 524.5 197.122 524.5 200.356L524.5 230.644C524.5 233.878 521.878 236.5 518.644 236.5L446.356 236.5C443.122 236.5 440.5 233.878 440.5 230.644Z" stroke="#8497B0" stroke-width="1.33333" stroke-miterlimit="8" fill="#1F4E79" fill-rule="evenodd"/><text fill="#FFFFFF" font-family="DengXian,DengXian_MSFontService,sans-serif" font-weight="400" font-size="14.6667" transform="translate(466.228 212)">Fund</text><text fill="#FFFFFF" font-family="DengXian,DengXian_MSFontService,sans-serif" font-weight="400" font-size="14.6667" transform="translate(453.808 229)">Manager</text><path d="M656.5 639.667C656.5 635.709 659.709 632.5 663.667 632.5L738.333 632.5C742.291 632.5 745.5 635.709 745.5 639.667L745.5 668.333C745.5 672.291 742.291 675.5 738.333 675.5L663.667 675.5C659.709 675.5 656.5 672.291 656.5 668.333Z" stroke="#2F528F" stroke-width="1.33333" stroke-miterlimit="8" fill="#843C0C" fill-rule="evenodd"/><text fill="#FFFFFF" font-family="DengXian,DengXian_MSFontService,sans-serif" font-weight="400" font-size="21.3333" transform="translate(678.279 660)">DAO</text><path d="M649.5 545.167C649.5 540.38 653.38 536.5 658.167 536.5L743.833 536.5C748.62 536.5 752.5 540.38 752.5 545.167L752.5 579.833C752.5 584.62 748.62 588.5 743.833 588.5L658.167 588.5C653.38 588.5 649.5 584.62 649.5 579.833Z" stroke="#C55A11" stroke-width="1.33333" stroke-miterlimit="8" fill="#0D0D0D" fill-rule="evenodd"/><text fill="#FFFFFF" font-family="Calibri,Calibri_MSFontService,sans-serif" font-weight="400" font-size="14.6667" transform="translate(670.779 559)">Threshold</text><text fill="#FFFFFF" font-family="Calibri,Calibri_MSFontService,sans-serif" font-weight="400" font-size="14.6667" transform="translate(670.946 576)">Algorithm</text><path d="M700.167 632.158 700.167 595.167 700.833 595.167 700.833 632.158ZM696.5 596.5 700.5 588.5 704.5 596.5Z" fill="#00B0F0"/><path d="M848.167 538.166 848.167 508 973.745 508 973.412 508.333 973.412 485.167 974.079 485.167 974.079 508.667 848.5 508.667 848.833 508.333 848.833 538.166ZM969.745 486.5 973.745 478.5 977.745 486.5Z" fill="#00B0F0"/><rect x="215" y="275" width="75" height="31" fill="#204367"/><text fill="#FFFFFF" font-family="DengXian,DengXian_MSFontService,sans-serif" font-weight="400" font-size="14" transform="translate(225.327 295)">Buy / Bid</text><path d="M440.5 129.217C440.5 126.059 443.06 123.5 446.217 123.5L518.783 123.5C521.941 123.5 524.5 126.059 524.5 129.217L524.5 158.783C524.5 161.941 521.941 164.5 518.783 164.5L446.217 164.5C443.06 164.5 440.5 161.941 440.5 158.783Z" stroke="#8497B0" stroke-width="1.33333" stroke-miterlimit="8" fill="#1F4E79" fill-rule="evenodd"/><text fill="#FFFFFF" font-family="DengXian,DengXian_MSFontService,sans-serif" font-weight="400" font-size="14.6667" transform="translate(451.808 149)">Truth Box</text><path d="M67.5001 460.673C67.5001 455.055 72.0546 450.5 77.673 450.5L176.327 450.5C181.945 450.5 186.5 455.055 186.5 460.673L186.5 486.327C186.5 491.945 181.945 496.5 176.327 496.5L77.673 496.5C72.0546 496.5 67.5001 491.945 67.5001 486.327Z" stroke="#8497B0" stroke-width="1.33333" stroke-miterlimit="8" fill="#1C1E2C" fill-rule="evenodd"/><text fill="#FFFFFF" font-family="DengXian,DengXian_MSFontService,sans-serif" font-weight="400" font-size="14" transform="translate(93.673 477)">Buyer Data</text><path d="M230 350.334C230 337.447 240.447 327 253.334 327L352.666 327C365.553 327 376 337.447 376 350.334L376 443.666C376 456.553 365.553 467 352.666 467L253.334 467C240.447 467 230 456.553 230 443.666Z" stroke="#2F5597" stroke-width="2" stroke-miterlimit="8" stroke-dasharray="8 6" fill="none" fill-rule="evenodd"/><path d="M345.5 215.167 433.076 215.167 433.076 215.833 345.5 215.833ZM431.743 211.5 439.743 215.5 431.743 219.5Z" fill="#00B0F0"/><path d="M303.167 195.199 303.167 144.167 433.501 144.167 433.501 144.833 303.5 144.833 303.833 144.5 303.833 195.199ZM432.168 140.5 440.168 144.5 432.168 148.5Z" fill="#00B0F0"/><text fill="#FFFFFF" font-family="DengXian,DengXian_MSFontService,sans-serif" font-weight="400" font-size="14.6667" transform="translate(377.134 192)">Order</text><text fill="#FFFFFF" font-family="DengXian,DengXian_MSFontService,sans-serif" font-weight="400" font-size="14.6667" transform="translate(370.38 209)">Amount</text><path d="M425.5 430.73C425.5 419.005 435.005 409.5 446.73 409.5L541.27 409.5C552.995 409.5 562.5 419.005 562.5 430.73L562.5 484.27C562.5 495.995 552.995 505.5 541.27 505.5L446.73 505.5C435.005 505.5 425.5 495.995 425.5 484.27Z" stroke="#92D050" stroke-width="1.33333" stroke-miterlimit="8" stroke-dasharray="5.33333 4" fill="#333F50" fill-rule="evenodd"/><text fill="#FFFFFF" font-family="DengXian,DengXian_MSFontService,sans-serif" font-weight="400" font-size="14" transform="translate(452.51 445)">Box Deadline:</text><text fill="#FFFFFF" font-family="DengXian,DengXian_MSFontService,sans-serif" font-weight="400" font-size="14" transform="translate(452.59 479)">Bid + 30 days</text><path d="M524.5 144.167 586.535 144.167 586.535 457.998 568.869 457.998 568.869 457.331 586.202 457.331 585.869 457.665 585.869 144.5 586.202 144.833 524.5 144.833ZM570.202 461.665 562.202 457.665 570.202 453.665Z" fill="#00B0F0"/><path d="M80.5001 341.167C80.5001 334.724 85.7235 329.5 92.167 329.5L161.833 329.5C168.277 329.5 173.5 334.724 173.5 341.167L173.5 387.833C173.5 394.277 168.277 399.5 161.833 399.5L92.167 399.5C85.7235 399.5 80.5001 394.277 80.5001 387.833Z" stroke="#2F528F" stroke-width="1.33333" stroke-miterlimit="8" fill="#7F6000" fill-rule="evenodd"/><text fill="#FFFFFF" font-family="Microsoft YaHei,Microsoft YaHei_MSFontService,sans-serif" font-weight="400" font-size="16" transform="translate(110.374 350)">IPFS</text><text fill="#FFFFFF" font-family="Microsoft YaHei,Microsoft YaHei_MSFontService,sans-serif" font-weight="400" font-size="16" transform="translate(122.927 370)">/</text><text fill="#FFFFFF" font-family="Microsoft YaHei,Microsoft YaHei_MSFontService,sans-serif" font-weight="400" font-size="16" transform="translate(115.427 389)">AR</text><path d="M250.5 351.894C250.5 346.154 255.154 341.5 260.894 341.5L346.106 341.5C351.846 341.5 356.5 346.154 356.5 351.894L356.5 378.106C356.5 383.846 351.846 388.5 346.106 388.5L260.894 388.5C255.154 388.5 250.5 383.846 250.5 378.106Z" stroke="#8497B0" stroke-width="1.33333" stroke-miterlimit="8" fill="#1C1E2C" fill-rule="evenodd"/><text fill="#FFFFFF" font-family="DengXian,DengXian_MSFontService,sans-serif" font-weight="400" font-size="14" transform="translate(285.965 360)">Buyer</text><text fill="#FFFFFF" font-family="DengXian,DengXian_MSFontService,sans-serif" font-weight="400" font-size="14" transform="translate(275.965 377)">Dat</text><text fill="#FFFFFF" font-family="DengXian,DengXian_MSFontService,sans-serif" font-weight="400" font-size="14" transform="translate(297.132 377)">a</text><text fill="#FFFFFF" font-family="DengXian,DengXian_MSFontService,sans-serif" font-weight="400" font-size="14" transform="translate(307.965 377)">C</text><text fill="#FFFFFF" font-family="DengXian,DengXian_MSFontService,sans-serif" font-weight="400" font-size="14" transform="translate(316.632 377)">ID</text><path d="M173.5 364.167 244.101 364.167 244.101 364.833 173.5 364.833ZM242.767 360.5 250.767 364.5 242.767 368.5Z" fill="#00B0F0"/><path d="M0.333333-3.33554e-07 0.333432 98.2507-0.333235 98.2507-0.333333 3.33554e-07ZM4.0001 96.9174 0.000104987 104.917-3.9999 96.9174Z" fill="#00B0F0" transform="matrix(1 0 0 -1 303.5 341.417)"/><path d="M1088.5 169.356C1088.5 166.122 1091.12 163.5 1094.36 163.5L1166.64 163.5C1169.88 163.5 1172.5 166.122 1172.5 169.356L1172.5 199.644C1172.5 202.878 1169.88 205.5 1166.64 205.5L1094.36 205.5C1091.12 205.5 1088.5 202.878 1088.5 199.644Z" stroke="#8497B0" stroke-width="1.33333" stroke-miterlimit="8" fill="#1F4E79" fill-rule="evenodd"/><text fill="#FFFFFF" font-family="DengXian,DengXian_MSFontService,sans-serif" font-weight="400" font-size="14.6667" transform="translate(1099.81 189)">Truth Box</text><path d="M678.5 171.673C678.5 166.055 683.055 161.5 688.673 161.5L754.327 161.5C759.945 161.5 764.5 166.055 764.5 171.673L764.5 197.327C764.5 202.945 759.945 207.5 754.327 207.5L688.673 207.5C683.055 207.5 678.5 202.945 678.5 197.327Z" stroke="#8497B0" stroke-width="1.33333" stroke-miterlimit="8" fill="#1C1E2C" fill-rule="evenodd"/><text fill="#FFFFFF" font-family="DengXian,DengXian_MSFontService,sans-serif" font-weight="400" font-size="14" transform="translate(703.967 180)">Buyer</text><text fill="#FFFFFF" font-family="DengXian,DengXian_MSFontService,sans-serif" font-weight="400" font-size="14" transform="translate(693.967 197)">Dat</text><text fill="#FFFFFF" font-family="DengXian,DengXian_MSFontService,sans-serif" font-weight="400" font-size="14" transform="translate(715.134 197)">a</text><text fill="#FFFFFF" font-family="DengXian,DengXian_MSFontService,sans-serif" font-weight="400" font-size="14" transform="translate(725.967 197)">C</text><text fill="#FFFFFF" font-family="DengXian,DengXian_MSFontService,sans-serif" font-weight="400" font-size="14" transform="translate(734.634 197)">ID</text><path d="M798.5 549.336C798.5 543.352 803.352 538.5 809.336 538.5L886.664 538.5C892.648 538.5 897.5 543.352 897.5 549.336L897.5 576.664C897.5 582.648 892.648 587.5 886.664 587.5L809.336 587.5C803.352 587.5 798.5 582.648 798.5 576.664Z" stroke="#8497B0" stroke-width="1.33333" stroke-miterlimit="8" fill="#1C1E2C" fill-rule="evenodd"/><text fill="#FFFFFF" font-family="DengXian,DengXian_MSFontService,sans-serif" font-weight="400" font-size="14" transform="translate(830.073 558)">Office</text><text fill="#FFFFFF" font-family="DengXian,DengXian_MSFontService,sans-serif" font-weight="400" font-size="14" transform="translate(814.993 575)">Private Key</text><path d="M752.5 561.167 792.188 561.167 792.188 561.833 752.5 561.833ZM790.854 557.5 798.854 561.5 790.854 565.5Z" fill="#00B0F0"/><path d="M674.5 298.167C674.5 291.724 679.724 286.5 686.167 286.5L755.833 286.5C762.277 286.5 767.5 291.724 767.5 298.167L767.5 344.833C767.5 351.277 762.277 356.5 755.833 356.5L686.167 356.5C679.724 356.5 674.5 351.277 674.5 344.833Z" stroke="#2F528F" stroke-width="1.33333" stroke-miterlimit="8" fill="#7F6000" fill-rule="evenodd"/><text fill="#FFFFFF" font-family="Microsoft YaHei,Microsoft YaHei_MSFontService,sans-serif" font-weight="400" font-size="16" transform="translate(704.815 307)">IPFS</text><text fill="#FFFFFF" font-family="Microsoft YaHei,Microsoft YaHei_MSFontService,sans-serif" font-weight="400" font-size="16" transform="translate(717.368 327)">/</text><text fill="#FFFFFF" font-family="Microsoft YaHei,Microsoft YaHei_MSFontService,sans-serif" font-weight="400" font-size="16" transform="translate(709.868 346)">AR</text><path d="M767.501 321.167 917.897 321.435 917.896 322.102 767.499 321.833ZM916.57 317.766 924.563 321.78 916.556 325.766Z" fill="#00B0F0"/><path d="M0-0.333333 96.3196-0.333333 96.3196 194.125 95.6529 194.125 95.6529 0 95.9862 0.333333 0 0.333333ZM99.9862 192.791 95.9862 200.791 91.9862 192.791Z" fill="#00B0F0" transform="matrix(1.83697e-16 1 1 -1.83697e-16 721.5 356.5)"/><path d="M675.5 439.673C675.5 434.055 680.055 429.5 685.673 429.5L769.327 429.5C774.945 429.5 779.5 434.055 779.5 439.673L779.5 465.327C779.5 470.945 774.945 475.5 769.327 475.5L685.673 475.5C680.055 475.5 675.5 470.945 675.5 465.327Z" stroke="#8497B0" stroke-width="1.33333" stroke-miterlimit="8" fill="#1C1E2C" fill-rule="evenodd"/><text fill="#FFFFFF" font-family="DengXian,DengXian_MSFontService,sans-serif" font-weight="400" font-size="14" transform="translate(694.008 457)">Buyer Data</text><path d="M924.5 308.894C924.5 303.154 929.154 298.5 934.894 298.5L1020.11 298.5C1025.85 298.5 1030.5 303.154 1030.5 308.894L1030.5 335.106C1030.5 340.846 1025.85 345.5 1020.11 345.5L934.894 345.5C929.154 345.5 924.5 340.846 924.5 335.106Z" stroke="#8497B0" stroke-width="1.33333" stroke-miterlimit="8" fill="#1C1E2C" fill-rule="evenodd"/><text fill="#FFFFFF" font-family="DengXian,DengXian_MSFontService,sans-serif" font-weight="400" font-size="14" transform="translate(956.368 317)">Deliver</text><text fill="#FFFFFF" font-family="DengXian,DengXian_MSFontService,sans-serif" font-weight="400" font-size="14" transform="translate(950.201 334)">Dat</text><text fill="#FFFFFF" font-family="DengXian,DengXian_MSFontService,sans-serif" font-weight="400" font-size="14" transform="translate(971.368 334)">a</text><text fill="#FFFFFF" font-family="DengXian,DengXian_MSFontService,sans-serif" font-weight="400" font-size="14" transform="translate(982.201 334)">C</text><text fill="#FFFFFF" font-family="DengXian,DengXian_MSFontService,sans-serif" font-weight="400" font-size="14" transform="translate(990.868 334)">ID</text><path d="M926.654 428.253 770.389 354.643 770.673 354.039 926.938 427.65ZM770.033 358.528 764.5 351.5 773.442 351.291Z" fill="#00B0F0"/><path d="M786.5 372.894C786.5 367.154 791.154 362.5 796.894 362.5L904.106 362.5C909.846 362.5 914.5 367.154 914.5 372.894L914.5 399.106C914.5 404.846 909.846 409.5 904.106 409.5L796.894 409.5C791.154 409.5 786.5 404.846 786.5 399.106Z" stroke="#8497B0" stroke-width="1.33333" stroke-miterlimit="8" fill="#1C1E2C" fill-rule="evenodd"/><text fill="#FFFFFF" font-family="DengXian,DengXian_MSFontService,sans-serif" font-weight="400" font-size="14" transform="translate(813.384 390)">Deliver Data</text><path d="M1023.5 184.167 1081.25 184.396 1081.25 185.063 1023.5 184.833ZM1079.93 180.724 1087.92 184.756 1079.9 188.724Z" fill="#00B0F0"/><path d="M1149.69 627.394 1089.76 627.394 1089.76 321.5 1090.09 321.833 1037.17 321.833 1037.17 321.167 1090.43 321.167 1090.43 627.06 1090.09 626.727 1149.69 626.727ZM1038.5 325.5 1030.5 321.5 1038.5 317.5Z" fill="#00B0F0"/><rect x="987" y="251" width="62" height="32" fill="#1F4E79"/><text fill="#FFFFFF" font-family="DengXian,DengXian_MSFontService,sans-serif" font-weight="400" font-size="14" transform="translate(997.537 272)">Deliver</text><path d="M52 340.334C52 326.895 62.8946 316 76.3337 316L173.666 316C187.105 316 198 326.895 198 340.334L198 572.666C198 586.105 187.105 597 173.666 597L76.3337 597C62.8946 597 52 586.105 52 572.666Z" stroke="#2F5597" stroke-width="2" stroke-miterlimit="8" stroke-dasharray="8 6" fill="none" fill-rule="evenodd"/><path d="M1132 538.51C1132 533.258 1136.26 529 1141.51 529L1245.49 529C1250.74 529 1255 533.258 1255 538.51L1255 562.49C1255 567.742 1250.74 572 1245.49 572L1141.51 572C1136.26 572 1132 567.742 1132 562.49Z" stroke="#00B050" stroke-width="2" stroke-miterlimit="8" fill="#1C1E2C" fill-rule="evenodd"/><text fill="#FFFFFF" font-family="DengXian,DengXian_MSFontService,sans-serif" font-weight="400" font-size="18.6667" transform="translate(1147 556)">Minter data</text><path d="M255.5 541.333C255.5 537.007 259.007 533.5 263.333 533.5L347.667 533.5C351.993 533.5 355.5 537.007 355.5 541.333L355.5 572.667C355.5 576.993 351.993 580.5 347.667 580.5L263.333 580.5C259.007 580.5 255.5 576.993 255.5 572.667Z" stroke="#2F528F" stroke-width="1.33333" stroke-miterlimit="8" fill="#561043" fill-rule="evenodd"/><text fill="#FFFFFF" font-family="DengXian,DengXian_MSFontService,sans-serif" font-weight="400" font-size="21.3333" transform="translate(279.095 564)">Buyer</text><path d="M255.127 557.22 184.16 555.952 184.172 555.286 255.139 556.554ZM185.427 559.642 177.5 555.5 185.57 551.644Z" fill="#00B0F0"/><path d="M0.333027-0.0142799 2.26013 44.9284 1.59408 44.957-0.333027 0.0142799ZM5.86631 43.4392 2.2127 51.6033-2.12634 43.782Z" fill="#00B0F0" transform="matrix(1 0 0 -1 303.5 632.103)"/><text fill="#FFFFFF" font-family="DengXian,DengXian_MSFontService,sans-serif" font-weight="400" font-size="14.6667" transform="translate(136.679 676)">Bu</text><text fill="#FFFFFF" font-family="DengXian,DengXian_MSFontService,sans-serif" font-weight="400" font-size="14.6667" transform="translate(152.846 676)">y</text><text fill="#FFFFFF" font-family="DengXian,DengXian_MSFontService,sans-serif" font-weight="400" font-size="14.6667" transform="translate(159.679 676)">er Key Pair</text></g></svg>