<svg width="1280" height="720" xmlns="http://www.w3.org/2000/svg" xmlns:xlink="http://www.w3.org/1999/xlink" overflow="hidden"><g><rect x="0" y="0" width="1280" height="720" fill="#131321"/><path d="M162 139.834C162 127.775 171.775 118 183.834 118L468.166 118C480.225 118 490 127.775 490 139.834L490 227.166C490 239.225 480.225 249 468.166 249L183.834 249C171.775 249 162 239.225 162 227.166Z" stroke="#2F5597" stroke-width="2" stroke-miterlimit="8" stroke-dasharray="8 6" fill="#222A35" fill-rule="evenodd"/><path d="M383.5 193.053C383.5 189.434 386.434 186.5 390.053 186.5L461.947 186.5C465.566 186.5 468.5 189.434 468.5 193.053L468.5 226.947C468.5 230.566 465.566 233.5 461.947 233.5L390.053 233.5C386.434 233.5 383.5 230.566 383.5 226.947Z" stroke="#8497B0" stroke-width="1.33333" stroke-miterlimit="8" fill="#1F4E79" fill-rule="evenodd"/><text fill="#FFFFFF" font-family="DengXian,DengXian_MSFontService,sans-serif" font-weight="400" font-size="14.6667" transform="translate(409.797 206)">Fund</text><text fill="#FFFFFF" font-family="DengXian,DengXian_MSFontService,sans-serif" font-weight="400" font-size="14.6667" transform="translate(397.384 223)">Manager</text><path d="M183.5 181.356C183.5 178.122 186.122 175.5 189.356 175.5L275.644 175.5C278.878 175.5 281.5 178.122 281.5 181.356L281.5 211.644C281.5 214.878 278.878 217.5 275.644 217.5L189.356 217.5C186.122 217.5 183.5 214.878 183.5 211.644Z" stroke="#8497B0" stroke-width="1.33333" stroke-miterlimit="8" fill="#1F4E79" fill-rule="evenodd"/><text fill="#FFFFFF" font-family="DengXian,DengXian_MSFontService,sans-serif" font-weight="400" font-size="14.6667" transform="translate(202.09 201)">Exchange</text><path d="M383.5 139.356C383.5 136.122 386.122 133.5 389.356 133.5L462.644 133.5C465.878 133.5 468.5 136.122 468.5 139.356L468.5 169.644C468.5 172.878 465.878 175.5 462.644 175.5L389.356 175.5C386.122 175.5 383.5 172.878 383.5 169.644Z" stroke="#8497B0" stroke-width="1.33333" stroke-miterlimit="8" fill="#1F4E79" fill-rule="evenodd"/><text fill="#FFFFFF" font-family="DengXian,DengXian_MSFontService,sans-serif" font-weight="400" font-size="14.6667" transform="translate(395.384 160)">Truth Box</text><path d="M281.5 196.167 333.066 196.167 333.066 209.729 332.732 209.396 377.298 209.396 377.298 210.063 332.399 210.063 332.399 196.5 332.732 196.833 281.5 196.833ZM375.965 205.729 383.965 209.729 375.965 213.729Z" fill="#00B0F0"/><path d="M0-0.333333 51.5656-0.333333 51.5656 41.6078 51.2323 41.2744 95.7979 41.2744 95.7979 41.9411 50.8989 41.9411 50.8989 0 51.2323 0.333333 0 0.333333ZM94.4646 37.6078 102.465 41.6078 94.4646 45.6078Z" fill="#00B0F0" transform="matrix(1 0 0 -1 281.5 196.108)"/><path d="M123.5 546.5C123.5 542.634 126.634 539.5 130.5 539.5L205.5 539.5C209.366 539.5 212.5 542.634 212.5 546.5L212.5 574.5C212.5 578.366 209.366 581.5 205.5 581.5L130.5 581.5C126.634 581.5 123.5 578.366 123.5 574.5Z" stroke="#2F528F" stroke-width="1.33333" stroke-miterlimit="8" fill="#7030A0" fill-rule="evenodd"/><text fill="#FFFFFF" font-family="DengXian,DengXian_MSFontService,sans-serif" font-weight="400" font-size="21.3333" transform="translate(137.549 567)">Minter</text><path d="M223.5 546.5C223.5 542.634 226.634 539.5 230.5 539.5L338.5 539.5C342.366 539.5 345.5 542.634 345.5 546.5L345.5 574.5C345.5 578.366 342.366 581.5 338.5 581.5L230.5 581.5C226.634 581.5 223.5 578.366 223.5 574.5Z" stroke="#2F528F" stroke-width="1.33333" stroke-miterlimit="8" fill="#993366" fill-rule="evenodd"/><text fill="#FFFFFF" font-family="DengXian,DengXian_MSFontService,sans-serif" font-weight="400" font-size="21.3333" transform="translate(235.689 567)">Completer</text><path d="M464.5 363.167 509.905 363.167 509.905 464.823 509.238 464.823 509.238 363.5 509.571 363.833 464.5 363.833ZM513.571 463.489 509.571 471.489 505.571 463.489Z" fill="#00B0F0"/><rect x="138.5" y="336.5" width="85" height="39" stroke="#4472C4" stroke-width="1.33333" stroke-miterlimit="8" stroke-dasharray="5.33333 4" fill="#1F4E79"/><text fill="#FFFFFF" font-family="DengXian,DengXian_MSFontService,sans-serif" font-weight="400" font-size="14" transform="translate(151.385 352)">Complete</text><text fill="#FFFFFF" font-family="DengXian,DengXian_MSFontService,sans-serif" font-weight="400" font-size="14" transform="translate(163.052 369)">Order</text><text fill="#FFFFFF" font-family="Calibri,Calibri_MSFontService,sans-serif" font-weight="400" font-size="24" transform="translate(266.963 70)">5</text><text fill="#FFFFFF" font-family="Calibri,Calibri_MSFontService,sans-serif" font-weight="400" font-size="24" transform="translate(279.13 70)">, Complete</text><text fill="#FFFFFF" font-family="Calibri,Calibri_MSFontService,sans-serif" font-weight="400" font-size="24" transform="translate(868.973 70)">6</text><text fill="#FFFFFF" font-family="Calibri,Calibri_MSFontService,sans-serif" font-weight="400" font-size="24" transform="translate(881.139 70)">,</text><text fill="#FFFFFF" font-family="Calibri,Calibri_MSFontService,sans-serif" font-weight="400" font-size="24" transform="translate(892.639 70)">Confidential Fee</text><path d="M387 350.509C387 345.258 391.258 341 396.509 341L454.491 341C459.742 341 464 345.258 464 350.509L464 374.491C464 379.742 459.742 384 454.491 384L396.509 384C391.258 384 387 379.742 387 374.491Z" stroke="#BF9000" stroke-width="2" stroke-miterlimit="8" stroke-dasharray="8 6" fill="#1C1E2C" fill-rule="evenodd"/><text fill="#FFFFFF" font-family="DengXian,DengXian_MSFontService,sans-serif" font-weight="400" font-size="14" transform="translate(400.384 367)">Rewards</text><path d="M752 263C752 250.298 762.298 240 775 240L1125 240C1137.7 240 1148 250.298 1148 263L1148 355C1148 367.702 1137.7 378 1125 378L775 378C762.298 378 752 367.702 752 355Z" stroke="#2F5597" stroke-width="2" stroke-miterlimit="8" stroke-dasharray="8 6" fill="#222A35" fill-rule="evenodd"/><path d="M998.5 293.193C998.5 289.496 1001.5 286.5 1005.19 286.5L1088.81 286.5C1092.5 286.5 1095.5 289.496 1095.5 293.193L1095.5 327.807C1095.5 331.504 1092.5 334.5 1088.81 334.5L1005.19 334.5C1001.5 334.5 998.5 331.504 998.5 327.807Z" stroke="#8497B0" stroke-width="1.33333" stroke-miterlimit="8" fill="#1F4E79" fill-rule="evenodd"/><text fill="#FFFFFF" font-family="DengXian,DengXian_MSFontService,sans-serif" font-weight="400" font-size="14.6667" transform="translate(1030.82 306)">Fund</text><text fill="#FFFFFF" font-family="DengXian,DengXian_MSFontService,sans-serif" font-weight="400" font-size="14.6667" transform="translate(1018.4 323)">Manager</text><path d="M0.333333-6.76695e-07 0.333425 45.0488-0.333242 45.0488-0.333333 6.76695e-07ZM4.00009 43.7155 0.000104987 51.7155-3.99991 43.7155Z" fill="#00B0F0" transform="matrix(1 0 0 -1 839.5 569.216)"/><path d="M789.5 484.01C789.5 478.758 793.758 474.5 799.01 474.5L878.991 474.5C884.242 474.5 888.5 478.758 888.5 484.01L888.5 507.991C888.5 513.242 884.242 517.5 878.991 517.5L799.01 517.5C793.758 517.5 789.5 513.242 789.5 507.991Z" stroke="#BF9000" stroke-width="1.33333" stroke-miterlimit="8" fill="#1C1E2C" fill-rule="evenodd"/><text fill="#FFFFFF" font-family="DengXian,DengXian_MSFontService,sans-serif" font-weight="400" font-size="14" transform="translate(807.185 500)">Truth Coin</text><path d="M789.5 293.914C789.5 290.372 792.372 287.5 795.914 287.5L882.086 287.5C885.629 287.5 888.5 290.372 888.5 293.914L888.5 327.086C888.5 330.629 885.629 333.5 882.086 333.5L795.914 333.5C792.372 333.5 789.5 330.629 789.5 327.086Z" stroke="#8497B0" stroke-width="1.33333" stroke-miterlimit="8" fill="#1F4E79" fill-rule="evenodd"/><text fill="#FFFFFF" font-family="DengXian,DengXian_MSFontService,sans-serif" font-weight="400" font-size="16" transform="translate(805.438 315)">Truth Box</text><path d="M0-0.333333 58.2799-0.333333 58.2799 1.42551 57.9466 1.09218 109.226 1.09218 109.226 1.75885 57.6132 1.75885 57.6132 0 57.9466 0.333333 0 0.333333ZM107.893-2.57449 115.893 1.42551 107.893 5.42551Z" fill="#00B0F0" transform="matrix(1.83697e-16 1 1 -1.83697e-16 1047.5 334.5)"/><path d="M839.33 475.047 839.174 340.167 839.841 340.166 839.997 475.046ZM835.509 341.505 839.5 333.5 843.509 341.495Z" fill="#00B0F0"/><rect x="790" y="401" width="46" height="30" fill="#1F4E79"/><text fill="#FFFFFF" font-family="DengXian,DengXian_MSFontService,sans-serif" font-weight="400" font-size="14" transform="translate(802.142 420)">Pay</text><path d="M1028.5 159.423C1028.5 150.629 1035.63 143.5 1044.42 143.5L1215.58 143.5C1224.37 143.5 1231.5 150.629 1231.5 159.423L1231.5 199.577C1231.5 208.371 1224.37 215.5 1215.58 215.5L1044.42 215.5C1035.63 215.5 1028.5 208.371 1028.5 199.577Z" stroke="#92D050" stroke-width="1.33333" stroke-miterlimit="8" stroke-dasharray="5.33333 4" fill="#3B3838" fill-rule="evenodd"/><text fill="#FFFFFF" font-family="DengXian,DengXian_MSFontService,sans-serif" font-weight="400" font-size="14" transform="translate(1042.05 175)">Box Deadline</text><text fill="#FFFFFF" font-family="DengXian,DengXian_MSFontService,sans-serif" font-weight="400" font-size="14" transform="translate(1120.88 175)">：</text><text fill="#FFFFFF" font-family="DengXian,DengXian_MSFontService,sans-serif" font-weight="400" font-size="14" transform="translate(1134.88 175)">+ 1 year</text><text fill="#FFFFFF" font-family="DengXian,DengXian_MSFontService,sans-serif" font-weight="400" font-size="14" transform="translate(1042.05 192)">Box Price</text><text fill="#FFFFFF" font-family="DengXian,DengXian_MSFontService,sans-serif" font-weight="400" font-size="14" transform="translate(1096.88 192)">：</text><text fill="#FFFFFF" font-family="DengXian,DengXian_MSFontService,sans-serif" font-weight="400" font-size="14" transform="translate(1114.71 192)">x 2</text><path d="M1048.83 492.5 1048.83 549.608 1048.17 549.608 1048.17 492.5ZM1052.5 548.274 1048.5 556.274 1044.5 548.274Z" fill="#00B0F0"/><path d="M1009 458.509C1009 453.258 1013.26 449 1018.51 449L1077.49 449C1082.74 449 1087 453.258 1087 458.509L1087 482.491C1087 487.742 1082.74 492 1077.49 492L1018.51 492C1013.26 492 1009 487.742 1009 482.491Z" stroke="#BF9000" stroke-width="2" stroke-miterlimit="8" stroke-dasharray="8 6" fill="#1C1E2C" fill-rule="evenodd"/><text fill="#FFFFFF" font-family="DengXian,DengXian_MSFontService,sans-serif" font-weight="400" font-size="14" transform="translate(1022.83 475)">Rewards</text><path d="M839.167 287.648 839.167 179.167 1022.14 179.167 1022.14 179.833 839.5 179.833 839.833 179.5 839.833 287.648ZM1020.81 175.5 1028.81 179.5 1020.81 183.5Z" fill="#00B0F0"/><rect x="517.5" y="538.5" width="85" height="39" stroke="#FFC000" stroke-width="1.33333" stroke-miterlimit="8" stroke-dasharray="5.33333 4" fill="none"/><text fill="#FFFFFF" font-family="DengXian,DengXian_MSFontService,sans-serif" font-weight="400" font-size="14" transform="translate(538.167 554)">Service</text><text fill="#FFFFFF" font-family="DengXian,DengXian_MSFontService,sans-serif" font-weight="400" font-size="14" transform="translate(548.747 571)">Fee</text><path d="M789.5 578.333C789.5 574.007 793.007 570.5 797.333 570.5L881.667 570.5C885.993 570.5 889.5 574.007 889.5 578.333L889.5 609.667C889.5 613.993 885.993 617.5 881.667 617.5L797.333 617.5C793.007 617.5 789.5 613.993 789.5 609.667Z" stroke="#2F528F" stroke-width="1.33333" stroke-miterlimit="8" fill="#561043" fill-rule="evenodd"/><text fill="#FFFFFF" font-family="DengXian,DengXian_MSFontService,sans-serif" font-weight="400" font-size="21.3333" transform="translate(813.119 601)">Buyer</text><path d="M182.5 449.333C182.5 445.007 186.007 441.5 190.333 441.5L274.667 441.5C278.993 441.5 282.5 445.007 282.5 449.333L282.5 480.667C282.5 484.993 278.993 488.5 274.667 488.5L190.333 488.5C186.007 488.5 182.5 484.993 182.5 480.667Z" stroke="#2F528F" stroke-width="1.33333" stroke-miterlimit="8" fill="#561043" fill-rule="evenodd"/><text fill="#FFFFFF" font-family="DengXian,DengXian_MSFontService,sans-serif" font-weight="400" font-size="21.3333" transform="translate(205.936 472)">Buyer</text><path d="M0.333333-0.000105881 0.402397 217.425-0.26427 217.425-0.333333 0.000105881ZM4.06864 216.09 0.0711811 224.092-3.93136 216.093Z" fill="#00B0F0" transform="matrix(1 0 0 -1 232.5 441.592)"/><path d="M0.333333-3.21977e-07 0.333432 102.023-0.333235 102.023-0.333333 3.21977e-07ZM4.0001 100.69 0.000104987 108.69-3.9999 100.69Z" fill="#00B0F0" transform="matrix(-1 0 0 1 426.5 233.5)"/><rect x="421.5" y="484.5" width="85" height="39" stroke="#FFC000" stroke-width="1.33333" stroke-miterlimit="8" stroke-dasharray="5.33333 4" fill="none"/><text fill="#FFFFFF" font-family="DengXian,DengXian_MSFontService,sans-serif" font-weight="400" font-size="14" transform="translate(444.214 500)">Minter</text><text fill="#FFFFFF" font-family="DengXian,DengXian_MSFontService,sans-serif" font-weight="400" font-size="14" transform="translate(438.714 517)">Rewards</text><rect x="517.5" y="483.5" width="85" height="40" stroke="#FFC000" stroke-width="1.33333" stroke-miterlimit="8" stroke-dasharray="5.33333 4" fill="none"/><text fill="#FFFFFF" font-family="DengXian,DengXian_MSFontService,sans-serif" font-weight="400" font-size="14" transform="translate(543.512 499)">Seller</text><text fill="#FFFFFF" font-family="DengXian,DengXian_MSFontService,sans-serif" font-weight="400" font-size="14" transform="translate(534.592 516)">Rewards</text><rect x="422.5" y="539.5" width="85" height="39" stroke="#FFC000" stroke-width="1.33333" stroke-miterlimit="8" stroke-dasharray="5.33333 4" fill="none"/><text fill="#FFFFFF" font-family="DengXian,DengXian_MSFontService,sans-serif" font-weight="400" font-size="14" transform="translate(432.721 555)">Completer</text><text fill="#FFFFFF" font-family="DengXian,DengXian_MSFontService,sans-serif" font-weight="400" font-size="14" transform="translate(439.134 572)">Rewards</text><rect x="421.5" y="594.5" width="85" height="39" stroke="#FFC000" stroke-width="1.33333" stroke-miterlimit="8" stroke-dasharray="5.33333 4" fill="none"/><text fill="#FFFFFF" font-family="DengXian,DengXian_MSFontService,sans-serif" font-weight="400" font-size="14" transform="translate(441.752 610)">Publi</text><text fill="#FFFFFF" font-family="DengXian,DengXian_MSFontService,sans-serif" font-weight="400" font-size="14" transform="translate(471.418 610)">s</text><text fill="#FFFFFF" font-family="DengXian,DengXian_MSFontService,sans-serif" font-weight="400" font-size="14" transform="translate(477.085 610)">h</text><text fill="#FFFFFF" font-family="DengXian,DengXian_MSFontService,sans-serif" font-weight="400" font-size="14" transform="translate(438.085 627)">Rewards</text><path d="M402 492.042C402 480.421 411.421 471 423.042 471L595.958 471C607.579 471 617 480.421 617 492.042L617 626.958C617 638.579 607.579 648 595.958 648L423.042 648C411.421 648 402 638.579 402 626.958Z" stroke="#2F5597" stroke-width="2" stroke-miterlimit="8" stroke-dasharray="8 6" fill="none" fill-rule="evenodd"/><rect x="1055.5" y="623.5" width="86" height="39" stroke="#FFC000" stroke-width="1.33333" stroke-miterlimit="8" stroke-dasharray="5.33333 4" fill="none"/><text fill="#FFFFFF" font-family="DengXian,DengXian_MSFontService,sans-serif" font-weight="400" font-size="14" transform="translate(1076.92 639)">Service</text><text fill="#FFFFFF" font-family="DengXian,DengXian_MSFontService,sans-serif" font-weight="400" font-size="14" transform="translate(1087.5 656)">Fee</text><rect x="960.5" y="569.5" width="84.9999" height="39" stroke="#FFC000" stroke-width="1.33333" stroke-miterlimit="8" stroke-dasharray="5.33333 4" fill="none"/><text fill="#FFFFFF" font-family="DengXian,DengXian_MSFontService,sans-serif" font-weight="400" font-size="14" transform="translate(982.967 585)">Minter</text><text fill="#FFFFFF" font-family="DengXian,DengXian_MSFontService,sans-serif" font-weight="400" font-size="14" transform="translate(977.467 602)">Rewards</text><rect x="1055.5" y="569.5" width="86" height="39" stroke="#FFC000" stroke-width="1.33333" stroke-miterlimit="8" stroke-dasharray="5.33333 4" fill="none"/><text fill="#FFFFFF" font-family="DengXian,DengXian_MSFontService,sans-serif" font-weight="400" font-size="14" transform="translate(1076.5 585)">Publish</text><text fill="#FFFFFF" font-family="DengXian,DengXian_MSFontService,sans-serif" font-weight="400" font-size="14" transform="translate(1072.84 602)">Rewards</text><path d="M940 575.334C940 564.656 948.656 556 959.334 556L1136.67 556C1147.34 556 1156 564.656 1156 575.334L1156 652.666C1156 663.344 1147.34 672 1136.67 672L959.334 672C948.656 672 940 663.344 940 652.666Z" stroke="#2F5597" stroke-width="2" stroke-miterlimit="8" stroke-dasharray="8 6" fill="none" fill-rule="evenodd"/><path d="M8.77866e-05-0.333333 103.359-0.306113 103.359 0.360554-8.77866e-05 0.333333ZM102.027-3.97313 110.026 0.0289764 102.025 4.02687Z" fill="#00B0F0" transform="matrix(1 0 0 -1 888.5 310.529)"/><path d="M109 534.167C109 518.611 121.611 506 137.167 506L326.833 506C342.389 506 355 518.611 355 534.167L355 646.833C355 662.389 342.389 675 326.833 675L137.167 675C121.611 675 109 662.389 109 646.833Z" stroke="#2F5597" stroke-width="2" stroke-miterlimit="8" stroke-dasharray="8 6" fill="none" fill-rule="evenodd"/><text fill="#FF0000" font-family="DengXian,DengXian_MSFontService,sans-serif" font-weight="400" font-size="14.6667" transform="translate(131.038 630)">Request refund period</text><text fill="#FF0000" font-family="DengXian,DengXian_MSFontService,sans-serif" font-weight="400" font-size="14.6667" transform="translate(276.038 630)">Time</text><text fill="#FF0000" font-family="DengXian,DengXian_MSFontService,sans-serif" font-weight="400" font-size="14.6667" transform="translate(310.871 630)">out</text></g></svg>