<svg width="1280" height="720" xmlns="http://www.w3.org/2000/svg" xmlns:xlink="http://www.w3.org/1999/xlink" overflow="hidden"><g><rect x="0" y="0" width="1280" height="720" fill="#131321"/><text fill="#FFFFFF" font-family="Calibri,Calibri_MSFontService,sans-serif" font-weight="400" font-size="24" transform="translate(317.937 80)">5</text><text fill="#FFFFFF" font-family="Calibri,Calibri_MSFontService,sans-serif" font-weight="400" font-size="24" transform="translate(330.104 80)">, Refund</text><path d="M247 187.334C247 177.208 255.208 169 265.334 169L515.666 169C525.792 169 534 177.208 534 187.334L534 260.666C534 270.792 525.792 279 515.666 279L265.334 279C255.208 279 247 270.792 247 260.666Z" stroke="#2F5597" stroke-width="2" stroke-miterlimit="8" stroke-dasharray="8 6" fill="#222A35" fill-rule="evenodd"/><path d="M0.333333-1.0912e-07 0.333436 314.04-0.333231 314.04-0.333333 1.0912e-07ZM4.0001 312.706 0.000104987 320.706-3.9999 312.706Z" fill="#00B0F0" transform="matrix(1 0 0 -1 320.5 569.206)"/><rect x="333" y="318" width="85" height="40" fill="#1F4E79"/><text fill="#FFFFFF" font-family="DengXian,DengXian_MSFontService,sans-serif" font-weight="400" font-size="14" transform="translate(351.839 334)">Request</text><text fill="#FFFFFF" font-family="DengXian,DengXian_MSFontService,sans-serif" font-weight="400" font-size="14" transform="translate(356.252 351)">refund</text><text fill="#FFFFFF" font-family="Calibri,Calibri_MSFontService,sans-serif" font-weight="400" font-size="24" transform="translate(866.457 80)">6</text><text fill="#FFFFFF" font-family="Calibri,Calibri_MSFontService,sans-serif" font-weight="400" font-size="24" transform="translate(878.624 80)">, Review</text><path d="M704 506.509C704 501.258 708.258 497 713.509 497L754.491 497C759.742 497 764 501.258 764 506.509L764 530.491C764 535.742 759.742 540 754.491 540L713.509 540C708.258 540 704 535.742 704 530.491Z" stroke="#8497B0" stroke-width="2" stroke-miterlimit="8" fill="#1C1E2C" fill-rule="evenodd"/><text fill="#FFFFFF" font-family="DengXian,DengXian_MSFontService,sans-serif" font-weight="400" font-size="14" transform="translate(719.682 523)">Vote</text><path d="M0.33333-0.00143548 0.541681 48.3794-0.124979 48.3823-0.33333 0.00143548ZM4.20257 47.0303 0.23706 55.0475-3.79735 47.0648Z" fill="#00B0F0" transform="matrix(1 0 0 -1 734.5 595.547)"/><path d="M766 190C766 177.85 775.85 168 788 168L1072 168C1084.15 168 1094 177.85 1094 190L1094 278C1094 290.15 1084.15 300 1072 300L788 300C775.85 300 766 290.15 766 278Z" stroke="#2F5597" stroke-width="2" stroke-miterlimit="8" stroke-dasharray="8 6" fill="#222A35" fill-rule="evenodd"/><rect x="668" y="406" width="59" height="58" fill="#1F4E79"/><text fill="#FFFFFF" font-family="DengXian,DengXian_MSFontService,sans-serif" font-weight="400" font-size="14" transform="translate(677.677 423)">Refuse</text><text fill="#FFFFFF" font-family="DengXian,DengXian_MSFontService,sans-serif" font-weight="400" font-size="14" transform="translate(694.923 440)">/</text><text fill="#FFFFFF" font-family="DengXian,DengXian_MSFontService,sans-serif" font-weight="400" font-size="14" transform="translate(679.677 457)">Agree</text><path d="M689.5 602.667C689.5 598.709 692.709 595.5 696.667 595.5L771.333 595.5C775.291 595.5 778.5 598.709 778.5 602.667L778.5 631.333C778.5 635.291 775.291 638.5 771.333 638.5L696.667 638.5C692.709 638.5 689.5 635.291 689.5 631.333Z" stroke="#2F528F" stroke-width="1.33333" stroke-miterlimit="8" fill="#843C0C" fill-rule="evenodd"/><text fill="#FFFFFF" font-family="DengXian,DengXian_MSFontService,sans-serif" font-weight="400" font-size="21.3333" transform="translate(711.361 624)">DAO</text><path d="M987.5 243.053C987.5 239.434 990.434 236.5 994.053 236.5L1065.95 236.5C1069.57 236.5 1072.5 239.434 1072.5 243.053L1072.5 276.947C1072.5 280.566 1069.57 283.5 1065.95 283.5L994.053 283.5C990.434 283.5 987.5 280.566 987.5 276.947Z" stroke="#8497B0" stroke-width="1.33333" stroke-miterlimit="8" fill="#1F4E79" fill-rule="evenodd"/><text fill="#FFFFFF" font-family="DengXian,DengXian_MSFontService,sans-serif" font-weight="400" font-size="14.6667" transform="translate(1014.02 256)">Fund</text><text fill="#FFFFFF" font-family="DengXian,DengXian_MSFontService,sans-serif" font-weight="400" font-size="14.6667" transform="translate(1001.61 273)">Manager</text><path d="M792.5 602.5C792.5 598.634 795.634 595.5 799.5 595.5L874.5 595.5C878.366 595.5 881.5 598.634 881.5 602.5L881.5 630.5C881.5 634.366 878.366 637.5 874.5 637.5L799.5 637.5C795.634 637.5 792.5 634.366 792.5 630.5Z" stroke="#2F528F" stroke-width="1.33333" stroke-miterlimit="8" fill="#7030A0" fill-rule="evenodd"/><text fill="#FFFFFF" font-family="DengXian,DengXian_MSFontService,sans-serif" font-weight="400" font-size="21.3333" transform="translate(806.23 623)">Minter</text><path d="M0.333333-1.06749e-07 0.333436 321.163-0.33323 321.163-0.333333 1.06749e-07ZM4.0001 319.83 0.000104987 327.83-3.9999 319.83Z" fill="#00B0F0" transform="matrix(1 0 0 -1 836.5 595.33)"/><rect x="769" y="420" width="61" height="30" fill="#1F4E79"/><text fill="#FFFFFF" font-family="DengXian,DengXian_MSFontService,sans-serif" font-weight="400" font-size="14" transform="translate(781.598 440)">Agree</text><rect x="850" y="415" width="138" height="69" fill="#1F4E79"/><text fill="#FFFFFF" font-family="DengXian,DengXian_MSFontService,sans-serif" font-weight="400" font-size="14" transform="translate(898.664 437)">Cancel</text><text fill="#FFFFFF" font-family="DengXian,DengXian_MSFontService,sans-serif" font-weight="400" font-size="14" transform="translate(915.998 454)">/</text><text fill="#FFFFFF" font-family="DengXian,DengXian_MSFontService,sans-serif" font-weight="400" font-size="14" transform="translate(863.411 471)">Get Refund Permit</text><path d="M122.5 395.167C122.5 388.724 127.724 383.5 134.167 383.5L203.833 383.5C210.277 383.5 215.5 388.724 215.5 395.167L215.5 441.833C215.5 448.277 210.277 453.5 203.833 453.5L134.167 453.5C127.724 453.5 122.5 448.277 122.5 441.833Z" stroke="#2F528F" stroke-width="1.33333" stroke-miterlimit="8" fill="#7F6000" fill-rule="evenodd"/><text fill="#FFFFFF" font-family="Microsoft YaHei,Microsoft YaHei_MSFontService,sans-serif" font-weight="400" font-size="16" transform="translate(152.595 404)">IPFS</text><text fill="#FFFFFF" font-family="Microsoft YaHei,Microsoft YaHei_MSFontService,sans-serif" font-weight="400" font-size="16" transform="translate(165.149 424)">/</text><text fill="#FFFFFF" font-family="Microsoft YaHei,Microsoft YaHei_MSFontService,sans-serif" font-weight="400" font-size="16" transform="translate(157.649 443)">AR</text><path d="M270.973 592.705 169.167 592.705 169.167 460.167 169.833 460.167 169.833 592.372 169.5 592.038 270.973 592.038ZM165.5 461.5 169.5 453.5 173.5 461.5Z" fill="#00B0F0"/><path d="M110 522.288C110 517.159 114.159 513 119.288 513L217.712 513C222.841 513 227 517.159 227 522.288L227 545.712C227 550.841 222.841 555 217.712 555L119.288 555C114.159 555 110 550.841 110 545.712Z" stroke="#00B050" stroke-width="2" stroke-miterlimit="8" fill="#1C1E2C" fill-rule="evenodd"/><text fill="#FFFFFF" font-family="DengXian,DengXian_MSFontService,sans-serif" font-weight="400" font-size="18.6667" transform="translate(125.565 540)">Buyer data</text><path d="M271.5 212.356C271.5 209.122 274.122 206.5 277.356 206.5L363.644 206.5C366.878 206.5 369.5 209.122 369.5 212.356L369.5 242.644C369.5 245.878 366.878 248.5 363.644 248.5L277.356 248.5C274.122 248.5 271.5 245.878 271.5 242.644Z" stroke="#8497B0" stroke-width="1.33333" stroke-miterlimit="8" fill="#1F4E79" fill-rule="evenodd"/><text fill="#FFFFFF" font-family="DengXian,DengXian_MSFontService,sans-serif" font-weight="400" font-size="14.6667" transform="translate(290.087 232)">Exchange</text><path d="M433.5 213.217C433.5 210.059 436.059 207.5 439.217 207.5L512.783 207.5C515.941 207.5 518.5 210.059 518.5 213.217L518.5 242.783C518.5 245.941 515.941 248.5 512.783 248.5L439.217 248.5C436.059 248.5 433.5 245.941 433.5 242.783Z" stroke="#8497B0" stroke-width="1.33333" stroke-miterlimit="8" fill="#1F4E79" fill-rule="evenodd"/><text fill="#FFFFFF" font-family="DengXian,DengXian_MSFontService,sans-serif" font-weight="400" font-size="14.6667" transform="translate(445.253 233)">Truth Box</text><path d="M369.501 227.167 427.173 227.396 427.17 228.063 369.499 227.833ZM425.854 223.724 433.838 227.756 425.822 231.724Z" fill="#00B0F0"/><path d="M269.5 405.894C269.5 400.154 274.154 395.5 279.894 395.5L365.106 395.5C370.846 395.5 375.5 400.154 375.5 405.894L375.5 432.106C375.5 437.846 370.846 442.5 365.106 442.5L279.894 442.5C274.154 442.5 269.5 437.846 269.5 432.106Z" stroke="#8497B0" stroke-width="1.33333" stroke-miterlimit="8" fill="#1C1E2C" fill-rule="evenodd"/><text fill="#FFFFFF" font-family="DengXian,DengXian_MSFontService,sans-serif" font-weight="400" font-size="14" transform="translate(300.536 414)">Refund</text><text fill="#FFFFFF" font-family="DengXian,DengXian_MSFontService,sans-serif" font-weight="400" font-size="14" transform="translate(294.956 431)">Data</text><text fill="#FFFFFF" font-family="DengXian,DengXian_MSFontService,sans-serif" font-weight="400" font-size="14" transform="translate(326.956 431)">C</text><text fill="#FFFFFF" font-family="DengXian,DengXian_MSFontService,sans-serif" font-weight="400" font-size="14" transform="translate(335.623 431)">ID</text><path d="M215.502 418.167 262.873 418.458 262.868 419.125 215.498 418.833ZM261.562 414.783 269.537 418.832 261.513 422.783Z" fill="#00B0F0"/><path d="M788.5 231.356C788.5 228.122 791.122 225.5 794.356 225.5L879.644 225.5C882.878 225.5 885.5 228.122 885.5 231.356L885.5 261.644C885.5 264.878 882.878 267.5 879.644 267.5L794.356 267.5C791.122 267.5 788.5 264.878 788.5 261.644Z" stroke="#8497B0" stroke-width="1.33333" stroke-miterlimit="8" fill="#1F4E79" fill-rule="evenodd"/><text fill="#FFFFFF" font-family="DengXian,DengXian_MSFontService,sans-serif" font-weight="400" font-size="14.6667" transform="translate(806.313 251)">Exchange</text><path d="M987.5 190.217C987.5 187.059 990.059 184.5 993.217 184.5L1066.78 184.5C1069.94 184.5 1072.5 187.059 1072.5 190.217L1072.5 219.783C1072.5 222.941 1069.94 225.5 1066.78 225.5L993.217 225.5C990.059 225.5 987.5 222.941 987.5 219.783Z" stroke="#8497B0" stroke-width="1.33333" stroke-miterlimit="8" fill="#1F4E79" fill-rule="evenodd"/><text fill="#FFFFFF" font-family="DengXian,DengXian_MSFontService,sans-serif" font-weight="400" font-size="14.6667" transform="translate(999.607 210)">Truth Box</text><path d="M734.167 497.846 734.167 246.167 781.644 246.167 781.644 246.833 734.5 246.833 734.833 246.5 734.833 497.846ZM780.311 242.5 788.311 246.5 780.311 250.5Z" fill="#00B0F0"/><path d="M941.5 601.333C941.5 597.007 945.007 593.5 949.333 593.5L1033.67 593.5C1037.99 593.5 1041.5 597.007 1041.5 601.333L1041.5 632.667C1041.5 636.993 1037.99 640.5 1033.67 640.5L949.333 640.5C945.007 640.5 941.5 636.993 941.5 632.667Z" stroke="#2F528F" stroke-width="1.33333" stroke-miterlimit="8" fill="#561043" fill-rule="evenodd"/><text fill="#FFFFFF" font-family="DengXian,DengXian_MSFontService,sans-serif" font-weight="400" font-size="21.3333" transform="translate(965.155 624)">Buyer</text><path d="M270.5 577.333C270.5 573.007 274.007 569.5 278.333 569.5L362.667 569.5C366.993 569.5 370.5 573.007 370.5 577.333L370.5 608.667C370.5 612.993 366.993 616.5 362.667 616.5L278.333 616.5C274.007 616.5 270.5 612.993 270.5 608.667Z" stroke="#2F528F" stroke-width="1.33333" stroke-miterlimit="8" fill="#561043" fill-rule="evenodd"/><text fill="#FFFFFF" font-family="DengXian,DengXian_MSFontService,sans-serif" font-weight="400" font-size="21.3333" transform="translate(294.003 599)">Buyer</text><path d="M0-0.333333 194.417-0.333333 194.417 154.926 194.083 154.592 319.381 154.592 319.381 155.259 193.75 155.259 193.75 0 194.083 0.333333 0 0.333333ZM318.048 150.926 326.048 154.926 318.048 158.926Z" fill="#00B0F0" transform="matrix(-1.83697e-16 -1 -1 1.83697e-16 991.426 593.548)"/><path d="M885.5 246.167 937.066 246.167 937.066 259.729 936.732 259.396 981.298 259.396 981.298 260.063 936.399 260.063 936.399 246.5 936.732 246.833 885.5 246.833ZM979.965 255.729 987.965 259.729 979.965 263.729Z" fill="#00B0F0"/><path d="M0-0.333333 51.5656-0.333333 51.5656 41.6078 51.2323 41.2744 95.7979 41.2744 95.7979 41.9411 50.8989 41.9411 50.8989 0 51.2323 0.333333 0 0.333333ZM94.4646 37.6078 102.465 41.6078 94.4646 45.6078Z" fill="#00B0F0" transform="matrix(1 0 0 -1 885.5 247.108)"/><path d="M1155.5 444.788C1155.5 439.659 1159.66 435.5 1164.79 435.5L1219.21 435.5C1224.34 435.5 1228.5 439.659 1228.5 444.788L1228.5 468.212C1228.5 473.342 1224.34 477.5 1219.21 477.5L1164.79 477.5C1159.66 477.5 1155.5 473.342 1155.5 468.212Z" stroke="#C00000" stroke-width="1.33333" stroke-miterlimit="8" stroke-dasharray="5.33333 4" fill="#1C1E2C" fill-rule="evenodd"/><text fill="#FFFFFF" font-family="DengXian,DengXian_MSFontService,sans-serif" font-weight="400" font-size="14" transform="translate(1170.46 460)">Refund</text><path d="M1034.5 446.788C1034.5 441.659 1038.66 437.5 1043.79 437.5L1102.21 437.5C1107.34 437.5 1111.5 441.659 1111.5 446.788L1111.5 470.212C1111.5 475.342 1107.34 479.5 1102.21 479.5L1043.79 479.5C1038.66 479.5 1034.5 475.342 1034.5 470.212Z" stroke="#BF9000" stroke-width="1.33333" stroke-miterlimit="8" stroke-dasharray="5.33333 4" fill="#1C1E2C" fill-rule="evenodd"/><text fill="#FFFFFF" font-family="DengXian,DengXian_MSFontService,sans-serif" font-weight="400" font-size="14" transform="translate(1047.65 462)">Rewards</text><path d="M0-0.333333 77.1356-0.333333 77.1356 43.0429 76.8023 42.7096 146.938 42.7096 146.938 43.3763 76.469 43.3763 76.469 0 76.8023 0.333333 0 0.333333ZM145.605 39.0429 153.605 43.0429 145.605 47.0429Z" fill="#00B0F0" transform="matrix(1.83697e-16 1 1 -1.83697e-16 1030.5 283.5)"/><path d="M0-0.333333 76.1412-0.333333 76.1412 162.021 75.8079 161.687 144.949 161.687 144.949 162.354 75.4745 162.354 75.4745 0 75.8079 0.333333 0 0.333333ZM143.616 158.021 151.616 162.021 143.616 166.021Z" fill="#00B0F0" transform="matrix(1.83697e-16 1 1 -1.83697e-16 1030.5 283.5)"/><text fill="#B4C7E7" font-family="DengXian,DengXian_MSFontService,sans-serif" font-weight="400" font-size="14" transform="translate(1173.88 506)">Agree</text><text fill="#B4C7E7" font-family="DengXian,DengXian_MSFontService,sans-serif" font-weight="400" font-size="14" transform="translate(1057.45 500)">Refuse</text><text fill="#B4C7E7" font-family="DengXian,DengXian_MSFontService,sans-serif" font-weight="400" font-size="14" transform="translate(1074.7 517)">/</text><text fill="#B4C7E7" font-family="DengXian,DengXian_MSFontService,sans-serif" font-weight="400" font-size="14" transform="translate(1057.36 534)">Cancel</text><path d="M1127.5 199.83C1127.5 193.02 1133.02 187.5 1139.83 187.5L1215.17 187.5C1221.98 187.5 1227.5 193.02 1227.5 199.83L1227.5 211.17C1227.5 217.98 1221.98 223.5 1215.17 223.5L1139.83 223.5C1133.02 223.5 1127.5 217.98 1127.5 211.17Z" stroke="#8497B0" stroke-width="1.33333" stroke-miterlimit="8" fill="#00B050" fill-rule="evenodd"/><text fill="#FFFFFF" font-family="DengXian,DengXian_MSFontService,sans-serif" font-weight="700" font-size="14" transform="translate(1145.45 209)">Published</text><path d="M1072.5 205.167 1120.36 205.167 1120.36 205.833 1072.5 205.833ZM1119.02 201.5 1127.02 205.5 1119.02 209.5Z" fill="#00B0F0"/></g></svg>