<svg width="1280" height="720" xmlns="http://www.w3.org/2000/svg" xmlns:xlink="http://www.w3.org/1999/xlink" overflow="hidden"><g><rect x="0" y="0" width="1280" height="720" fill="#131321"/><text fill="#FFFFFF" font-family="Calibri,Calibri_MSFontService,sans-serif" font-weight="700" font-size="24" transform="translate(471.312 79)">Confidentiality Fee</text><text fill="#FFFFFF" font-family="DengXian,DengXian_MSFontService,sans-serif" font-weight="700" font-size="24" transform="translate(663.445 79)">Allocation</text><rect x="334.5" y="574.5" width="159" height="27" stroke="#4472C4" stroke-linejoin="round" stroke-miterlimit="10" fill="#2D3049"/><text fill="#FFFFFF" font-family="Microsoft YaHei,Microsoft YaHei_MSFontService,sans-serif" font-weight="400" font-size="14.6667" transform="translate(356.083 593)">Publish Rewards</text><path d="M0-1 38.8339-1 38.8339 190.392 36.8339 190.392 36.8339 0 37.8339 1 0 1ZM41.8339 189.059 37.8339 197.059 33.8339 189.059Z" fill="#4472C4" transform="matrix(1.83697e-16 1 1 -1.83697e-16 608 424)"/><path d="M608.704 361 608.704 463.585 455.667 463.585 455.667 461.585 607.704 461.585 606.704 462.585 606.704 361ZM457 466.585 449 462.585 457 458.585Z" fill="#4472C4"/><path d="M842 478 842 567.893 840 567.893 840 478ZM845 566.56 841 574.56 837 566.56Z" fill="#4472C4"/><path d="M543.5 408.5C543.5 399.664 550.663 392.5 559.5 392.5L658.5 392.5C667.337 392.5 674.5 399.664 674.5 408.5L674.5 408.5C674.5 417.337 667.337 424.5 658.5 424.5L559.5 424.5C550.663 424.5 543.5 417.337 543.5 408.5Z" stroke="#8497B0" stroke-width="1.33333" stroke-miterlimit="8" fill="#2D3049" fill-rule="evenodd"/><text fill="#FFFFFF" font-family="Microsoft YaHei,Microsoft YaHei_MSFontService,sans-serif" font-weight="400" font-size="14.6667" transform="translate(558.398 413)">Amount 100%</text><path d="M537.5 323.167C537.5 318.933 540.933 315.5 545.167 315.5L671.833 315.5C676.068 315.5 679.5 318.933 679.5 323.167L679.5 353.833C679.5 358.068 676.068 361.5 671.833 361.5L545.167 361.5C540.933 361.5 537.5 358.068 537.5 353.833Z" stroke="#2F528F" stroke-width="1.33333" stroke-miterlimit="8" fill="#204367" fill-rule="evenodd"/><text fill="#FFFFFF" font-family="Calibri,Calibri_MSFontService,sans-serif" font-weight="400" font-size="16" transform="translate(560.132 334)">Confidentiality</text><text fill="#FFFFFF" font-family="Microsoft YaHei,Microsoft YaHei_MSFontService,sans-serif" font-weight="400" font-size="16" transform="translate(594.258 354)">Fee</text><path d="M377.5 451.834C377.5 448.888 379.888 446.5 382.834 446.5L444.167 446.5C447.112 446.5 449.5 448.888 449.5 451.834L449.5 473.167C449.5 476.112 447.112 478.5 444.167 478.5L382.834 478.5C379.888 478.5 377.5 476.112 377.5 473.167Z" stroke="#2F528F" stroke-width="1.33333" stroke-miterlimit="8" fill="#00B050" fill-rule="evenodd"/><text fill="#FFFFFF" font-family="Microsoft YaHei,Microsoft YaHei_MSFontService,sans-serif" font-weight="400" font-size="16" transform="translate(401.15 468)">5%</text><path d="M806.5 451.834C806.5 448.888 808.888 446.5 811.833 446.5L872.167 446.5C875.112 446.5 877.5 448.888 877.5 451.834L877.5 473.167C877.5 476.112 875.112 478.5 872.167 478.5L811.833 478.5C808.888 478.5 806.5 476.112 806.5 473.167Z" stroke="#2F528F" stroke-width="1.33333" stroke-miterlimit="8" fill="#BF9000" fill-rule="evenodd"/><text fill="#FFFFFF" font-family="Microsoft YaHei,Microsoft YaHei_MSFontService,sans-serif" font-weight="400" font-size="16" transform="translate(829.697 468)">5%</text><path d="M413.833 478.499 414.236 570.175 413.57 570.178 413.167 478.502ZM417.897 568.825 413.932 576.843 409.897 568.86Z" fill="#4472C4"/><rect x="709" y="430" width="84" height="26" fill="#333F50"/><text fill="#FFFFFF" font-family="DengXian,DengXian_MSFontService,sans-serif" font-weight="400" font-size="13.3333" transform="translate(718.263 447)">Service fee</text><rect x="806.5" y="574.5" width="71" height="27" stroke="#4472C4" stroke-linejoin="round" stroke-miterlimit="10" fill="#2D3049"/><text fill="#FFFFFF" font-family="Microsoft YaHei,Microsoft YaHei_MSFontService,sans-serif" font-weight="400" font-size="14.6667" transform="translate(824.698 593)">DAO</text><path d="M537.5 173C537.5 166.649 542.649 161.5 549 161.5L668 161.5C674.351 161.5 679.5 166.649 679.5 173L679.5 219C679.5 225.351 674.351 230.5 668 230.5L549 230.5C542.649 230.5 537.5 225.351 537.5 219Z" stroke="#2F528F" stroke-width="1.33333" stroke-miterlimit="8" fill="#203864" fill-rule="evenodd"/><text fill="#FFFFFF" font-family="DengXian,DengXian_MSFontService,sans-serif" font-weight="400" font-size="18.6667" transform="translate(568.928 190)">Truth Box</text><text fill="#FFFFFF" font-family="DengXian,DengXian_MSFontService,sans-serif" font-weight="400" font-size="18.6667" transform="translate(571.515 213)">(Secrecy)</text><path d="M608.833 230.5 608.833 309.242 608.167 309.242 608.167 230.5ZM612.5 307.908 608.5 315.908 604.5 307.908Z" fill="#4472C4"/><path d="M0.00436297-0.333305 159.408 1.7533 159.4 2.41991-0.00436297 0.333305ZM158.123-1.93051 166.07 2.17386 158.018 6.0688Z" fill="#4472C4" transform="matrix(1 0 0 -1 679.5 338.674)"/><path d="M845.5 336.5C845.5 327.664 852.664 320.5 861.5 320.5L971.5 320.5C980.337 320.5 987.5 327.664 987.5 336.5L987.5 336.5C987.5 345.337 980.337 352.5 971.5 352.5L861.5 352.5C852.664 352.5 845.5 345.337 845.5 336.5Z" stroke="#8497B0" stroke-width="1.33333" stroke-miterlimit="8" fill="#2D3049" fill-rule="evenodd"/><text fill="#FFFFFF" font-family="DengXian,DengXian_MSFontService,sans-serif" font-weight="400" font-size="14.6667" transform="translate(858.921 341)">Deadline + 1 year</text><rect x="258" y="315" width="207" height="46" fill="#333F50"/><text fill="#FFFFFF" font-family="Calibri,Calibri_MSFontService,sans-serif" font-weight="400" font-size="14.6667" transform="translate(267.565 334)">Increased annually according to</text><text fill="#FFFFFF" font-family="Calibri,Calibri_MSFontService,sans-serif" font-weight="400" font-size="14.6667" transform="translate(267.565 351)">the fee rate.</text><path d="M0 0 71.0073 0.000104987" stroke="#4472C4" stroke-width="0.666667" stroke-miterlimit="8" fill="none" fill-rule="evenodd" transform="matrix(-1 0 0 1 536.507 338.5)"/><rect x="573.5" y="575.5" width="71" height="28" stroke="#4472C4" stroke-linejoin="round" stroke-miterlimit="10" fill="#2D3049"/><text fill="#FFFFFF" font-family="Microsoft YaHei,Microsoft YaHei_MSFontService,sans-serif" font-weight="400" font-size="14.6667" transform="translate(585.148 594)">Minter</text><path d="M573.5 452.834C573.5 449.888 575.888 447.5 578.833 447.5L639.167 447.5C642.112 447.5 644.5 449.888 644.5 452.834L644.5 474.167C644.5 477.112 642.112 479.5 639.167 479.5L578.833 479.5C575.888 479.5 573.5 477.112 573.5 474.167Z" stroke="#2F528F" stroke-width="1.33333" stroke-miterlimit="8" fill="#7030A0" fill-rule="evenodd"/><text fill="#FFFFFF" font-family="Microsoft YaHei,Microsoft YaHei_MSFontService,sans-serif" font-weight="400" font-size="16" transform="translate(592.065 469)">90%</text><path d="M608.833 479.499 609.236 571.175 608.57 571.178 608.167 479.502ZM612.897 569.825 608.932 577.843 604.897 569.86Z" fill="#4472C4"/><rect x="293" y="616" width="235" height="45" fill="#333F50"/><text fill="#FFFFFF" font-family="Calibri,Calibri_MSFontService,sans-serif" font-weight="400" font-size="14.6667" transform="translate(302.372 635)">Reward the person who executes</text><text fill="#FFFFFF" font-family="Calibri,Calibri_MSFontService,sans-serif" font-weight="400" font-size="14.6667" transform="translate(302.372 652)">Public: minter</text><text fill="#FFFFFF" font-family="DengXian,DengXian_MSFontService,sans-serif" font-weight="400" font-size="14.6667" transform="translate(385.372 652)">、</text><text fill="#FFFFFF" font-family="Calibri,Calibri_MSFontService,sans-serif" font-weight="400" font-size="14.6667" transform="translate(400.039 652)">buyer</text><text fill="#FFFFFF" font-family="DengXian,DengXian_MSFontService,sans-serif" font-weight="400" font-size="14.6667" transform="translate(434.539 652)">、</text><text fill="#FFFFFF" font-family="Calibri,Calibri_MSFontService,sans-serif" font-weight="400" font-size="14.6667" transform="translate(449.206 652)">DAO</text></g></svg>