<svg width="1280" height="720" xmlns="http://www.w3.org/2000/svg" xmlns:xlink="http://www.w3.org/1999/xlink" overflow="hidden"><g><rect x="0" y="0" width="1280" height="720" fill="#131321"/><path d="M480 185.168C480 155.252 504.252 131 534.168 131L750.832 131C780.748 131 805 155.252 805 185.168L805 513.832C805 543.748 780.748 568 750.832 568L534.168 568C504.252 568 480 543.748 480 513.832Z" stroke="#2F5597" stroke-width="2" stroke-miterlimit="8" stroke-dasharray="8 6" fill="#18192E" fill-rule="evenodd"/><path d="M522 343.477C522 334.929 528.929 328 537.477 328L739.523 328C748.071 328 755 334.929 755 343.477L755 423.523C755 432.071 748.071 439 739.523 439L537.477 439C528.929 439 522 432.071 522 423.523Z" stroke="#8497B0" stroke-width="2" stroke-miterlimit="8" fill="#222A35" fill-rule="evenodd"/><text fill="#8497B0" font-family="DengXian,DengXian_MSFontService,sans-serif" font-weight="400" font-size="21.3333" transform="translate(593.444 352)">Web</text><text fill="#8497B0" font-family="DengXian,DengXian_MSFontService,sans-serif" font-weight="400" font-size="21.3333" transform="translate(641.944 352)">dapp</text><text fill="#FFFFFF" font-family="DengXian,DengXian_MSFontService,sans-serif" font-weight="700" font-size="24" transform="translate(541.936 68)">Main Components</text><path d="M97 194.334C97 182.551 106.551 173 118.334 173L363.666 173C375.448 173 385 182.551 385 194.334L385 279.666C385 291.448 375.448 301 363.666 301L118.334 301C106.551 301 97 291.448 97 279.666Z" stroke="#2F5597" stroke-width="2" stroke-miterlimit="8" stroke-dasharray="8 6" fill="none" fill-rule="evenodd"/><path d="M670.5 220.167C670.5 215.38 674.38 211.5 679.167 211.5L771.833 211.5C776.62 211.5 780.5 215.38 780.5 220.167L780.5 254.833C780.5 259.62 776.62 263.5 771.833 263.5L679.167 263.5C674.38 263.5 670.5 259.62 670.5 254.833Z" stroke="#2F528F" stroke-width="1.33333" stroke-miterlimit="8" fill="#7F6000" fill-rule="evenodd"/><text fill="#FFFFFF" font-family="Microsoft YaHei,Microsoft YaHei_MSFontService,sans-serif" font-weight="400" font-size="16" transform="translate(689.752 242)">IPFS / AR</text><path d="M506.5 220.167C506.5 215.38 510.38 211.5 515.167 211.5L600.833 211.5C605.62 211.5 609.5 215.38 609.5 220.167L609.5 254.833C609.5 259.62 605.62 263.5 600.833 263.5L515.167 263.5C510.38 263.5 506.5 259.62 506.5 254.833Z" stroke="#2F528F" stroke-width="1.33333" stroke-miterlimit="8" fill="#204367" fill-rule="evenodd"/><text fill="#FFFFFF" font-family="DengXian,DengXian_MSFontService,sans-serif" font-weight="400" font-size="18.6667" transform="translate(534.263 232)">Smart</text><text fill="#FFFFFF" font-family="DengXian,DengXian_MSFontService,sans-serif" font-weight="400" font-size="18.6667" transform="translate(523.43 255)">Contract</text><path d="M897 199.334C897 188.656 905.656 180 916.334 180L1161.67 180C1172.34 180 1181 188.656 1181 199.334L1181 276.666C1181 287.344 1172.34 296 1161.67 296L916.334 296C905.656 296 897 287.344 897 276.666Z" stroke="#2F5597" stroke-width="2" stroke-miterlimit="8" stroke-dasharray="8 6" fill="none" fill-rule="evenodd"/><path d="M897 368.667C897 360.014 904.014 353 912.667 353L1175.33 353C1183.99 353 1191 360.014 1191 368.667L1191 431.333C1191 439.986 1183.99 447 1175.33 447L912.667 447C904.014 447 897 439.986 897 431.333Z" stroke="#2F5597" stroke-width="2" stroke-miterlimit="8" stroke-dasharray="8 6" fill="none" fill-rule="evenodd"/><path d="M642.5 383.167C642.5 378.38 646.38 374.5 651.167 374.5L736.833 374.5C741.62 374.5 745.5 378.38 745.5 383.167L745.5 417.833C745.5 422.62 741.62 426.5 736.833 426.5L651.167 426.5C646.38 426.5 642.5 422.62 642.5 417.833Z" stroke="#C55A11" stroke-width="1.33333" stroke-miterlimit="8" fill="#0D0D0D" fill-rule="evenodd"/><text fill="#FFFFFF" font-family="DengXian,DengXian_MSFontService,sans-serif" font-weight="400" font-size="14.6667" transform="translate(658.275 396)">AES+ECDH</text><text fill="#FFFFFF" font-family="DengXian,DengXian_MSFontService,sans-serif" font-weight="400" font-size="14.6667" transform="translate(660.442 413)">Encryption</text><text fill="#FFFFFF" font-family="Microsoft YaHei,Microsoft YaHei_MSFontService,sans-serif" font-weight="400" font-size="18.6667" transform="translate(582.66 175)">Truth Market</text><path d="M0.333344 6.66666 0.333427 57.9697-0.333239 57.9697-0.333322 6.66666ZM-3.99999 8.00001 0 0 4.00001 7.99999ZM4.00009 56.6363 0.000104987 64.6363-3.99991 56.6363Z" fill="#00B0F0" transform="matrix(1 0 0 -1 725.5 328.136)"/><path d="M558.833 270.167 558.833 321.47 558.167 321.47 558.167 270.167ZM554.5 271.5 558.5 263.5 562.5 271.5ZM562.5 320.136 558.5 328.136 554.5 320.136Z" fill="#00B0F0"/><text fill="#AFABAB" font-family="DengXian,DengXian_MSFontService,sans-serif" font-weight="400" font-size="14.6667" transform="translate(127.492 203)">1</text><text fill="#AFABAB" font-family="DengXian,DengXian_MSFontService,sans-serif" font-weight="400" font-size="14.6667" transform="translate(135.159 203)">，</text><text fill="#AFABAB" font-family="DengXian,DengXian_MSFontService,sans-serif" font-weight="400" font-size="14.6667" transform="translate(149.826 203)">Implement the core functions of</text><text fill="#AFABAB" font-family="DengXian,DengXian_MSFontService,sans-serif" font-weight="400" font-size="14.6667" transform="translate(127.492 220)">Truth Market and token economy</text><text fill="#AFABAB" font-family="DengXian,DengXian_MSFontService,sans-serif" font-weight="400" font-size="14.6667" transform="translate(127.492 255)">2</text><text fill="#AFABAB" font-family="DengXian,DengXian_MSFontService,sans-serif" font-weight="400" font-size="14.6667" transform="translate(135.159 255)">，</text><text fill="#AFABAB" font-family="DengXian,DengXian_MSFontService,sans-serif" font-weight="400" font-size="14.6667" transform="translate(149.826 255)">DAO community governance</text><text fill="#AFABAB" font-family="DengXian,DengXian_MSFontService,sans-serif" font-weight="400" font-size="14.6667" transform="translate(127.492 273)">contract</text><path d="M506.222 237.5 385.5 237.5" stroke="#00B0F0" stroke-width="0.666667" stroke-miterlimit="8" fill="none" fill-rule="evenodd"/><path d="M780.5 237.5 897.373 238.382" stroke="#00B0F0" stroke-width="0.666667" stroke-miterlimit="8" fill="none" fill-rule="evenodd"/><path d="M0 0 75.7332 0 75.7332 0.143937 151.466 0.143937" stroke="#00B0F0" stroke-width="0.666667" stroke-miterlimit="8" fill="none" fill-rule="evenodd" transform="matrix(1 0 0 -1 745.5 400.644)"/><path d="M97 370C97 361.716 103.716 355 112 355L370 355C378.284 355 385 361.716 385 370L385 430C385 438.284 378.284 445 370 445L112 445C103.716 445 97 438.284 97 430Z" stroke="#2F5597" stroke-width="2" stroke-miterlimit="8" stroke-dasharray="8 6" fill="none" fill-rule="evenodd"/><path d="M530.5 383.167C530.5 378.38 534.38 374.5 539.167 374.5L624.833 374.5C629.62 374.5 633.5 378.38 633.5 383.167L633.5 417.833C633.5 422.62 629.62 426.5 624.833 426.5L539.167 426.5C534.38 426.5 530.5 422.62 530.5 417.833Z" stroke="#C55A11" stroke-width="1.33333" stroke-miterlimit="8" fill="#0D0D0D" fill-rule="evenodd"/><text fill="#FFFFFF" font-family="Calibri,Calibri_MSFontService,sans-serif" font-weight="400" font-size="14.6667" transform="translate(552.176 396)">Threshold</text><text fill="#FFFFFF" font-family="Calibri,Calibri_MSFontService,sans-serif" font-weight="400" font-size="14.6667" transform="translate(552.342 413)">Algorithm</text><path d="M530.302 400.644 457.901 400.644 457.901 400.5 385.5 400.5" stroke="#00B0F0" stroke-width="0.666667" stroke-miterlimit="8" fill="none" fill-rule="evenodd"/><text fill="#AFABAB" font-family="DengXian,DengXian_MSFontService,sans-serif" font-weight="400" font-size="14.6667" transform="translate(924.255 222)">1, Store criminal evidence files</text><text fill="#AFABAB" font-family="DengXian,DengXian_MSFontService,sans-serif" font-weight="400" font-size="14.6667" transform="translate(924.255 239)">2, Store encrypted data related to</text><text fill="#AFABAB" font-family="DengXian,DengXian_MSFontService,sans-serif" font-weight="400" font-size="14.6667" transform="translate(924.255 257)">transactions</text><text fill="#AFABAB" font-family="DengXian,DengXian_MSFontService,sans-serif" font-weight="400" font-size="14.6667" transform="translate(916.55 395)">Generate key pairs to encrypt and</text><text fill="#AFABAB" font-family="DengXian,DengXian_MSFontService,sans-serif" font-weight="400" font-size="14.6667" transform="translate(916.55 412)">decrypt criminal evidence files.</text><text fill="#AFABAB" font-family="DengXian,DengXian_MSFontService,sans-serif" font-weight="400" font-size="14.6667" transform="translate(120.919 397)">DAO review transaction voting</text><path d="M583.5 490.167C583.5 485.38 587.38 481.5 592.167 481.5L685.833 481.5C690.62 481.5 694.5 485.38 694.5 490.167L694.5 524.833C694.5 529.62 690.62 533.5 685.833 533.5L592.167 533.5C587.38 533.5 583.5 529.62 583.5 524.833Z" stroke="#2F528F" stroke-width="1.33333" stroke-miterlimit="8" fill="#993366" fill-rule="evenodd"/><text fill="#FFFFFF" font-family="Microsoft YaHei,Microsoft YaHei_MSFontService,sans-serif" font-weight="400" font-size="16" transform="translate(598.694 512)">The Graph</text><path d="M0.33335 6.66667 0.333422 35.6117-0.333245 35.6117-0.333317 6.66667ZM-3.99998 8.00001 0 0 4.00002 7.99999ZM4.00009 34.2783 0.000104987 42.2783-3.99991 34.2783Z" fill="#00B0F0" transform="matrix(1 0 0 -1 638.5 481.778)"/><path d="M897 548.667C897 540.014 904.014 533 912.667 533L1175.33 533C1183.99 533 1191 540.014 1191 548.667L1191 611.333C1191 619.986 1183.99 627 1175.33 627L912.667 627C904.014 627 897 619.986 897 611.333Z" stroke="#2F5597" stroke-width="2" stroke-miterlimit="8" stroke-dasharray="8 6" fill="none" fill-rule="evenodd"/><text fill="#AFABAB" font-family="DengXian,DengXian_MSFontService,sans-serif" font-weight="400" font-size="14.6667" transform="translate(916.55 584)">Blockchain data index support</text><path d="M0 0 47.1023 0 47.1023 258.294" stroke="#00B0F0" stroke-width="0.666667" stroke-miterlimit="8" fill="none" fill-rule="evenodd" transform="matrix(1.83697e-16 1 1 -1.83697e-16 638.5 533.5)"/></g></svg>