<svg width="832" height="567" xmlns="http://www.w3.org/2000/svg" xmlns:xlink="http://www.w3.org/1999/xlink" overflow="hidden"><defs><clipPath id="clip0"><rect x="0" y="0" width="832" height="567"/></clipPath></defs><g clip-path="url(#clip0)"><rect x="0" y="0" width="832" height="566.659" fill="#131321"/><path d="M62.5 288.16C62.5 283.285 66.4549 279.332 71.3335 279.332L157.666 279.332C162.545 279.332 166.5 283.285 166.5 288.16L166.5 323.472C166.5 328.348 162.545 332.3 157.666 332.3L71.3335 332.3C66.4549 332.3 62.5 328.348 62.5 323.472Z" stroke="#C04F15" stroke-width="1.33414" stroke-miterlimit="8" fill="#0D0D0D" fill-rule="evenodd"/><text fill="#FFFFFF" font-family="Aptos,Aptos_MSFontService,sans-serif" font-weight="400" font-size="14.6667" transform="matrix(1 0 0 0.999399 78.1545 302)">AES+ECDH</text><text fill="#FFFFFF" font-family="Aptos,Aptos_MSFontService,sans-serif" font-weight="400" font-size="14.6667" transform="matrix(1 0 0 0.999399 89.8282 319)">Encrypt</text><path d="M47 239.892C47 231.041 54.1795 223.865 63.0357 223.865L164.964 223.865C173.821 223.865 181 231.041 181 239.892L181 329.766C181 338.617 173.821 345.792 164.964 345.792L63.0357 345.792C54.1795 345.792 47 338.617 47 329.766Z" stroke="#215F9A" stroke-width="2.0012" stroke-miterlimit="8" stroke-dasharray="8.00481 6.00361" fill="none" fill-rule="evenodd"/><text fill="#FFFFFF" font-family="Aptos,Aptos_MSFontService,sans-serif" font-weight="400" font-size="16" transform="matrix(1 0 0 0.999399 81.2276 252)">generate</text><path d="M214 273.496C214 264.852 221.011 257.845 229.661 257.845L287.339 257.845C295.989 257.845 303 264.852 303 273.496L303 293.163C303 301.807 295.989 308.814 287.339 308.814L229.661 308.814C221.011 308.814 214 301.807 214 293.163Z" stroke="#CC3300" stroke-width="2.0012" stroke-miterlimit="8" stroke-dasharray="8.00481 6.00361" fill="#3B7D23" fill-rule="evenodd"/><text fill="#FFFFFF" font-family="Aptos,Aptos_MSFontService,sans-serif" font-weight="400" font-size="14" transform="matrix(1 0 0 0.999399 236.799 280)">Official</text><text fill="#FFFFFF" font-family="Aptos,Aptos_MSFontService,sans-serif" font-weight="400" font-size="14" transform="matrix(1 0 0 0.999399 234.798 297)">Key pair</text><path d="M0.0306635-0.99953 27.165-0.167103 27.1037 1.83196-0.0306635 0.99953ZM25.9243-3.20658 33.7979 1.03685 25.679 4.78966Z" fill="#00B0F0" transform="matrix(1.0006 0 0 -1 181 284.866)"/><path d="M303 282.829 324.433 282.829 324.433 285.163 323.432 284.163 337.193 284.163 337.193 286.163 322.431 286.163 322.431 283.829 323.432 284.829 303 284.829ZM335.859 281.163 343.864 285.163 335.859 289.163Z" fill="#00B0F0"/><path d="M361.5 256.202C361.5 252.418 364.569 249.35 368.356 249.35L426.644 249.35C430.431 249.35 433.5 252.418 433.5 256.202L433.5 273.48C433.5 277.264 430.431 280.331 426.644 280.331L368.356 280.331C364.569 280.331 361.5 277.264 361.5 273.48Z" stroke="#92D050" stroke-width="1.33414" stroke-miterlimit="8" fill="#1C1E2C" fill-rule="evenodd"/><text fill="#FFFFFF" font-family="Aptos,Aptos_MSFontService,sans-serif" font-weight="400" font-size="14" transform="matrix(1 0 0 0.999399 373.171 269)">Key pair</text><path d="M344 184.806C344 168.845 356.946 155.906 372.917 155.906L535.083 155.906C551.054 155.906 564 168.845 564 184.806L564 382.853C564 398.814 551.054 411.752 535.083 411.752L372.917 411.752C356.946 411.752 344 398.814 344 382.853Z" stroke="#215F9A" stroke-width="2.0012" stroke-miterlimit="8" stroke-dasharray="8.00481 6.00361" fill="none" fill-rule="evenodd"/><path d="M399.5 184.889C399.5 180.197 403.306 176.394 408 176.394L494 176.394C498.694 176.394 502.5 180.197 502.5 184.889L502.5 218.868C502.5 223.56 498.694 227.363 494 227.363L408 227.363C403.306 227.363 399.5 223.56 399.5 218.868Z" stroke="#C04F15" stroke-width="1.33414" stroke-miterlimit="8" fill="#0D0D0D" fill-rule="evenodd"/><text fill="#FFFFFF" font-family="Calibri,Calibri_MSFontService,sans-serif" font-weight="400" font-size="14.6667" transform="matrix(1 0 0 0.999399 421.111 197)">Threshold</text><text fill="#FFFFFF" font-family="Calibri,Calibri_MSFontService,sans-serif" font-weight="400" font-size="14.6667" transform="matrix(1 0 0 0.999399 421.278 214)">Algorithm</text><path d="M377.5 272.192C377.5 268.408 380.569 265.34 384.356 265.34L442.644 265.34C446.431 265.34 449.5 268.408 449.5 272.192L449.5 289.47C449.5 293.254 446.431 296.322 442.644 296.322L384.356 296.322C380.569 296.322 377.5 293.254 377.5 289.47Z" stroke="#92D050" stroke-width="1.33414" stroke-miterlimit="8" fill="#1C1E2C" fill-rule="evenodd"/><text fill="#FFFFFF" font-family="Aptos,Aptos_MSFontService,sans-serif" font-weight="400" font-size="14" transform="matrix(1 0 0 0.999399 389.18 285)">Key pair</text><path d="M393.5 288.182C393.5 284.398 396.569 281.331 400.356 281.331L458.644 281.331C462.431 281.331 465.5 284.398 465.5 288.182L465.5 305.461C465.5 309.245 462.431 312.312 458.644 312.312L400.356 312.312C396.569 312.312 393.5 309.245 393.5 305.461Z" stroke="#92D050" stroke-width="1.33414" stroke-miterlimit="8" fill="#1C1E2C" fill-rule="evenodd"/><text fill="#FFFFFF" font-family="Aptos,Aptos_MSFontService,sans-serif" font-weight="400" font-size="14" transform="matrix(1 0 0 0.999399 405.19 301)">Key pair</text><path d="M409.5 304.173C409.5 300.389 412.569 297.321 416.356 297.321L474.644 297.321C478.431 297.321 481.5 300.389 481.5 304.173L481.5 321.451C481.5 325.235 478.431 328.303 474.644 328.303L416.356 328.303C412.569 328.303 409.5 325.235 409.5 321.451Z" stroke="#92D050" stroke-width="1.33414" stroke-miterlimit="8" fill="#1C1E2C" fill-rule="evenodd"/><text fill="#FFFFFF" font-family="Aptos,Aptos_MSFontService,sans-serif" font-weight="400" font-size="14" transform="matrix(1 0 0 0.999399 421.2 317)">Key pair</text><path d="M425.5 320.163C425.5 316.379 428.569 313.312 432.356 313.312L490.644 313.312C494.431 313.312 497.5 316.379 497.5 320.163L497.5 337.441C497.5 341.225 494.431 344.293 490.644 344.293L432.356 344.293C428.569 344.293 425.5 341.225 425.5 337.441Z" stroke="#92D050" stroke-width="1.33414" stroke-miterlimit="8" fill="#1C1E2C" fill-rule="evenodd"/><text fill="#FFFFFF" font-family="Aptos,Aptos_MSFontService,sans-serif" font-weight="400" font-size="14" transform="matrix(1 0 0 0.999399 437.209 333)">Key pair</text><path d="M441.5 336.154C441.5 332.369 444.569 329.302 448.356 329.302L506.644 329.302C510.431 329.302 513.5 332.369 513.5 336.154L513.5 353.432C513.5 357.216 510.431 360.283 506.644 360.283L448.356 360.283C444.569 360.283 441.5 357.216 441.5 353.432Z" stroke="#92D050" stroke-width="1.33414" stroke-miterlimit="8" fill="#1C1E2C" fill-rule="evenodd"/><text fill="#FFFFFF" font-family="Aptos,Aptos_MSFontService,sans-serif" font-weight="400" font-size="14" transform="matrix(1 0 0 0.999399 453.219 349)">Key pair</text><path d="M457.5 352.365C457.5 348.459 460.668 345.292 464.577 345.292L522.423 345.292C526.332 345.292 529.5 348.459 529.5 352.365L529.5 370.201C529.5 374.107 526.332 377.273 522.423 377.273L464.577 377.273C460.668 377.273 457.5 374.107 457.5 370.201Z" stroke="#92D050" stroke-width="1.33414" stroke-miterlimit="8" fill="#1C1E2C" fill-rule="evenodd"/><text fill="#FFFFFF" font-family="Aptos,Aptos_MSFontService,sans-serif" font-weight="400" font-size="14" transform="matrix(1 0 0 0.999399 469.228 365)">Key pair</text><path d="M473.5 368.355C473.5 364.449 476.668 361.283 480.577 361.283L538.423 361.283C542.332 361.283 545.5 364.449 545.5 368.355L545.5 386.191C545.5 390.097 542.332 393.263 538.423 393.263L480.577 393.263C476.668 393.263 473.5 390.097 473.5 386.191Z" stroke="#92D050" stroke-width="1.33414" stroke-miterlimit="8" fill="#1C1E2C" fill-rule="evenodd"/><text fill="#FFFFFF" font-family="Aptos,Aptos_MSFontService,sans-serif" font-weight="400" font-size="14" transform="matrix(1 0 0 0.999399 485.238 381)">Key pair</text><path d="M613 195.716C613 180.905 625.014 168.898 639.834 168.898L747.166 168.898C761.986 168.898 774 180.905 774 195.716L774 371.943C774 386.753 761.986 398.76 747.166 398.76L639.834 398.76C625.014 398.76 613 386.753 613 371.943Z" stroke="#215F9A" stroke-width="2.0012" stroke-miterlimit="8" stroke-dasharray="8.00481 6.00361" fill="none" fill-rule="evenodd"/><g><g><g><path d="M94.8805 85.8443C94.8805 87.6266 93.4356 89.0715 91.6533 89.0715 89.8709 89.0715 88.4261 87.6266 88.4261 85.8443 88.4261 84.0619 89.8709 82.617 91.6533 82.617 93.4356 82.617 94.8805 84.0619 94.8805 85.8443Z" fill="#532CE2" transform="matrix(1.0006 0 0 1 631 258.844)"/><path d="M109.08 85.8443C109.08 87.6266 107.635 89.0715 105.853 89.0715 104.071 89.0715 102.626 87.6266 102.626 85.8443 102.626 84.0619 104.071 82.617 105.853 82.617 107.635 82.617 109.08 84.0619 109.08 85.8443Z" fill="#532CE2" transform="matrix(1.0006 0 0 1 631 258.844)"/><path d="M66.4809 85.8443C66.4809 87.6266 65.036 89.0715 63.2537 89.0715 61.4713 89.0715 60.0264 87.6266 60.0264 85.8443 60.0264 84.0619 61.4713 82.617 63.2537 82.617 65.036 82.617 66.4809 84.0619 66.4809 85.8443Z" fill="#532CE2" transform="matrix(1.0006 0 0 1 631 258.844)"/><path d="M80.6807 85.8443C80.6807 87.6266 79.2358 89.0715 77.4535 89.0715 75.6711 89.0715 74.2262 87.6266 74.2262 85.8443 74.2262 84.0619 75.6711 82.617 77.4535 82.617 79.2358 82.617 80.6807 84.0619 80.6807 85.8443Z" fill="#532CE2" transform="matrix(1.0006 0 0 1 631 258.844)"/><path d="M38.0813 85.8443C38.0813 87.6266 36.6364 89.0715 34.8541 89.0715 33.0717 89.0715 31.6268 87.6266 31.6268 85.8443 31.6268 84.0619 33.0717 82.617 34.8541 82.617 36.6364 82.617 38.0813 84.0619 38.0813 85.8443Z" fill="#532CE2" transform="matrix(1.0006 0 0 1 631 258.844)"/><path d="M52.2811 85.8443C52.2811 87.6266 50.8362 89.0715 49.0539 89.0715 47.2715 89.0715 45.8266 87.6266 45.8266 85.8443 45.8266 84.0619 47.2715 82.617 49.0539 82.617 50.8362 82.617 52.2811 84.0619 52.2811 85.8443Z" fill="#532CE2" transform="matrix(1.0006 0 0 1 631 258.844)"/><path d="M23.8815 85.8443C23.8815 87.6266 22.4366 89.0715 20.6543 89.0715 18.8719 89.0715 17.427 87.6266 17.427 85.8443 17.427 84.0619 18.8719 82.617 20.6543 82.617 22.4366 82.617 23.8815 84.0619 23.8815 85.8443Z" fill="#532CE2" transform="matrix(1.0006 0 0 1 631 258.844)"/><path d="M114.205 102.832 111.714 93.4347C111.637 93.1691 111.505 92.9226 111.326 92.7118 110.477 91.8268 109.428 91.1582 108.267 90.7626 107.496 90.4726 106.676 90.3367 105.853 90.3624 105.036 90.3608 104.224 90.4961 103.452 90.7626 102.282 91.1535 101.227 91.8276 100.38 92.7247 100.219 92.9433 100.096 93.1878 100.018 93.4476L98.7274 98.2497 97.4365 93.4863C97.3674 93.2204 97.2395 92.9733 97.0621 92.7635 96.2073 91.8789 95.1542 91.2108 93.9898 90.8142 93.2474 90.5143 92.454 90.361 91.6533 90.3624 90.8364 90.363 90.0252 90.4982 89.2522 90.7626 88.0844 91.1505 87.0325 91.8251 86.1928 92.7247 86.0229 92.9395 85.8959 93.1849 85.8185 93.4476L84.5534 98.1077 83.2625 93.4347C83.1861 93.1691 83.0541 92.9226 82.8752 92.7118 82.0259 91.8268 80.9768 91.1582 79.8158 90.7626 79.0611 90.4792 78.2592 90.3434 77.4535 90.3624 76.6363 90.3608 75.8248 90.4961 75.0524 90.7626 73.8822 91.1535 72.8269 91.8276 71.9801 92.7247 71.8193 92.9433 71.6969 93.1878 71.6186 93.4476L70.3278 98.2497 69.0369 93.4863C68.9678 93.2204 68.8399 92.9733 68.6625 92.7635 67.8077 91.8789 66.7546 91.2108 65.5902 90.8142 64.8478 90.5143 64.0544 90.361 63.2537 90.3624 62.4368 90.363 61.6256 90.4982 60.8526 90.7626 59.6847 91.1505 58.6329 91.8251 57.7932 92.7247 57.6233 92.9395 57.4963 93.1849 57.4188 93.4476L56.1538 98.1077 54.8629 93.4347C54.7865 93.1691 54.6545 92.9226 54.4756 92.7118 53.6263 91.8268 52.5772 91.1582 51.4162 90.7626 50.6617 90.4792 49.8596 90.3434 49.0539 90.3624 48.2367 90.3608 47.4252 90.4961 46.6528 90.7626 45.4827 91.1535 44.4273 91.8276 43.5805 92.7247 43.4196 92.9433 43.2974 93.1878 43.219 93.4476L41.9282 98.2497 40.6373 93.4863C40.5682 93.2204 40.4403 92.9733 40.2629 92.7635 39.4081 91.8789 38.355 91.2108 37.1906 90.8142 36.4482 90.5143 35.6548 90.361 34.8541 90.3624 34.0372 90.363 33.226 90.4982 32.453 90.7626 31.2851 91.1505 30.2333 91.8251 29.3936 92.7247 29.2237 92.9395 29.0967 93.1849 29.0192 93.4476L27.7542 98.1077 26.4633 93.4347C26.3869 93.1691 26.2549 92.9226 26.076 92.7118 25.2267 91.8268 24.1776 91.1582 23.0166 90.7626 22.2619 90.4792 21.46 90.3434 20.6543 90.3624 19.8371 90.3608 19.0257 90.4961 18.2532 90.7626 17.0831 91.1535 16.0277 91.8276 15.1809 92.7247 15.02 92.9433 14.8978 93.1878 14.8194 93.4476L12.328 102.832C12.1884 103.532 12.642 104.211 13.3412 104.351 13.9805 104.479 14.6146 104.11 14.8194 103.491L16.7816 96.0939 16.7816 100.147 14.5613 108.435 16.7816 108.435 16.7816 118.762 19.3634 118.762 19.3634 108.435 21.9452 108.435 21.9452 118.762 24.5269 118.762 24.5269 108.435 26.7473 108.435 24.5269 100.147 24.5269 96.0036 26.502 103.491C26.6754 104.182 27.3764 104.602 28.068 104.429 28.5299 104.313 28.8905 103.953 29.0063 103.491L30.9814 96.0036 30.9814 118.762 33.5632 118.762 33.5632 104.562 36.145 104.562 36.145 118.762 38.7267 118.762 38.7267 96.081 40.6889 103.491C40.6889 104.204 41.2668 104.782 41.9798 104.782 42.6927 104.782 43.2707 104.204 43.2707 103.491L45.1812 96.081 45.1812 100.147 42.9609 108.435 45.1812 108.435 45.1812 118.762 47.763 118.762 47.763 108.435 50.3448 108.435 50.3448 118.762 52.9265 118.762 52.9265 108.435 55.1469 108.435 52.9265 100.147 52.9265 96.0036 54.9016 103.491C55.075 104.182 55.7761 104.602 56.4676 104.429 56.9295 104.313 57.2901 103.953 57.4059 103.491L59.381 96.0036 59.381 118.762 61.9628 118.762 61.9628 104.562 64.5446 104.562 64.5446 118.762 67.1264 118.762 67.1264 96.081 69.0885 103.491C69.0885 104.204 69.6664 104.782 70.3794 104.782 71.0924 104.782 71.6703 104.204 71.6703 103.491L73.5808 96.081 73.5808 100.147 71.3605 108.435 73.5808 108.435 73.5808 118.762 76.1626 118.762 76.1626 108.435 78.7444 108.435 78.7444 118.762 81.3261 118.762 81.3261 108.435 83.5465 108.435 81.3261 100.147 81.3261 96.0036 83.3012 103.491C83.4746 104.182 84.1757 104.602 84.8672 104.429 85.3291 104.313 85.6898 103.953 85.8055 103.491L87.7806 96.0036 87.7806 118.762 90.3624 118.762 90.3624 104.562 92.9442 104.562 92.9442 118.762 95.526 118.762 95.526 96.081 97.4881 103.491C97.4881 104.204 98.066 104.782 98.779 104.782 99.492 104.782 100.07 104.204 100.07 103.491L101.98 96.081 101.98 100.147 99.7601 108.435 101.98 108.435 101.98 118.762 104.562 118.762 104.562 108.435 107.144 108.435 107.144 118.762 109.726 118.762 109.726 108.435 111.946 108.435 109.726 100.147 109.726 96.0036 111.701 103.491C111.857 104.071 112.392 104.467 112.992 104.446 113.704 104.426 114.266 103.832 114.246 103.119 114.243 103.022 114.229 102.926 114.205 102.832Z" fill="#532CE2" transform="matrix(1.0006 0 0 1 631 258.844)"/><path d="M91.6533 50.3448C93.4356 50.3448 94.8805 48.8999 94.8805 47.1175 94.8805 45.3352 93.4356 43.8903 91.6533 43.8903 89.8709 43.8903 88.4261 45.3352 88.4261 47.1175 88.4261 48.8999 89.8709 50.3448 91.6533 50.3448Z" fill="#532CE2" transform="matrix(1.0006 0 0 1 631 258.844)"/><path d="M63.2537 50.3448C65.036 50.3448 66.4809 48.8999 66.4809 47.1175 66.4809 45.3352 65.036 43.8903 63.2537 43.8903 61.4713 43.8903 60.0264 45.3352 60.0264 47.1175 60.0264 48.8999 61.4713 50.3448 63.2537 50.3448Z" fill="#532CE2" transform="matrix(1.0006 0 0 1 631 258.844)"/><path d="M77.4535 50.3448C79.2358 50.3448 80.6807 48.8999 80.6807 47.1175 80.6807 45.3352 79.2358 43.8903 77.4535 43.8903 75.6711 43.8903 74.2262 45.3352 74.2262 47.1175 74.2262 48.8999 75.6711 50.3448 77.4535 50.3448Z" fill="#532CE2" transform="matrix(1.0006 0 0 1 631 258.844)"/><path d="M34.8541 50.3448C36.6364 50.3448 38.0813 48.8999 38.0813 47.1175 38.0813 45.3352 36.6364 43.8903 34.8541 43.8903 33.0717 43.8903 31.6268 45.3352 31.6268 47.1175 31.6268 48.8999 33.0717 50.3448 34.8541 50.3448Z" fill="#532CE2" transform="matrix(1.0006 0 0 1 631 258.844)"/><path d="M49.0539 50.3448C50.8362 50.3448 52.2811 48.8999 52.2811 47.1175 52.2811 45.3352 50.8362 43.8903 49.0539 43.8903 47.2715 43.8903 45.8266 45.3352 45.8266 47.1175 45.8266 48.8999 47.2715 50.3448 49.0539 50.3448Z" fill="#532CE2" transform="matrix(1.0006 0 0 1 631 258.844)"/><path d="M99.9795 64.1057 97.4881 54.708C97.419 54.442 97.2911 54.195 97.1138 53.9851 96.2589 53.1006 95.2058 52.4324 94.0414 52.0358 93.2794 51.7471 92.4678 51.611 91.6533 51.6357 90.8364 51.6363 90.0252 51.7715 89.2522 52.0358 88.0844 52.4237 87.0325 53.0984 86.1928 53.998 86.0229 54.2128 85.8959 54.4582 85.8185 54.7209L84.5534 59.381 83.2625 54.708C83.1861 54.4423 83.0541 54.1959 82.8752 53.9851 82.0259 53.0999 80.9768 52.4315 79.8158 52.0358 79.0611 51.7525 78.2592 51.6167 77.4535 51.6357 76.6363 51.6341 75.8248 51.7694 75.0524 52.0358 73.8822 52.4267 72.8269 53.1008 71.9801 53.998 71.8193 54.2165 71.6969 54.461 71.6186 54.7209L70.3278 59.523 69.0369 54.7596C68.9678 54.4937 68.8399 54.2466 68.6625 54.0367 67.8077 53.1522 66.7546 52.484 65.5902 52.0875 64.8478 51.7876 64.0544 51.6342 63.2537 51.6357 62.4368 51.6363 61.6256 51.7715 60.8526 52.0358 59.6847 52.4237 58.6329 53.0984 57.7932 53.998 57.6233 54.2128 57.4963 54.4582 57.4188 54.7209L56.1538 59.381 54.8629 54.708C54.7865 54.4423 54.6545 54.1959 54.4756 53.9851 53.6263 53.0999 52.5772 52.4315 51.4162 52.0358 50.6617 51.7525 49.8596 51.6167 49.0539 51.6357 48.2367 51.6341 47.4252 51.7694 46.6528 52.0358 45.4827 52.4267 44.4273 53.1008 43.5805 53.998 43.4196 54.2165 43.2974 54.461 43.219 54.7209L41.9282 59.523 40.6373 54.7596C40.5682 54.4937 40.4403 54.2466 40.2629 54.0367 39.4081 53.1522 38.355 52.484 37.1906 52.0875 36.4482 51.7876 35.6548 51.6342 34.8541 51.6357 34.0372 51.6363 33.226 51.7715 32.453 52.0358 31.2851 52.4237 30.2333 53.0984 29.3936 53.998 29.2237 54.2128 29.0967 54.4582 29.0192 54.7209L26.5149 64.1573C26.3346 64.8451 26.7443 65.5493 27.4314 65.7322L27.7671 65.7322C28.3672 65.7527 28.9022 65.3568 29.058 64.7769L30.9814 57.2768 30.9814 80.0353 33.5632 80.0353 33.5632 65.8355 36.145 65.8355 36.145 80.0353 38.7267 80.0353 38.7267 57.3543 40.6889 64.764C40.6889 65.477 41.2668 66.0549 41.9798 66.0549 42.6927 66.0549 43.2707 65.477 43.2707 64.764L45.1812 57.3543 45.1812 61.4206 42.9609 69.7081 45.1812 69.7081 45.1812 80.0353 47.763 80.0353 47.763 69.7081 50.3448 69.7081 50.3448 80.0353 52.9265 80.0353 52.9265 69.7081 55.1469 69.7081 52.9265 61.4206 52.9265 57.2768 54.9016 64.764C55.075 65.4555 55.7761 65.8757 56.4676 65.7024 56.9295 65.5866 57.2901 65.2259 57.4059 64.764L59.381 57.2768 59.381 80.0353 61.9628 80.0353 61.9628 65.8355 64.5446 65.8355 64.5446 80.0353 67.1264 80.0353 67.1264 57.3543 69.0885 64.764C69.0885 65.477 69.6664 66.0549 70.3794 66.0549 71.0924 66.0549 71.6703 65.477 71.6703 64.764L73.5808 57.3543 73.5808 61.4206 71.3605 69.7081 73.5808 69.7081 73.5808 80.0353 76.1626 80.0353 76.1626 69.7081 78.7444 69.7081 78.7444 80.0353 81.3261 80.0353 81.3261 69.7081 83.5465 69.7081 81.3261 61.4206 81.3261 57.2768 83.3012 64.764C83.4746 65.4555 84.1757 65.8757 84.8672 65.7024 85.3291 65.5866 85.6898 65.2259 85.8055 64.764L87.7806 57.2768 87.7806 80.0353 90.3624 80.0353 90.3624 65.8355 92.9442 65.8355 92.9442 80.0353 95.526 80.0353 95.526 57.3543 97.4881 64.764C97.6439 65.3439 98.1789 65.7398 98.779 65.7193 98.8905 65.7319 99.0031 65.7319 99.1146 65.7193 99.7976 65.5151 100.186 64.7958 99.9816 64.1128 99.981 64.1103 99.9803 64.108 99.9795 64.1057Z" fill="#532CE2" transform="matrix(1.0006 0 0 1 631 258.844)"/><path d="M63.2537 11.618C65.036 11.618 66.4809 10.1731 66.4809 8.39079 66.4809 6.60845 65.036 5.16357 63.2537 5.16357 61.4713 5.16357 60.0264 6.60845 60.0264 8.39079 60.0264 10.1731 61.4713 11.618 63.2537 11.618Z" fill="#532CE2" transform="matrix(1.0006 0 0 1 631 258.844)"/><path d="M77.4535 11.618C79.2358 11.618 80.6807 10.1731 80.6807 8.39079 80.6807 6.60845 79.2358 5.16357 77.4535 5.16357 75.6711 5.16357 74.2262 6.60845 74.2262 8.39079 74.2262 10.1731 75.6711 11.618 77.4535 11.618Z" fill="#532CE2" transform="matrix(1.0006 0 0 1 631 258.844)"/><path d="M49.0539 11.618C50.8362 11.618 52.2811 10.1731 52.2811 8.39079 52.2811 6.60845 50.8362 5.16357 49.0539 5.16357 47.2715 5.16357 45.8266 6.60845 45.8266 8.39079 45.8266 10.1731 47.2715 11.618 49.0539 11.618Z" fill="#532CE2" transform="matrix(1.0006 0 0 1 631 258.844)"/><path d="M85.8055 25.3789 83.3141 15.9812C83.2377 15.7156 83.1058 15.4691 82.9269 15.2583 82.0776 14.3733 81.0285 13.7047 79.8674 13.3091 79.0966 13.0192 78.2766 12.8832 77.4535 12.9089 76.6363 12.9074 75.8248 13.0426 75.0524 13.3091 73.8824 13.7 72.8269 14.3741 71.9801 15.2712 71.8193 15.4898 71.697 15.7343 71.6186 15.9941L70.3278 20.7963 69.0369 16.0329C68.9678 15.7669 68.8399 15.5199 68.6625 15.31 67.8077 14.4255 66.7546 13.7573 65.5902 13.3607 64.8478 13.0609 64.0544 12.9075 63.2537 12.9089 62.4368 12.9096 61.6256 13.0447 60.8526 13.3091 59.6847 13.697 58.6329 14.3716 57.7932 15.2712 57.6233 15.486 57.4963 15.7314 57.4188 15.9941L56.1538 20.6543 54.8629 15.9812C54.7865 15.7156 54.6545 15.4691 54.4756 15.2583 53.6263 14.3733 52.5772 13.7047 51.4162 13.3091 50.6617 13.0257 49.8596 12.8899 49.0539 12.9089 48.2367 12.9074 47.4252 13.0426 46.6528 13.3091 45.4827 13.7 44.4273 14.3741 43.5805 15.2712 43.4196 15.4898 43.2974 15.7343 43.219 15.9941L40.7147 25.4306C40.5344 26.1183 40.9441 26.8225 41.6312 27.0054 41.7428 27.0181 41.8553 27.0181 41.9669 27.0054 42.567 27.026 43.102 26.6301 43.2578 26.0502L45.1812 18.6276 45.1812 22.6939 42.9609 30.9814 45.1812 30.9814 45.1812 41.3085 47.763 41.3085 47.763 30.9814 50.3448 30.9814 50.3448 41.3085 52.9265 41.3085 52.9265 30.9814 55.1469 30.9814 52.9265 22.6939 52.9265 18.5501 54.9016 26.0373C55.075 26.7288 55.7761 27.149 56.4676 26.9756 56.9295 26.8598 57.2901 26.4992 57.4059 26.0373L59.381 18.5501 59.381 41.3085 61.9628 41.3085 61.9628 27.1087 64.5446 27.1087 64.5446 41.3085 67.1264 41.3085 67.1264 18.6276 69.0885 26.0373C69.0885 26.7502 69.6664 27.3282 70.3794 27.3282 71.0924 27.3282 71.6703 26.7502 71.6703 26.0373L73.5808 18.6276 73.5808 22.6939 71.3605 30.9814 73.5808 30.9814 73.5808 41.3085 76.1626 41.3085 76.1626 30.9814 78.7444 30.9814 78.7444 41.3085 81.3261 41.3085 81.3261 30.9814 83.5465 30.9814 81.3261 22.6939 81.3261 18.5501 83.3012 26.0373C83.457 26.6171 83.992 27.0131 84.5921 26.9925L84.9277 26.9925C85.6127 26.7949 86.0078 26.0794 85.8101 25.3943 85.8086 25.3892 85.8071 25.3841 85.8055 25.3789Z" fill="#532CE2" transform="matrix(1.0006 0 0 1 631 258.844)"/></g></g></g><path d="M641 194.217C641 190.721 643.836 187.887 647.333 187.887L739.667 187.887C743.164 187.887 746 190.721 746 194.217L746 219.535C746 223.03 743.164 225.864 739.667 225.864L647.333 225.864C643.836 225.864 641 223.03 641 219.535Z" stroke="#00B0F0" stroke-width="2.0012" stroke-miterlimit="8" fill="#204367" fill-rule="evenodd"/><text fill="#FFFFFF" font-family="Microsoft YaHei,Microsoft YaHei_MSFontService,sans-serif" font-weight="400" font-size="14.6667" transform="matrix(1 0 0 0.999399 676.6 212)">DAO</text><path d="M564 280.831 589.517 280.831 589.517 283.236 588.516 282.236 606.362 282.236 606.362 284.236 587.516 284.236 587.516 281.831 588.516 282.831 564 282.831ZM605.028 279.236 613.032 283.236 605.028 287.236Z" fill="#00B0F0"/></g></svg>