<svg width="1280" height="720" xmlns="http://www.w3.org/2000/svg" xmlns:xlink="http://www.w3.org/1999/xlink" overflow="hidden"><g><rect x="0" y="0" width="1280" height="720" fill="#131321"/><text fill="#FFFFFF" font-family="DengXian,DengXian_MSFontService,sans-serif" font-weight="700" font-size="24" transform="translate(499.333 63)">Project workflow diagram</text><path d="M519.5 180.667C519.5 176.709 522.709 173.5 526.667 173.5L600.333 173.5C604.291 173.5 607.5 176.709 607.5 180.667L607.5 209.333C607.5 213.291 604.291 216.5 600.333 216.5L526.667 216.5C522.709 216.5 519.5 213.291 519.5 209.333Z" stroke="#2F528F" stroke-width="1.33333" stroke-miterlimit="8" fill="#7030A0" fill-rule="evenodd"/><text fill="#FFFFFF" font-family="DengXian,DengXian_MSFontService,sans-serif" font-weight="400" font-size="18.6667" transform="translate(536.82 200)">Minter</text><path d="M284.5 312.357C284.5 293.106 300.106 277.5 319.357 277.5L936.643 277.5C955.894 277.5 971.5 293.106 971.5 312.357L971.5 492.643C971.5 511.894 955.894 527.5 936.643 527.5L319.357 527.5C300.106 527.5 284.5 511.894 284.5 492.643Z" stroke="#8497B0" stroke-width="1.33333" stroke-miterlimit="8" fill="#2D3049" fill-rule="evenodd"/><path d="M658.5 614.667C658.5 610.709 661.709 607.5 665.667 607.5L730.333 607.5C734.291 607.5 737.5 610.709 737.5 614.667L737.5 643.333C737.5 647.291 734.291 650.5 730.333 650.5L665.667 650.5C661.709 650.5 658.5 647.291 658.5 643.333Z" stroke="#2F528F" stroke-width="1.33333" stroke-miterlimit="8" fill="#7030A0" fill-rule="evenodd"/><text fill="#FFFFFF" font-family="DengXian,DengXian_MSFontService,sans-serif" font-weight="400" font-size="18.6667" transform="translate(674.938 635)">Buyer</text><path d="M332.5 381.167C332.5 376.38 336.38 372.5 341.167 372.5L423.833 372.5C428.62 372.5 432.5 376.38 432.5 381.167L432.5 415.833C432.5 420.62 428.62 424.5 423.833 424.5L341.167 424.5C336.38 424.5 332.5 420.62 332.5 415.833Z" stroke="#00B0F0" stroke-width="1.33333" stroke-miterlimit="8" fill="#204367" fill-rule="evenodd"/><text fill="#FFFFFF" font-family="Microsoft YaHei,Microsoft YaHei_MSFontService,sans-serif" font-weight="400" font-size="14.6667" transform="translate(348.457 403)">Truth Box</text><path d="M96.5001 122.5C96.5001 118.082 100.082 114.5 104.5 114.5L219.5 114.5C223.918 114.5 227.5 118.082 227.5 122.5L227.5 154.5C227.5 158.918 223.918 162.5 219.5 162.5L104.5 162.5C100.082 162.5 96.5001 158.918 96.5001 154.5Z" stroke="#2F528F" stroke-width="1.33333" stroke-miterlimit="8" fill="#7F6000" fill-rule="evenodd"/><text fill="#FFFFFF" font-family="Microsoft YaHei,Microsoft YaHei_MSFontService,sans-serif" font-weight="400" font-size="16" transform="translate(126.153 143)">IPFS / AR</text><path d="M520.5 381.167C520.5 376.38 524.38 372.5 529.167 372.5L597.833 372.5C602.62 372.5 606.5 376.38 606.5 381.167L606.5 415.833C606.5 420.62 602.62 424.5 597.833 424.5L529.167 424.5C524.38 424.5 520.5 420.62 520.5 415.833Z" stroke="#00B0F0" stroke-width="1.33333" stroke-miterlimit="8" fill="#204367" fill-rule="evenodd"/><text fill="#FFFFFF" font-family="DengXian,DengXian_MSFontService,sans-serif" font-weight="400" font-size="14.6667" transform="translate(532.983 403)">Exchange</text><path d="M402 591C402 587.134 405.134 584 409 584L503 584C506.866 584 510 587.134 510 591L510 619C510 622.866 506.866 626 503 626L409 626C405.134 626 402 622.866 402 619Z" stroke="#7030A0" stroke-width="2" stroke-miterlimit="8" stroke-dasharray="8 6" fill="#993366" fill-rule="evenodd"/><text fill="#FFFFFF" font-family="DengXian,DengXian_MSFontService,sans-serif" font-weight="400" font-size="18.6667" transform="translate(414.167 611)">Completer</text><path d="M839.5 601.334C839.5 593.694 845.694 587.5 853.334 587.5L995.667 587.5C1003.31 587.5 1009.5 593.694 1009.5 601.334L1009.5 656.667C1009.5 664.307 1003.31 670.5 995.667 670.5L853.334 670.5C845.694 670.5 839.5 664.307 839.5 656.667Z" stroke="#4472C4" stroke-width="1.33333" stroke-miterlimit="8" stroke-dasharray="5.33333 4" fill="none" fill-rule="evenodd"/><text fill="#FFFFFF" font-family="Microsoft YaHei,Microsoft YaHei_MSFontService,sans-serif" font-weight="400" font-size="16" transform="translate(903.727 663)">Swap</text><path d="M563.503 431.167 563.503 606.001 517.167 606.001 517.167 605.334 563.169 605.334 562.836 605.668 562.836 431.167ZM559.169 432.5 563.169 424.5 567.169 432.5ZM518.5 609.668 510.5 605.668 518.5 601.668Z" fill="#00B0F0"/><path d="M987 316.834C987 302.566 998.566 291 1012.83 291L1142.17 291C1156.43 291 1168 302.566 1168 316.834L1168 420.166C1168 434.434 1156.43 446 1142.17 446L1012.83 446C998.566 446 987 434.434 987 420.166Z" stroke="#2F5597" stroke-width="2" stroke-miterlimit="8" stroke-dasharray="8 6" fill="none" fill-rule="evenodd"/><path d="M1070.5 614.667C1070.5 610.709 1073.71 607.5 1077.67 607.5L1193.33 607.5C1197.29 607.5 1200.5 610.709 1200.5 614.667L1200.5 643.333C1200.5 647.291 1197.29 650.5 1193.33 650.5L1077.67 650.5C1073.71 650.5 1070.5 647.291 1070.5 643.333Z" stroke="#2F528F" stroke-width="1.33333" stroke-miterlimit="8" fill="#843C0C" fill-rule="evenodd"/><text fill="#FFFFFF" font-family="DengXian,DengXian_MSFontService,sans-serif" font-weight="400" font-size="16" transform="translate(1086.72 634)">Token holders</text><path d="M1031.5 308.667C1031.5 304.709 1034.71 301.5 1038.67 301.5L1124.33 301.5C1128.29 301.5 1131.5 304.709 1131.5 308.667L1131.5 337.333C1131.5 341.291 1128.29 344.5 1124.33 344.5L1038.67 344.5C1034.71 344.5 1031.5 341.291 1031.5 337.333Z" stroke="#2F528F" stroke-width="1.33333" stroke-miterlimit="8" fill="#532CE2" fill-rule="evenodd"/><text fill="#FFFFFF" font-family="DengXian,DengXian_MSFontService,sans-serif" font-weight="400" font-size="16" transform="translate(1064.58 318)">DAO</text><text fill="#FFFFFF" font-family="DengXian,DengXian_MSFontService,sans-serif" font-weight="400" font-size="16" transform="translate(1048.99 337)">members</text><path d="M6.66666-0.333322 54.0678-0.33324 54.0678 0.333427 6.66666 0.333345ZM7.99999 4.00001 0 0 8.00001-3.99999ZM52.7345-3.99991 60.7345 0.000104987 52.7345 4.00009Z" fill="#00B0F0" transform="matrix(1 0 0 -1 1009.5 629.5)"/><path d="M509 168C509 160.268 515.268 154 523 154L732 154C739.732 154 746 160.268 746 168L746 224C746 231.732 739.732 238 732 238L523 238C515.268 238 509 231.732 509 224Z" stroke="#2F5597" stroke-width="2" stroke-miterlimit="8" stroke-dasharray="8 6" fill="none" fill-rule="evenodd"/><path d="M202 582C202 573.716 208.716 567 217 567L508 567C516.284 567 523 573.716 523 582L523 642C523 650.284 516.284 657 508 657L217 657C208.716 657 202 650.284 202 642Z" stroke="#2F5597" stroke-width="2" stroke-miterlimit="8" stroke-dasharray="8 6" fill="none" fill-rule="evenodd"/><text fill="#FFFF00" font-family="DengXian,DengXian_MSFontService,sans-serif" font-weight="400" font-size="14.6667" transform="translate(273.109 126)">Upload file</text><text fill="#FFFF00" font-family="DengXian,DengXian_MSFontService,sans-serif" font-weight="400" font-size="14.6667" transform="translate(295.276 143)">and</text><text fill="#FFFF00" font-family="DengXian,DengXian_MSFontService,sans-serif" font-weight="400" font-size="14.6667" transform="translate(273.942 161)">Encryption</text><text fill="#FFFF00" font-family="DengXian,DengXian_MSFontService,sans-serif" font-weight="400" font-size="14.6667" transform="translate(588.661 553)">3, Buy / Bid</text><text fill="#FFFF00" font-family="DengXian,DengXian_MSFontService,sans-serif" font-weight="400" font-size="14.6667" transform="translate(433.898 552)">5, Complete Order</text><path d="M861 624.5C861 614.835 869.059 607 879 607 888.941 607 897 614.835 897 624.5 897 634.165 888.941 642 879 642 869.059 642 861 634.165 861 624.5Z" stroke="#C55A11" stroke-width="4" stroke-miterlimit="8" fill="#FFC000" fill-rule="evenodd"/><text fill="#843C0C" font-family="DengXian,DengXian_MSFontService,sans-serif" font-weight="400" font-size="24" transform="translate(872.751 632)">$</text><text fill="#FF0000" font-family="DengXian,DengXian_MSFontService,sans-serif" font-weight="400" font-size="14.6667" transform="translate(700.795 365)">6, Review</text><text fill="#FFFF00" font-family="DengXian,DengXian_MSFontService,sans-serif" font-weight="400" font-size="14.6667" transform="translate(701.133 326)">4, Deliver</text><path d="M781.5 328.667C781.5 325.261 784.261 322.5 787.667 322.5L878.333 322.5C881.739 322.5 884.5 325.261 884.5 328.667L884.5 353.333C884.5 356.739 881.739 359.5 878.333 359.5L787.667 359.5C784.261 359.5 781.5 356.739 781.5 353.333Z" stroke="#00B0F0" stroke-width="1.33333" stroke-miterlimit="8" fill="#1F4E79" fill-rule="evenodd"/><text fill="#FFFFFF" font-family="DengXian,DengXian_MSFontService,sans-serif" font-weight="400" font-size="14.6667" transform="translate(816.86 346)">DAO</text><path d="M863.5 466.167C863.5 461.38 867.38 457.5 872.167 457.5L940.833 457.5C945.62 457.5 949.5 461.38 949.5 466.167L949.5 500.833C949.5 505.62 945.62 509.5 940.833 509.5L872.167 509.5C867.38 509.5 863.5 505.62 863.5 500.833Z" stroke="#00B0F0" stroke-width="1.33333" stroke-miterlimit="8" fill="#204367" fill-rule="evenodd"/><text fill="#FFFFFF" font-family="DengXian,DengXian_MSFontService,sans-serif" font-weight="400" font-size="14.6667" transform="translate(890.016 480)">Fund</text><text fill="#FFFFFF" font-family="DengXian,DengXian_MSFontService,sans-serif" font-weight="400" font-size="14.6667" transform="translate(881.269 497)">Manger</text><path d="M988.141 369.403 935.987 369.403 935.987 341.5 936.32 341.833 891.167 341.833 891.167 341.167 936.654 341.167 936.654 369.07 936.32 368.736 988.141 368.736ZM892.5 345.5 884.5 341.5 892.5 337.5Z" fill="#00B0F0"/><path d="M675.5 483.167 857.235 483.167 857.235 483.833 675.5 483.833ZM855.902 479.5 863.902 483.5 855.902 487.5Z" fill="#00B0F0"/><path d="M6.66663-0.333333 62.4585-0.333333 62.4585 24.8529 62.1251 24.5196 117.584 24.5196 117.584 25.1862 61.7918 25.1862 61.7918 0 62.1251 0.333333 6.66663 0.333333ZM8 4 0 0 8-4ZM116.25 20.8529 124.25 24.8529 116.25 28.8529Z" fill="#00B0F0" transform="matrix(1.83697e-16 1 1 -1.83697e-16 673.5 483.5)"/><path d="M744.167 629.167 832.283 629.167 832.283 629.833 744.167 629.833ZM745.5 633.5 737.5 629.5 745.5 625.5ZM830.95 625.5 838.95 629.5 830.95 633.5Z" fill="#00B0F0"/><text fill="#FFFF00" font-family="DengXian,DengXian_MSFontService,sans-serif" font-weight="400" font-size="14.6667" transform="translate(502.306 305)">2, Sell /</text><text fill="#FFFF00" font-family="DengXian,DengXian_MSFontService,sans-serif" font-weight="400" font-size="14.6667" transform="translate(501.139 322)">Auction</text><text fill="#FFFF00" font-family="DengXian,DengXian_MSFontService,sans-serif" font-weight="400" font-size="14.6667" transform="translate(743.857 557)">6</text><text fill="#FFFF00" font-family="DengXian,DengXian_MSFontService,sans-serif" font-weight="400" font-size="14.6667" transform="translate(751.524 557)">，</text><text fill="#FFFF00" font-family="DengXian,DengXian_MSFontService,sans-serif" font-weight="400" font-size="14.6667" transform="translate(766.191 557)">Pay</text><path d="M398.5 215.5C398.5 207.768 404.768 201.5 412.5 201.5L482.5 201.5C490.232 201.5 496.5 207.768 496.5 215.5L496.5 215.5C496.5 223.232 490.232 229.5 482.5 229.5L412.5 229.5C404.768 229.5 398.5 223.232 398.5 215.5Z" stroke="#FFFF00" stroke-width="1.33333" stroke-miterlimit="8" stroke-dasharray="5.33333 4" fill="#2D3049" fill-rule="evenodd"/><text fill="#FFFFFF" font-family="DengXian,DengXian_MSFontService,sans-serif" font-weight="400" font-size="14.6667" transform="translate(418.973 220)">Evidence</text><path d="M207.5 191.167C207.5 186.38 211.38 182.5 216.167 182.5L301.833 182.5C306.62 182.5 310.5 186.38 310.5 191.167L310.5 225.833C310.5 230.62 306.62 234.5 301.833 234.5L216.167 234.5C211.38 234.5 207.5 230.62 207.5 225.833Z" stroke="#C55A11" stroke-width="1.33333" stroke-miterlimit="8" fill="#0D0D0D" fill-rule="evenodd"/><text fill="#FFFFFF" font-family="DengXian,DengXian_MSFontService,sans-serif" font-weight="400" font-size="14.6667" transform="translate(223.283 205)">AES+ECDH</text><text fill="#FFFFFF" font-family="DengXian,DengXian_MSFontService,sans-serif" font-weight="400" font-size="14.6667" transform="translate(225.449 222)">Encryption</text><text fill="#FFFFFF" font-family="DengXian,DengXian_MSFontService,sans-serif" font-weight="400" font-size="14.6667" transform="translate(218.673 597)">If Refund</text><text fill="#FFFFFF" font-family="Calibri,Calibri_MSFontService,sans-serif" font-weight="400" font-size="14.6667" transform="translate(279.507 597)">Deadline over!</text><text fill="#FFFFFF" font-family="DengXian,DengXian_MSFontService,sans-serif" font-weight="400" font-size="14.6667" transform="translate(218.673 614)">Everyone can become a</text><text fill="#FFFFFF" font-family="DengXian,DengXian_MSFontService,sans-serif" font-weight="400" font-size="14.6667" transform="translate(218.673 632)">completer,</text><path d="M926.5 624C926.5 611.021 937.021 600.5 950 600.5L974 600.5C986.979 600.5 997.5 611.021 997.5 624L997.5 624C997.5 636.979 986.979 647.5 974 647.5L950 647.5C937.021 647.5 926.5 636.979 926.5 624Z" stroke="#BF9000" stroke-width="1.33333" stroke-miterlimit="8" stroke-dasharray="5.33333 4" fill="#BF9000" fill-rule="evenodd"/><text fill="#FFFFFF" font-family="DengXian,DengXian_MSFontService,sans-serif" font-weight="400" font-size="14.6667" transform="translate(944.64 619)">Truth</text><text fill="#FFFFFF" font-family="DengXian,DengXian_MSFontService,sans-serif" font-weight="400" font-size="14.6667" transform="translate(946.894 636)">Coin</text><path d="M1026.5 390.834C1026.5 386.783 1029.78 383.5 1033.83 383.5L1122.17 383.5C1126.22 383.5 1129.5 386.783 1129.5 390.834L1129.5 420.167C1129.5 424.217 1126.22 427.5 1122.17 427.5L1033.83 427.5C1029.78 427.5 1026.5 424.217 1026.5 420.167Z" stroke="#C55A11" stroke-width="1.33333" stroke-miterlimit="8" fill="#0D0D0D" fill-rule="evenodd"/><text fill="#FFFFFF" font-family="Calibri,Calibri_MSFontService,sans-serif" font-weight="400" font-size="14.6667" transform="translate(1048.14 402)">Threshold</text><text fill="#FFFFFF" font-family="Calibri,Calibri_MSFontService,sans-serif" font-weight="400" font-size="14.6667" transform="translate(1048.3 419)">Algorithm</text><text fill="#FFFF00" font-family="DengXian,DengXian_MSFontService,sans-serif" font-weight="400" font-size="14.6667" transform="translate(576.474 311)">4, Deliver</text><text fill="#FF0000" font-family="DengXian,DengXian_MSFontService,sans-serif" font-weight="400" font-size="14.6667" transform="translate(589.942 576)">5, Refund</text><text fill="#FF0000" font-family="DengXian,DengXian_MSFontService,sans-serif" font-weight="400" font-size="14.6667" transform="translate(586.442 593)">（</text><text fill="#FF0000" font-family="DengXian,DengXian_MSFontService,sans-serif" font-weight="400" font-size="14.6667" transform="translate(601.109 593)">Public</text><text fill="#FF0000" font-family="DengXian,DengXian_MSFontService,sans-serif" font-weight="400" font-size="14.6667" transform="translate(638.942 593)">）</text><path d="M65 391C65 378.85 74.8499 369 87.0004 369L177 369C189.15 369 199 378.85 199 391L199 479C199 491.15 189.15 501 177 501L87.0004 501C74.8499 501 65 491.15 65 479Z" stroke="#2F5597" stroke-width="2" stroke-miterlimit="8" stroke-dasharray="8 6" fill="none" fill-rule="evenodd"/><text fill="#FFFFFF" font-family="DengXian,DengXian_MSFontService,sans-serif" font-weight="400" font-size="14.6667" transform="translate(80.6447 454)">Minter</text><text fill="#FFFFFF" font-family="DengXian,DengXian_MSFontService,sans-serif" font-weight="400" font-size="14.6667" transform="translate(121.811 454)">、</text><text fill="#FFFFFF" font-family="DengXian,DengXian_MSFontService,sans-serif" font-weight="400" font-size="14.6667" transform="translate(136.478 454)">DAO</text><text fill="#FFFFFF" font-family="DengXian,DengXian_MSFontService,sans-serif" font-weight="400" font-size="14.6667" transform="translate(167.145 454)">、</text><text fill="#FFFFFF" font-family="DengXian,DengXian_MSFontService,sans-serif" font-weight="400" font-size="14.6667" transform="translate(80.6447 471)">Buyer</text><text fill="#FFFF00" font-family="DengXian,DengXian_MSFontService,sans-serif" font-weight="400" font-size="14.6667" transform="translate(213.409 387)">7</text><text fill="#FFFF00" font-family="DengXian,DengXian_MSFontService,sans-serif" font-weight="400" font-size="14.6667" transform="translate(221.075 387)">，</text><text fill="#FFFF00" font-family="DengXian,DengXian_MSFontService,sans-serif" font-weight="400" font-size="14.6667" transform="translate(235.742 387)">Publish</text><path d="M189.167 396.167 258.196 396.167 258.196 398.805 257.863 398.472 326.559 398.472 326.559 399.139 257.529 399.139 257.529 396.5 257.863 396.833 189.167 396.833ZM190.5 400.5 182.5 396.5 190.5 392.5ZM325.226 394.805 333.226 398.805 325.226 402.805Z" fill="#00B0F0"/><path d="M0.333333-0.000542524 0.57613 149.177-0.0905353 149.178-0.333333 0.000542524ZM4.24062 147.838 0.253648 155.844-3.75937 147.851Z" fill="#00B0F0" transform="matrix(-1 0 0 1 563.754 216.5)"/><path d="M332.5 472.333C332.5 469.112 335.112 466.5 338.333 466.5L426.667 466.5C429.888 466.5 432.5 469.112 432.5 472.333L432.5 495.667C432.5 498.888 429.888 501.5 426.667 501.5L338.333 501.5C335.112 501.5 332.5 498.888 332.5 495.667Z" stroke="#00B0F0" stroke-width="1.33333" stroke-miterlimit="8" fill="#204367" fill-rule="evenodd"/><text fill="#FFFFFF" font-family="Microsoft YaHei,Microsoft YaHei_MSFontService,sans-serif" font-weight="400" font-size="14.6667" transform="translate(347.331 489)">Truth NFT</text><path d="M0.333333-0.000330931 0.369024 35.9498-0.297642 35.9505-0.333333 0.000330931ZM4.03437 34.6128 0.0423097 42.6168-3.96563 34.6208Z" fill="#4472C4" transform="matrix(-1 0 0 1 382.542 424.5)"/><path d="M439.167 398.167 513.473 398.167 513.473 398.833 439.167 398.833ZM440.5 402.5 432.5 398.5 440.5 394.5ZM512.139 394.5 520.139 398.5 512.139 402.5Z" fill="#00B0F0"/><path d="M81 121.834C81 107.566 92.5661 96 106.834 96L359.166 96C373.434 96 385 107.566 385 121.834L385 225.166C385 239.434 373.434 251 359.166 251L106.834 251C92.5661 251 81 239.434 81 225.166Z" stroke="#2F5597" stroke-width="2" stroke-miterlimit="8" stroke-dasharray="8 6" fill="none" fill-rule="evenodd"/><path d="M6.66665-0.333333 46.4119-0.333333 46.4119 39.3297 45.7452 39.3297 45.7452 0 46.0785 0.333333 6.66665 0.333333ZM8 4 0 0 8-4ZM50.0785 37.9963 46.0785 45.9963 42.0785 37.9963Z" fill="#00B0F0" transform="matrix(1.83697e-16 1 1 -1.83697e-16 161.5 162.5)"/><path d="M519.355 195.112 452.094 195.112 452.094 173.5 452.428 173.833 392.167 173.833 392.167 173.167 452.761 173.167 452.761 194.778 452.428 194.445 519.355 194.445ZM393.5 177.5 385.5 173.5 393.5 169.5Z" fill="#00B0F0"/><path d="M563.613 216.5 563.613 266.691 382.5 266.691 382.833 266.357 382.833 366.018 382.167 366.018 382.167 266.024 563.28 266.024 562.946 266.357 562.946 216.5ZM386.5 364.684 382.5 372.684 378.5 364.684Z" fill="#00B0F0"/><text fill="#FFFF00" font-family="DengXian,DengXian_MSFontService,sans-serif" font-weight="400" font-size="14.6667" transform="translate(318.148 328)">1, Mint</text><path d="M0-0.333333 139.543-0.333333 139.543 57.2858 139.21 56.9524 168.222 56.9524 168.222 57.6191 138.877 57.6191 138.877 0 139.21 0.333333 0 0.333333ZM166.889 53.2858 174.889 57.2858 166.889 61.2858Z" fill="#00B0F0" transform="matrix(-1 1.22465e-16 1.22465e-16 1 781.389 341.5)"/><path d="M675.283 484.185 507.998 484.185 507.998 415.5 508.332 415.833 442.167 415.833 442.167 415.167 508.665 415.167 508.665 483.852 508.332 483.518 675.283 483.518ZM443.5 419.5 435.5 415.5 443.5 411.5Z" fill="#00B0F0"/><path d="M652.336 629.877 579.167 629.877 579.167 434.167 579.833 434.167 579.833 629.543 579.5 629.21 652.336 629.21ZM651.003 625.543 659.003 629.543 651.003 633.543ZM575.5 435.5 579.5 427.5 583.5 435.5Z" fill="#00B0F0"/><path d="M609.5 410.167 906.135 410.167 906.135 450.664 905.469 450.664 905.469 410.5 905.802 410.833 609.5 410.833ZM909.802 449.331 905.802 457.331 901.802 449.331Z" fill="#00B0F0"/><path d="M1037.5 184.833C1037.5 181.336 1040.34 178.5 1043.83 178.5L1134.17 178.5C1137.66 178.5 1140.5 181.336 1140.5 184.833L1140.5 210.167C1140.5 213.664 1137.66 216.5 1134.17 216.5L1043.83 216.5C1040.34 216.5 1037.5 213.664 1037.5 210.167Z" stroke="#00B0F0" stroke-width="1.33333" stroke-miterlimit="8" fill="#1F4E79" fill-rule="evenodd"/><text fill="#FFFFFF" font-family="DengXian,DengXian_MSFontService,sans-serif" font-weight="400" font-size="14.6667" transform="translate(1065.47 202)">Staking</text><path d="M1006 183.667C1006 167.282 1019.28 154 1035.67 154L1154.33 154C1170.72 154 1184 167.282 1184 183.667L1184 328.333C1184 344.718 1170.72 358 1154.33 358L1035.67 358C1019.28 358 1006 344.718 1006 328.333Z" stroke="#2F5597" stroke-width="2" stroke-miterlimit="8" stroke-dasharray="8 6" fill="none" fill-rule="evenodd"/><path d="M1200.81 629.037 1224.81 629.037 1224.47 629.371 1224.47 197.5 1224.81 197.833 1147.17 197.833 1147.17 197.167 1225.14 197.167 1225.14 629.704 1200.81 629.704ZM1148.5 201.5 1140.5 197.5 1148.5 193.5Z" fill="#00B0F0"/><path d="M1037.5 234.833C1037.5 231.336 1040.34 228.5 1043.83 228.5L1134.17 228.5C1137.66 228.5 1140.5 231.336 1140.5 234.833L1140.5 260.167C1140.5 263.664 1137.66 266.5 1134.17 266.5L1043.83 266.5C1040.34 266.5 1037.5 263.664 1037.5 260.167Z" stroke="#00B0F0" stroke-width="1.33333" stroke-miterlimit="8" fill="#1F4E79" fill-rule="evenodd"/><text fill="#FFFFFF" font-family="DengXian,DengXian_MSFontService,sans-serif" font-weight="400" font-size="14.6667" transform="translate(1050.97 252)">Governance</text><path d="M0 0.333333-24 0.333333-23.6666 0-23.6666 648.55-24 648.217 476.753 648.217 476.419 648.55 476.419 623.687 477.086 623.687 477.086 648.883-24.3333 648.883-24.3333-0.333333 0-0.333333ZM472.753 625.02 476.753 617.02 480.753 625.02Z" fill="#00B0F0" transform="matrix(-6.12323e-17 -1 -1 6.12323e-17 698.52 650.253)"/><path d="M0-0.333333 189.207-0.333333 189.207 441.37 188.541 441.37 188.541 0 188.874 0.333333 0 0.333333ZM192.874 440.037 188.874 448.037 184.874 440.037Z" fill="#00B0F0" transform="matrix(-1.83697e-16 -1 -1 1.83697e-16 832.537 322.374)"/><path d="M634.5 181.334C634.5 178.112 637.112 175.5 640.333 175.5L697.667 175.5C700.888 175.5 703.5 178.112 703.5 181.334L703.5 204.667C703.5 207.888 700.888 210.5 697.667 210.5L640.333 210.5C637.112 210.5 634.5 207.888 634.5 204.667Z" stroke="#2F528F" stroke-width="1.33333" stroke-miterlimit="8" fill="#993366" fill-rule="evenodd"/><text fill="#FFFFFF" font-family="DengXian,DengXian_MSFontService,sans-serif" font-weight="400" font-size="16" transform="translate(650.277 198)">Seller</text><path d="M90.5001 384.333C90.5001 381.112 93.1118 378.5 96.3335 378.5L176.667 378.5C179.888 378.5 182.5 381.112 182.5 384.333L182.5 407.667C182.5 410.888 179.888 413.5 176.667 413.5L96.3335 413.5C93.1118 413.5 90.5001 410.888 90.5001 407.667Z" stroke="#2F528F" stroke-width="1.33333" stroke-miterlimit="8" fill="#993366" fill-rule="evenodd"/><text fill="#FFFFFF" font-family="DengXian,DengXian_MSFontService,sans-serif" font-weight="400" font-size="16" transform="translate(104.493 401)">Publisher</text></g></svg>