<svg width="1280" height="720" xmlns="http://www.w3.org/2000/svg" xmlns:xlink="http://www.w3.org/1999/xlink" overflow="hidden"><g><rect x="0" y="0" width="1280" height="720" fill="#131321"/><text fill="#FFFFFF" font-family="DengXian,DengXian_MSFontService,sans-serif" font-weight="700" font-size="24" transform="translate(452.333 56)">Transaction rewards</text><text fill="#FFFFFF" font-family="DengXian,DengXian_MSFontService,sans-serif" font-weight="700" font-size="24" transform="translate(677.667 56)">Allocation</text><rect x="359.5" y="501.5" width="82" height="45" stroke="#4472C4" stroke-linejoin="round" stroke-miterlimit="10" fill="#2D3049"/><text fill="#FFFFFF" font-family="Microsoft YaHei,Microsoft YaHei_MSFontService,sans-serif" font-weight="400" font-size="14.6667" transform="translate(376.678 520)">Minter</text><text fill="#FFFFFF" font-family="Microsoft YaHei,Microsoft YaHei_MSFontService,sans-serif" font-weight="400" font-size="14.6667" transform="translate(372.258 538)">rewards</text><rect x="742.5" y="478.5" width="106" height="60" stroke="#4472C4" stroke-linejoin="round" stroke-miterlimit="10" fill="#2D3049"/><text fill="#FFFFFF" font-family="Microsoft YaHei,Microsoft YaHei_MSFontService,sans-serif" font-weight="400" font-size="14" transform="translate(751.249 496)">DAO</text><text fill="#FFFFFF" font-family="Calibri,Calibri_MSFontService,sans-serif" font-weight="400" font-size="14" transform="translate(751.249 513)">Governance</text><text fill="#FFFFFF" font-family="Calibri,Calibri_MSFontService,sans-serif" font-weight="400" font-size="14" transform="translate(751.249 530)">Fund</text><rect x="869.5" y="478.5" width="97" height="45" stroke="#4472C4" stroke-linejoin="round" stroke-miterlimit="10" fill="#2D3049"/><text fill="#FFFFFF" font-family="Calibri,Calibri_MSFontService,sans-serif" font-weight="400" font-size="14" transform="translate(879.022 496)">Spoilage</text><text fill="#FFFFFF" font-family="Calibri,Calibri_MSFontService,sans-serif" font-weight="400" font-size="14" transform="translate(879.022 513)">Witness Fund</text><rect x="989.5" y="478.5" width="96.9999" height="60" stroke="#4472C4" stroke-linejoin="round" stroke-miterlimit="10" fill="#2D3049"/><text fill="#FFFFFF" font-family="Calibri,Calibri_MSFontService,sans-serif" font-weight="400" font-size="14" transform="translate(998.975 496)">Ecological</text><text fill="#FFFFFF" font-family="Calibri,Calibri_MSFontService,sans-serif" font-weight="400" font-size="14" transform="translate(998.975 513)">Development</text><text fill="#FFFFFF" font-family="Calibri,Calibri_MSFontService,sans-serif" font-weight="400" font-size="14" transform="translate(998.975 530)">Fund</text><path d="M0-1 38.8339-1 38.8339 254.265 36.8339 254.265 36.8339 0 37.8339 1 0 1ZM41.8339 252.932 37.8339 260.932 33.8339 252.932Z" fill="#4472C4" transform="matrix(1.83697e-16 1 1 -1.83697e-16 621 229)"/><path d="M622.479 163 622.479 267.858 467.667 267.858 467.667 265.858 621.479 265.858 620.479 266.858 620.479 163ZM469 270.858 461 266.858 469 262.858Z" fill="#4472C4"/><path d="M0-1 49.2798-1 49.2798 119.707 48.2798 118.707 89.8929 118.707 89.8929 120.707 47.2798 120.707 47.2798 0 48.2798 1 0 1ZM88.5596 115.707 96.5596 119.707 88.5596 123.707Z" fill="#4472C4" transform="matrix(1.83697e-16 1 1 -1.83697e-16 918 283)"/><path d="M919.321 283 919.321 331.678 795 331.678 796 330.678 796 371.689 794 371.689 794 329.678 918.321 329.678 917.321 330.678 917.321 283ZM799 370.356 795 378.356 791 370.356Z" fill="#4472C4"/><path d="M919 283 919 372.893 917 372.893 917 283ZM922 371.56 918 379.56 914 371.56Z" fill="#4472C4"/><path d="M796 410 796 470.709 794 470.709 794 410ZM799 469.376 795 477.376 791 469.376Z" fill="#4472C4"/><path d="M0.999993-0.00371891 1.22129 59.5017-0.778696 59.5091-0.999993 0.00371891ZM4.21631 58.1571 0.246089 66.172-3.78363 58.1869Z" fill="#4472C4" transform="matrix(-1 0 0 1 918.246 412)"/><path d="M1039 412 1039 471.505 1037 471.505 1037 412ZM1042 470.172 1038 478.172 1034 470.172Z" fill="#4472C4"/><rect x="1109.5" y="478.5" width="97" height="45" stroke="#4472C4" stroke-linejoin="round" stroke-miterlimit="10" fill="#2D3049"/><text fill="#FFFFFF" font-family="Calibri,Calibri_MSFontService,sans-serif" font-weight="400" font-size="14" transform="translate(1118.93 496)">Legal Advisor</text><text fill="#FFFFFF" font-family="Calibri,Calibri_MSFontService,sans-serif" font-weight="400" font-size="14" transform="translate(1118.93 513)">Fund</text><path d="M1159 413 1159 470.908 1157 470.908 1157 413ZM1162 469.574 1158 477.574 1154 469.574Z" fill="#4472C4"/><path d="M0-0.333333 49.412-0.333333 49.412 239.66 49.0787 239.326 91.4904 239.326 91.4904 239.993 48.7453 239.993 48.7453 0 49.0787 0.333333 0 0.333333ZM90.1571 235.66 98.1571 239.66 90.1571 243.66Z" fill="#4472C4" transform="matrix(1.83697e-16 1 1 -1.83697e-16 918.5 283.5)"/><path d="M556.5 213C556.5 203.887 563.887 196.5 573 196.5L670 196.5C679.113 196.5 686.5 203.887 686.5 213L686.5 213C686.5 222.113 679.113 229.5 670 229.5L573 229.5C563.887 229.5 556.5 222.113 556.5 213Z" stroke="#8497B0" stroke-width="1.33333" stroke-miterlimit="8" fill="#2D3049" fill-rule="evenodd"/><text fill="#FFFFFF" font-family="Microsoft YaHei,Microsoft YaHei_MSFontService,sans-serif" font-weight="400" font-size="14.6667" transform="translate(571.053 218)">Amount 100%</text><path d="M535.5 121.834C535.5 117.231 539.231 113.5 543.834 113.5L701.167 113.5C705.769 113.5 709.5 117.231 709.5 121.834L709.5 155.167C709.5 159.769 705.769 163.5 701.167 163.5L543.834 163.5C539.231 163.5 535.5 159.769 535.5 155.167Z" stroke="#2F528F" stroke-width="1.33333" stroke-miterlimit="8" fill="#204367" fill-rule="evenodd"/><text fill="#FFFFFF" font-family="Microsoft YaHei,Microsoft YaHei_MSFontService,sans-serif" font-weight="400" font-size="16" transform="translate(578.441 134)">Transaction</text><text fill="#FFFFFF" font-family="Microsoft YaHei,Microsoft YaHei_MSFontService,sans-serif" font-weight="400" font-size="16" transform="translate(592.001 154)">rewards</text><path d="M390.5 256C390.5 252.963 392.963 250.5 396 250.5L456 250.5C459.038 250.5 461.5 252.963 461.5 256L461.5 278C461.5 281.038 459.038 283.5 456 283.5L396 283.5C392.963 283.5 390.5 281.038 390.5 278Z" stroke="#2F528F" stroke-width="1.33333" stroke-miterlimit="8" fill="#7030A0" fill-rule="evenodd"/><text fill="#FFFFFF" font-family="Microsoft YaHei,Microsoft YaHei_MSFontService,sans-serif" font-weight="400" font-size="16" transform="translate(409.138 272)">90%</text><path d="M882.5 256C882.5 252.963 884.963 250.5 888 250.5L949 250.5C952.038 250.5 954.5 252.963 954.5 256L954.5 278C954.5 281.038 952.038 283.5 949 283.5L888 283.5C884.963 283.5 882.5 281.038 882.5 278Z" stroke="#2F528F" stroke-width="1.33333" stroke-miterlimit="8" fill="#BF9000" fill-rule="evenodd"/><text fill="#FFFFFF" font-family="Microsoft YaHei,Microsoft YaHei_MSFontService,sans-serif" font-weight="400" font-size="16" transform="translate(906.225 272)">5%</text><path d="M759.5 383.834C759.5 380.888 761.888 378.5 764.833 378.5L826.167 378.5C829.112 378.5 831.5 380.888 831.5 383.834L831.5 405.167C831.5 408.112 829.112 410.5 826.167 410.5L764.833 410.5C761.888 410.5 759.5 408.112 759.5 405.167Z" stroke="#2F528F" stroke-width="1.33333" stroke-miterlimit="8" fill="#2F5597" fill-rule="evenodd"/><text fill="#FFFFFF" font-family="Microsoft YaHei,Microsoft YaHei_MSFontService,sans-serif" font-weight="400" font-size="16" transform="translate(778.237 400)">40%</text><path d="M882.5 385C882.5 381.963 884.963 379.5 888 379.5L949 379.5C952.038 379.5 954.5 381.963 954.5 385L954.5 407C954.5 410.038 952.038 412.5 949 412.5L888 412.5C884.963 412.5 882.5 410.038 882.5 407Z" stroke="#2F528F" stroke-width="1.33333" stroke-miterlimit="8" fill="#2F5597" fill-rule="evenodd"/><text fill="#FFFFFF" font-family="Microsoft YaHei,Microsoft YaHei_MSFontService,sans-serif" font-weight="400" font-size="16" transform="translate(901.558 401)">30%</text><path d="M1002.5 385C1002.5 381.963 1004.96 379.5 1008 379.5L1069 379.5C1072.04 379.5 1074.5 381.963 1074.5 385L1074.5 407C1074.5 410.038 1072.04 412.5 1069 412.5L1008 412.5C1004.96 412.5 1002.5 410.038 1002.5 407Z" stroke="#2F528F" stroke-width="1.33333" stroke-miterlimit="8" fill="#2F5597" fill-rule="evenodd"/><text fill="#FFFFFF" font-family="Microsoft YaHei,Microsoft YaHei_MSFontService,sans-serif" font-weight="400" font-size="16" transform="translate(1021.26 401)">20%</text><path d="M1122.5 386.834C1122.5 383.888 1124.89 381.5 1127.83 381.5L1189.17 381.5C1192.11 381.5 1194.5 383.888 1194.5 386.834L1194.5 408.167C1194.5 411.112 1192.11 413.5 1189.17 413.5L1127.83 413.5C1124.89 413.5 1122.5 411.112 1122.5 408.167Z" stroke="#2F528F" stroke-width="1.33333" stroke-miterlimit="8" fill="#2F5597" fill-rule="evenodd"/><text fill="#FFFFFF" font-family="Microsoft YaHei,Microsoft YaHei_MSFontService,sans-serif" font-weight="400" font-size="16" transform="translate(1141.22 402)">10%</text><path d="M407.5 386.833C407.5 383.888 409.888 381.5 412.833 381.5L484.167 381.5C487.112 381.5 489.5 383.888 489.5 386.833L489.5 408.167C489.5 411.112 487.112 413.5 484.167 413.5L412.833 413.5C409.888 413.5 407.5 411.112 407.5 408.167Z" stroke="#2F528F" stroke-width="1.33333" stroke-miterlimit="8" fill="#2F5597" fill-rule="evenodd"/><text fill="#FFFFFF" font-family="Microsoft YaHei,Microsoft YaHei_MSFontService,sans-serif" font-weight="400" font-size="16" transform="translate(431.596 403)">84%</text><rect x="578.5" y="502.5" width="88" height="63" stroke="#4472C4" stroke-linejoin="round" stroke-miterlimit="10" fill="#2D3049"/><text fill="#FFFFFF" font-family="Microsoft YaHei,Microsoft YaHei_MSFontService,sans-serif" font-weight="400" font-size="14.6667" transform="translate(602.053 521)">Buyer</text><text fill="#FFFFFF" font-family="Microsoft YaHei,Microsoft YaHei_MSFontService,sans-serif" font-weight="400" font-size="14.6667" transform="translate(598.72 539)">Minter</text><text fill="#FFFFFF" font-family="Microsoft YaHei,Microsoft YaHei_MSFontService,sans-serif" font-weight="400" font-size="14.6667" transform="translate(607.72 556)">Dao</text><path d="M623 412.998 623.141 495.54 621.141 495.544 621 413.002ZM626.139 494.202 622.152 502.208 618.139 494.215Z" fill="#4472C4"/><path d="M586.5 386.834C586.5 383.888 588.888 381.5 591.833 381.5L653.167 381.5C656.112 381.5 658.5 383.888 658.5 386.834L658.5 408.167C658.5 411.112 656.112 413.5 653.167 413.5L591.833 413.5C588.888 413.5 586.5 411.112 586.5 408.167Z" stroke="#2F528F" stroke-width="1.33333" stroke-miterlimit="8" fill="#00B050" fill-rule="evenodd"/><text fill="#FFFFFF" font-family="Microsoft YaHei,Microsoft YaHei_MSFontService,sans-serif" font-weight="400" font-size="16" transform="translate(610.151 402)">5%</text><rect x="234.5" y="503.5" width="94" height="27" stroke="#4472C4" stroke-linejoin="round" stroke-miterlimit="10" fill="#2D3049"/><text fill="#FFFFFF" font-family="Microsoft YaHei,Microsoft YaHei_MSFontService,sans-serif" font-weight="400" font-size="14.6667" transform="translate(244.164 521)">Completer</text><path d="M0.999995-0.00314994 1.25501 80.9537-0.744984 80.96-0.999995 0.00314994ZM4.25079 79.611 0.27601 87.6235-3.74917 79.6362Z" fill="#4472C4" transform="matrix(-1 0 0 1 281.276 415)"/><path d="M245.5 388.834C245.5 385.888 247.888 383.5 250.834 383.5L312.167 383.5C315.112 383.5 317.5 385.888 317.5 388.834L317.5 410.167C317.5 413.112 315.112 415.5 312.167 415.5L250.834 415.5C247.888 415.5 245.5 413.112 245.5 410.167Z" stroke="#2F528F" stroke-width="1.33333" stroke-miterlimit="8" fill="#2F5597" fill-rule="evenodd"/><text fill="#FFFFFF" font-family="Microsoft YaHei,Microsoft YaHei_MSFontService,sans-serif" font-weight="400" font-size="16" transform="translate(269.606 404)">3%</text><rect x="105.5" y="502.5" width="72" height="27" stroke="#4472C4" stroke-linejoin="round" stroke-miterlimit="10" fill="#2D3049"/><text fill="#FFFFFF" font-family="Microsoft YaHei,Microsoft YaHei_MSFontService,sans-serif" font-weight="400" font-size="14.6667" transform="translate(126.893 521)">Dao</text><path d="M142 413 142 494.844 140 494.844 140 413ZM145 493.51 141 501.51 137 493.51Z" fill="#4472C4"/><path d="M105.5 386.834C105.5 383.888 107.888 381.5 110.834 381.5L172.167 381.5C175.112 381.5 177.5 383.888 177.5 386.834L177.5 408.167C177.5 411.112 175.112 413.5 172.167 413.5L110.834 413.5C107.888 413.5 105.5 411.112 105.5 408.167Z" stroke="#2F528F" stroke-width="1.33333" stroke-miterlimit="8" fill="#2F5597" fill-rule="evenodd"/><text fill="#FFFFFF" font-family="Microsoft YaHei,Microsoft YaHei_MSFontService,sans-serif" font-weight="400" font-size="16" transform="translate(129.477 403)">3%</text><path d="M0-0.333333 49.5047-0.333333 49.5047 22.4571 49.1713 22.1238 91.676 22.1238 91.676 22.7904 48.838 22.7904 48.838 0 49.1713 0.333333 0 0.333333ZM90.3427 18.4571 98.3427 22.4571 90.3427 26.4571Z" fill="#4472C4" transform="matrix(1.83697e-16 1 1 -1.83697e-16 426.5 283.5)"/><path d="M426.032 283.5 426.032 333.797 281.5 333.797 281.833 333.464 281.833 376.761 281.167 376.761 281.167 333.131 425.699 333.131 425.365 333.464 425.365 283.5ZM285.5 375.428 281.5 383.428 277.5 375.428Z" fill="#4472C4"/><path d="M426.162 283.5 426.162 333.005 141.5 333.005 141.833 332.672 141.833 375.176 141.167 375.176 141.167 332.338 425.828 332.338 425.495 332.672 425.495 283.5ZM145.5 373.843 141.5 381.843 137.5 373.843Z" fill="#4472C4"/><path d="M733 364.001C733 334.729 756.729 311 786.001 311L1163 311C1192.27 311 1216 334.729 1216 364.001L1216 575.999C1216 605.271 1192.27 629 1163 629L786.001 629C756.729 629 733 605.271 733 575.999Z" stroke="#526590" stroke-width="2" stroke-miterlimit="8" stroke-dasharray="2 2" fill="none" fill-rule="evenodd"/><text fill="#FFFFFF" font-family="DengXian,DengXian_MSFontService,sans-serif" font-weight="400" font-size="14.6667" transform="translate(761.788 582)">DAO can adjust the allocation of funds through voting governance.</text><rect x="783" y="273" width="82" height="26" fill="#333F50"/><text fill="#FFFFFF" font-family="DengXian,DengXian_MSFontService,sans-serif" font-weight="400" font-size="13.3333" transform="translate(792.642 289)">Service fee</text><rect x="462.5" y="661.5" width="72" height="27" stroke="#4472C4" stroke-linejoin="round" stroke-miterlimit="10" fill="#2D3049"/><text fill="#FFFFFF" font-family="Microsoft YaHei,Microsoft YaHei_MSFontService,sans-serif" font-weight="400" font-size="14.6667" transform="translate(477.845 680)">Buyer</text><path d="M448.838 413.5 448.838 457.645 400.5 457.645 400.833 457.312 400.833 494.457 400.167 494.457 400.167 456.978 448.504 456.978 448.171 457.312 448.171 413.5ZM404.5 493.124 400.5 501.124 396.5 493.124Z" fill="#4472C4"/><path d="M0-0.333333 44.673-0.333333 44.673 49.8324 44.3397 49.4991 241.041 49.4991 241.041 50.1658 44.0064 50.1658 44.0064 0 44.3397 0.333333 0 0.333333ZM239.707 45.8324 247.707 49.8324 239.707 53.8324Z" fill="#4472C4" transform="matrix(1.83697e-16 1 1 -1.83697e-16 448.5 413.5)"/><rect x="417" y="562" width="138" height="58" fill="#333F50"/><text fill="#FFFFFF" font-family="DengXian,DengXian_MSFontService,sans-serif" font-weight="400" font-size="13.3333" transform="translate(426.446 579)">If deliver overtime</text><text fill="#FFFFFF" font-family="DengXian,DengXian_MSFontService,sans-serif" font-weight="400" font-size="13.3333" transform="translate(426.446 595)">Return partial funds</text><text fill="#FFFFFF" font-family="DengXian,DengXian_MSFontService,sans-serif" font-weight="400" font-size="13.3333" transform="translate(426.446 611)">proportionally</text><path d="M212 383.167C212 370.372 222.372 360 235.167 360L327.833 360C340.628 360 351 370.372 351 383.167L351 626.833C351 639.628 340.628 650 327.833 650L235.167 650C222.372 650 212 639.628 212 626.833Z" stroke="#526590" stroke-width="2" stroke-miterlimit="8" stroke-dasharray="8 6" fill="none" fill-rule="evenodd"/><text fill="#FFFFFF" font-family="DengXian,DengXian_MSFontService,sans-serif" font-weight="400" font-size="14.6667" transform="translate(234.201 603)">It cannot be the</text><text fill="#FFFFFF" font-family="DengXian,DengXian_MSFontService,sans-serif" font-weight="400" font-size="14.6667" transform="translate(234.201 620)">minter or buyer.</text><path d="M91.5001 458C91.5001 450.544 97.5442 444.5 105 444.5L178 444.5C185.456 444.5 191.5 450.544 191.5 458L191.5 458C191.5 465.456 185.456 471.5 178 471.5L105 471.5C97.5442 471.5 91.5001 465.456 91.5001 458Z" stroke="#8497B0" stroke-width="1.33333" stroke-miterlimit="8" fill="#2D3049" fill-rule="evenodd"/><text fill="#FFFFFF" font-family="Microsoft YaHei,Microsoft YaHei_MSFontService,sans-serif" font-weight="400" font-size="13.3333" transform="translate(118.704 463)">Deliver</text><path d="M235.5 463.5C235.5 453.007 244.007 444.5 254.5 444.5L310.5 444.5C320.994 444.5 329.5 453.007 329.5 463.5L329.5 463.5C329.5 473.994 320.993 482.5 310.5 482.5L254.5 482.5C244.007 482.5 235.5 473.993 235.5 463.5Z" stroke="#8497B0" stroke-width="1.33333" stroke-miterlimit="8" fill="#2D3049" fill-rule="evenodd"/><text fill="#FFFFFF" font-family="Microsoft YaHei,Microsoft YaHei_MSFontService,sans-serif" font-weight="400" font-size="13.3333" transform="translate(250.939 460)">Complete</text><text fill="#FFFFFF" font-family="Microsoft YaHei,Microsoft YaHei_MSFontService,sans-serif" font-weight="400" font-size="13.3333" transform="translate(263.352 476)">Order</text><path d="M559.5 460C559.5 452.544 565.544 446.5 573 446.5L680 446.5C687.456 446.5 693.5 452.544 693.5 460L693.5 460C693.5 467.456 687.456 473.5 680 473.5L573 473.5C565.544 473.5 559.5 467.456 559.5 460Z" stroke="#8497B0" stroke-width="1.33333" stroke-miterlimit="8" fill="#2D3049" fill-rule="evenodd"/><text fill="#FFFFFF" font-family="Microsoft YaHei,Microsoft YaHei_MSFontService,sans-serif" font-weight="400" font-size="13.3333" transform="translate(578.758 464)">Publish reward</text><path d="M64 384.167C64 371.372 74.3723 361 87.1671 361L179.833 361C192.628 361 203 371.372 203 384.167L203 626.833C203 639.628 192.628 650 179.833 650L87.1671 650C74.3723 650 64 639.628 64 626.833Z" stroke="#526590" stroke-width="2" stroke-miterlimit="8" stroke-dasharray="8 6" fill="none" fill-rule="evenodd"/><text fill="#FFFFFF" font-family="DengXian,DengXian_MSFontService,sans-serif" font-weight="400" font-size="14.6667" transform="translate(86.194 603)">It cannot be the</text><text fill="#FFFFFF" font-family="DengXian,DengXian_MSFontService,sans-serif" font-weight="400" font-size="14.6667" transform="translate(86.194 620)">minter.</text><path d="M621.833 229.498 622.565 374.979 621.898 374.982 621.167 229.502ZM626.225 373.627 622.265 381.647 618.225 373.668Z" fill="#4472C4"/></g></svg>