<svg width="1280" height="720" xmlns="http://www.w3.org/2000/svg" xmlns:xlink="http://www.w3.org/1999/xlink" overflow="hidden"><g><rect x="0" y="0" width="1280" height="720" fill="#131321"/><path d="M471 217.755C471 196.903 487.903 180 508.755 180L802.245 180C823.097 180 840 196.903 840 217.755L840 459.245C840 480.097 823.097 497 802.245 497L508.755 497C487.903 497 471 480.097 471 459.245Z" stroke="#526590" stroke-width="2" stroke-miterlimit="8" stroke-dasharray="2 2" fill="#222A35" fill-rule="evenodd"/><path d="M153.515 464.5C146.327 464.5 140.5 458.673 140.5 451.485L140.5 372.515C140.5 365.327 146.327 359.5 153.515 359.5L165.485 359.5C172.673 359.5 178.5 365.327 178.5 372.515L178.5 451.485C178.5 458.673 172.673 464.5 165.485 464.5Z" stroke="#B4C7E7" stroke-width="1.33333" stroke-miterlimit="8" fill="#BF9000" fill-rule="evenodd"/><text fill="#FFFFFF" font-family="DengXian,DengXian_MSFontService,sans-serif" font-weight="700" font-size="13.3333" transform="matrix(-1.83697e-16 -1 1 -1.83697e-16 162.7 426)">Mint</text><path d="M308.515 333.5C301.327 333.5 295.5 327.673 295.5 320.485L295.5 286.515C295.5 279.327 301.327 273.5 308.515 273.5L320.485 273.5C327.673 273.5 333.5 279.327 333.5 286.515L333.5 320.485C333.5 327.673 327.673 333.5 320.485 333.5Z" stroke="#B3B3B3" stroke-width="1.33333" stroke-miterlimit="8" fill="#561043" fill-rule="evenodd"/><text fill="#FFFFFF" font-family="DengXian,DengXian_MSFontService,sans-serif" font-weight="700" font-size="13.3333" transform="matrix(-1.83697e-16 -1 1 -1.83697e-16 318.11 314)">Sell</text><path d="M308.515 535.5C301.327 535.5 295.5 529.673 295.5 522.485L295.5 474.515C295.5 467.327 301.327 461.5 308.515 461.5L320.485 461.5C327.673 461.5 333.5 467.327 333.5 474.515L333.5 522.485C333.5 529.673 327.673 535.5 320.485 535.5Z" stroke="#B3B3B3" stroke-width="1.33333" stroke-miterlimit="8" fill="#561043" fill-rule="evenodd"/><text fill="#FFFFFF" font-family="DengXian,DengXian_MSFontService,sans-serif" font-weight="700" font-size="13.3333" transform="matrix(-1.83697e-16 -1 1 -1.83697e-16 318.11 522)">Auction</text><path d="M499.515 457.5C492.327 457.5 486.5 451.673 486.5 444.485L486.5 378.515C486.5 371.327 492.327 365.5 499.515 365.5L511.485 365.5C518.673 365.5 524.5 371.327 524.5 378.515L524.5 444.485C524.5 451.673 518.673 457.5 511.485 457.5Z" stroke="#B3B3B3" stroke-width="1.33333" stroke-miterlimit="8" fill="#7F6000" fill-rule="evenodd"/><text fill="#FFFFFF" font-family="DengXian,DengXian_MSFontService,sans-serif" font-weight="700" font-size="13.3333" transform="matrix(-1.83697e-16 -1 1 -1.83697e-16 508.79 433)">Deliver</text><path d="M914.857 459.5C907.48 459.5 901.5 453.52 901.5 446.143L901.5 377.857C901.5 370.48 907.48 364.5 914.857 364.5L927.143 364.5C934.52 364.5 940.5 370.48 940.5 377.857L940.5 446.143C940.5 453.52 934.52 459.5 927.143 459.5Z" stroke="#B3B3B3" stroke-width="1.33333" stroke-miterlimit="8" fill="#7030A0" fill-rule="evenodd"/><text fill="#FFFFFF" font-family="DengXian,DengXian_MSFontService,sans-serif" font-weight="700" font-size="13.3333" transform="matrix(-1.83697e-16 -1 1 -1.83697e-16 916.561 441)">Complete</text><text fill="#FFFFFF" font-family="DengXian,DengXian_MSFontService,sans-serif" font-weight="700" font-size="13.3333" transform="matrix(-1.83697e-16 -1 1 -1.83697e-16 932.561 429)">Order</text><path d="M648.857 344.5C641.48 344.5 635.5 338.52 635.5 331.143L635.5 264.857C635.5 257.48 641.48 251.5 648.857 251.5L661.143 251.5C668.52 251.5 674.5 257.48 674.5 264.857L674.5 331.143C674.5 338.52 668.52 344.5 661.143 344.5Z" stroke="#B3B3B3" stroke-width="1.33333" stroke-miterlimit="8" fill="#843C0C" fill-rule="evenodd"/><text fill="#FFFFFF" font-family="DengXian,DengXian_MSFontService,sans-serif" font-weight="700" font-size="13.3333" transform="matrix(-1.83697e-16 -1 1 -1.83697e-16 650.851 322)">Request</text><text fill="#FFFFFF" font-family="DengXian,DengXian_MSFontService,sans-serif" font-weight="700" font-size="13.3333" transform="matrix(-1.83697e-16 -1 1 -1.83697e-16 666.851 319)">Refund</text><path d="M1030.51 356.5C1023.33 356.5 1017.5 350.673 1017.5 343.485L1017.5 253.515C1017.5 246.327 1023.33 240.5 1030.51 240.5L1042.49 240.5C1049.67 240.5 1055.5 246.327 1055.5 253.515L1055.5 343.485C1055.5 350.673 1049.67 356.5 1042.49 356.5Z" stroke="#ADB9CA" stroke-width="1.33333" stroke-miterlimit="8" fill="#2D3049" fill-rule="evenodd"/><text fill="#FFFFFF" font-family="DengXian,DengXian_MSFontService,sans-serif" font-weight="400" font-size="13.3333" transform="matrix(-1.83697e-16 -1 1 -1.83697e-16 1031.8 339)">Confidentiality</text><text fill="#FFFFFF" font-family="DengXian,DengXian_MSFontService,sans-serif" font-weight="400" font-size="13.3333" transform="matrix(-1.83697e-16 -1 1 -1.83697e-16 1047.8 307)">fee</text><path d="M1194.86 448.5C1187.48 448.5 1181.5 442.52 1181.5 435.143L1181.5 388.857C1181.5 381.48 1187.48 375.5 1194.86 375.5L1207.14 375.5C1214.52 375.5 1220.5 381.48 1220.5 388.857L1220.5 435.143C1220.5 442.52 1214.52 448.5 1207.14 448.5Z" stroke="#B3B3B3" stroke-width="1.33333" stroke-miterlimit="8" fill="#00B050" fill-rule="evenodd"/><text fill="#FFFFFF" font-family="DengXian,DengXian_MSFontService,sans-serif" font-weight="700" font-size="13.3333" transform="matrix(-1.83697e-16 -1 1 -1.83697e-16 1204.69 433)">Publish</text><rect x="366" y="310" width="26" height="41" fill="#333F50"/><text fill="#FFFFFF" font-family="DengXian,DengXian_MSFontService,sans-serif" font-weight="400" font-size="13.3333" transform="matrix(-1.83697e-16 -1 1 -1.83697e-16 382.693 342)">buy</text><text fill="#FFFFFF" font-family="DengXian,DengXian_MSFontService,sans-serif" font-weight="400" font-size="14" transform="matrix(-1.83697e-16 -1 1 -1.83697e-16 310.806 81)">Minter</text><text fill="#FFFFFF" font-family="DengXian,DengXian_MSFontService,sans-serif" font-weight="400" font-size="14" transform="matrix(-1.83697e-16 -1 1 -1.83697e-16 327.806 81)">Seller</text><text fill="#FFFFFF" font-family="DengXian,DengXian_MSFontService,sans-serif" font-weight="400" font-size="14" transform="matrix(-1.83697e-16 -1 1 -1.83697e-16 379.612 82)">buyer</text><rect x="366" y="452" width="26" height="38" fill="#333F50"/><text fill="#FFFFFF" font-family="DengXian,DengXian_MSFontService,sans-serif" font-weight="400" font-size="13.3333" transform="matrix(-1.83697e-16 -1 1 -1.83697e-16 382.693 480)">bid</text><text fill="#FFFFFF" font-family="DengXian,DengXian_MSFontService,sans-serif" font-weight="400" font-size="14" transform="matrix(-1.83697e-16 -1 1 -1.83697e-16 505.2 82)">Minter</text><text fill="#FFFFFF" font-family="DengXian,DengXian_MSFontService,sans-serif" font-weight="400" font-size="14" transform="matrix(-1.83697e-16 -1 1 -1.83697e-16 522.2 82)">Dao</text><text fill="#FFFFFF" font-family="DengXian,DengXian_MSFontService,sans-serif" font-weight="400" font-size="14" transform="matrix(-1.83697e-16 -1 1 -1.83697e-16 1044.72 81)">buyer</text><text fill="#FFFFFF" font-family="DengXian,DengXian_MSFontService,sans-serif" font-weight="400" font-size="14" transform="matrix(-1.83697e-16 -1 1 -1.83697e-16 653.051 82)">buyer</text><path d="M55.8572 453.5C48.4803 453.5 42.5001 447.52 42.5001 440.143L42.5001 382.857C42.5001 375.48 48.4803 369.5 55.8572 369.5L68.143 369.5C75.5199 369.5 81.5001 375.48 81.5001 382.857L81.5001 440.143C81.5001 447.52 75.5199 453.5 68.143 453.5Z" stroke="#ADB9CA" stroke-width="1.33333" stroke-miterlimit="8" fill="#2D3049" fill-rule="evenodd"/><text fill="#FFFFFF" font-family="DengXian,DengXian_MSFontService,sans-serif" font-weight="400" font-size="13.3333" transform="matrix(-1.83697e-16 -1 1 -1.83697e-16 65.6414 437)">Evidence</text><path d="M0-0.333333 58.8384-0.333333 58.8384 108.261 58.5051 107.928 110.344 107.928 110.344 108.595 58.1718 108.595 58.1718 0 58.5051 0.333333 0 0.333333ZM109.01 104.261 117.01 108.261 109.01 112.261Z" fill="#00B0F0" transform="matrix(1 0 0 -1 178.5 411.761)"/><path d="M178.5 411.167 237.338 411.167 237.338 498.378 237.005 498.044 288.844 498.044 288.844 498.711 236.672 498.711 236.672 411.5 237.005 411.833 178.5 411.833ZM287.51 494.378 295.51 498.378 287.51 502.378Z" fill="#00B0F0"/><path d="M81.5001 411.167 133.492 411.167 133.492 411.833 81.5001 411.833ZM132.159 407.5 140.159 411.5 132.159 415.5Z" fill="#00B0F0"/><path d="M524.5 411.167 895.205 411.167 895.205 411.833 524.5 411.833ZM893.871 407.5 901.871 411.5 893.871 415.5Z" fill="#00B0F0"/><path d="M798.5 213.167 1201.13 213.167 1201.13 368.22 1200.47 368.22 1200.47 213.5 1200.8 213.833 798.5 213.833ZM1204.8 366.887 1200.8 374.887 1196.8 366.887Z" fill="#00B0F0"/><path d="M1055.5 298.167 1201.52 298.167 1201.52 368.482 1200.85 368.482 1200.85 298.5 1201.19 298.833 1055.5 298.833ZM1205.19 367.149 1201.19 375.149 1197.19 367.149Z" fill="#00B0F0"/><path d="M1.44773e-07-0.333333 235.061-0.333231 235.061 0.333435-1.44773e-07 0.333333ZM233.727-3.9999 241.727 0.000104987 233.727 4.0001Z" fill="#00B0F0" transform="matrix(1 0 0 -1 940.5 411.5)"/><text fill="#FFFFFF" font-family="DengXian,DengXian_MSFontService,sans-serif" font-weight="400" font-size="14" transform="matrix(-1.83697e-16 -1 1 -1.83697e-16 910.434 92)">Buyer</text><text fill="#FFFFFF" font-family="DengXian,DengXian_MSFontService,sans-serif" font-weight="400" font-size="14" transform="matrix(-1.83697e-16 -1 1 -1.83697e-16 927.434 92)">Minter</text><text fill="#FFFFFF" font-family="DengXian,DengXian_MSFontService,sans-serif" font-weight="400" font-size="14" transform="matrix(-1.83697e-16 -1 1 -1.83697e-16 944.434 92)">Completer</text><path d="M333.5 303.167 409.973 303.167 409.973 411.761 409.64 411.428 479.113 411.428 479.113 412.094 409.307 412.094 409.307 303.5 409.64 303.833 333.5 303.833ZM477.78 407.761 485.78 411.761 477.78 415.761Z" fill="#00B0F0"/><path d="M0-0.333333 76.4732-0.333333 76.4732 86.878 76.1399 86.5447 145.613 86.5447 145.613 87.2113 75.8066 87.2113 75.8066 0 76.1399 0.333333 0 0.333333ZM144.28 82.878 152.28 86.878 144.28 90.878Z" fill="#00B0F0" transform="matrix(1 0 0 -1 333.5 498.378)"/><path d="M505.167 365.592 505.167 296.167 555.058 296.167 555.058 296.833 505.5 296.833 505.833 296.5 505.833 365.592ZM553.724 292.5 561.724 296.5 553.724 300.5Z" fill="#00B0F0"/><path d="M921.167 364.235 921.167 298.167 1010.87 298.167 1010.87 298.833 921.5 298.833 921.833 298.5 921.833 364.235ZM1009.54 294.5 1017.54 298.5 1009.54 302.5Z" fill="#00B0F0"/><rect x="763" y="218" width="25" height="55" fill="#1F4E79"/><text fill="#FFFFFF" font-family="DengXian,DengXian_MSFontService,sans-serif" font-weight="400" font-size="13.3333" transform="matrix(-1.83697e-16 -1 1 -1.83697e-16 779.439 263)">refuse</text><rect x="763" y="156" width="25" height="52" fill="#1F4E79"/><text fill="#FFFFFF" font-family="DengXian,DengXian_MSFontService,sans-serif" font-weight="400" font-size="13.3333" transform="matrix(-1.83697e-16 -1 1 -1.83697e-16 779.439 199)">agree</text><rect x="970" y="275" width="26" height="40" fill="#333F50"/><text fill="#FFFFFF" font-family="DengXian,DengXian_MSFontService,sans-serif" font-weight="400" font-size="13.3333" transform="matrix(-1.83697e-16 -1 1 -1.83697e-16 986.943 306)">pay</text><path d="M159.833 464.31 159.833 685.471 159.5 685.137 1201.49 685.137 1201.15 685.471 1201.15 455.167 1201.82 455.167 1201.82 685.804 159.167 685.804 159.167 464.31ZM1197.49 456.5 1201.49 448.5 1205.49 456.5Z" fill="#00B0F0"/><path d="M280 274.667C280 268.223 285.223 263 291.667 263L338.333 263C344.777 263 350 268.223 350 274.667L350 540.333C350 546.777 344.777 552 338.333 552L291.667 552C285.223 552 280 546.777 280 540.333Z" stroke="#526590" stroke-width="2" stroke-miterlimit="8" stroke-dasharray="2 2" fill="none" fill-rule="evenodd"/><path d="M315.833 551.861 315.833 685.979 315.5 685.646 1201.16 685.646 1200.83 685.979 1200.83 455.167 1201.5 455.167 1201.5 686.313 315.167 686.313 315.167 551.861ZM1197.16 456.5 1201.16 448.5 1205.16 456.5Z" fill="#00B0F0"/><path d="M571.775 343.5C566.1 343.5 561.5 338.9 561.5 333.225L561.5 260.775C561.5 255.1 566.1 250.5 571.775 250.5L581.225 250.5C586.9 250.5 591.5 255.1 591.5 260.775L591.5 333.225C591.5 338.9 586.9 343.5 581.225 343.5Z" stroke="#ADB9CA" stroke-width="1.33333" stroke-miterlimit="8" fill="#2D3049" fill-rule="evenodd"/><text fill="#FFFFFF" font-family="DengXian,DengXian_MSFontService,sans-serif" font-weight="400" font-size="13.3333" transform="matrix(-1.83697e-16 -1 1 -1.83697e-16 571.915 322)">In refund</text><text fill="#FFFFFF" font-family="DengXian,DengXian_MSFontService,sans-serif" font-weight="400" font-size="13.3333" transform="matrix(-1.83697e-16 -1 1 -1.83697e-16 587.915 324)">deadline?</text><path d="M591.508 296.167 629.278 297.047 629.263 297.713 591.492 296.833ZM628.031 293.35 635.935 297.536 627.844 301.348Z" fill="#00B0F0"/><path d="M539 252.167C539 240.477 548.477 231 560.167 231L693.833 231C705.523 231 715 240.477 715 252.167L715 336.833C715 348.523 705.523 358 693.833 358L560.167 358C548.477 358 539 348.523 539 336.833Z" stroke="#526590" stroke-width="2" stroke-miterlimit="8" stroke-dasharray="2 2" fill="none" fill-rule="evenodd"/><path d="M986.46 573.5C980.407 573.5 975.5 568.593 975.5 562.54L975.5 500.46C975.5 494.407 980.407 489.5 986.46 489.5L996.54 489.5C1002.59 489.5 1007.5 494.407 1007.5 500.46L1007.5 562.54C1007.5 568.593 1002.59 573.5 996.54 573.5Z" stroke="#ADB9CA" stroke-width="1.33333" stroke-miterlimit="8" fill="#203864" fill-rule="evenodd"/><text fill="#FFFFFF" font-family="DengXian,DengXian_MSFontService,sans-serif" font-weight="400" font-size="13.3333" transform="matrix(-1.83697e-16 -1 1 -1.83697e-16 994.696 555)">Rewards</text><path d="M0-0.333333 72.0417-0.333333 72.0417 47.5378 71.375 47.5378 71.375 0 71.7083 0.333333 0 0.333333ZM75.7083 46.2045 71.7083 54.2045 67.7083 46.2045Z" fill="#4472C4" transform="matrix(1.83697e-16 1 1 -1.83697e-16 921.5 459.5)"/><text fill="#FFFFFF" font-family="DengXian,DengXian_MSFontService,sans-serif" font-weight="400" font-size="14" transform="matrix(-1.83697e-16 -1 1 -1.83697e-16 765.011 83)">Minter</text><text fill="#FFFFFF" font-family="DengXian,DengXian_MSFontService,sans-serif" font-weight="400" font-size="14" transform="matrix(-1.83697e-16 -1 1 -1.83697e-16 782.011 83)">dao</text><path d="M959 255C959 242.85 968.85 233 981 233L1099 233C1111.15 233 1121 242.85 1121 255L1121 343C1121 355.15 1111.15 365 1099 365L981 365C968.85 365 959 355.15 959 343Z" stroke="#526590" stroke-width="2" stroke-miterlimit="8" stroke-dasharray="2 2" fill="none" fill-rule="evenodd"/><text fill="#FFFFFF" font-family="DengXian,DengXian_MSFontService,sans-serif" font-weight="400" font-size="14" transform="matrix(-1.83697e-16 -1 1 -1.83697e-16 163.638 82)">minter</text><path d="M288.46 662.5C282.407 662.5 277.5 657.593 277.5 651.54L277.5 592.46C277.5 586.407 282.407 581.5 288.46 581.5L298.54 581.5C304.593 581.5 309.5 586.407 309.5 592.46L309.5 651.54C309.5 657.593 304.593 662.5 298.54 662.5Z" stroke="#8497B0" stroke-width="1.33333" stroke-miterlimit="8" fill="none" fill-rule="evenodd"/><text fill="#ADB9CA" font-family="DengXian,DengXian_MSFontService,sans-serif" font-weight="400" font-size="13.3333" transform="matrix(-1.83697e-16 -1 1 -1.83697e-16 297.006 649)">No buyer</text><path d="M129.46 636.5C123.407 636.5 118.5 631.593 118.5 625.54L118.5 542.46C118.5 536.407 123.407 531.5 129.46 531.5L139.54 531.5C145.593 531.5 150.5 536.407 150.5 542.46L150.5 625.54C150.5 631.593 145.593 636.5 139.54 636.5Z" stroke="#8497B0" stroke-width="1.33333" stroke-miterlimit="8" fill="none" fill-rule="evenodd"/><text fill="#ADB9CA" font-family="DengXian,DengXian_MSFontService,sans-serif" font-weight="400" font-size="13.3333" transform="matrix(-1.83697e-16 -1 1 -1.83697e-16 138.026 623)">Minter public</text><path d="M509.5 92.5001 509.5 263.086" stroke="#7C7C7C" stroke-width="0.666667" stroke-miterlimit="8" fill="none" fill-rule="evenodd"/><path d="M375.5 92.5001 375.5 272.117" stroke="#7C7C7C" stroke-width="0.666667" stroke-miterlimit="8" fill="none" fill-rule="evenodd"/><path d="M0 0 0.000104987 159.574" stroke="#7C7C7C" stroke-width="0.666667" stroke-miterlimit="8" fill="none" fill-rule="evenodd" transform="matrix(-1 0 0 1 315.5 90.5001)"/><path d="M0 0 0.000104987 133.993" stroke="#7C7C7C" stroke-width="0.666667" stroke-miterlimit="8" fill="none" fill-rule="evenodd" transform="matrix(-1 0 0 1 649.5 92.5001)"/><path d="M923.5 102.5 923.5 294.744" stroke="#7C7C7C" stroke-width="0.666667" stroke-miterlimit="8" fill="none" fill-rule="evenodd"/><path d="M0 0 0.292493 141.867" stroke="#7C7C7C" stroke-width="0.666667" stroke-miterlimit="8" fill="none" fill-rule="evenodd" transform="matrix(-1 0 0 1 1040.79 91.5001)"/><text fill="#FFFFFF" font-family="DengXian,DengXian_MSFontService,sans-serif" font-weight="400" font-size="13.3333" transform="matrix(-1.83697e-16 -1 1 -1.83697e-16 1103.42 347)">1 years</text><text fill="#FFFFFF" font-family="DengXian,DengXian_MSFontService,sans-serif" font-weight="400" font-size="13.3333" transform="matrix(-1.83697e-16 -1 1 -1.83697e-16 1082.69 357)">Price * 200%</text><path d="M159.5 90.5001 159.5 325.228" stroke="#7C7C7C" stroke-width="0.666667" stroke-miterlimit="8" fill="none" fill-rule="evenodd"/><text fill="#FFFFFF" font-family="DengXian,DengXian_MSFontService,sans-serif" font-weight="400" font-size="14" transform="matrix(-1.83697e-16 -1 1 -1.83697e-16 1186.79 86)">Minter</text><text fill="#FFFFFF" font-family="DengXian,DengXian_MSFontService,sans-serif" font-weight="400" font-size="14" transform="matrix(-1.83697e-16 -1 1 -1.83697e-16 1203.79 86)">Buyer</text><text fill="#FFFFFF" font-family="DengXian,DengXian_MSFontService,sans-serif" font-weight="400" font-size="14" transform="matrix(-1.83697e-16 -1 1 -1.83697e-16 1220.79 86)">dao</text><path d="M1201.5 93.5001 1202.22 199.846" stroke="#7C7C7C" stroke-width="0.666667" stroke-miterlimit="8" fill="none" fill-rule="evenodd"/><path d="M674.5 297.167 729.863 297.167 729.863 340.921 729.53 340.588 757.188 340.588 757.188 341.255 729.196 341.255 729.196 297.5 729.53 297.833 674.5 297.833ZM755.854 336.921 763.854 340.921 755.854 344.921Z" fill="#00B0F0"/><rect x="764" y="313" width="26" height="56" fill="#1F4E79"/><text fill="#FFFFFF" font-family="DengXian,DengXian_MSFontService,sans-serif" font-weight="400" font-size="13.3333" transform="matrix(-1.83697e-16 -1 1 -1.83697e-16 780.604 359)">cancel</text><path d="M752 150.078C752 143.96 756.96 139 763.078 139L786.922 139C793.04 139 798 143.96 798 150.078L798 275.922C798 282.04 793.04 287 786.922 287L763.078 287C756.96 287 752 282.04 752 275.922Z" stroke="#00B0F0" stroke-width="2" stroke-miterlimit="8" stroke-dasharray="8 6" fill="none" fill-rule="evenodd"/><rect x="712" y="146" width="25" height="63" fill="#2E75B6"/><text fill="#FFFFFF" font-family="DengXian,DengXian_MSFontService,sans-serif" font-weight="700" font-size="13.3333" transform="matrix(-1.83697e-16 -1 1 -1.83697e-16 728.408 200)">Review</text><path d="M655.167 251.148 655.167 213.167 745.671 213.167 745.671 213.833 655.5 213.833 655.833 213.5 655.833 251.148ZM744.337 209.5 752.337 213.5 744.337 217.5Z" fill="#00B0F0"/><path d="M0-0.333333 83.5981-0.333333 83.5981 120.979 82.9314 120.979 82.9314 0 83.2648 0.333333 0 0.333333ZM87.2648 119.646 83.2648 127.646 79.2648 119.646Z" fill="#00B0F0" transform="matrix(1 0 0 -1 790.5 341.146)"/><path d="M775.5 96.5001 776.01 139.033" stroke="#7C7C7C" stroke-width="0.666667" stroke-miterlimit="8" fill="none" fill-rule="evenodd"/><text fill="#FFFFFF" font-family="DengXian,DengXian_MSFontService,sans-serif" font-weight="400" font-size="14" transform="matrix(-1.83697e-16 -1 1 -1.83697e-16 807.454 384)">buyer</text></g></svg>