<svg width="1280" height="720" xmlns="http://www.w3.org/2000/svg" xmlns:xlink="http://www.w3.org/1999/xlink" overflow="hidden"><g><rect x="0" y="0" width="1280" height="720" fill="#131321"/><path d="M530 155.376C530 141.361 541.361 130 555.376 130L686.624 130C700.639 130 712 141.361 712 155.376L712 644.624C712 658.639 700.639 670 686.624 670L555.376 670C541.361 670 530 658.639 530 644.624Z" stroke="#8497B0" stroke-width="2" stroke-miterlimit="8" stroke-dasharray="8 6" fill="none" fill-rule="evenodd"/><text fill="#FFFFFF" font-family="DengXian,DengXian_MSFontService,sans-serif" font-weight="700" font-size="24" transform="translate(476.598 61)">Roles</text><text fill="#FFFFFF" font-family="DengXian,DengXian_MSFontService,sans-serif" font-weight="700" font-size="24" transform="translate(542.098 61)">Operation Permissions</text><path d="M563.5 204.667C563.5 201.813 565.813 199.5 568.667 199.5L674.333 199.5C677.187 199.5 679.5 201.813 679.5 204.667L679.5 225.333C679.5 228.187 677.187 230.5 674.333 230.5L568.667 230.5C565.813 230.5 563.5 228.187 563.5 225.333Z" stroke="#8FAADC" stroke-width="1.33333" stroke-miterlimit="8" fill="#1F4E79" fill-rule="evenodd"/><text fill="#FFFFFF" font-family="DengXian,DengXian_MSFontService,sans-serif" font-weight="400" font-size="16" transform="translate(605.51 220)">Mint</text><text fill="#FFFFFF" font-family="Microsoft YaHei,Microsoft YaHei_MSFontService,sans-serif" font-weight="400" font-size="18.6667" transform="translate(579.01 171)">Truth Box</text><path d="M563.5 622C563.5 618.963 565.963 616.5 569 616.5L674 616.5C677.038 616.5 679.5 618.963 679.5 622L679.5 644C679.5 647.038 677.038 649.5 674 649.5L569 649.5C565.963 649.5 563.5 647.038 563.5 644Z" stroke="#8FAADC" stroke-width="1.33333" stroke-miterlimit="8" fill="#1F4E79" fill-rule="evenodd"/><text fill="#F2F2F2" font-family="DengXian,DengXian_MSFontService,sans-serif" font-weight="400" font-size="16" transform="translate(596.593 638)">Publish</text><path d="M198.5 198.667C198.5 194.709 201.709 191.5 205.667 191.5L292.333 191.5C296.291 191.5 299.5 194.709 299.5 198.667L299.5 227.333C299.5 231.291 296.291 234.5 292.333 234.5L205.667 234.5C201.709 234.5 198.5 231.291 198.5 227.333Z" stroke="#2F528F" stroke-width="1.33333" stroke-miterlimit="8" fill="#7030A0" fill-rule="evenodd"/><text fill="#FFFFFF" font-family="DengXian,DengXian_MSFontService,sans-serif" font-weight="400" font-size="21.3333" transform="translate(218.353 220)">Minter</text><path d="M198.5 395.667C198.5 391.709 201.709 388.5 205.667 388.5L292.333 388.5C296.291 388.5 299.5 391.709 299.5 395.667L299.5 424.333C299.5 428.291 296.291 431.5 292.333 431.5L205.667 431.5C201.709 431.5 198.5 428.291 198.5 424.333Z" stroke="#2F528F" stroke-width="1.33333" stroke-miterlimit="8" fill="#561043" fill-rule="evenodd"/><text fill="#FFFFFF" font-family="DengXian,DengXian_MSFontService,sans-serif" font-weight="400" font-size="21.3333" transform="translate(222.353 417)">Buyer</text><path d="M198.5 595.5C198.5 591.634 201.634 588.5 205.5 588.5L292.5 588.5C296.366 588.5 299.5 591.634 299.5 595.5L299.5 623.5C299.5 627.366 296.366 630.5 292.5 630.5L205.5 630.5C201.634 630.5 198.5 627.366 198.5 623.5Z" stroke="#2F528F" stroke-width="1.33333" stroke-miterlimit="8" fill="#843C0C" fill-rule="evenodd"/><text fill="#FFFFFF" font-family="DengXian,DengXian_MSFontService,sans-serif" font-weight="400" font-size="21.3333" transform="translate(226.186 617)">DAO</text><path d="M546.5 562.834C546.5 559.888 548.888 557.5 551.834 557.5L691.167 557.5C694.112 557.5 696.5 559.888 696.5 562.834L696.5 584.167C696.5 587.112 694.112 589.5 691.167 589.5L551.834 589.5C548.888 589.5 546.5 587.112 546.5 584.167Z" stroke="#8FAADC" stroke-width="1.33333" stroke-miterlimit="8" fill="#1F4E79" fill-rule="evenodd"/><text fill="#FFFFFF" font-family="DengXian,DengXian_MSFontService,sans-serif" font-weight="400" font-size="16" transform="translate(565.343 578)">Complete Order</text><path d="M553.5 264.836C553.5 261.337 556.337 258.5 559.836 258.5L683.164 258.5C686.663 258.5 689.5 261.337 689.5 264.836L689.5 284.164C689.5 287.663 686.663 290.5 683.164 290.5L559.836 290.5C556.337 290.5 553.5 287.663 553.5 284.164Z" stroke="#8FAADC" stroke-width="1.33333" stroke-miterlimit="8" fill="#1F4E79" fill-rule="evenodd"/><text fill="#FFFFFF" font-family="DengXian,DengXian_MSFontService,sans-serif" font-weight="400" font-size="16" transform="translate(575.76 279)">Sell /</text><text fill="#FFFFFF" font-family="DengXian,DengXian_MSFontService,sans-serif" font-weight="400" font-size="16" transform="translate(613.76 279)">Auction</text><text fill="#FFFFFF" font-family="DengXian,DengXian_MSFontService,sans-serif" font-weight="700" font-size="18.6667" transform="translate(948.947 199)">Other</text><text fill="#FFFFFF" font-family="DengXian,DengXian_MSFontService,sans-serif" font-weight="700" font-size="18.6667" transform="translate(1002.61 199)">users</text><path d="M563.5 323.833C563.5 320.888 565.888 318.5 568.833 318.5L674.167 318.5C677.112 318.5 679.5 320.888 679.5 323.833L679.5 345.167C679.5 348.112 677.112 350.5 674.167 350.5L568.833 350.5C565.888 350.5 563.5 348.112 563.5 345.167Z" stroke="#8FAADC" stroke-width="1.33333" stroke-miterlimit="8" fill="#1F4E79" fill-rule="evenodd"/><text fill="#FFFFFF" font-family="DengXian,DengXian_MSFontService,sans-serif" font-weight="400" font-size="16" transform="translate(590.343 339)">Buy / Bid</text><path d="M546.5 503.836C546.5 500.337 549.337 497.5 552.836 497.5L690.164 497.5C693.663 497.5 696.5 500.337 696.5 503.836L696.5 523.164C696.5 526.663 693.663 529.5 690.164 529.5L552.836 529.5C549.337 529.5 546.5 526.663 546.5 523.164Z" stroke="#8FAADC" stroke-width="1.33333" stroke-miterlimit="8" fill="#1F4E79" fill-rule="evenodd"/><text fill="#FFFFFF" font-family="DengXian,DengXian_MSFontService,sans-serif" font-weight="400" font-size="16" transform="translate(570.76 518)">Review Refund</text><path d="M563.5 383C563.5 379.963 565.963 377.5 569 377.5L674 377.5C677.038 377.5 679.5 379.963 679.5 383L679.5 405C679.5 408.038 677.038 410.5 674 410.5L569 410.5C565.963 410.5 563.5 408.038 563.5 405Z" stroke="#8FAADC" stroke-width="1.33333" stroke-miterlimit="8" fill="#1F4E79" fill-rule="evenodd"/><text fill="#FFFFFF" font-family="DengXian,DengXian_MSFontService,sans-serif" font-weight="400" font-size="16" transform="translate(597.51 399)">Deliver</text><path d="M546.5 442.834C546.5 439.888 548.888 437.5 551.834 437.5L691.167 437.5C694.112 437.5 696.5 439.888 696.5 442.834L696.5 464.167C696.5 467.112 694.112 469.5 691.167 469.5L551.834 469.5C548.888 469.5 546.5 467.112 546.5 464.167Z" stroke="#8FAADC" stroke-width="1.33333" stroke-miterlimit="8" fill="#1F4E79" fill-rule="evenodd"/><text fill="#FFFFFF" font-family="DengXian,DengXian_MSFontService,sans-serif" font-weight="400" font-size="16" transform="translate(567.01 459)">Request Refund</text><path d="M947.5 261.667C947.5 257.709 950.709 254.5 954.667 254.5L1041.33 254.5C1045.29 254.5 1048.5 257.709 1048.5 261.667L1048.5 290.333C1048.5 294.291 1045.29 297.5 1041.33 297.5L954.667 297.5C950.709 297.5 947.5 294.291 947.5 290.333Z" stroke="#2F528F" stroke-width="1.33333" stroke-miterlimit="8" fill="#993366" fill-rule="evenodd"/><text fill="#FFFFFF" font-family="DengXian,DengXian_MSFontService,sans-serif" font-weight="400" font-size="16" transform="translate(979.114 281)">Seller</text><path d="M947.5 348.5C947.5 344.634 950.634 341.5 954.5 341.5L1041.5 341.5C1045.37 341.5 1048.5 344.634 1048.5 348.5L1048.5 376.5C1048.5 380.366 1045.37 383.5 1041.5 383.5L954.5 383.5C950.634 383.5 947.5 380.366 947.5 376.5Z" stroke="#2F528F" stroke-width="1.33333" stroke-miterlimit="8" fill="#993366" fill-rule="evenodd"/><text fill="#FFFFFF" font-family="DengXian,DengXian_MSFontService,sans-serif" font-weight="400" font-size="16" transform="translate(961.447 368)">Complete</text><text fill="#FFFFFF" font-family="DengXian,DengXian_MSFontService,sans-serif" font-weight="400" font-size="16" transform="translate(1028.28 368)">r</text><path d="M947.5 617.667C947.5 613.709 950.709 610.5 954.667 610.5L1041.33 610.5C1045.29 610.5 1048.5 613.709 1048.5 617.667L1048.5 646.333C1048.5 650.291 1045.29 653.5 1041.33 653.5L954.667 653.5C950.709 653.5 947.5 650.291 947.5 646.333Z" stroke="#2F528F" stroke-width="1.33333" stroke-miterlimit="8" fill="#993366" fill-rule="evenodd"/><text fill="#FFFFFF" font-family="DengXian,DengXian_MSFontService,sans-serif" font-weight="400" font-size="16" transform="translate(966.197 637)">Publisher</text><path d="M907 176.376C907 162.361 918.361 151 932.376 151L1063.62 151C1077.64 151 1089 162.361 1089 176.376L1089 384.624C1089 398.639 1077.64 410 1063.62 410L932.376 410C918.361 410 907 398.639 907 384.624Z" stroke="#8497B0" stroke-width="2" stroke-miterlimit="8" stroke-dasharray="8 6" fill="none" fill-rule="evenodd"/><path d="M907 511.376C907 497.361 918.361 486 932.376 486L1063.62 486C1077.64 486 1089 497.361 1089 511.376L1089 651.624C1089 665.639 1077.64 677 1063.62 677L932.376 677C918.361 677 907 665.639 907 651.624Z" stroke="#8497B0" stroke-width="2" stroke-miterlimit="8" stroke-dasharray="8 6" fill="none" fill-rule="evenodd"/><text fill="#FFFFFF" font-family="DengXian,DengXian_MSFontService,sans-serif" font-weight="400" font-size="18.6667" transform="translate(953.193 530)">Minter</text><text fill="#FFFFFF" font-family="DengXian,DengXian_MSFontService,sans-serif" font-weight="400" font-size="18.6667" transform="translate(1005.86 530)">、</text><text fill="#FFFFFF" font-family="DengXian,DengXian_MSFontService,sans-serif" font-weight="400" font-size="18.6667" transform="translate(953.193 553)">Buyer</text><text fill="#FFFFFF" font-family="DengXian,DengXian_MSFontService,sans-serif" font-weight="400" font-size="18.6667" transform="translate(998.693 553)">、</text><text fill="#FFFFFF" font-family="DengXian,DengXian_MSFontService,sans-serif" font-weight="400" font-size="18.6667" transform="translate(953.193 575)">DA</text><text fill="#FFFFFF" font-family="DengXian,DengXian_MSFontService,sans-serif" font-weight="400" font-size="18.6667" transform="translate(977.86 575)">O</text><path d="M299.5 213.5 564.226 215.438" stroke="#7030A0" stroke-width="0.666667" stroke-miterlimit="8" fill="none" fill-rule="evenodd"/><path d="M299.5 213.5 553.721 274.943" stroke="#7030A0" stroke-width="0.666667" stroke-miterlimit="8" fill="none" fill-rule="evenodd"/><path d="M299.5 213.5 564.226 394.491" stroke="#7030A0" stroke-width="0.666667" stroke-miterlimit="8" fill="none" fill-rule="evenodd"/><path d="M299.5 213.5 547.072 573.664" stroke="#7030A0" stroke-width="0.666667" stroke-miterlimit="8" fill="none" fill-rule="evenodd"/><path d="M0 0 268.34 1.09092" stroke="#993366" stroke-width="0.666667" stroke-miterlimit="8" fill="none" fill-rule="evenodd" transform="matrix(-1 0 0 1 947.84 631.5)"/><path d="M0 0 264.726 75.5703" stroke="#561043" stroke-width="0.666667" stroke-miterlimit="8" fill="none" fill-rule="evenodd" transform="matrix(1 0 0 -1 299.5 410.07)"/><path d="M299.5 409.5 547.072 453.379" stroke="#561043" stroke-width="0.666667" stroke-miterlimit="8" fill="none" fill-rule="evenodd"/><path d="M299.5 409.5 547.072 572.827" stroke="#561043" stroke-width="0.666667" stroke-miterlimit="8" fill="none" fill-rule="evenodd"/><path d="M0 0 247.572 96.4247" stroke="#C55A11" stroke-width="0.666667" stroke-miterlimit="8" fill="none" fill-rule="evenodd" transform="matrix(1 0 0 -1 299.5 609.925)"/><path d="M947.335 275.815 689.5 274.5" stroke="#993366" stroke-width="0.666667" stroke-miterlimit="8" fill="none" fill-rule="evenodd"/><path d="M0 0 251.186 210.486" stroke="#993366" stroke-width="0.666667" stroke-miterlimit="8" fill="none" fill-rule="evenodd" transform="matrix(-1 0 0 1 947.686 362.5)"/></g></svg>