<svg width="1280" height="720" xmlns="http://www.w3.org/2000/svg" xmlns:xlink="http://www.w3.org/1999/xlink" overflow="hidden"><g><rect x="0" y="0" width="1280" height="720" fill="#131321"/><text fill="#FFFFFF" font-family="DengXian,DengXian_MSFontService,sans-serif" font-weight="700" font-size="24" transform="translate(552.75 68)">Smart Contracts</text><path d="M217.5 255.833C217.5 251.783 220.783 248.5 224.833 248.5L339.167 248.5C343.217 248.5 346.5 251.783 346.5 255.833L346.5 285.167C346.5 289.217 343.217 292.5 339.167 292.5L224.833 292.5C220.783 292.5 217.5 289.217 217.5 285.167Z" stroke="#2F528F" stroke-width="1.33333" stroke-miterlimit="8" fill="#204367" fill-rule="evenodd"/><text fill="#FFFFFF" font-family="Microsoft YaHei,Microsoft YaHei_MSFontService,sans-serif" font-weight="400" font-size="16" transform="translate(245.365 275)">Truth Box</text><path d="M909.5 543.667C909.5 539.709 912.709 536.5 916.667 536.5L1043.33 536.5C1047.29 536.5 1050.5 539.709 1050.5 543.667L1050.5 572.333C1050.5 576.291 1047.29 579.5 1043.33 579.5L916.667 579.5C912.709 579.5 909.5 576.291 909.5 572.333Z" stroke="#2F528F" stroke-width="1.33333" stroke-miterlimit="8" fill="#204367" fill-rule="evenodd"/><text fill="#FFFFFF" font-family="Microsoft YaHei,Microsoft YaHei_MSFontService,sans-serif" font-weight="400" font-size="16" transform="translate(939.902 563)">Truth Coin</text><path d="M909.5 255.5C909.5 251.634 912.634 248.5 916.5 248.5L1043.5 248.5C1047.37 248.5 1050.5 251.634 1050.5 255.5L1050.5 283.5C1050.5 287.366 1047.37 290.5 1043.5 290.5L916.5 290.5C912.634 290.5 909.5 287.366 909.5 283.5Z" stroke="#2F528F" stroke-width="1.33333" stroke-miterlimit="8" fill="#204367" fill-rule="evenodd"/><text fill="#FFFFFF" font-family="DengXian,DengXian_MSFontService,sans-serif" font-weight="400" font-size="18.6667" transform="translate(931.402 275)">Governance</text><path d="M869 203.667C869 183.417 885.417 167 905.667 167L1052.33 167C1072.58 167 1089 183.417 1089 203.667L1089 419.333C1089 439.583 1072.58 456 1052.33 456L905.667 456C885.417 456 869 439.583 869 419.333Z" stroke="#2F5597" stroke-width="2" stroke-miterlimit="8" stroke-dasharray="8 6" fill="none" fill-rule="evenodd"/><path d="M909.5 378.667C909.5 374.709 912.709 371.5 916.667 371.5L1043.33 371.5C1047.29 371.5 1050.5 374.709 1050.5 378.667L1050.5 407.333C1050.5 411.291 1047.29 414.5 1043.33 414.5L916.667 414.5C912.709 414.5 909.5 411.291 909.5 407.333Z" stroke="#2F528F" stroke-width="1.33333" stroke-miterlimit="8" fill="#204367" fill-rule="evenodd"/><text fill="#FFFFFF" font-family="DengXian,DengXian_MSFontService,sans-serif" font-weight="400" font-size="18.6667" transform="translate(949.985 398)">Staking</text><path d="M181 201.001C181 182.223 196.223 167 215.001 167L350.999 167C369.778 167 385 182.223 385 201.001L385 421.999C385 440.777 369.778 456 350.999 456L215.001 456C196.223 456 181 440.777 181 421.999Z" stroke="#2F5597" stroke-width="2" stroke-miterlimit="8" stroke-dasharray="8 6" fill="none" fill-rule="evenodd"/><path d="M217.5 380.667C217.5 376.709 220.709 373.5 224.667 373.5L339.333 373.5C343.291 373.5 346.5 376.709 346.5 380.667L346.5 409.333C346.5 413.291 343.291 416.5 339.333 416.5L224.667 416.5C220.709 416.5 217.5 413.291 217.5 409.333Z" stroke="#2F528F" stroke-width="1.33333" stroke-miterlimit="8" fill="#204367" fill-rule="evenodd"/><text fill="#FFFFFF" font-family="Microsoft YaHei,Microsoft YaHei_MSFontService,sans-serif" font-weight="400" font-size="16" transform="translate(244.032 400)">Truth NFT</text><path d="M570.5 381.5C570.5 377.634 573.634 374.5 577.5 374.5L703.5 374.5C707.366 374.5 710.5 377.634 710.5 381.5L710.5 409.5C710.5 413.366 707.366 416.5 703.5 416.5L577.5 416.5C573.634 416.5 570.5 413.366 570.5 409.5Z" stroke="#2F528F" stroke-width="1.33333" stroke-miterlimit="8" fill="#204367" fill-rule="evenodd"/><text fill="#FFFFFF" font-family="DengXian,DengXian_MSFontService,sans-serif" font-weight="400" font-size="18.6667" transform="translate(581.417 401)">Fund Manager</text><path d="M531 203.501C531 183.342 547.342 167 567.501 167L713.499 167C733.658 167 750 183.342 750 203.501L750 419.499C750 439.658 733.658 456 713.499 456L567.501 456C547.342 456 531 439.658 531 419.499Z" stroke="#2F5597" stroke-width="2" stroke-miterlimit="8" stroke-dasharray="8 6" fill="none" fill-rule="evenodd"/><path d="M570.5 256.5C570.5 252.634 573.634 249.5 577.5 249.5L703.5 249.5C707.366 249.5 710.5 252.634 710.5 256.5L710.5 284.5C710.5 288.366 707.366 291.5 703.5 291.5L577.5 291.5C573.634 291.5 570.5 288.366 570.5 284.5Z" stroke="#2F528F" stroke-width="1.33333" stroke-miterlimit="8" fill="#204367" fill-rule="evenodd"/><text fill="#FFFFFF" font-family="DengXian,DengXian_MSFontService,sans-serif" font-weight="400" font-size="18.6667" transform="translate(601.833 276)">Exchange</text><path d="M478.5 543.667C478.5 539.709 481.709 536.5 485.667 536.5L655.333 536.5C659.291 536.5 662.5 539.709 662.5 543.667L662.5 572.333C662.5 576.291 659.291 579.5 655.333 579.5L485.667 579.5C481.709 579.5 478.5 576.291 478.5 572.333Z" stroke="#2F528F" stroke-width="1.33333" stroke-miterlimit="8" fill="#204367" fill-rule="evenodd"/><text fill="#FFFFFF" font-family="DengXian,DengXian_MSFontService,sans-serif" font-weight="400" font-size="18.6667" transform="translate(510.547 563)">Token Registry</text><path d="M0 0 112.015 0 112.015 0.000104987 224.03 0.000104987" stroke="#00B0F0" stroke-width="0.333333" stroke-miterlimit="8" fill="none" fill-rule="evenodd" transform="matrix(1 0 0 -1 346.5 270.5)"/><path d="M0 0 99.4567 0 99.4567 0.896378 198.913 0.896378" stroke="#00B0F0" stroke-width="0.333333" stroke-miterlimit="8" fill="none" fill-rule="evenodd" transform="matrix(-1 1.22465e-16 1.22465e-16 1 909.413 269.5)"/><path d="M282.5 292.5 282.5 333.119 282.5 333.119 282.5 373.738" stroke="#00B0F0" stroke-width="0.333333" stroke-miterlimit="8" fill="none" fill-rule="evenodd"/><path d="M217.5 270.5 149.264 270.5 149.264 557.724 477.974 557.724" stroke="#00B0F0" stroke-width="0.333333" stroke-miterlimit="8" fill="none" fill-rule="evenodd"/><path d="M0 0 87.8122 0 87.8122 339.485 119.153 339.485" stroke="#00B0F0" stroke-width="0.333333" stroke-miterlimit="8" fill="none" fill-rule="evenodd" transform="matrix(1.83697e-16 1 1 -1.83697e-16 640.5 416.5)"/><path d="M980.301 248.5 980.301 147.323 452.256 147.323 452.256 270.675 346.5 270.675" stroke="#00B0F0" stroke-width="0.333333" stroke-miterlimit="8" fill="none" fill-rule="evenodd"/><path d="M570.5 535.952 570.5 476.226 640.786 476.226 640.786 416.5" stroke="#00B0F0" stroke-width="0.333333" stroke-miterlimit="8" fill="none" fill-rule="evenodd"/><text fill="#FFFFFF" font-family="Microsoft YaHei,Microsoft YaHei_MSFontService,sans-serif" font-weight="400" font-size="16" transform="translate(222.887 208)">Box core contract</text><text fill="#FFFFFF" font-family="Microsoft YaHei,Microsoft YaHei_MSFontService,sans-serif" font-weight="400" font-size="16" transform="translate(904.72 207)">DAO</text><text fill="#FFFFFF" font-family="Microsoft YaHei,Microsoft YaHei_MSFontService,sans-serif" font-weight="400" font-size="16" transform="translate(576.409 208)">Exchange contract</text><path d="M438 540.001C438 528.955 446.955 520 458.001 520L1069 520C1080.05 520 1089 528.955 1089 540.001L1089 619.999C1089 631.045 1080.05 640 1069 640L458.001 640C446.955 640 438 631.045 438 619.999Z" stroke="#2F5597" stroke-width="2" stroke-miterlimit="8" stroke-dasharray="8 6" fill="none" fill-rule="evenodd"/><text fill="#FFFFFF" font-family="Microsoft YaHei,Microsoft YaHei_MSFontService,sans-serif" font-weight="400" font-size="16" transform="translate(709.24 615)">Token contract</text><path d="M640.5 291.5 640.5 374.159" stroke="#00B0F0" stroke-width="0.666667" stroke-miterlimit="8" fill="none" fill-rule="evenodd"/><path d="M662.5 557.5 910.077 557.5" stroke="#00B0F0" stroke-width="0.666667" stroke-miterlimit="8" fill="none" fill-rule="evenodd"/><path d="M979.5 290.5 979.5 371.266" stroke="#00B0F0" stroke-width="0.666667" stroke-miterlimit="8" fill="none" fill-rule="evenodd"/><path d="M979.5 414.5 979.5 536.442" stroke="#00B0F0" stroke-width="0.666667" stroke-miterlimit="8" fill="none" fill-rule="evenodd"/><path d="M909.5 316.5C909.5 312.634 912.634 309.5 916.5 309.5L1043.5 309.5C1047.37 309.5 1050.5 312.634 1050.5 316.5L1050.5 344.5C1050.5 348.366 1047.37 351.5 1043.5 351.5L916.5 351.5C912.634 351.5 909.5 348.366 909.5 344.5Z" stroke="#2F528F" stroke-width="1.33333" stroke-miterlimit="8" fill="#204367" fill-rule="evenodd"/><text fill="#FFFFFF" font-family="DengXian,DengXian_MSFontService,sans-serif" font-weight="400" font-size="18.6667" transform="translate(945.485 336)">Treasury</text><path d="M0 0 99.4566 0 99.4566 126.112 198.913 126.112" stroke="#00B0F0" stroke-width="0.333333" stroke-miterlimit="8" fill="none" fill-rule="evenodd" transform="matrix(-1 1.22465e-16 1.22465e-16 1 909.413 269.5)"/></g></svg>