<svg width="1280" height="720" xmlns="http://www.w3.org/2000/svg" xmlns:xlink="http://www.w3.org/1999/xlink" overflow="hidden"><g><rect x="0" y="0" width="1280" height="720" fill="#131321"/><path d="M197 518.793C197 502.339 210.339 489 226.793 489L1014.21 489C1030.66 489 1044 502.339 1044 518.793L1044 564.207C1044 580.661 1030.66 594 1014.21 594L226.793 594C210.339 594 197 580.661 197 564.207Z" stroke="#2F5597" stroke-width="2" stroke-miterlimit="8" stroke-dasharray="8 6" fill="none" fill-rule="evenodd"/><path d="M715.5 295.885C715.5 287.94 721.94 281.5 729.885 281.5L816.115 281.5C824.06 281.5 830.5 287.94 830.5 295.885L830.5 309.115C830.5 317.06 824.06 323.5 816.115 323.5L729.885 323.5C721.94 323.5 715.5 317.06 715.5 309.115Z" stroke="#8497B0" stroke-width="1.33333" stroke-miterlimit="8" stroke-dasharray="10.6667 4" fill="#843C0C" fill-rule="evenodd"/><text fill="#FFFFFF" font-family="DengXian,DengXian_MSFontService,sans-serif" font-weight="700" font-size="14" transform="translate(739.43 306)">Refunding</text><path d="M206.5 373.83C206.5 367.02 212.02 361.5 218.83 361.5L274.17 361.5C280.98 361.5 286.5 367.02 286.5 373.83L286.5 385.17C286.5 391.98 280.98 397.5 274.17 397.5L218.83 397.5C212.02 397.5 206.5 391.98 206.5 385.17Z" stroke="#8497B0" stroke-width="1.33333" stroke-miterlimit="8" fill="#BF9000" fill-rule="evenodd"/><text fill="#FFFFFF" font-family="DengXian,DengXian_MSFontService,sans-serif" font-weight="700" font-size="14" transform="translate(222.541 384)">Storing</text><path d="M337.5 311.83C337.5 305.02 343.02 299.5 349.83 299.5L405.17 299.5C411.98 299.5 417.5 305.02 417.5 311.83L417.5 323.17C417.5 329.98 411.98 335.5 405.17 335.5L349.83 335.5C343.02 335.5 337.5 329.98 337.5 323.17Z" stroke="#8497B0" stroke-width="1.33333" stroke-miterlimit="8" fill="#561043" fill-rule="evenodd"/><text fill="#FFFFFF" font-family="DengXian,DengXian_MSFontService,sans-serif" font-weight="700" font-size="14" transform="translate(355.607 322)">Selling</text><path d="M337.5 439.83C337.5 433.02 343.02 427.5 349.83 427.5L434.17 427.5C440.98 427.5 446.5 433.02 446.5 439.83L446.5 451.17C446.5 457.98 440.98 463.5 434.17 463.5L349.83 463.5C343.02 463.5 337.5 457.98 337.5 451.17Z" stroke="#8497B0" stroke-width="1.33333" stroke-miterlimit="8" fill="#561043" fill-rule="evenodd"/><text fill="#FFFFFF" font-family="DengXian,DengXian_MSFontService,sans-serif" font-weight="700" font-size="14" transform="translate(356.752 450)">Auctioning</text><path d="M569.5 373.83C569.5 367.02 575.02 361.5 581.83 361.5L666.17 361.5C672.98 361.5 678.5 367.02 678.5 373.83L678.5 385.17C678.5 391.98 672.98 397.5 666.17 397.5L581.83 397.5C575.02 397.5 569.5 391.98 569.5 385.17Z" stroke="#8497B0" stroke-width="1.33333" stroke-miterlimit="8" fill="#7F6000" fill-rule="evenodd"/><text fill="#FFFFFF" font-family="DengXian,DengXian_MSFontService,sans-serif" font-weight="700" font-size="14" transform="translate(593.225 384)">Delivered</text><path d="M715.5 373.83C715.5 367.02 721.02 361.5 727.83 361.5L811.17 361.5C817.98 361.5 823.5 367.02 823.5 373.83L823.5 385.17C823.5 391.98 817.98 397.5 811.17 397.5L727.83 397.5C721.02 397.5 715.5 391.98 715.5 385.17Z" stroke="#8497B0" stroke-width="1.33333" stroke-miterlimit="8" fill="#7030A0" fill-rule="evenodd"/><text fill="#FFFFFF" font-family="DengXian,DengXian_MSFontService,sans-serif" font-weight="700" font-size="14" transform="translate(745.028 384)">Secrecy</text><path d="M921.5 373.83C921.5 367.02 927.02 361.5 933.83 361.5L1009.17 361.5C1015.98 361.5 1021.5 367.02 1021.5 373.83L1021.5 385.17C1021.5 391.98 1015.98 397.5 1009.17 397.5L933.83 397.5C927.02 397.5 921.5 391.98 921.5 385.17Z" stroke="#8497B0" stroke-width="1.33333" stroke-miterlimit="8" fill="#00B050" fill-rule="evenodd"/><text fill="#FFFFFF" font-family="DengXian,DengXian_MSFontService,sans-serif" font-weight="700" font-size="14" transform="translate(940.193 384)">Published</text><path d="M0-0.333333 25.9318-0.333333 25.9318 62.0103 25.5985 61.677 44.5303 61.677 44.5303 62.3436 25.2652 62.3436 25.2652 0 25.5985 0.333333 0 0.333333ZM43.197 58.0103 51.197 62.0103 43.197 66.0103Z" fill="#00B0F0" transform="matrix(1 0 0 -1 286.5 379.51)"/><path d="M286.5 379.167 312.432 379.167 312.432 445.607 312.099 445.273 331.03 445.273 331.03 445.94 311.765 445.94 311.765 379.5 312.099 379.833 286.5 379.833ZM329.697 441.607 337.697 445.607 329.697 449.607Z" fill="#00B0F0"/><path d="M417.5 317.167 478.053 317.167 478.053 379.51 477.72 379.177 563.272 379.177 563.272 379.844 477.386 379.844 477.386 317.5 477.72 317.833 417.5 317.833ZM561.939 375.51 569.939 379.51 561.939 383.51Z" fill="#00B0F0"/><path d="M0-0.333333 31.0147-0.333333 31.0147 66.1066 30.6814 65.7732 116.814 65.7732 116.814 66.4399 30.348 66.4399 30.348 0 30.6814 0.333333 0 0.333333ZM115.481 62.1066 123.481 66.1066 115.481 70.1066Z" fill="#00B0F0" transform="matrix(1 0 0 -1 446.5 445.607)"/><path d="M678.5 379.167 709.146 379.167 709.146 379.833 678.5 379.833ZM707.812 375.5 715.812 379.5 707.812 383.5Z" fill="#00B0F0"/><path d="M624.167 362.104 624.167 302.167 709.224 302.167 709.224 302.833 624.5 302.833 624.833 302.5 624.833 362.104ZM707.891 298.5 715.891 302.5 707.891 306.5Z" fill="#00B0F0"/><path d="M830.5 302.167 972.117 302.167 972.117 355.437 971.45 355.437 971.45 302.5 971.783 302.833 830.5 302.833ZM975.783 354.104 971.783 362.104 967.783 354.104Z" fill="#00B0F0"/><path d="M3.5579e-07-0.333333 91.6936-0.333235 91.6936 0.333431-3.5579e-07 0.333333ZM90.3602-3.9999 98.3602 0.000104987 90.3602 4.0001Z" fill="#00B0F0" transform="matrix(1 0 0 -1 823.5 379.5)"/><text fill="#FFFFFF" font-family="DengXian,DengXian_MSFontService,sans-serif" font-weight="700" font-size="24" transform="translate(498.75 125)">Truth Box Status Duration</text><path d="M446.5 513.83C446.5 507.02 452.02 501.5 458.83 501.5L526.17 501.5C532.98 501.5 538.5 507.02 538.5 513.83L538.5 525.17C538.5 531.98 532.98 537.5 526.17 537.5L458.83 537.5C452.02 537.5 446.5 531.98 446.5 525.17Z" stroke="#8497B0" stroke-width="1.33333" stroke-miterlimit="8" fill="#548235" fill-rule="evenodd"/><text fill="#FFFFFF" font-family="DengXian,DengXian_MSFontService,sans-serif" font-weight="700" font-size="14.6667" transform="translate(464.402 525)">Pending</text><path d="M0.333333-3.35606e-07 0.333336 2.66667-0.333331 2.66667-0.333333 3.35606e-07ZM0.333338 4.66667 0.333339 5.33333-0.333328 5.33333-0.333329 4.66667ZM0.333341 7.33333 0.333343 10-0.333323 10-0.333326 7.33333ZM0.333345 12 0.333346 12.6667-0.333321 12.6667-0.333321 12ZM0.333348 14.6667 0.333351 17.3333-0.333316 17.3333-0.333319 14.6667ZM0.333353 19.3333 0.333353 20-0.333313 20-0.333314 19.3333ZM0.333355 22 0.333358 24.6667-0.333308 24.6667-0.333311 22ZM0.33336 26.6667 0.333361 27.3333-0.333306 27.3333-0.333306 26.6667ZM0.333363 29.3333 0.333366 32-0.333301 32-0.333304 29.3333ZM0.333368 34 0.333368 34.6667-0.333298 34.6667-0.333299 34ZM0.33337 36.6667 0.333373 39.3333-0.333294 39.3333-0.333296 36.6667ZM0.333375 41.3333 0.333376 42-0.333291 42-0.333292 41.3333ZM0.333378 44 0.33338 46.6667-0.333286 46.6667-0.333289 44ZM0.333382 48.6667 0.333383 49.3333-0.333284 49.3333-0.333284 48.6667ZM0.333385 51.3333 0.333388 54-0.333279 54-0.333282 51.3333ZM0.33339 56 0.33339 56.6667-0.333276 56.6667-0.333277 56ZM0.333392 58.6667 0.333395 61.3333-0.333272 61.3333-0.333274 58.6667ZM0.333397 63.3333 0.333398 64-0.333269 64-0.33327 63.3333ZM0.3334 66 0.333402 68.6667-0.333264 68.6667-0.333267 66ZM0.333404 70.6667 0.333405 71.3333-0.333261 71.3333-0.333262 70.6667ZM0.333407 73.3333 0.33341 76-0.333257 76-0.333259 73.3333ZM0.333412 78 0.333413 78.6667-0.333254 78.6667-0.333255 78ZM0.333415 80.6667 0.333417 83.3333-0.333249 83.3333-0.333252 80.6667ZM0.333419 85.3333 0.33342 86-0.333247 86-0.333247 85.3333ZM0.333422 88 0.333425 90.6667-0.333242 90.6667-0.333245 88ZM0.333427 92.6667 0.333427 93.3333-0.333239 93.3333-0.33324 92.6667ZM0.333429 95.3333 0.333432 97.6091-0.333235 97.6091-0.333237 95.3333ZM4.0001 96.2758 0.000104987 104.276-3.9999 96.2758Z" fill="#00B0F0" transform="matrix(1 0 0 -1 492.5 501.776)"/><path d="M812.5 513.83C812.5 507.02 818.02 501.5 824.83 501.5L892.17 501.5C898.98 501.5 904.5 507.02 904.5 513.83L904.5 525.17C904.5 531.98 898.98 537.5 892.17 537.5L824.83 537.5C818.02 537.5 812.5 531.98 812.5 525.17Z" stroke="#8497B0" stroke-width="1.33333" stroke-miterlimit="8" fill="#C00000" fill-rule="evenodd"/><text fill="#FFFFFF" font-family="DengXian,DengXian_MSFontService,sans-serif" font-weight="700" font-size="14.6667" transform="translate(828.269 525)">Time out</text><path d="M0.333333-3.35606e-07 0.333336 2.66667-0.333331 2.66667-0.333333 3.35606e-07ZM0.333338 4.66667 0.333339 5.33333-0.333328 5.33333-0.333329 4.66667ZM0.333341 7.33333 0.333343 10-0.333323 10-0.333326 7.33333ZM0.333345 12 0.333346 12.6667-0.333321 12.6667-0.333321 12ZM0.333348 14.6667 0.333351 17.3333-0.333316 17.3333-0.333319 14.6667ZM0.333353 19.3333 0.333353 20-0.333313 20-0.333314 19.3333ZM0.333355 22 0.333358 24.6667-0.333308 24.6667-0.333311 22ZM0.33336 26.6667 0.333361 27.3333-0.333306 27.3333-0.333306 26.6667ZM0.333363 29.3333 0.333366 32-0.333301 32-0.333304 29.3333ZM0.333368 34 0.333368 34.6667-0.333298 34.6667-0.333299 34ZM0.33337 36.6667 0.333373 39.3333-0.333294 39.3333-0.333296 36.6667ZM0.333375 41.3333 0.333376 42-0.333291 42-0.333292 41.3333ZM0.333378 44 0.33338 46.6667-0.333286 46.6667-0.333289 44ZM0.333382 48.6667 0.333383 49.3333-0.333284 49.3333-0.333284 48.6667ZM0.333385 51.3333 0.333388 54-0.333279 54-0.333282 51.3333ZM0.33339 56 0.33339 56.6667-0.333276 56.6667-0.333277 56ZM0.333392 58.6667 0.333395 61.3333-0.333272 61.3333-0.333274 58.6667ZM0.333397 63.3333 0.333398 64-0.333269 64-0.33327 63.3333ZM0.3334 66 0.333402 68.6667-0.333264 68.6667-0.333267 66ZM0.333404 70.6667 0.333405 71.3333-0.333261 71.3333-0.333262 70.6667ZM0.333407 73.3333 0.33341 76-0.333257 76-0.333259 73.3333ZM0.333412 78 0.333413 78.6667-0.333254 78.6667-0.333255 78ZM0.333415 80.6667 0.333417 83.3333-0.333249 83.3333-0.333252 80.6667ZM0.333419 85.3333 0.33342 86-0.333247 86-0.333247 85.3333ZM0.333422 88 0.333425 90.6667-0.333242 90.6667-0.333245 88ZM0.333427 92.6667 0.333427 93.3333-0.333239 93.3333-0.33324 92.6667ZM0.333429 95.3333 0.333432 97.6091-0.333235 97.6091-0.333237 95.3333ZM4.0001 96.2758 0.000104987 104.276-3.9999 96.2758Z" fill="#00B0F0" transform="matrix(1 0 0 -1 858.5 501.776)"/><path d="M249.5 513.83C249.5 507.02 255.02 501.5 261.83 501.5L329.17 501.5C335.98 501.5 341.5 507.02 341.5 513.83L341.5 525.17C341.5 531.98 335.98 537.5 329.17 537.5L261.83 537.5C255.02 537.5 249.5 531.98 249.5 525.17Z" stroke="#8497B0" stroke-width="1.33333" stroke-miterlimit="8" fill="#C00000" fill-rule="evenodd"/><text fill="#FFFFFF" font-family="DengXian,DengXian_MSFontService,sans-serif" font-weight="700" font-size="14.6667" transform="translate(265.51 525)">Time out</text><path d="M0.333333-3.35606e-07 0.333336 2.66667-0.333331 2.66667-0.333333 3.35606e-07ZM0.333338 4.66667 0.333339 5.33333-0.333328 5.33333-0.333329 4.66667ZM0.333341 7.33333 0.333343 10-0.333323 10-0.333326 7.33333ZM0.333345 12 0.333346 12.6667-0.333321 12.6667-0.333321 12ZM0.333348 14.6667 0.333351 17.3333-0.333316 17.3333-0.333319 14.6667ZM0.333353 19.3333 0.333353 20-0.333313 20-0.333314 19.3333ZM0.333355 22 0.333358 24.6667-0.333308 24.6667-0.333311 22ZM0.33336 26.6667 0.333361 27.3333-0.333306 27.3333-0.333306 26.6667ZM0.333363 29.3333 0.333366 32-0.333301 32-0.333304 29.3333ZM0.333368 34 0.333368 34.6667-0.333298 34.6667-0.333299 34ZM0.33337 36.6667 0.333373 39.3333-0.333294 39.3333-0.333296 36.6667ZM0.333375 41.3333 0.333376 42-0.333291 42-0.333292 41.3333ZM0.333378 44 0.33338 46.6667-0.333286 46.6667-0.333289 44ZM0.333382 48.6667 0.333383 49.3333-0.333284 49.3333-0.333284 48.6667ZM0.333385 51.3333 0.333388 54-0.333279 54-0.333282 51.3333ZM0.33339 56 0.33339 56.6667-0.333276 56.6667-0.333277 56ZM0.333392 58.6667 0.333395 61.3333-0.333272 61.3333-0.333274 58.6667ZM0.333397 63.3333 0.333398 64-0.333269 64-0.33327 63.3333ZM0.3334 66 0.333402 68.6667-0.333264 68.6667-0.333267 66ZM0.333404 70.6667 0.333405 71.3333-0.333261 71.3333-0.333262 70.6667ZM0.333407 73.3333 0.33341 76-0.333257 76-0.333259 73.3333ZM0.333412 78 0.333413 78.6667-0.333254 78.6667-0.333255 78ZM0.333415 80.6667 0.333417 83.3333-0.333249 83.3333-0.333252 80.6667ZM0.333419 85.3333 0.33342 86-0.333247 86-0.333247 85.3333ZM0.333422 88 0.333425 90.6667-0.333242 90.6667-0.333245 88ZM0.333427 92.6667 0.333427 93.3333-0.333239 93.3333-0.33324 92.6667ZM0.333429 95.3333 0.333432 97.6091-0.333235 97.6091-0.333237 95.3333ZM4.0001 96.2758 0.000104987 104.276-3.9999 96.2758Z" fill="#00B0F0" transform="matrix(1 0 0 -1 295.5 501.776)"/><text fill="#ADB9CA" font-family="DengXian,DengXian_MSFontService,sans-serif" font-weight="700" font-size="21.3333" transform="translate(589.833 566)">Web</text><text fill="#ADB9CA" font-family="DengXian,DengXian_MSFontService,sans-serif" font-weight="700" font-size="21.3333" transform="translate(640.5 566)">dapp</text><path d="M197 263.334C197 239.954 215.954 221 239.334 221L1001.67 221C1025.05 221 1044 239.954 1044 263.334L1044 432.666C1044 456.046 1025.05 475 1001.67 475L239.334 475C215.954 475 197 456.046 197 432.666Z" stroke="#2F5597" stroke-width="2" stroke-miterlimit="8" stroke-dasharray="8 6" fill="none" fill-rule="evenodd"/><text fill="#ADB9CA" font-family="DengXian,DengXian_MSFontService,sans-serif" font-weight="700" font-size="21.3333" transform="translate(568.75 249)">Smart contract</text></g></svg>