<svg width="1280" height="720" xmlns="http://www.w3.org/2000/svg" xmlns:xlink="http://www.w3.org/1999/xlink" overflow="hidden"><g><rect x="0" y="0" width="1280" height="720" fill="#131321"/><path d="M808.5 262.172C808.5 255.174 814.174 249.5 821.172 249.5L892.828 249.5C899.827 249.5 905.5 255.174 905.5 262.172L905.5 273.828C905.5 280.827 899.827 286.5 892.828 286.5L821.172 286.5C814.174 286.5 808.5 280.827 808.5 273.828Z" stroke="#8497B0" stroke-width="1.33333" stroke-miterlimit="8" fill="#843C0C" fill-rule="evenodd"/><text fill="#FFFFFF" font-family="DengXian,DengXian_MSFontService,sans-serif" font-weight="700" font-size="14" transform="translate(823.027 272)">Refunding</text><path d="M40.5001 352.83C40.5001 346.02 46.0202 340.5 52.8296 340.5L108.17 340.5C114.98 340.5 120.5 346.02 120.5 352.83L120.5 364.17C120.5 370.98 114.98 376.5 108.17 376.5L52.8296 376.5C46.0202 376.5 40.5001 370.98 40.5001 364.17Z" stroke="#8497B0" stroke-width="1.33333" stroke-miterlimit="8" fill="#BF9000" fill-rule="evenodd"/><text fill="#FFFFFF" font-family="DengXian,DengXian_MSFontService,sans-serif" font-weight="700" font-size="14" transform="translate(56.7308 362)">Storing</text><path d="M178.5 290.83C178.5 284.02 184.02 278.5 190.83 278.5L246.17 278.5C252.98 278.5 258.5 284.02 258.5 290.83L258.5 302.17C258.5 308.98 252.98 314.5 246.17 314.5L190.83 314.5C184.02 314.5 178.5 308.98 178.5 302.17Z" stroke="#8497B0" stroke-width="1.33333" stroke-miterlimit="8" fill="#561043" fill-rule="evenodd"/><text fill="#FFFFFF" font-family="DengXian,DengXian_MSFontService,sans-serif" font-weight="700" font-size="14" transform="translate(197.062 300)">Selling</text><path d="M178.5 418.83C178.5 412.02 184.02 406.5 190.83 406.5L265.17 406.5C271.98 406.5 277.5 412.02 277.5 418.83L277.5 430.17C277.5 436.98 271.98 442.5 265.17 442.5L190.83 442.5C184.02 442.5 178.5 436.98 178.5 430.17Z" stroke="#8497B0" stroke-width="1.33333" stroke-miterlimit="8" fill="#561043" fill-rule="evenodd"/><text fill="#FFFFFF" font-family="DengXian,DengXian_MSFontService,sans-serif" font-weight="700" font-size="14" transform="translate(203.047 428)">Auction</text><path d="M515.5 352.83C515.5 346.02 521.02 340.5 527.83 340.5L605.17 340.5C611.98 340.5 617.5 346.02 617.5 352.83L617.5 364.17C617.5 370.98 611.98 376.5 605.17 376.5L527.83 376.5C521.02 376.5 515.5 370.98 515.5 364.17Z" stroke="#8497B0" stroke-width="1.33333" stroke-miterlimit="8" fill="#7F6000" fill-rule="evenodd"/><text fill="#FFFFFF" font-family="DengXian,DengXian_MSFontService,sans-serif" font-weight="700" font-size="14" transform="translate(535.686 362)">Delivered</text><path d="M854.5 352.83C854.5 346.02 860.02 340.5 866.83 340.5L923.17 340.5C929.98 340.5 935.5 346.02 935.5 352.83L935.5 364.17C935.5 370.98 929.98 376.5 923.17 376.5L866.83 376.5C860.02 376.5 854.5 370.98 854.5 364.17Z" stroke="#8497B0" stroke-width="1.33333" stroke-miterlimit="8" fill="#7030A0" fill-rule="evenodd"/><text fill="#FFFFFF" font-family="DengXian,DengXian_MSFontService,sans-serif" font-weight="700" font-size="14" transform="translate(870.593 362)">Secrecy</text><path d="M1140.5 352.83C1140.5 346.02 1146.02 340.5 1152.83 340.5L1227.17 340.5C1233.98 340.5 1239.5 346.02 1239.5 352.83L1239.5 364.17C1239.5 370.98 1233.98 376.5 1227.17 376.5L1152.83 376.5C1146.02 376.5 1140.5 370.98 1140.5 364.17Z" stroke="#8497B0" stroke-width="1.33333" stroke-miterlimit="8" fill="#00B050" fill-rule="evenodd"/><text fill="#FFFFFF" font-family="DengXian,DengXian_MSFontService,sans-serif" font-weight="700" font-size="14" transform="translate(1158.26 362)">Published</text><path d="M942 441.33C942 434.52 947.52 429 954.33 429L1069.67 429C1076.48 429 1082 434.52 1082 441.33L1082 452.67C1082 459.48 1076.48 465 1069.67 465L954.33 465C947.52 465 942 459.48 942 452.67Z" fill="#204367" fill-rule="evenodd"/><text fill="#FFFFFF" font-family="DengXian,DengXian_MSFontService,sans-serif" font-weight="400" font-size="14" transform="translate(957.271 451)">Confidentiality fee</text><path d="M0-0.333333 29.5642-0.333333 29.5642 62.0103 29.2309 61.677 51.7951 61.677 51.7951 62.3436 28.8976 62.3436 28.8976 0 29.2309 0.333333 0 0.333333ZM50.4617 58.0103 58.4617 62.0103 50.4617 66.0103Z" fill="#00B0F0" transform="matrix(1 0 0 -1 120.5 358.51)"/><path d="M120.5 358.167 150.064 358.167 150.064 424.607 149.731 424.273 172.295 424.273 172.295 424.94 149.398 424.94 149.398 358.5 149.731 358.833 120.5 358.833ZM170.962 420.607 178.962 424.607 170.962 428.607Z" fill="#00B0F0"/><path d="M258.5 296.167 348.623 296.167 348.623 358.51 348.29 358.177 508.588 358.177 508.588 358.844 347.956 358.844 347.956 296.5 348.29 296.833 258.5 296.833ZM507.254 354.51 515.255 358.51 507.254 362.51Z" fill="#00B0F0"/><path d="M0-0.333333 71.5582-0.333333 71.5582 66.1066 71.2249 65.7732 231.783 65.7732 231.783 66.4399 70.8915 66.4399 70.8915 0 71.2249 0.333333 0 0.333333ZM230.45 62.1066 238.45 66.1066 230.45 70.1066Z" fill="#00B0F0" transform="matrix(1 0 0 -1 277.5 424.607)"/><path d="M617.5 358.167 847.898 358.167 847.898 358.833 617.5 358.833ZM846.564 354.5 854.564 358.5 846.564 362.5Z" fill="#00B0F0"/><path d="M566.167 339.81 566.167 267.167 801.344 267.167 801.344 267.833 566.5 267.833 566.833 267.5 566.833 339.81ZM800.01 263.5 808.01 267.5 800.01 271.5Z" fill="#00B0F0"/><path d="M905.5 267.167 1190.57 267.167 1190.57 333.084 1189.9 333.084 1189.9 267.5 1190.23 267.833 905.5 267.833ZM1194.23 331.751 1190.23 339.751 1186.23 331.751Z" fill="#00B0F0"/><path d="M9.73443e-05-0.333333 197.531-0.275648 197.531 0.391019-9.73443e-05 0.333333ZM196.199-3.9427 204.198 0.0596325 196.197 4.0573Z" fill="#00B0F0" transform="matrix(1 0 0 -1 935.5 358.56)"/><path d="M30.5001 551.83C30.5001 545.02 36.0202 539.5 42.8297 539.5L115.17 539.5C121.98 539.5 127.5 545.02 127.5 551.83L127.5 563.17C127.5 569.98 121.98 575.5 115.17 575.5L42.8297 575.5C36.0202 575.5 30.5001 569.98 30.5001 563.17Z" stroke="#525252" stroke-width="1.33333" stroke-miterlimit="8" fill="none" fill-rule="evenodd"/><text fill="#FFFFFF" font-family="DengXian,DengXian_MSFontService,sans-serif" font-weight="400" font-size="13.3333" transform="translate(53.3913 561)">365 days</text><text fill="#FFFFFF" font-family="DengXian,DengXian_MSFontService,sans-serif" font-weight="700" font-size="24" transform="translate(547.833 56)">Status P</text><text fill="#FFFFFF" font-family="DengXian,DengXian_MSFontService,sans-serif" font-weight="700" font-size="24" transform="translate(635.667 56)">eriod</text><path d="M187.5 547.528C187.5 543.094 191.094 539.5 195.528 539.5L259.472 539.5C263.906 539.5 267.5 543.094 267.5 547.528L267.5 572.472C267.5 576.906 263.906 580.5 259.472 580.5L195.528 580.5C191.094 580.5 187.5 576.906 187.5 572.472Z" stroke="#525252" stroke-width="1.33333" stroke-miterlimit="8" fill="none" fill-rule="evenodd"/><text fill="#FFFFFF" font-family="DengXian,DengXian_MSFontService,sans-serif" font-weight="400" font-size="13.3333" transform="translate(205.283 564)">30 days</text><path d="M178.5 152.255C178.5 143.554 185.554 136.5 194.255 136.5L242.746 136.5C251.447 136.5 258.5 143.554 258.5 152.255L258.5 166.746C258.5 175.447 251.447 182.5 242.746 182.5L194.255 182.5C185.554 182.5 178.5 175.447 178.5 166.746Z" stroke="#525252" stroke-width="1.33333" stroke-miterlimit="8" fill="none" fill-rule="evenodd"/><text fill="#FFFFFF" font-family="DengXian,DengXian_MSFontService,sans-serif" font-weight="400" font-size="13.3333" transform="translate(193.145 163)">365 days</text><path d="M365.5 547.23C365.5 542.409 369.409 538.5 374.23 538.5L443.77 538.5C448.591 538.5 452.5 542.409 452.5 547.23L452.5 580.77C452.5 585.591 448.591 589.5 443.77 589.5L374.23 589.5C369.409 589.5 365.5 585.591 365.5 580.77Z" stroke="#525252" stroke-width="1.33333" stroke-miterlimit="8" fill="none" fill-rule="evenodd"/><text fill="#FFFFFF" font-family="DengXian,DengXian_MSFontService,sans-serif" font-weight="400" font-size="13.3333" transform="translate(389.711 559)">15~30</text><text fill="#FFFFFF" font-family="DengXian,DengXian_MSFontService,sans-serif" font-weight="400" font-size="13.3333" transform="translate(395.125 575)">days</text><path d="M675.5 153.298C675.5 147.887 679.887 143.5 685.298 143.5L759.702 143.5C765.113 143.5 769.5 147.887 769.5 153.298L769.5 179.702C769.5 185.113 765.113 189.5 759.702 189.5L685.298 189.5C679.887 189.5 675.5 185.113 675.5 179.702Z" stroke="#525252" stroke-width="1.33333" stroke-miterlimit="8" fill="none" fill-rule="evenodd"/><text fill="#FFFFFF" font-family="DengXian,DengXian_MSFontService,sans-serif" font-weight="400" font-size="13.3333" transform="translate(703.236 170)">7 days</text><path d="M952.5 640.227C952.5 632.094 959.094 625.5 967.227 625.5L1057.77 625.5C1065.91 625.5 1072.5 632.094 1072.5 640.227L1072.5 653.773C1072.5 661.907 1065.91 668.5 1057.77 668.5L967.227 668.5C959.094 668.5 952.5 661.907 952.5 653.773Z" stroke="#525252" stroke-width="1.33333" stroke-miterlimit="8" fill="none" fill-rule="evenodd"/><text fill="#FFFFFF" font-family="DengXian,DengXian_MSFontService,sans-serif" font-weight="400" font-size="13.3333" transform="translate(980.151 651)">+ 365 days</text><path d="M0 0 1.25606 163.235" stroke="#2E75B6" stroke-width="0.666667" stroke-miterlimit="8" fill="none" fill-rule="evenodd" transform="matrix(1 0 0 -1 79.5001 539.735)"/><path d="M0 0 0.514646 97.1284" stroke="#2E75B6" stroke-width="0.666667" stroke-miterlimit="8" fill="none" fill-rule="evenodd" transform="matrix(1 0 0 -1 227.5 539.628)"/><path d="M0 0 0.000104987 95.6723" stroke="#2E75B6" stroke-width="0.666667" stroke-miterlimit="8" fill="none" fill-rule="evenodd" transform="matrix(-1 0 0 1 218.5 182.5)"/><path d="M0 0 0.000104987 97.9338" stroke="#2E75B6" stroke-width="0.666667" stroke-miterlimit="8" fill="none" fill-rule="evenodd" transform="matrix(1 0 0 -1 408.5 538.434)"/><path d="M722.5 226.862 722.5 189.5" stroke="#2E75B6" stroke-width="0.666667" stroke-miterlimit="8" fill="none" fill-rule="evenodd"/><path d="M1012.55 625.862 1012.5 465.5" stroke="#2E75B6" stroke-width="0.666667" stroke-miterlimit="8" fill="none" fill-rule="evenodd"/><path d="M930.5 144.872C930.5 139.696 934.696 135.5 939.872 135.5L1015.13 135.5C1020.3 135.5 1024.5 139.696 1024.5 144.872L1024.5 170.128C1024.5 175.304 1020.3 179.5 1015.13 179.5L939.872 179.5C934.696 179.5 930.5 175.304 930.5 170.128Z" stroke="#525252" stroke-width="1.33333" stroke-miterlimit="8" fill="none" fill-rule="evenodd"/><text fill="#FFFFFF" font-family="DengXian,DengXian_MSFontService,sans-serif" font-weight="400" font-size="13.3333" transform="translate(955.488 161)">30 days</text><path d="M977.5 179.5 977.5 224.513" stroke="#2E75B6" stroke-width="0.666667" stroke-miterlimit="8" fill="none" fill-rule="evenodd"/><path d="M822.5 357.676C822.5 341.01 836.01 327.5 852.676 327.5L1061.32 327.5C1077.99 327.5 1091.5 341.01 1091.5 357.676L1091.5 461.324C1091.5 477.99 1077.99 491.5 1061.32 491.5L852.676 491.5C836.01 491.5 822.5 477.99 822.5 461.324Z" stroke="#8497B0" stroke-width="1.33333" stroke-miterlimit="8" stroke-dasharray="10.6667 4" fill="none" fill-rule="evenodd"/><path d="M366.5 398.23C366.5 393.409 370.409 389.5 375.23 389.5L441.77 389.5C446.591 389.5 450.5 393.409 450.5 398.23L450.5 431.77C450.5 436.591 446.591 440.5 441.77 440.5L375.23 440.5C370.409 440.5 366.5 436.591 366.5 431.77Z" stroke="#525252" stroke-width="1.33333" stroke-miterlimit="8" fill="#333F50" fill-rule="evenodd"/><text fill="#FFFFFF" font-family="Consolas,Consolas_MSFontService,sans-serif" font-weight="400" font-size="13.3333" transform="translate(378.3 410)">Delivery</text><text fill="#FFFFFF" font-family="Consolas,Consolas_MSFontService,sans-serif" font-weight="400" font-size="13.3333" transform="translate(378.3 429)">Period</text><path d="M848.5 548.23C848.5 543.409 852.409 539.5 857.23 539.5L926.77 539.5C931.591 539.5 935.5 543.409 935.5 548.23L935.5 581.77C935.5 586.591 931.591 590.5 926.77 590.5L857.23 590.5C852.409 590.5 848.5 586.591 848.5 581.77Z" stroke="#525252" stroke-width="1.33333" stroke-miterlimit="8" fill="none" fill-rule="evenodd"/><text fill="#FFFFFF" font-family="DengXian,DengXian_MSFontService,sans-serif" font-weight="400" font-size="13.3333" transform="translate(866.578 568)">365 days</text><path d="M0 0 2.68178 163.235" stroke="#2E75B6" stroke-width="0.666667" stroke-miterlimit="8" fill="none" fill-rule="evenodd" transform="matrix(1 0 0 -1 892.5 539.735)"/><path d="M167.5 413.636C167.5 403.068 176.068 394.5 186.636 394.5L312.364 394.5C322.933 394.5 331.5 403.068 331.5 413.636L331.5 479.364C331.5 489.933 322.933 498.5 312.364 498.5L186.636 498.5C176.068 498.5 167.5 489.933 167.5 479.364Z" stroke="#8497B0" stroke-width="1.33333" stroke-miterlimit="8" stroke-dasharray="10.6667 4" fill="none" fill-rule="evenodd"/><path d="M208.5 635.528C208.5 631.094 212.094 627.5 216.528 627.5L342.472 627.5C346.906 627.5 350.5 631.094 350.5 635.528L350.5 660.472C350.5 664.906 346.906 668.5 342.472 668.5L216.528 668.5C212.094 668.5 208.5 664.906 208.5 660.472Z" stroke="#525252" stroke-width="1.33333" stroke-miterlimit="8" fill="none" fill-rule="evenodd"/><text fill="#FFFFFF" font-family="DengXian,DengXian_MSFontService,sans-serif" font-weight="400" font-size="13.3333" transform="translate(250.963 652)">+ 30 days</text><path d="M252 465.213C252 457.363 258.363 451 266.213 451L291.787 451C299.637 451 306 457.363 306 465.213L306 472.787C306 480.637 299.637 487 291.787 487L266.213 487C258.363 487 252 480.637 252 472.787Z" fill="#204367" fill-rule="evenodd"/><text fill="#FFFFFF" font-family="DengXian,DengXian_MSFontService,sans-serif" font-weight="400" font-size="14" transform="translate(269.547 473)">Bid</text><path d="M0 0 0.000104987 140.346" stroke="#2E75B6" stroke-width="0.666667" stroke-miterlimit="8" fill="none" fill-rule="evenodd" transform="matrix(1 0 0 -1 279.5 627.846)"/><path d="M655.5 229.532C655.5 219.573 663.573 211.5 673.532 211.5L1028.47 211.5C1038.43 211.5 1046.5 219.573 1046.5 229.532L1046.5 291.468C1046.5 301.427 1038.43 309.5 1028.47 309.5L673.532 309.5C663.573 309.5 655.5 301.427 655.5 291.468Z" stroke="#8497B0" stroke-width="1.33333" stroke-miterlimit="8" stroke-dasharray="10.6667 4" fill="none" fill-rule="evenodd"/><path d="M680.5 238.483C680.5 231.865 685.865 226.5 692.483 226.5L752.517 226.5C759.135 226.5 764.5 231.865 764.5 238.483L764.5 284.517C764.5 291.135 759.135 296.5 752.517 296.5L692.483 296.5C685.865 296.5 680.5 291.135 680.5 284.517Z" stroke="#525252" stroke-width="1.33333" stroke-miterlimit="8" fill="#333F50" fill-rule="evenodd"/><text fill="#FFFFFF" font-family="Consolas,Consolas_MSFontService,sans-serif" font-weight="400" font-size="13.3333" transform="translate(692.704 248)">Refund</text><text fill="#FFFFFF" font-family="Consolas,Consolas_MSFontService,sans-serif" font-weight="400" font-size="13.3333" transform="translate(692.704 267)">Request</text><text fill="#FFFFFF" font-family="Consolas,Consolas_MSFontService,sans-serif" font-weight="400" font-size="13.3333" transform="translate(692.704 285)">Period</text><path d="M935.5 236.483C935.5 229.865 940.865 224.5 947.483 224.5L1007.52 224.5C1014.14 224.5 1019.5 229.865 1019.5 236.483L1019.5 282.517C1019.5 289.135 1014.14 294.5 1007.52 294.5L947.483 294.5C940.865 294.5 935.5 289.135 935.5 282.517Z" stroke="#525252" stroke-width="1.33333" stroke-miterlimit="8" fill="#333F50" fill-rule="evenodd"/><text fill="#FFFFFF" font-family="Consolas,Consolas_MSFontService,sans-serif" font-weight="400" font-size="13.3333" transform="translate(948.456 246)">Refund</text><text fill="#FFFFFF" font-family="Consolas,Consolas_MSFontService,sans-serif" font-weight="400" font-size="13.3333" transform="translate(948.456 265)">Review</text><text fill="#FFFFFF" font-family="Consolas,Consolas_MSFontService,sans-serif" font-weight="400" font-size="13.3333" transform="translate(948.456 283)">Period</text><path d="M469.5 545.23C469.5 540.409 473.409 536.5 478.23 536.5L547.77 536.5C552.591 536.5 556.5 540.409 556.5 545.23L556.5 578.77C556.5 583.591 552.591 587.5 547.77 587.5L478.23 587.5C473.409 587.5 469.5 583.591 469.5 578.77Z" stroke="#525252" stroke-width="1.33333" stroke-miterlimit="8" fill="none" fill-rule="evenodd"/><text fill="#FFFFFF" font-family="DengXian,DengXian_MSFontService,sans-serif" font-weight="400" font-size="13.3333" transform="translate(490.956 557)">30~100</text><text fill="#FFFFFF" font-family="DengXian,DengXian_MSFontService,sans-serif" font-weight="400" font-size="13.3333" transform="translate(499.869 573)">days</text><path d="M581.5 545.23C581.5 540.409 585.409 536.5 590.23 536.5L658.77 536.5C663.591 536.5 667.5 540.409 667.5 545.23L667.5 578.77C667.5 583.591 663.591 587.5 658.77 587.5L590.23 587.5C585.409 587.5 581.5 583.591 581.5 578.77Z" stroke="#525252" stroke-width="1.33333" stroke-miterlimit="8" fill="none" fill-rule="evenodd"/><text fill="#FFFFFF" font-family="DengXian,DengXian_MSFontService,sans-serif" font-weight="400" font-size="13.3333" transform="translate(594.293 565)">&gt;100 days</text><path d="M469.5 630.518C469.5 626.642 472.642 623.5 476.518 623.5L549.482 623.5C553.358 623.5 556.5 626.642 556.5 630.518L556.5 657.482C556.5 661.358 553.358 664.5 549.482 664.5L476.518 664.5C472.642 664.5 469.5 661.358 469.5 657.482Z" stroke="#7F7F7F" stroke-width="1.33333" stroke-miterlimit="8" stroke-dasharray="5.33333 4" fill="none" fill-rule="evenodd"/><text fill="#D9D9D9" font-family="Calibri,Calibri_MSFontService,sans-serif" font-weight="400" font-size="13.3333" transform="translate(495.539 640)">P</text><text fill="#D9D9D9" font-family="Calibri,Calibri_MSFontService,sans-serif" font-weight="400" font-size="13.3333" transform="translate(502.373 640)">artial</text><text fill="#D9D9D9" font-family="Calibri,Calibri_MSFontService,sans-serif" font-weight="400" font-size="13.3333" transform="translate(494.706 656)">refund</text><path d="M581.5 629.69C581.5 625.719 584.719 622.5 588.69 622.5L660.311 622.5C664.281 622.5 667.5 625.719 667.5 629.69L667.5 657.311C667.5 661.281 664.281 664.5 660.311 664.5L588.69 664.5C584.719 664.5 581.5 661.281 581.5 657.311Z" stroke="#7F7F7F" stroke-width="1.33333" stroke-miterlimit="8" stroke-dasharray="5.33333 4" fill="none" fill-rule="evenodd"/><text fill="#D9D9D9" font-family="Calibri,Calibri_MSFontService,sans-serif" font-weight="400" font-size="13.3333" transform="translate(614.456 639)">Full</text><text fill="#D9D9D9" font-family="Calibri,Calibri_MSFontService,sans-serif" font-weight="400" font-size="13.3333" transform="translate(605.876 655)">refund</text><path d="M513.5 587.5 513.5 623.696" stroke="#4472C4" stroke-width="0.666667" stroke-miterlimit="8" fill="none" fill-rule="evenodd"/><path d="M624.5 587.5 624.5 623.072" stroke="#4472C4" stroke-width="0.666667" stroke-miterlimit="8" fill="none" fill-rule="evenodd"/><path d="M362.5 352.83C362.5 346.02 368.02 340.5 374.83 340.5L442.17 340.5C448.98 340.5 454.5 346.02 454.5 352.83L454.5 364.17C454.5 370.98 448.98 376.5 442.17 376.5L374.83 376.5C368.02 376.5 362.5 370.98 362.5 364.17Z" stroke="#8497B0" stroke-width="1.33333" stroke-miterlimit="8" fill="#548235" fill-rule="evenodd"/><text fill="#FFFFFF" font-family="DengXian,DengXian_MSFontService,sans-serif" font-weight="700" font-size="14" transform="translate(381.819 362)">Pending</text><path d="M30.5001 599.83C30.5001 593.02 36.0202 587.5 42.8297 587.5L115.17 587.5C121.98 587.5 127.5 593.02 127.5 599.83L127.5 611.17C127.5 617.98 121.98 623.5 115.17 623.5L42.8297 623.5C36.0202 623.5 30.5001 617.98 30.5001 611.17Z" stroke="#525252" stroke-width="1.33333" stroke-miterlimit="8" fill="none" fill-rule="evenodd"/><text fill="#FFFFFF" font-family="DengXian,DengXian_MSFontService,sans-serif" font-weight="400" font-size="13.3333" transform="translate(45.8913 601)">+ customer</text><text fill="#FFFFFF" font-family="DengXian,DengXian_MSFontService,sans-serif" font-weight="400" font-size="13.3333" transform="translate(60.058 617)">period</text></g></svg>