<svg width="1280" height="720" xmlns="http://www.w3.org/2000/svg" xmlns:xlink="http://www.w3.org/1999/xlink" overflow="hidden"><g><rect x="0" y="0" width="1280" height="720" fill="#131321"/><text fill="#FFFFFF" font-family="DengXian,DengXian_MSFontService,sans-serif" font-weight="700" font-size="24" transform="translate(479.076 108)">Truth Box Status Process map</text><rect x="464" y="438" width="71" height="28" fill="#222A35"/><text fill="#D6DCE5" font-family="DengXian,DengXian_MSFontService,sans-serif" font-weight="400" font-size="14.6667" transform="translate(487.929 457)">Buy</text><rect x="464" y="384" width="71" height="45" fill="#222A35"/><text fill="#D6DCE5" font-family="DengXian,DengXian_MSFontService,sans-serif" font-weight="400" font-size="14.6667" transform="translate(489.929 403)">No</text><text fill="#D6DCE5" font-family="DengXian,DengXian_MSFontService,sans-serif" font-weight="400" font-size="14.6667" transform="translate(481.595 420)">buyer</text><rect x="1012" y="486" width="48" height="27" fill="#222A35"/><text fill="#D6DCE5" font-family="Microsoft YaHei,Microsoft YaHei_MSFontService,sans-serif" font-weight="400" font-size="14.6667" transform="translate(1021.8 505)">No</text><rect x="1013" y="548" width="47" height="28" fill="#222A35"/><text fill="#D6DCE5" font-family="Microsoft YaHei,Microsoft YaHei_MSFontService,sans-serif" font-weight="400" font-size="14.6667" transform="translate(1022.42 567)">Pay</text><rect x="969" y="291" width="69" height="28" fill="#203864"/><text fill="#FFFFFF" font-family="DengXian,DengXian_MSFontService,sans-serif" font-weight="400" font-size="14.6667" transform="translate(978.824 310)">Review</text><rect x="1093" y="262" width="68" height="27" fill="#222A35"/><text fill="#D6DCE5" font-family="Microsoft YaHei,Microsoft YaHei_MSFontService,sans-serif" font-weight="400" font-size="14" transform="translate(1102.14 280)">Agree</text><rect x="1093" y="324" width="68" height="26" fill="#222A35"/><text fill="#D6DCE5" font-family="Microsoft YaHei,Microsoft YaHei_MSFontService,sans-serif" font-weight="400" font-size="14" transform="translate(1102.14 341)">Refuse</text><path d="M0-0.333333 23.1268-0.333333 23.1268 34.2217 22.7935 33.8884 38.9203 33.8884 38.9203 34.5551 22.4602 34.5551 22.4602 0 22.7935 0.333333 0 0.333333ZM37.587 30.2217 45.587 34.2217 37.587 38.2217Z" fill="#4472C4" transform="matrix(1 0 0 -1 967.5 534.722)"/><path d="M967.5 534.167 990.94 534.167 990.94 562.82 990.607 562.487 1007.05 562.487 1007.05 563.154 990.274 563.154 990.274 534.5 990.607 534.833 967.5 534.833ZM1005.71 558.82 1013.71 562.82 1005.71 566.82Z" fill="#4472C4"/><path d="M0-0.333333 132.966-0.333333 132.966 273.508 132.299 273.508 132.299 0 132.633 0.333333 0 0.333333ZM136.633 272.174 132.633 280.174 128.633 272.174Z" fill="#4472C4" transform="matrix(1 0 0 -1 1060.5 499.674)"/><path d="M0-0.333333 42.5022-0.333333 42.5022 204.123 42.1689 203.79 591.558 203.79 591.558 204.457 41.8355 204.457 41.8355 0 42.1689 0.333333 0 0.333333ZM590.225 200.123 598.225 204.123 590.225 208.123Z" fill="#4472C4" transform="matrix(1 0 0 -1 535.5 407.623)"/><path d="M0-0.333333 28.2799-0.333333 28.2799 114.349 27.9465 114.016 979.112 114.016 979.112 114.682 27.6132 114.682 27.6132 0 27.9465 0.333333 0 0.333333ZM977.778 110.349 985.778 114.349 977.778 118.349Z" fill="#4472C4" transform="matrix(1 0 0 -1 147.5 317.849)"/><path d="M147.5 317.167 175.692 317.167 175.692 430.445 175.359 430.111 196.551 430.111 196.551 430.778 175.025 430.778 175.025 317.5 175.359 317.833 147.5 317.833ZM195.217 426.445 203.217 430.445 195.217 434.445Z" fill="#4472C4"/><path d="M0-0.333333 18.1071-0.333333 18.1071 67.7046 17.7737 67.3712 28.8807 67.3712 28.8807 68.0379 17.4404 68.0379 17.4404 0 17.7737 0.333333 0 0.333333ZM27.5474 63.7046 35.5474 67.7046 27.5474 71.7046Z" fill="#4472C4" transform="matrix(1 0 0 -1 287.5 430.205)"/><path d="M287.5 430.167 305.607 430.167 305.607 502.137 305.274 501.804 316.381 501.804 316.381 502.47 304.94 502.47 304.94 430.5 305.274 430.833 287.5 430.833ZM315.047 498.137 323.047 502.137 315.047 506.137Z" fill="#4472C4"/><path d="M0-0.333333 27.8108-0.333333 27.8108 29.8706 27.4775 29.5372 48.2883 29.5372 48.2883 30.2039 27.1441 30.2039 27.1441 0 27.4775 0.333333 0 0.333333ZM46.955 25.8706 54.955 29.8706 46.955 33.8705Z" fill="#4472C4" transform="matrix(1 0 0 -1 1038.5 305.371)"/><path d="M1038.5 305.167 1066.31 305.167 1066.31 337.35 1065.98 337.016 1086.79 337.016 1086.79 337.683 1065.64 337.683 1065.64 305.5 1065.98 305.833 1038.5 305.833ZM1085.46 333.35 1093.46 337.35 1085.46 341.35Z" fill="#4472C4"/><path d="M35.5001 304.834C35.5001 301.336 38.3356 298.5 41.8335 298.5L141.167 298.5C144.664 298.5 147.5 301.336 147.5 304.834L147.5 330.167C147.5 333.664 144.664 336.5 141.167 336.5L41.8335 336.5C38.3356 336.5 35.5001 333.664 35.5001 330.167Z" stroke="#2F528F" stroke-width="1.33333" stroke-miterlimit="8" fill="#2F5597" fill-rule="evenodd"/><text fill="#FFFFFF" font-family="DengXian,DengXian_MSFontService,sans-serif" font-weight="400" font-size="16" transform="translate(58.0508 322)">Box</text><text fill="#FFFFFF" font-family="DengXian,DengXian_MSFontService,sans-serif" font-weight="400" font-size="16" transform="translate(83.2174 322)">(</text><text fill="#FFFFFF" font-family="DengXian,DengXian_MSFontService,sans-serif" font-weight="400" font-size="16" transform="translate(87.8841 322)">Mint</text><text fill="#FFFFFF" font-family="DengXian,DengXian_MSFontService,sans-serif" font-weight="400" font-size="16" transform="translate(119.217 322)">)</text><path d="M203.5 430.5C203.5 420.007 212.007 411.5 222.5 411.5L268.5 411.5C278.994 411.5 287.5 420.007 287.5 430.5L287.5 430.5C287.5 440.994 278.993 449.5 268.5 449.5L222.5 449.5C212.007 449.5 203.5 440.993 203.5 430.5Z" stroke="#2F528F" stroke-width="1.33333" stroke-miterlimit="8" fill="#BF9000" fill-rule="evenodd"/><text fill="#FFFFFF" font-family="DengXian,DengXian_MSFontService,sans-serif" font-weight="700" font-size="16" transform="translate(218.398 435)">Storing</text><path d="M323.5 363C323.5 354.44 330.44 347.5 339 347.5L391 347.5C399.56 347.5 406.5 354.44 406.5 363L406.5 363C406.5 371.56 399.56 378.5 391 378.5L339 378.5C330.44 378.5 323.5 371.56 323.5 363Z" stroke="#2F528F" stroke-width="1.33333" stroke-miterlimit="8" fill="#561043" fill-rule="evenodd"/><text fill="#FFFFFF" font-family="DengXian,DengXian_MSFontService,sans-serif" font-weight="700" font-size="16" transform="translate(339.968 368)">Selling</text><path d="M323.5 502C323.5 493.44 330.44 486.5 339 486.5L417 486.5C425.56 486.5 432.5 493.44 432.5 502L432.5 502C432.5 510.56 425.56 517.5 417 517.5L339 517.5C330.44 517.5 323.5 510.56 323.5 502Z" stroke="#2F528F" stroke-width="1.33333" stroke-miterlimit="8" fill="#561043" fill-rule="evenodd"/><text fill="#FFFFFF" font-family="DengXian,DengXian_MSFontService,sans-serif" font-weight="700" font-size="16" transform="translate(337.763 507)">Auctioning</text><path d="M406.5 362.167 454.559 362.167 454.559 426.564 453.892 426.564 453.892 362.5 454.226 362.833 406.5 362.833ZM458.226 425.231 454.226 433.231 450.226 425.231Z" fill="#4472C4"/><path d="M0-0.333333 21.6354-0.333333 21.6354 62.6894 20.9687 62.6894 20.9687 0 21.302 0.333333 0 0.333333ZM25.302 61.356 21.302 69.356 17.302 61.356Z" fill="#4472C4" transform="matrix(1 0 0 -1 432.5 501.856)"/><path d="M681.5 357C681.5 347.887 688.887 340.5 698 340.5L764 340.5C773.113 340.5 780.5 347.887 780.5 357L780.5 357C780.5 366.113 773.113 373.5 764 373.5L698 373.5C688.887 373.5 681.5 366.113 681.5 357Z" stroke="#8497B0" stroke-width="1.33333" stroke-miterlimit="8" fill="#843C0C" fill-rule="evenodd"/><text fill="#FFFFFF" font-family="DengXian,DengXian_MSFontService,sans-serif" font-weight="700" font-size="14.6667" transform="translate(696.242 362)">Refunding</text><path d="M825.5 534.5C825.5 525.111 833.111 517.5 842.5 517.5L950.5 517.5C959.889 517.5 967.5 525.111 967.5 534.5L967.5 534.5C967.5 543.889 959.889 551.5 950.5 551.5L842.5 551.5C833.111 551.5 825.5 543.889 825.5 534.5Z" stroke="#8497B0" stroke-width="1.33333" stroke-miterlimit="8" fill="#222A35" fill-rule="evenodd"/><text fill="#FFFFFF" font-family="Calibri,Calibri_MSFontService,sans-serif" font-weight="400" font-size="14.6667" transform="translate(841.218 539)">Confidentiality fee</text><path d="M571.5 449.5C571.5 440.111 579.111 432.5 588.5 432.5L659.5 432.5C668.889 432.5 676.5 440.111 676.5 449.5L676.5 449.5C676.5 458.889 668.889 466.5 659.5 466.5L588.5 466.5C579.111 466.5 571.5 458.889 571.5 449.5Z" stroke="#8497B0" stroke-width="1.33333" stroke-miterlimit="8" fill="#7F6000" fill-rule="evenodd"/><text fill="#FFFFFF" font-family="DengXian,DengXian_MSFontService,sans-serif" font-weight="700" font-size="14.6667" transform="translate(592.011 454)">Delivered</text><path d="M681.5 534.5C681.5 525.111 689.111 517.5 698.5 517.5L761.5 517.5C770.889 517.5 778.5 525.111 778.5 534.5L778.5 534.5C778.5 543.889 770.889 551.5 761.5 551.5L698.5 551.5C689.111 551.5 681.5 543.889 681.5 534.5Z" stroke="#8497B0" stroke-width="1.33333" stroke-miterlimit="8" fill="#7030A0" fill-rule="evenodd"/><text fill="#FFFFFF" font-family="DengXian,DengXian_MSFontService,sans-serif" font-weight="700" font-size="14.6667" transform="translate(704.67 539)">Secrecy</text><path d="M0-0.333333 18.6742-0.333333 18.6742 3.02541 18.3408 2.69207 30.015 2.69207 30.015 3.35874 18.0075 3.35874 18.0075 0 18.3408 0.333333 0 0.333333ZM28.6817-0.974593 36.6817 3.02541 28.6817 7.02541Z" fill="#4472C4" transform="matrix(1 0 0 -1 535.5 452.525)"/><path d="M624.167 432.42 624.167 356.167 675.494 356.167 675.494 356.833 624.5 356.833 624.833 356.5 624.833 432.42ZM674.161 352.5 682.161 356.5 674.161 360.5Z" fill="#4472C4"/><path d="M0-0.333333 68.378-0.333333 68.378 50.9942 67.7113 50.9942 67.7113 0 68.0446 0.333333 0 0.333333ZM72.0446 49.6609 68.0446 57.6609 64.0446 49.6609Z" fill="#4472C4" transform="matrix(1.83697e-16 1 1 -1.83697e-16 624.5 466.5)"/><path d="M0 0.333333-24.0001 0.333333-23.6667 0-23.6667 306.406-24.0001 306.072 18.6094 306.072 18.6094 306.739-24.3334 306.739-24.3334-0.333333 0-0.333333ZM17.2761 302.406 25.2761 306.406 17.2761 310.406Z" fill="#4472C4" transform="matrix(-6.12323e-17 -1 -1 6.12323e-17 1036.91 576.776)"/><path d="M663 499.834C663 484.462 675.462 472 690.834 472L1059.17 472C1074.54 472 1087 484.462 1087 499.834L1087 611.166C1087 626.538 1074.54 639 1059.17 639L690.834 639C675.462 639 663 626.538 663 611.166Z" stroke="#2F5597" stroke-width="2" stroke-miterlimit="8" stroke-dasharray="8 6" fill="none" fill-rule="evenodd"/><path d="M1133.5 203C1133.5 193.887 1140.89 186.5 1150 186.5L1236 186.5C1245.11 186.5 1252.5 193.887 1252.5 203L1252.5 203C1252.5 212.113 1245.11 219.5 1236 219.5L1150 219.5C1140.89 219.5 1133.5 212.113 1133.5 203Z" stroke="#8497B0" stroke-width="1.33333" stroke-miterlimit="8" fill="#00B050" fill-rule="evenodd"/><text fill="#FFFFFF" font-family="DengXian,DengXian_MSFontService,sans-serif" font-weight="700" font-size="16" transform="translate(1156.8 208)">Published</text><path d="M0-0.333333 89.2173-0.333333 89.2173 153.654 88.8839 153.321 346.159 153.321 346.159 153.987 88.5506 153.987 88.5506 0 88.8839 0.333333 0 0.333333ZM344.826 149.654 352.826 153.654 344.826 157.654Z" fill="#4472C4" transform="matrix(1 0 0 -1 780.5 357.154)"/><rect x="970" y="385" width="68" height="28" fill="#203864"/><text fill="#FFFFFF" font-family="DengXian,DengXian_MSFontService,sans-serif" font-weight="400" font-size="14.6667" transform="translate(979.306 404)">Cancel</text><path d="M0-0.333333 51.5336-0.333333 51.5336 51.2189 51.2003 50.8856 95.734 50.8856 95.734 51.5522 50.867 51.5522 50.867 0 51.2003 0.333333 0 0.333333ZM94.4006 47.2189 102.401 51.2189 94.4006 55.2189Z" fill="#4472C4" transform="matrix(1 0 0 -1 867.5 356.719)"/><path d="M867.5 356.167 919.275 356.167 919.275 399.199 918.941 398.866 963.716 398.866 963.716 399.533 918.608 399.533 918.608 356.5 918.941 356.833 867.5 356.833ZM962.383 395.199 970.383 399.199 962.383 403.199Z" fill="#4472C4"/><text fill="#FFFFFF" font-family="DengXian,DengXian_MSFontService,sans-serif" font-weight="400" font-size="14" transform="translate(814.469 617)">Deadline</text><text fill="#FFFFFF" font-family="DengXian,DengXian_MSFontService,sans-serif" font-weight="400" font-size="14" transform="translate(871.302 617)">+</text><text fill="#FFFFFF" font-family="DengXian,DengXian_MSFontService,sans-serif" font-weight="400" font-size="14" transform="translate(880.636 617)">365 days</text><path d="M778.5 534.167 818.909 534.167 818.909 534.833 778.5 534.833ZM817.576 530.5 825.576 534.5 817.576 538.5Z" fill="#4472C4"/><text fill="#FFFFFF" font-family="DengXian,DengXian_MSFontService,sans-serif" font-weight="400" font-size="14" transform="translate(1102.14 485)">Deadline over</text><path d="M203.5 204.5C203.5 195.111 211.111 187.5 220.5 187.5L270.5 187.5C279.889 187.5 287.5 195.111 287.5 204.5L287.5 204.5C287.5 213.889 279.889 221.5 270.5 221.5L220.5 221.5C211.111 221.5 203.5 213.889 203.5 204.5Z" stroke="#8497B0" stroke-width="1.33333" stroke-miterlimit="8" fill="#00B050" fill-rule="evenodd"/><text fill="#FFFFFF" font-family="DengXian,DengXian_MSFontService,sans-serif" font-weight="700" font-size="16" transform="translate(218.565 209)">Publish</text></g></svg>