<svg width="1280" height="720" xmlns="http://www.w3.org/2000/svg" xmlns:xlink="http://www.w3.org/1999/xlink" overflow="hidden"><g><rect x="0" y="0" width="1280" height="720" fill="#131321"/><path d="M537 348.285C537 335.425 547.425 325 560.285 325L680.715 325C693.575 325 704 335.425 704 348.285L704 647.715C704 660.575 693.575 671 680.715 671L560.285 671C547.425 671 537 660.575 537 647.715Z" stroke="#8497B0" stroke-width="2" stroke-miterlimit="8" fill="#222A35" fill-rule="evenodd"/><text fill="#FFFFFF" font-family="DengXian,DengXian_MSFontService,sans-serif" font-weight="700" font-size="24" transform="translate(557.186 68)">Symbol Process</text><path d="M561.5 380.5C561.5 376.634 564.634 373.5 568.5 373.5L669.5 373.5C673.366 373.5 676.5 376.634 676.5 380.5L676.5 408.5C676.5 412.366 673.366 415.5 669.5 415.5L568.5 415.5C564.634 415.5 561.5 412.366 561.5 408.5Z" stroke="#8FAADC" stroke-width="1.33333" stroke-miterlimit="8" fill="#203864" fill-rule="evenodd"/><text fill="#FFFFFF" font-family="DengXian,DengXian_MSFontService,sans-serif" font-weight="400" font-size="18.6667" transform="translate(587.536 400)">Storage</text><path d="M1150 384C1150 373.507 1158.73 365 1169.5 365 1180.27 365 1189 373.507 1189 384 1189 394.493 1180.27 403 1169.5 403 1158.73 403 1150 394.493 1150 384Z" stroke="#C55A11" stroke-width="4" stroke-miterlimit="8" fill="#FFC000" fill-rule="evenodd"/><text fill="#843C0C" font-family="DengXian,DengXian_MSFontService,sans-serif" font-weight="400" font-size="26.6667" transform="translate(1162.6 393)">$</text><path d="M3.90687e-07-0.333333 77.5746-0.333242 77.5746 0.333424-3.90687e-07 0.333333ZM76.2413-6.66658 89.5746 0.000104987 76.2412 6.66676Z" fill="#00B0F0" transform="matrix(-1 0 0 1 1151.07 384.5)"/><path d="M371.5 263.667C371.5 260.261 374.261 257.5 377.667 257.5L476.333 257.5C479.739 257.5 482.5 260.261 482.5 263.667L482.5 288.333C482.5 291.739 479.739 294.5 476.333 294.5L377.667 294.5C374.261 294.5 371.5 291.739 371.5 288.333Z" stroke="#2E75B6" stroke-width="1.33333" stroke-miterlimit="8" fill="none" fill-rule="evenodd"/><text fill="#FFFFFF" font-family="DengXian,DengXian_MSFontService,sans-serif" font-weight="400" font-size="16" transform="translate(384.224 281)">Evidence file</text><path d="M330.5 394.167 555.221 394.167 555.221 394.833 330.5 394.833ZM553.888 390.5 561.888 394.5 553.888 398.5Z" fill="#00B0F0"/><path d="M391.5 377.5C391.5 370.32 397.32 364.5 404.5 364.5L455.5 364.5C462.68 364.5 468.5 370.32 468.5 377.5L468.5 377.5C468.5 384.68 462.68 390.5 455.5 390.5L404.5 390.5C397.32 390.5 391.5 384.68 391.5 377.5Z" stroke="#8497B0" stroke-width="1.33333" stroke-miterlimit="8" fill="none" fill-rule="evenodd"/><text fill="#AFABAB" font-family="DengXian,DengXian_MSFontService,sans-serif" font-weight="400" font-size="14.6667" transform="translate(415.554 382)">Mint</text><text fill="#FFFFFF" font-family="DengXian,DengXian_MSFontService,sans-serif" font-weight="400" font-size="14.6667" transform="translate(169.095 381)">reward</text><text fill="#FFFFFF" font-family="Microsoft YaHei,Microsoft YaHei_MSFontService,sans-serif" font-weight="400" font-size="18.6667" transform="translate(571.678 356)">Truth Box</text><path d="M114 394C114 383.507 122.73 375 133.5 375 144.27 375 153 383.507 153 394 153 404.493 144.27 413 133.5 413 122.73 413 114 404.493 114 394Z" stroke="#C55A11" stroke-width="4" stroke-miterlimit="8" fill="#FFC000" fill-rule="evenodd"/><text fill="#843C0C" font-family="DengXian,DengXian_MSFontService,sans-serif" font-weight="400" font-size="26.6667" transform="translate(126.754 403)">$</text><path d="M561.5 460.667C561.5 456.709 564.709 453.5 568.667 453.5L669.333 453.5C673.291 453.5 676.5 456.709 676.5 460.667L676.5 489.333C676.5 493.291 673.291 496.5 669.333 496.5L568.667 496.5C564.709 496.5 561.5 493.291 561.5 489.333Z" stroke="#8FAADC" stroke-width="1.33333" stroke-miterlimit="8" fill="#203864" fill-rule="evenodd"/><text fill="#FFFFFF" font-family="DengXian,DengXian_MSFontService,sans-serif" font-weight="400" font-size="18.6667" transform="translate(580.536 480)">Exchange</text><path d="M561.5 536.667C561.5 532.709 564.709 529.5 568.667 529.5L669.333 529.5C673.291 529.5 676.5 532.709 676.5 536.667L676.5 565.333C676.5 569.291 673.291 572.5 669.333 572.5L568.667 572.5C564.709 572.5 561.5 569.291 561.5 565.333Z" stroke="#8FAADC" stroke-width="1.33333" stroke-miterlimit="8" fill="#203864" fill-rule="evenodd"/><text fill="#F2F2F2" font-family="DengXian,DengXian_MSFontService,sans-serif" font-weight="400" font-size="18.6667" transform="translate(588.203 556)">Secrecy</text><path d="M229.5 380.5C229.5 376.634 232.634 373.5 236.5 373.5L323.5 373.5C327.366 373.5 330.5 376.634 330.5 380.5L330.5 408.5C330.5 412.366 327.366 415.5 323.5 415.5L236.5 415.5C232.634 415.5 229.5 412.366 229.5 408.5Z" stroke="#2F528F" stroke-width="1.33333" stroke-miterlimit="8" fill="#7030A0" fill-rule="evenodd"/><text fill="#FFFFFF" font-family="DengXian,DengXian_MSFontService,sans-serif" font-weight="400" font-size="21.3333" transform="translate(249.218 401)">Minter</text><path d="M960.5 364.5C960.5 358.977 964.977 354.5 970.5 354.5L1051.5 354.5C1057.02 354.5 1061.5 358.977 1061.5 364.5L1061.5 404.5C1061.5 410.023 1057.02 414.5 1051.5 414.5L970.5 414.5C964.977 414.5 960.5 410.023 960.5 404.5Z" stroke="#2F528F" stroke-width="1.33333" stroke-miterlimit="8" fill="#561043" fill-rule="evenodd"/><text fill="#FFFFFF" font-family="DengXian,DengXian_MSFontService,sans-serif" font-weight="400" font-size="16" transform="translate(990.831 380)">Buyer</text><text fill="#FFFFFF" font-family="DengXian,DengXian_MSFontService,sans-serif" font-weight="400" font-size="16" transform="translate(977.497 399)">(Criminal)</text><path d="M229.5 590.5C229.5 586.634 232.634 583.5 236.5 583.5L323.5 583.5C327.366 583.5 330.5 586.634 330.5 590.5L330.5 618.5C330.5 622.366 327.366 625.5 323.5 625.5L236.5 625.5C232.634 625.5 229.5 622.366 229.5 618.5Z" stroke="#2F528F" stroke-width="1.33333" stroke-miterlimit="8" fill="#843C0C" fill-rule="evenodd"/><text fill="#FFFFFF" font-family="DengXian,DengXian_MSFontService,sans-serif" font-weight="400" font-size="21.3333" transform="translate(257.051 611)">DAO</text><path d="M619.833 415.5 619.833 446.527 619.167 446.527 619.167 415.5ZM623.5 445.194 619.5 453.194 615.5 445.194Z" fill="#00B0F0"/><path d="M619.833 496.5 619.833 523.498 619.167 523.498 619.167 496.5ZM623.5 522.164 619.5 530.164 615.5 522.164Z" fill="#00B0F0"/><path d="M100 364.5C100 357.597 105.597 352 112.5 352L328.5 352C335.403 352 341 357.597 341 364.5L341 414.5C341 421.403 335.403 427 328.5 427L112.5 427C105.597 427 100 421.403 100 414.5Z" stroke="#2F5597" stroke-width="2" stroke-miterlimit="8" stroke-dasharray="8 6" fill="none" fill-rule="evenodd"/><path d="M4.61894e-07-0.333333 69.0988-0.333238 69.0988 0.333429-4.61894e-07 0.333333ZM67.7655-3.99991 75.7655 0.000104987 67.7654 4.00009Z" fill="#00B0F0" transform="matrix(-1 0 0 1 229.266 394.5)"/><path d="M941 346.834C941 336.984 948.984 329 958.834 329L1177.17 329C1187.02 329 1195 336.984 1195 346.834L1195 418.166C1195 428.016 1187.02 436 1177.17 436L958.834 436C948.984 436 941 428.016 941 418.166Z" stroke="#2F5597" stroke-width="2" stroke-miterlimit="8" stroke-dasharray="8 6" fill="none" fill-rule="evenodd"/><path d="M561.5 611.667C561.5 607.709 564.709 604.5 568.667 604.5L669.333 604.5C673.291 604.5 676.5 607.709 676.5 611.667L676.5 640.333C676.5 644.291 673.291 647.5 669.333 647.5L568.667 647.5C564.709 647.5 561.5 644.291 561.5 640.333Z" stroke="#8FAADC" stroke-width="1.33333" stroke-miterlimit="8" fill="#203864" fill-rule="evenodd"/><text fill="#F2F2F2" font-family="DengXian,DengXian_MSFontService,sans-serif" font-weight="400" font-size="18.6667" transform="translate(589.87 631)">Publish</text><path d="M619.833 572.5 619.833 598.248 619.167 598.248 619.167 572.5ZM623.5 596.915 619.5 604.915 615.5 596.915Z" fill="#00B0F0"/><path d="M6.6667-0.333333 142.098-0.333333 142.098 90.3804 141.765 90.047 276.863 90.047 276.863 90.7137 141.432 90.7137 141.432 0 141.765 0.333333 6.6667 0.333333ZM8 4 0 0 8-4ZM275.53 86.3804 283.53 90.3804 275.53 94.3804Z" fill="#00B0F0" transform="matrix(-1 1.22465e-16 1.22465e-16 1 960.03 384.5)"/><path d="M1010.77 414.5 1010.77 551.743 683.166 551.743 683.166 551.077 1010.44 551.077 1010.1 551.41 1010.1 414.5ZM684.5 555.41 676.5 551.41 684.5 547.41Z" fill="#00B0F0"/><path d="M6.66666-0.333333 59.3053-0.333333 59.3053 275.128 58.6386 275.128 58.6386 0 58.972 0.333333 6.66666 0.333333ZM8 4 0 0 8-4ZM62.972 273.795 58.972 281.795 54.972 273.795Z" fill="#00B0F0" transform="matrix(1.83697e-16 1 1 -1.83697e-16 279.5 415.5)"/><path d="M279.167 577.288 279.167 498.167 530.358 498.167 530.358 498.833 279.5 498.833 279.833 498.5 279.833 577.288ZM283.5 575.954 279.5 583.954 275.5 575.954ZM529.025 494.5 537.025 498.5 529.025 502.5Z" fill="#00B0F0"/><path d="M777 167.167C777 162.656 780.656 159 785.167 159L912.833 159C917.344 159 921 162.656 921 167.167L921 199.833C921 204.344 917.344 208 912.833 208L785.167 208C780.656 208 777 204.344 777 199.833Z" stroke="#843C0C" stroke-width="2" stroke-miterlimit="8" stroke-dasharray="8 6" fill="none" fill-rule="evenodd"/><text fill="#FFFFFF" font-family="DengXian,DengXian_MSFontService,sans-serif" font-weight="400" font-size="21.3333" transform="translate(822.152 191)">Crime</text><path d="M352.5 452.5C352.5 445.32 358.32 439.5 365.5 439.5L496.5 439.5C503.68 439.5 509.5 445.32 509.5 452.5L509.5 452.5C509.5 459.68 503.68 465.5 496.5 465.5L365.5 465.5C358.32 465.5 352.5 459.68 352.5 452.5Z" stroke="#8497B0" stroke-width="1.33333" stroke-miterlimit="8" fill="none" fill-rule="evenodd"/><text fill="#AFABAB" font-family="DengXian,DengXian_MSFontService,sans-serif" font-weight="400" font-size="14.6667" transform="translate(364.995 457)">Sell, Auction, Deliver,</text><path d="M729.5 453.5C729.5 446.32 735.32 440.5 742.5 440.5L865.5 440.5C872.68 440.5 878.5 446.32 878.5 453.5L878.5 453.5C878.5 460.68 872.68 466.5 865.5 466.5L742.5 466.5C735.32 466.5 729.5 460.68 729.5 453.5Z" stroke="#8497B0" stroke-width="1.33333" stroke-miterlimit="8" fill="none" fill-rule="evenodd"/><text fill="#AFABAB" font-family="DengXian,DengXian_MSFontService,sans-serif" font-weight="400" font-size="14.6667" transform="translate(752.294 458)">Buy, Bid, Refund</text><text fill="#FFFFFF" font-family="DengXian,DengXian_MSFontService,sans-serif" font-weight="400" font-size="14.6667" transform="translate(1101.81 368)">cost</text><path d="M730.5 529.5C730.5 522.32 736.32 516.5 743.5 516.5L896.5 516.5C903.68 516.5 909.5 522.32 909.5 529.5L909.5 529.5C909.5 536.68 903.68 542.5 896.5 542.5L743.5 542.5C736.32 542.5 730.5 536.68 730.5 529.5Z" stroke="#8497B0" stroke-width="1.33333" stroke-miterlimit="8" fill="none" fill-rule="evenodd"/><text fill="#AFABAB" font-family="DengXian,DengXian_MSFontService,sans-serif" font-weight="400" font-size="14.6667" transform="translate(749.583 534)">Pay</text><text fill="#AFABAB" font-family="DengXian,DengXian_MSFontService,sans-serif" font-weight="400" font-size="14.6667" transform="translate(775.916 534)">Confidentiality fee</text><path d="M364.5 525C364.5 517.544 370.544 511.5 378 511.5L463 511.5C470.456 511.5 476.5 517.544 476.5 525L476.5 525C476.5 532.456 470.456 538.5 463 538.5L378 538.5C370.544 538.5 364.5 532.456 364.5 525Z" stroke="#8497B0" stroke-width="1.33333" stroke-miterlimit="8" fill="none" fill-rule="evenodd"/><text fill="#AFABAB" font-family="Calibri,Calibri_MSFontService,sans-serif" font-weight="400" font-size="14.6667" transform="translate(384.115 530)">G</text><text fill="#AFABAB" font-family="Calibri,Calibri_MSFontService,sans-serif" font-weight="400" font-size="14.6667" transform="translate(393.448 530)">overnance</text><path d="M0-0.333333 171.257-0.333333 171.257 82.5383 170.59 82.5383 170.59 0 170.923 0.333333 0 0.333333ZM174.923 81.2049 170.923 89.2049 166.923 81.2049Z" fill="#00B0F0" transform="matrix(-1.83697e-16 -1 -1 1.83697e-16 1010.71 354.423)"/><path d="M0-0.333333 498.461-0.333333 498.461 182.8 497.795 182.8 497.795 0 498.128 0.333333 0 0.333333ZM502.128 181.467 498.128 189.467 494.128 181.467Z" fill="#00B0F0" transform="matrix(-1 1.22465e-16 1.22465e-16 1 777.628 183.5)"/><path d="M569.5 248.333C569.5 244.007 573.007 240.5 577.333 240.5L666.667 240.5C670.993 240.5 674.5 244.007 674.5 248.333L674.5 279.667C674.5 283.993 670.993 287.5 666.667 287.5L577.333 287.5C573.007 287.5 569.5 283.993 569.5 279.667Z" stroke="#2F528F" stroke-width="1.33333" stroke-miterlimit="8" fill="#7F6000" fill-rule="evenodd"/><text fill="#FFFFFF" font-family="Microsoft YaHei,Microsoft YaHei_MSFontService,sans-serif" font-weight="400" font-size="16" transform="translate(586.512 269)">IPFS / AR</text><path d="M343 235.667C343 228.119 349.119 222 356.667 222L502.333 222C509.881 222 516 228.119 516 235.667L516 290.333C516 297.881 509.881 304 502.333 304L356.667 304C349.119 304 343 297.881 343 290.333Z" stroke="#2F5597" stroke-width="2" stroke-miterlimit="8" stroke-dasharray="8 6" fill="none" fill-rule="evenodd"/><path d="M516.5 263.167 562.788 263.167 562.788 263.833 516.5 263.833ZM561.455 259.5 569.455 263.5 561.455 267.5Z" fill="#00B0F0"/><path d="M305.167 375.152 305.167 263.167 337.189 263.167 337.189 263.833 305.5 263.833 305.833 263.5 305.833 375.152ZM335.855 259.5 343.855 263.5 335.855 267.5Z" fill="#00B0F0"/><text fill="#FFFFFF" font-family="DengXian,DengXian_MSFontService,sans-serif" font-weight="400" font-size="14.6667" transform="translate(403.724 246)">Upload</text></g></svg>