<svg width="1280" height="720" xmlns="http://www.w3.org/2000/svg" xmlns:xlink="http://www.w3.org/1999/xlink" overflow="hidden"><g><rect x="0" y="0" width="1280" height="720" fill="#131321"/><text fill="#FFFFFF" font-family="Calibri,Calibri_MSFontService,sans-serif" font-weight="700" font-size="24" transform="translate(528.197 81)">Token Unlock Timeline</text><g><path d="M271.5 498.5 1039.5 498.5M271.5 453.5 1039.5 453.5M271.5 408.5 1039.5 408.5M271.5 362.5 1039.5 362.5M271.5 317.5 1039.5 317.5M271.5 272.5 1039.5 272.5M271.5 227.5 1039.5 227.5M271.5 182.5 1039.5 182.5M271.5 137.5 1039.5 137.5" stroke="#D9D9D9" stroke-linejoin="round" stroke-miterlimit="10" fill="none"/></g><g><path d="M271 498 405 489 505 480 605 471 739 462 839 453 939 444 1039 426 1039 543 939 543 839 543 739 543 605 543 505 543 405 543 271 543Z" fill="#4472C4"/></g><g><path d="M271 453 405 426 505 399 605 372 739 345 839 318 939 291 1039 246 1039 426 939 444 839 453 739 462 605 471 505 480 405 489 271 498Z" fill="#ED7D31"/></g><g><path d="M271 444 405 408 505 372 605 336 739 300 839 264 939 227 1039 173 1039 246 939 291 839 318 739 345 605 372 505 399 405 426 271 453Z" fill="#A5A5A5"/></g><g><path d="M271.5 543.5 1039.5 543.5" stroke="#D9D9D9" stroke-linejoin="round" stroke-miterlimit="10" fill="none" fill-rule="evenodd"/></g><g><path d="M271.5 543.5 271.5 547.5M304.5 543.5 304.5 547.5M338.5 543.5 338.5 547.5M371.5 543.5 371.5 547.5M404.5 543.5 404.5 547.5M438.5 543.5 438.5 547.5M471.5 543.5 471.5 547.5M504.5 543.5 504.5 547.5M538.5 543.5 538.5 547.5M571.5 543.5 571.5 547.5M605.5 543.5 605.5 547.5M638.5 543.5 638.5 547.5M671.5 543.5 671.5 547.5M705.5 543.5 705.5 547.5M738.5 543.5 738.5 547.5M772.5 543.5 772.5 547.5M805.5 543.5 805.5 547.5M838.5 543.5 838.5 547.5M872.5 543.5 872.5 547.5M905.5 543.5 905.5 547.5M939.5 543.5 939.5 547.5M972.5 543.5 972.5 547.5M1005.5 543.5 1005.5 547.5M1039.5 543.5 1039.5 547.5" stroke="#D9D9D9" stroke-linejoin="round" stroke-miterlimit="10" fill="none"/></g><g><text fill="#FFFFFF" font-family="DengXian,DengXian_MSFontService,sans-serif" font-weight="400" font-size="16" transform="translate(250.201 548)">0</text></g><g><text fill="#FFFFFF" font-family="DengXian,DengXian_MSFontService,sans-serif" font-weight="400" font-size="16" transform="translate(250.201 503)">5</text></g><g><text fill="#FFFFFF" font-family="DengXian,DengXian_MSFontService,sans-serif" font-weight="400" font-size="16" transform="translate(241.794 458)">10</text></g><g><text fill="#FFFFFF" font-family="DengXian,DengXian_MSFontService,sans-serif" font-weight="400" font-size="16" transform="translate(241.794 413)">15</text></g><g><text fill="#FFFFFF" font-family="DengXian,DengXian_MSFontService,sans-serif" font-weight="400" font-size="16" transform="translate(241.794 367)">20</text></g><g><text fill="#FFFFFF" font-family="DengXian,DengXian_MSFontService,sans-serif" font-weight="400" font-size="16" transform="translate(241.794 322)">25</text></g><g><text fill="#FFFFFF" font-family="DengXian,DengXian_MSFontService,sans-serif" font-weight="400" font-size="16" transform="translate(241.794 277)">30</text></g><g><text fill="#FFFFFF" font-family="DengXian,DengXian_MSFontService,sans-serif" font-weight="400" font-size="16" transform="translate(241.794 232)">35</text></g><g><text fill="#FFFFFF" font-family="DengXian,DengXian_MSFontService,sans-serif" font-weight="400" font-size="16" transform="translate(241.794 187)">40</text></g><g><text fill="#FFFFFF" font-family="DengXian,DengXian_MSFontService,sans-serif" font-weight="400" font-size="16" transform="translate(241.794 142)">45</text></g><g><text fill="#595959" font-family="DengXian,DengXian_MSFontService,sans-serif" font-weight="400" font-size="16" transform="matrix(0.707107 -0.707107 0.707107 0.707107 230.345 605)">2025/9/1</text></g><g><text fill="#595959" font-family="DengXian,DengXian_MSFontService,sans-serif" font-weight="400" font-size="16" transform="matrix(0.707107 -0.707107 0.707107 0.707107 257.793 611)">2025/10/1</text></g><g><text fill="#595959" font-family="DengXian,DengXian_MSFontService,sans-serif" font-weight="400" font-size="16" transform="matrix(0.707107 -0.707107 0.707107 0.707107 291.186 611)">2025/11/1</text></g><g><text fill="#595959" font-family="DengXian,DengXian_MSFontService,sans-serif" font-weight="400" font-size="16" transform="matrix(0.707107 -0.707107 0.707107 0.707107 324.58 611)">2025/12/1</text></g><g><text fill="#595959" font-family="DengXian,DengXian_MSFontService,sans-serif" font-weight="400" font-size="16" transform="matrix(0.707107 -0.707107 0.707107 0.707107 363.917 605)">2026/1/1</text></g><g><text fill="#595959" font-family="DengXian,DengXian_MSFontService,sans-serif" font-weight="400" font-size="16" transform="matrix(0.707107 -0.707107 0.707107 0.707107 397.311 605)">2026/2/1</text></g><g><text fill="#595959" font-family="DengXian,DengXian_MSFontService,sans-serif" font-weight="400" font-size="16" transform="matrix(0.707107 -0.707107 0.707107 0.707107 430.704 605)">2026/3/1</text></g><g><text fill="#595959" font-family="DengXian,DengXian_MSFontService,sans-serif" font-weight="400" font-size="16" transform="matrix(0.707107 -0.707107 0.707107 0.707107 464.097 605)">2026/4/1</text></g><g><text fill="#595959" font-family="DengXian,DengXian_MSFontService,sans-serif" font-weight="400" font-size="16" transform="matrix(0.707107 -0.707107 0.707107 0.707107 497.49 605)">2026/5/1</text></g><g><text fill="#595959" font-family="DengXian,DengXian_MSFontService,sans-serif" font-weight="400" font-size="16" transform="matrix(0.707107 -0.707107 0.707107 0.707107 530.884 605)">2026/6/1</text></g><g><text fill="#595959" font-family="DengXian,DengXian_MSFontService,sans-serif" font-weight="400" font-size="16" transform="matrix(0.707107 -0.707107 0.707107 0.707107 564.277 605)">2026/7/1</text></g><g><text fill="#595959" font-family="DengXian,DengXian_MSFontService,sans-serif" font-weight="400" font-size="16" transform="matrix(0.707107 -0.707107 0.707107 0.707107 597.67 605)">2026/8/1</text></g><g><text fill="#595959" font-family="DengXian,DengXian_MSFontService,sans-serif" font-weight="400" font-size="16" transform="matrix(0.707107 -0.707107 0.707107 0.707107 631.063 605)">2026/9/1</text></g><g><text fill="#595959" font-family="DengXian,DengXian_MSFontService,sans-serif" font-weight="400" font-size="16" transform="matrix(0.707107 -0.707107 0.707107 0.707107 658.512 611)">2026/10/1</text></g><g><text fill="#595959" font-family="DengXian,DengXian_MSFontService,sans-serif" font-weight="400" font-size="16" transform="matrix(0.707107 -0.707107 0.707107 0.707107 691.905 611)">2026/11/1</text></g><g><text fill="#595959" font-family="DengXian,DengXian_MSFontService,sans-serif" font-weight="400" font-size="16" transform="matrix(0.707107 -0.707107 0.707107 0.707107 725.298 611)">2026/12/1</text></g><g><text fill="#595959" font-family="DengXian,DengXian_MSFontService,sans-serif" font-weight="400" font-size="16" transform="matrix(0.707107 -0.707107 0.707107 0.707107 764.636 605)">2027/1/1</text></g><g><text fill="#595959" font-family="DengXian,DengXian_MSFontService,sans-serif" font-weight="400" font-size="16" transform="matrix(0.707107 -0.707107 0.707107 0.707107 798.029 605)">2027/2/1</text></g><g><text fill="#595959" font-family="DengXian,DengXian_MSFontService,sans-serif" font-weight="400" font-size="16" transform="matrix(0.707107 -0.707107 0.707107 0.707107 831.422 605)">2027/3/1</text></g><g><text fill="#595959" font-family="DengXian,DengXian_MSFontService,sans-serif" font-weight="400" font-size="16" transform="matrix(0.707107 -0.707107 0.707107 0.707107 864.816 605)">2027/4/1</text></g><g><text fill="#595959" font-family="DengXian,DengXian_MSFontService,sans-serif" font-weight="400" font-size="16" transform="matrix(0.707107 -0.707107 0.707107 0.707107 898.209 605)">2027/5/1</text></g><g><text fill="#595959" font-family="DengXian,DengXian_MSFontService,sans-serif" font-weight="400" font-size="16" transform="matrix(0.707107 -0.707107 0.707107 0.707107 931.602 605)">2027/6/1</text></g><g><text fill="#595959" font-family="DengXian,DengXian_MSFontService,sans-serif" font-weight="400" font-size="16" transform="matrix(0.707107 -0.707107 0.707107 0.707107 964.995 605)">2027/7/1</text></g><g><text fill="#595959" font-family="DengXian,DengXian_MSFontService,sans-serif" font-weight="400" font-size="16" transform="matrix(0.707107 -0.707107 0.707107 0.707107 998.389 605)">2027/8/1</text></g><g><rect x="527" y="631" width="8" height="8" fill="#4472C4"/></g><g><text fill="#FFFFFF" font-family="DengXian,DengXian_MSFontService,sans-serif" font-weight="400" font-size="16" transform="translate(537.836 639)">Team</text></g><g><rect x="591" y="631" width="7" height="8" fill="#ED7D31"/></g><g><text fill="#FFFFFF" font-family="DengXian,DengXian_MSFontService,sans-serif" font-weight="400" font-size="16" transform="translate(601.285 639)">Ecosystem</text></g><g><rect x="688" y="631" width="7" height="8" fill="#A5A5A5"/></g><g><text fill="#FFFFFF" font-family="DengXian,DengXian_MSFontService,sans-serif" font-weight="400" font-size="16" transform="translate(698.401 639)">Liquidity</text></g></g></svg>