<svg width="1280" height="720" xmlns="http://www.w3.org/2000/svg" xmlns:xlink="http://www.w3.org/1999/xlink" overflow="hidden"><defs><filter id="fx0" x="-10%" y="-10%" width="120%" height="120%" filterUnits="userSpaceOnUse" primitiveUnits="userSpaceOnUse"><feComponentTransfer color-interpolation-filters="sRGB"><feFuncR type="discrete" tableValues="0 0"/><feFuncG type="discrete" tableValues="0 0"/><feFuncB type="discrete" tableValues="0 0"/><feFuncA type="linear" slope="0.2" intercept="0"/></feComponentTransfer><feGaussianBlur stdDeviation="2.22222 2.22222"/></filter><filter id="fx1" x="-10%" y="-10%" width="120%" height="120%" filterUnits="userSpaceOnUse" primitiveUnits="userSpaceOnUse"><feComponentTransfer color-interpolation-filters="sRGB"><feFuncR type="discrete" tableValues="0 0"/><feFuncG type="discrete" tableValues="0 0"/><feFuncB type="discrete" tableValues="0 0"/><feFuncA type="linear" slope="0.2" intercept="0"/></feComponentTransfer><feGaussianBlur stdDeviation="2.22222 2.22222"/></filter><filter id="fx2" x="-10%" y="-10%" width="120%" height="120%" filterUnits="userSpaceOnUse" primitiveUnits="userSpaceOnUse"><feComponentTransfer color-interpolation-filters="sRGB"><feFuncR type="discrete" tableValues="0 0"/><feFuncG type="discrete" tableValues="0 0"/><feFuncB type="discrete" tableValues="0 0"/><feFuncA type="linear" slope="0.2" intercept="0"/></feComponentTransfer><feGaussianBlur stdDeviation="2.22222 2.22222"/></filter><filter id="fx3" x="-10%" y="-10%" width="120%" height="120%" filterUnits="userSpaceOnUse" primitiveUnits="userSpaceOnUse"><feComponentTransfer color-interpolation-filters="sRGB"><feFuncR type="discrete" tableValues="0 0"/><feFuncG type="discrete" tableValues="0 0"/><feFuncB type="discrete" tableValues="0 0"/><feFuncA type="linear" slope="0.2" intercept="0"/></feComponentTransfer><feGaussianBlur stdDeviation="2.22222 2.22222"/></filter><filter id="fx4" x="-10%" y="-10%" width="120%" height="120%" filterUnits="userSpaceOnUse" primitiveUnits="userSpaceOnUse"><feComponentTransfer color-interpolation-filters="sRGB"><feFuncR type="discrete" tableValues="0 0"/><feFuncG type="discrete" tableValues="0 0"/><feFuncB type="discrete" tableValues="0 0"/><feFuncA type="linear" slope="0.2" intercept="0"/></feComponentTransfer><feGaussianBlur stdDeviation="2.22222 2.22222"/></filter><filter id="fx5" x="-10%" y="-10%" width="120%" height="120%" filterUnits="userSpaceOnUse" primitiveUnits="userSpaceOnUse"><feComponentTransfer color-interpolation-filters="sRGB"><feFuncR type="discrete" tableValues="0 0"/><feFuncG type="discrete" tableValues="0 0"/><feFuncB type="discrete" tableValues="0 0"/><feFuncA type="linear" slope="0.2" intercept="0"/></feComponentTransfer><feGaussianBlur stdDeviation="2.22222 2.22222"/></filter><filter id="fx6" x="-10%" y="-10%" width="120%" height="120%" filterUnits="userSpaceOnUse" primitiveUnits="userSpaceOnUse"><feComponentTransfer color-interpolation-filters="sRGB"><feFuncR type="discrete" tableValues="0 0"/><feFuncG type="discrete" tableValues="0 0"/><feFuncB type="discrete" tableValues="0 0"/><feFuncA type="linear" slope="0.2" intercept="0"/></feComponentTransfer><feGaussianBlur stdDeviation="2.22222 2.22222"/></filter><filter id="fx7" x="-10%" y="-10%" width="120%" height="120%" filterUnits="userSpaceOnUse" primitiveUnits="userSpaceOnUse"><feComponentTransfer color-interpolation-filters="sRGB"><feFuncR type="discrete" tableValues="0 0"/><feFuncG type="discrete" tableValues="0 0"/><feFuncB type="discrete" tableValues="0 0"/><feFuncA type="linear" slope="0.2" intercept="0"/></feComponentTransfer><feGaussianBlur stdDeviation="2.22222 2.22222"/></filter></defs><g><rect x="0" y="0" width="1280" height="720" fill="#131321"/><path d="M640 138.776 1235.99 138.776 1235.99 185.792 640 185.792Z" fill="#204367" fill-rule="evenodd"/><path d="M640 185.792 752.994 185.792 752.994 234.768 640 234.768Z" fill="#2D3049" fill-rule="evenodd"/><path d="M752.994 185.792 1057.19 185.792 1057.19 234.768 752.994 234.768Z" fill="#2D3049" fill-rule="evenodd"/><path d="M1057.19 185.792 1235.99 185.792 1235.99 234.768 1057.19 234.768Z" fill="#2D3049" fill-rule="evenodd"/><path d="M640 234.768 752.994 234.768 752.994 286.966 640 286.966Z" fill="#526590" fill-rule="evenodd"/><path d="M752.994 234.768 1057.19 234.768 1057.19 286.966 752.994 286.966Z" fill="#526590" fill-rule="evenodd"/><path d="M1057.19 234.768 1235.99 234.768 1235.99 286.966 1057.19 286.966Z" fill="#526590" fill-rule="evenodd"/><path d="M640 286.966 752.994 286.966 752.994 355.532 640 355.532Z" fill="#2D3049" fill-rule="evenodd"/><path d="M752.994 286.966 1057.19 286.966 1057.19 355.532 752.994 355.532Z" fill="#2D3049" fill-rule="evenodd"/><path d="M1057.19 286.966 1235.99 286.966 1235.99 355.532 1057.19 355.532Z" fill="#2D3049" fill-rule="evenodd"/><path d="M640 355.532 752.994 355.532 752.994 404.507 640 404.507Z" fill="#526590" fill-rule="evenodd"/><path d="M752.994 355.532 1057.19 355.532 1057.19 404.507 752.994 404.507Z" fill="#526590" fill-rule="evenodd"/><path d="M1057.19 355.532 1235.99 355.532 1235.99 404.507 1057.19 404.507Z" fill="#526590" fill-rule="evenodd"/><path d="M640 404.507 752.994 404.507 752.994 453.483 640 453.483Z" fill="#2D3049" fill-rule="evenodd"/><path d="M752.994 404.507 1057.19 404.507 1057.19 453.483 752.994 453.483Z" fill="#2D3049" fill-rule="evenodd"/><path d="M1057.19 404.507 1235.99 404.507 1235.99 453.483 1057.19 453.483Z" fill="#2D3049" fill-rule="evenodd"/><path d="M640 453.483 752.994 453.483 752.994 522.048 640 522.048Z" fill="#526590" fill-rule="evenodd"/><path d="M752.994 453.483 1057.19 453.483 1057.19 522.048 752.994 522.048Z" fill="#526590" fill-rule="evenodd"/><path d="M1057.19 453.483 1235.99 453.483 1235.99 522.048 1057.19 522.048Z" fill="#526590" fill-rule="evenodd"/><path d="M640 522.048 752.994 522.048 752.994 589.248 640 589.248Z" fill="#2D3049" fill-rule="evenodd"/><path d="M752.994 522.048 1057.19 522.048 1057.19 589.248 752.994 589.248Z" fill="#2D3049" fill-rule="evenodd"/><path d="M1057.19 522.048 1235.99 522.048 1235.99 589.248 1057.19 589.248Z" fill="#2D3049" fill-rule="evenodd"/><path d="M640 589.248 752.994 589.248 752.994 637.248 640 637.248Z" fill="#526590" fill-rule="evenodd"/><path d="M752.994 589.248 1057.19 589.248 1057.19 637.248 752.994 637.248Z" fill="#526590" fill-rule="evenodd"/><path d="M1057.19 589.248 1235.99 589.248 1235.99 637.248 1057.19 637.248Z" fill="#526590" fill-rule="evenodd"/><path d="M640 637.248 1235.99 637.248" stroke="#000000" stroke-width="1.33333" stroke-linejoin="round" stroke-miterlimit="10" fill="none" fill-rule="evenodd"/><text fill="#FFFFFF" font-family="DengXian,DengXian_MSFontService,sans-serif" font-weight="700" font-size="16" transform="translate(892.244 168)">Token usage</text><text fill="#FFFFFF" font-family="DengXian,DengXian_MSFontService,sans-serif" font-weight="400" font-size="16" transform="translate(1066.79 206)">Two years linear</text><text fill="#FFFFFF" font-family="DengXian,DengXian_MSFontService,sans-serif" font-weight="400" font-size="16" transform="translate(1066.79 225)">unlocking</text><text fill="#FFFFFF" font-family="DengXian,DengXian_MSFontService,sans-serif" font-weight="400" font-size="16" transform="translate(762.594 206)">Team operation, trading pool</text><text fill="#FFFFFF" font-family="DengXian,DengXian_MSFontService,sans-serif" font-weight="400" font-size="16" transform="translate(649.6 206)">Team</text><text fill="#FFFFFF" font-family="DengXian,DengXian_MSFontService,sans-serif" font-weight="400" font-size="16" transform="translate(1066.79 255)">Three years linear</text><text fill="#FFFFFF" font-family="DengXian,DengXian_MSFontService,sans-serif" font-weight="400" font-size="16" transform="translate(1066.79 274)">unlocking</text><g><text fill="#FFFFFF" font-family="DengXian,DengXian_MSFontService,sans-serif" font-weight="400" font-size="16" transform="translate(762.594 255)">DAO member governance rewards, initial</text></g><text fill="#FFFFFF" font-family="DengXian,DengXian_MSFontService,sans-serif" font-weight="400" font-size="16" transform="translate(762.594 274)">community fund</text><text fill="#FFFFFF" font-family="DengXian,DengXian_MSFontService,sans-serif" font-weight="400" font-size="16" transform="translate(649.6 255)">Ecosystem</text><text fill="#FFFFFF" font-family="DengXian,DengXian_MSFontService,sans-serif" font-weight="400" font-size="16" transform="translate(1066.79 307)">Airdrop upon the</text><text fill="#FFFFFF" font-family="DengXian,DengXian_MSFontService,sans-serif" font-weight="400" font-size="16" transform="translate(1066.79 326)">launch of the main</text><text fill="#FFFFFF" font-family="DengXian,DengXian_MSFontService,sans-serif" font-weight="400" font-size="16" transform="translate(1066.79 345)">network</text><text fill="#FFFFFF" font-family="DengXian,DengXian_MSFontService,sans-serif" font-weight="400" font-size="16" transform="translate(762.594 307)">Participating in Test Network Rewards</text><text fill="#FFFFFF" font-family="DengXian,DengXian_MSFontService,sans-serif" font-weight="400" font-size="16" transform="translate(649.6 307)">Airdrop</text><text fill="#FFFFFF" font-family="DengXian,DengXian_MSFontService,sans-serif" font-weight="400" font-size="16" transform="translate(1066.79 375)">Unlock immediately</text><text fill="#FFFFFF" font-family="DengXian,DengXian_MSFontService,sans-serif" font-weight="400" font-size="16" transform="translate(762.594 375)">Directly distributed to each supporter.</text><text fill="#FFFFFF" font-family="DengXian,DengXian_MSFontService,sans-serif" font-weight="400" font-size="16" transform="translate(762.594 394)">On Juicebox</text><text fill="#FFFFFF" font-family="DengXian,DengXian_MSFontService,sans-serif" font-weight="400" font-size="16" transform="translate(649.6 375)">Supporter</text><text fill="#FFFFFF" font-family="DengXian,DengXian_MSFontService,sans-serif" font-weight="400" font-size="16" transform="translate(1066.79 424)">Unlock immediately</text><text fill="#FFFFFF" font-family="DengXian,DengXian_MSFontService,sans-serif" font-weight="400" font-size="16" transform="translate(762.594 424)">Initial liquidity. On Uniswap</text><text fill="#FFFFFF" font-family="DengXian,DengXian_MSFontService,sans-serif" font-weight="400" font-size="16" transform="translate(649.6 424)">Liquidity</text><text fill="#FFFFFF" font-family="DengXian,DengXian_MSFontService,sans-serif" font-weight="400" font-size="16" transform="translate(1066.79 473)">DAO Voting and</text><text fill="#FFFFFF" font-family="DengXian,DengXian_MSFontService,sans-serif" font-weight="400" font-size="16" transform="translate(1066.79 492)">Decision</text><text fill="#FFFFFF" font-family="DengXian,DengXian_MSFontService,sans-serif" font-weight="400" font-size="16" transform="translate(1124.63 492)">-</text><text fill="#FFFFFF" font-family="DengXian,DengXian_MSFontService,sans-serif" font-weight="400" font-size="16" transform="translate(1132.63 492)">Making</text><text fill="#FFFFFF" font-family="DengXian,DengXian_MSFontService,sans-serif" font-weight="400" font-size="16" transform="translate(762.594 473)">The first 100 pieces of genuine and valid</text><text fill="#FFFFFF" font-family="DengXian,DengXian_MSFontService,sans-serif" font-weight="400" font-size="16" transform="translate(762.594 492)">criminal evidence.</text><text fill="#FFFFFF" font-family="DengXian,DengXian_MSFontService,sans-serif" font-weight="400" font-size="16" transform="translate(762.594 511)">Rewards for the minter.</text><text fill="#FFFFFF" font-family="DengXian,DengXian_MSFontService,sans-serif" font-weight="400" font-size="16" transform="translate(649.6 473)">Truth 100</text><path d="M1066.79 529.848 1181.63 529.848 1181.63 545.848 1066.79 545.848Z" fill="#333F50" fill-rule="evenodd"/><path d="M1066.79 548.848 1133.29 548.848 1133.29 564.848 1066.79 564.848Z" fill="#333F50" fill-rule="evenodd"/><text fill="#FFFFFF" font-family="DengXian,DengXian_MSFontService,sans-serif" font-weight="400" font-size="16" transform="translate(1066.79 542)">Two years linear</text><text fill="#FFFFFF" font-family="DengXian,DengXian_MSFontService,sans-serif" font-weight="400" font-size="16" transform="translate(1066.79 561)">unlocking</text><path d="M649.6 529.848 704.433 529.848 704.433 545.848 649.6 545.848Z" fill="#333F50" fill-rule="evenodd"/><text fill="#FFFFFF" font-family="DengXian,DengXian_MSFontService,sans-serif" font-weight="400" font-size="16" transform="translate(649.6 542)">Investor</text><text fill="#FFFFFF" font-family="DengXian,DengXian_MSFontService,sans-serif" font-weight="400" font-size="16" transform="translate(1066.79 609)">Unlock immediately</text><text fill="#FFFFFF" font-family="DengXian,DengXian_MSFontService,sans-serif" font-weight="400" font-size="16" transform="translate(649.6 609)">IDO Sale</text><g><g filter="url(#fx0)" transform="translate(298 202)"><g><path d="M7.96262 8.45302C103.307 8.45302 180.599 85.7448 180.599 181.089 180.599 191.944 179.575 202.775 177.541 213.438L7.96262 181.089Z" fill="#4472C4" fill-rule="evenodd"/></g></g></g><g><g filter="url(#fx1)" transform="translate(298 372)"><g><path d="M177.571 40.3834C163.557 113.849 103.83 169.936 29.6298 179.309L7.99258 8.03455Z" fill="#ED7D31" fill-rule="evenodd"/></g></g></g><g><g filter="url(#fx2)" transform="translate(175 372)"><g><path d="M155.314 179.296C100.488 186.222 45.6596 166.483 7.83034 126.199L133.677 8.02118Z" fill="#A5A5A5" fill-rule="evenodd"/></g></g></g><g><g filter="url(#fx3)" transform="translate(150 373)"><g><path d="M33.2922 125.733C23.3787 115.176 14.833 103.414 7.85633 90.7232L159.138 7.5551Z" fill="#FFC000" fill-rule="evenodd"/></g></g></g><g><g filter="url(#fx4)" transform="translate(137 373)"><g><path d="M20.9828 91.0665C15.7533 81.5541 11.4327 71.5697 8.0783 61.2459L172.265 7.89833Z" fill="#5B9BD5" fill-rule="evenodd"/></g></g></g><g><g filter="url(#fx5)" transform="translate(129 373)"><g><path d="M16.161 61.5383C10.563 44.3093 7.71159 26.3065 7.71159 8.19086L180.348 8.19069Z" fill="#70AD47" fill-rule="evenodd"/></g></g></g><g><g filter="url(#fx6)" transform="translate(129 321)"><g><path d="M7.71158 61.2367C7.71158 43.121 10.5629 25.1183 16.161 7.88925L180.348 61.2367Z" fill="#264478" fill-rule="evenodd"/></g></g></g><g><g filter="url(#fx7)" transform="translate(137 203)"><g><path d="M8.07818 127.059C31.1897 55.9286 97.4743 7.77001 172.265 7.77001L172.265 180.406Z" fill="#9E480E" fill-rule="evenodd"/></g></g></g><g><path d="M307.655 212.463C401.13 212.463 476.906 288.239 476.906 381.714 476.906 392.356 475.902 402.974 473.908 413.428L307.655 381.714Z" fill="#4472C4" fill-rule="evenodd"/></g><g><path d="M473.908 413.428C460.169 485.453 401.614 540.44 328.868 549.63L307.655 381.714Z" fill="#ED7D31" fill-rule="evenodd"/></g><g><path d="M328.868 549.63C275.117 556.421 221.364 537.068 184.276 497.574L307.655 381.714Z" fill="#A5A5A5" fill-rule="evenodd"/></g><g><path d="M184.277 497.574C174.558 487.224 166.179 475.693 159.339 463.251L307.655 381.714Z" fill="#FFC000" fill-rule="evenodd"/></g><g><path d="M159.339 463.251C154.213 453.925 149.977 444.137 146.688 434.015L307.655 381.714Z" fill="#5B9BD5" fill-rule="evenodd"/></g><g><path d="M146.688 434.015C141.2 417.124 138.404 399.474 138.404 381.714L307.655 381.714Z" fill="#70AD47" fill-rule="evenodd"/></g><g><path d="M138.404 381.714C138.404 363.953 141.2 346.303 146.688 329.412L307.655 381.714Z" fill="#264478" fill-rule="evenodd"/></g><g><path d="M146.688 329.412C169.346 259.677 234.331 212.463 307.655 212.463L307.655 381.714Z" fill="#9E480E" fill-rule="evenodd"/></g><g><path d="M438.5 273.5 446.5 214.5 452.5 214.5" stroke="#A6A6A6" stroke-linejoin="round" stroke-miterlimit="10" fill="none"/></g><g><text fill="#FFFFFF" font-family="DengXian,DengXian_MSFontService,sans-serif" font-weight="700" font-size="17.7333" transform="translate(454.712 214)">Unallocated</text></g><g><text fill="#FFFFFF" font-family="DengXian,DengXian_MSFontService,sans-serif" font-weight="700" font-size="17.7333" transform="translate(488.445 238)">28%</text></g><g><text fill="#FFFFFF" font-family="DengXian,DengXian_MSFontService,sans-serif" font-weight="700" font-size="17.7333" transform="translate(434.321 529)">Ecosystem</text></g><g><text fill="#FFFFFF" font-family="DengXian,DengXian_MSFontService,sans-serif" font-weight="700" font-size="17.7333" transform="translate(462.014 553)">20%</text></g><g><text fill="#FFFFFF" font-family="DengXian,DengXian_MSFontService,sans-serif" font-weight="700" font-size="17.7333" transform="translate(198.723 564)">Team</text></g><g><text fill="#FFFFFF" font-family="DengXian,DengXian_MSFontService,sans-serif" font-weight="700" font-size="17.7333" transform="translate(206.53 588)">15%</text></g><g><text fill="#FFFFFF" font-family="DengXian,DengXian_MSFontService,sans-serif" font-weight="700" font-size="17.7333" transform="translate(97.4431 497)">Airdrop</text></g><g><text fill="#FFFFFF" font-family="DengXian,DengXian_MSFontService,sans-serif" font-weight="700" font-size="17.7333" transform="translate(118.903 521)">4%</text></g><g><text fill="#FFFFFF" font-family="DengXian,DengXian_MSFontService,sans-serif" font-weight="700" font-size="18.6667" transform="translate(66.2537 456)">Liquidity</text></g><g><text fill="#FFFFFF" font-family="DengXian,DengXian_MSFontService,sans-serif" font-weight="700" font-size="17.7333" transform="translate(93.5804 480)">3%</text></g><g><text fill="#FFFFFF" font-family="DengXian,DengXian_MSFontService,sans-serif" font-weight="700" font-size="17.7333" transform="translate(49.2978 406)">Truth 100</text></g><g><text fill="#FFFFFF" font-family="DengXian,DengXian_MSFontService,sans-serif" font-weight="700" font-size="17.7333" transform="translate(78.8578 430)">5%</text></g><g><text fill="#FFFFFF" font-family="DengXian,DengXian_MSFontService,sans-serif" font-weight="700" font-size="17.7333" transform="translate(58.0983 343)">IDO Sale</text></g><g><text fill="#FFFFFF" font-family="DengXian,DengXian_MSFontService,sans-serif" font-weight="700" font-size="17.7333" transform="translate(83.305 367)">5%</text></g><g><text fill="#FFFFFF" font-family="DengXian,DengXian_MSFontService,sans-serif" font-weight="700" font-size="17.7333" transform="translate(133.254 206)">Investor</text></g><g><text fill="#FFFFFF" font-family="DengXian,DengXian_MSFontService,sans-serif" font-weight="700" font-size="17.7333" transform="translate(151.541 230)">20%</text></g><text fill="#FFFFFF" font-family="DengXian,DengXian_MSFontService,sans-serif" font-weight="700" font-size="24" transform="translate(549.833 55)">Token allocation</text></g></svg>