<svg width="1280" height="720" xmlns="http://www.w3.org/2000/svg" xmlns:xlink="http://www.w3.org/1999/xlink" overflow="hidden"><g><rect x="0" y="0" width="1280" height="720" fill="#131321"/><path d="M570 359.531C570 343.222 583.222 330 599.531 330L752.469 330C768.778 330 782 343.222 782 359.531L782 632.469C782 648.778 768.778 662 752.469 662L599.531 662C583.222 662 570 648.778 570 632.469Z" stroke="#BF9000" stroke-width="2" stroke-miterlimit="8" stroke-dasharray="8 6" fill="#272A3D" fill-rule="evenodd"/><text fill="#BF9000" font-family="DengXian,DengXian_MSFontService,sans-serif" font-weight="700" font-size="24" transform="translate(622.861 460)">Truth Box</text><text fill="#FFFFFF" font-family="DengXian,DengXian_MSFontService,sans-serif" font-weight="700" font-size="24" transform="translate(532.667 60)">Transaction Process</text><path d="M309.5 231.667C309.5 227.709 312.709 224.5 316.667 224.5L381.333 224.5C385.291 224.5 388.5 227.709 388.5 231.667L388.5 260.333C388.5 264.291 385.291 267.5 381.333 267.5L316.667 267.5C312.709 267.5 309.5 264.291 309.5 260.333Z" stroke="#2F528F" stroke-width="1.33333" stroke-miterlimit="8" fill="#7030A0" fill-rule="evenodd"/><text fill="#FFFFFF" font-family="DengXian,DengXian_MSFontService,sans-serif" font-weight="400" font-size="18.6667" transform="translate(321.94 251)">Minter</text><path d="M309.5 502.5C309.5 498.634 312.634 495.5 316.5 495.5L381.5 495.5C385.366 495.5 388.5 498.634 388.5 502.5L388.5 530.5C388.5 534.366 385.366 537.5 381.5 537.5L316.5 537.5C312.634 537.5 309.5 534.366 309.5 530.5Z" stroke="#2F528F" stroke-width="1.33333" stroke-miterlimit="8" fill="#7030A0" fill-rule="evenodd"/><text fill="#FFFFFF" font-family="DengXian,DengXian_MSFontService,sans-serif" font-weight="400" font-size="18.6667" transform="translate(325.523 522)">Buyer</text><path d="M108.5 369.167C108.5 364.38 112.38 360.5 117.167 360.5L202.833 360.5C207.62 360.5 211.5 364.38 211.5 369.167L211.5 403.833C211.5 408.62 207.62 412.5 202.833 412.5L117.167 412.5C112.38 412.5 108.5 408.62 108.5 403.833Z" stroke="#C55A11" stroke-width="1.33333" stroke-miterlimit="8" fill="#0D0D0D" fill-rule="evenodd"/><text fill="#FFFFFF" font-family="DengXian,DengXian_MSFontService,sans-serif" font-weight="400" font-size="14.6667" transform="translate(123.973 383)">AES+ECDH</text><text fill="#FFFFFF" font-family="DengXian,DengXian_MSFontService,sans-serif" font-weight="400" font-size="14.6667" transform="translate(135.973 400)">Encrypt</text><path d="M599.5 609.167C599.5 604.933 602.933 601.5 607.167 601.5L743.833 601.5C748.068 601.5 751.5 604.933 751.5 609.167L751.5 639.833C751.5 644.068 748.068 647.5 743.833 647.5L607.167 647.5C602.933 647.5 599.5 644.068 599.5 639.833Z" stroke="#00B0F0" stroke-width="1.33333" stroke-miterlimit="8" fill="#204367" fill-rule="evenodd"/><text fill="#FFFFFF" font-family="Microsoft YaHei,Microsoft YaHei_MSFontService,sans-serif" font-weight="400" font-size="14.6667" transform="translate(653.889 629)">Token</text><path d="M599.5 362.5C599.5 358.082 603.082 354.5 607.5 354.5L743.5 354.5C747.918 354.5 751.5 358.082 751.5 362.5L751.5 394.5C751.5 398.918 747.918 402.5 743.5 402.5L607.5 402.5C603.082 402.5 599.5 398.918 599.5 394.5Z" stroke="#00B0F0" stroke-width="1.33333" stroke-miterlimit="8" fill="#204367" fill-rule="evenodd"/><text fill="#FFFFFF" font-family="DengXian,DengXian_MSFontService,sans-serif" font-weight="400" font-size="21.3333" transform="translate(631.503 385)">Exchange</text><path d="M964 419.167C964 415.209 967.209 412 971.167 412L1064.83 412C1068.79 412 1072 415.209 1072 419.167L1072 447.833C1072 451.791 1068.79 455 1064.83 455L971.167 455C967.209 455 964 451.791 964 447.833Z" stroke="#7030A0" stroke-width="2" stroke-miterlimit="8" stroke-dasharray="8 6" fill="#532CE2" fill-rule="evenodd"/><text fill="#FFFFFF" font-family="DengXian,DengXian_MSFontService,sans-serif" font-weight="400" font-size="18.6667" transform="translate(975.852 439)">Completer</text><path d="M947 236.334C947 220.686 959.685 208 975.334 208L1196.67 208C1212.31 208 1225 220.686 1225 236.334L1225 349.666C1225 365.314 1212.31 378 1196.67 378L975.334 378C959.685 378 947 365.314 947 349.666Z" stroke="#2F5597" stroke-width="2" stroke-miterlimit="8" stroke-dasharray="8 6" fill="none" fill-rule="evenodd"/><path d="M165 268.334C165 262.626 169.626 258 175.334 258L283.666 258C289.374 258 294 262.626 294 268.334L294 309.666C294 315.374 289.374 320 283.666 320L175.334 320C169.626 320 165 315.374 165 309.666Z" stroke="#2F5597" stroke-width="2" stroke-miterlimit="8" stroke-dasharray="8 6" fill="#333F50" fill-rule="evenodd"/><text fill="#BFBFBF" font-family="DengXian,DengXian_MSFontService,sans-serif" font-weight="400" font-size="14" transform="translate(177.705 285)">Key Pair_ minter</text><text fill="#BFBFBF" font-family="DengXian,DengXian_MSFontService,sans-serif" font-weight="400" font-size="14" transform="translate(177.705 302)">EncryptionData</text><path d="M947 416.834C947 403.671 957.671 393 970.834 393L1203.17 393C1216.33 393 1227 403.671 1227 416.834L1227 512.166C1227 525.329 1216.33 536 1203.17 536L970.834 536C957.671 536 947 525.329 947 512.166Z" stroke="#2F5597" stroke-width="2" stroke-miterlimit="8" stroke-dasharray="8 6" fill="none" fill-rule="evenodd"/><path d="M843 261 939 261 939 302 843 302Z" fill="#203864" fill-rule="evenodd"/><text fill="#FFFFFF" font-family="DengXian,DengXian_MSFontService,sans-serif" font-weight="400" font-size="14" transform="translate(852.259 278)">3, Deliver</text><text fill="#FFFFFF" font-family="DengXian,DengXian_MSFontService,sans-serif" font-weight="400" font-size="14" transform="translate(852.259 295)">5, Review</text><path d="M599.5 502.667C599.5 498.156 603.156 494.5 607.667 494.5L743.333 494.5C747.844 494.5 751.5 498.156 751.5 502.667L751.5 535.333C751.5 539.844 747.844 543.5 743.333 543.5L607.667 543.5C603.156 543.5 599.5 539.844 599.5 535.333Z" stroke="#00B0F0" stroke-width="1.33333" stroke-miterlimit="8" fill="#204367" fill-rule="evenodd"/><text fill="#FFFFFF" font-family="DengXian,DengXian_MSFontService,sans-serif" font-weight="400" font-size="14.6667" transform="translate(632.753 524)">Fund Manger</text><path d="M6.6667-0.333333 149.723-0.333333 149.723 108.08 149.056 108.08 149.056 0 149.39 0.333333 6.6667 0.333333ZM8 4 0 0 8-4ZM153.39 106.747 149.39 114.747 145.39 106.747Z" fill="#00B0F0" transform="matrix(-1 1.22465e-16 1.22465e-16 1 308.89 245.5)"/><path d="M0-0.333333 136.498-0.333333 136.498 120.706 136.165 120.373 201.663 120.373 201.663 121.04 135.831 121.04 135.831 0 136.165 0.333333 0 0.333333ZM200.33 116.706 208.33 120.706 200.33 124.706Z" fill="#00B0F0" transform="matrix(-1 1.22465e-16 1.22465e-16 1 963.83 248.5)"/><path d="M6.66659-0.333333 104.148-0.333333 104.148 142.723 103.481 142.723 103.481 0 103.815 0.333333 6.66659 0.333333ZM8 4 0 0 8-4ZM107.815 141.389 103.815 149.389 99.8146 141.389Z" fill="#00B0F0" transform="matrix(1.83697e-16 1 1 -1.83697e-16 159.5 412.5)"/><path d="M963.5 232.5C963.5 228.082 967.082 224.5 971.5 224.5L1058.5 224.5C1062.92 224.5 1066.5 228.082 1066.5 232.5L1066.5 264.5C1066.5 268.918 1062.92 272.5 1058.5 272.5L971.5 272.5C967.082 272.5 963.5 268.918 963.5 264.5Z" stroke="#00B0F0" stroke-width="1.33333" stroke-miterlimit="8" fill="#204367" fill-rule="evenodd"/><text fill="#FFFFFF" font-family="DengXian,DengXian_MSFontService,sans-serif" font-weight="400" font-size="14.6667" transform="translate(999.367 253)">DAO</text><path d="M46 466C46 448.327 60.3269 434 78.0001 434L369 434C386.673 434 401 448.327 401 466L401 643C401 660.673 386.673 675 369 675L78.0001 675C60.3269 675 46 660.673 46 643Z" stroke="#2F5597" stroke-width="2" stroke-miterlimit="8" stroke-dasharray="8 6" fill="none" fill-rule="evenodd"/><path d="M50 149.917C50 133.946 62.9465 121 78.9167 121L376.083 121C392.054 121 405 133.946 405 149.917L405 312.083C405 328.054 392.054 341 376.083 341L78.9167 341C62.9465 341 50 328.054 50 312.083Z" stroke="#2F5597" stroke-width="2" stroke-miterlimit="8" stroke-dasharray="8 6" fill="none" fill-rule="evenodd"/><path d="M6.66667-0.333333 29.4907-0.333333 29.4907 0.386667 29.1574 0.0533333 51.6481 0.0533333 51.6481 0.72 28.824 0.72 28.824 0 29.1574 0.333333 6.66667 0.333333ZM8 4 0 0 8-4ZM50.3148-3.61333 58.3148 0.386667 50.3148 4.38667Z" fill="#00B0F0" transform="matrix(-1.83697e-16 -1 -1 1.83697e-16 675.887 601.815)"/><rect x="419" y="190" width="126" height="45" fill="#3B3838"/><text fill="#BFBFBF" font-family="DengXian,DengXian_MSFontService,sans-serif" font-weight="400" font-size="14" transform="translate(428.67 209)">Buyer Data</text><text fill="#BFBFBF" font-family="DengXian,DengXian_MSFontService,sans-serif" font-weight="400" font-size="14" transform="translate(428.67 226)">Deliver Data</text><path d="M0-0.333333 86.779-0.333333 86.779 244.461 86.1123 244.461 86.1123 0 86.4457 0.333333 0 0.333333ZM90.4457 243.128 86.4457 251.128 82.4457 243.128Z" fill="#00B0F0" transform="matrix(1.83697e-16 1 1 -1.83697e-16 348.5 537.5)"/><path d="M0-0.333333 102.806-0.333333 102.806 244.074 102.139 244.074 102.139 0 102.472 0.333333 0 0.333333ZM106.472 242.741 102.472 250.741 98.4723 242.741Z" fill="#00B0F0" transform="matrix(1.83697e-16 1 1 -1.83697e-16 348.5 267.5)"/><path d="M348.167 495.219 348.167 387.167 590.232 387.167 590.232 387.833 348.5 387.833 348.833 387.5 348.833 495.219ZM588.898 383.5 596.898 387.5 588.898 391.5Z" fill="#00B0F0"/><path d="M964.631 434.689 827.615 434.689 827.615 389.5 827.948 389.833 758.167 389.833 758.167 389.167 828.281 389.167 828.281 434.356 827.948 434.023 964.631 434.023ZM759.5 393.5 751.5 389.5 759.5 385.5Z" fill="#00B0F0"/><path d="M1095.5 137.334C1095.5 132.455 1099.45 128.5 1104.33 128.5L1189.67 128.5C1194.55 128.5 1198.5 132.455 1198.5 137.334L1198.5 172.667C1198.5 177.545 1194.55 181.5 1189.67 181.5L1104.33 181.5C1099.45 181.5 1095.5 177.545 1095.5 172.667Z" stroke="#C55A11" stroke-width="1.33333" stroke-miterlimit="8" fill="#0D0D0D" fill-rule="evenodd"/><text fill="#FFFFFF" font-family="DengXian,DengXian_MSFontService,sans-serif" font-weight="400" font-size="14.6667" transform="translate(1110.82 151)">AES+ECDH</text><text fill="#FFFFFF" font-family="DengXian,DengXian_MSFontService,sans-serif" font-weight="400" font-size="14.6667" transform="translate(1122.82 168)">Encrypt</text><path d="M6.66666-0.333333 80.2926-0.333333 80.2926 60.7538 79.6259 60.7538 79.6259 0 79.9593 0.333333 6.66666 0.333333ZM8 4 0 0 8-4ZM83.9593 59.4205 79.9593 67.4205 75.9593 59.4205Z" fill="#00B0F0" transform="matrix(1 0 0 -1 1066.5 248.921)"/><text fill="#A6A6A6" font-family="DengXian,DengXian_MSFontService,sans-serif" font-weight="400" font-size="14.6667" transform="translate(73.2119 157)">1.</text><text fill="#A6A6A6" font-family="DengXian,DengXian_MSFontService,sans-serif" font-weight="400" font-size="14.6667" transform="translate(97.2119 157)">Sell / Auction</text><text fill="#A6A6A6" font-family="DengXian,DengXian_MSFontService,sans-serif" font-weight="400" font-size="14.6667" transform="translate(73.2119 192)">3, Deliver</text><text fill="#A6A6A6" font-family="DengXian,DengXian_MSFontService,sans-serif" font-weight="400" font-size="14.6667" transform="translate(73.2119 227)">5: Agree Refund</text><text fill="#A6A6A6" font-family="DengXian,DengXian_MSFontService,sans-serif" font-weight="400" font-size="14.6667" transform="translate(72.2818 543)">2, Buy / Bid</text><text fill="#A6A6A6" font-family="DengXian,DengXian_MSFontService,sans-serif" font-weight="400" font-size="14.6667" transform="translate(72.2818 578)">4, Request Refund</text><text fill="#A6A6A6" font-family="DengXian,DengXian_MSFontService,sans-serif" font-weight="400" font-size="14.6667" transform="translate(72.2818 613)">6, Pay Confidentiality Fee</text><text fill="#A6A6A6" font-family="DengXian,DengXian_MSFontService,sans-serif" font-weight="400" font-size="14.6667" transform="translate(977.064 311)">3, Deliver</text><text fill="#A6A6A6" font-family="DengXian,DengXian_MSFontService,sans-serif" font-weight="400" font-size="14.6667" transform="translate(977.064 346)">5, Review Refund</text><text fill="#A6A6A6" font-family="DengXian,DengXian_MSFontService,sans-serif" font-weight="400" font-size="14.6667" transform="translate(965.279 499)">4: Complete Order</text><path d="M964.382 599.245 873.108 599.245 873.108 496.5 873.441 496.833 789.167 496.833 789.167 496.167 873.775 496.167 873.775 598.912 873.441 598.578 964.382 598.578ZM790.5 500.5 782.5 496.5 790.5 492.5Z" fill="#00B0F0"/><path d="M1108.5 230.834C1108.5 226.783 1111.78 223.5 1115.83 223.5L1204.17 223.5C1208.22 223.5 1211.5 226.783 1211.5 230.834L1211.5 260.167C1211.5 264.217 1208.22 267.5 1204.17 267.5L1115.83 267.5C1111.78 267.5 1108.5 264.217 1108.5 260.167Z" stroke="#C55A11" stroke-width="1.33333" stroke-miterlimit="8" fill="#0D0D0D" fill-rule="evenodd"/><text fill="#FFFFFF" font-family="Calibri,Calibri_MSFontService,sans-serif" font-weight="400" font-size="14.6667" transform="translate(1129.73 241)">Threshold</text><text fill="#FFFFFF" font-family="Calibri,Calibri_MSFontService,sans-serif" font-weight="400" font-size="14.6667" transform="translate(1129.89 258)">Algorithm</text><path d="M609.5 206.5C609.5 202.082 613.082 198.5 617.5 198.5L733.5 198.5C737.918 198.5 741.5 202.082 741.5 206.5L741.5 238.5C741.5 242.918 737.918 246.5 733.5 246.5L617.5 246.5C613.082 246.5 609.5 242.918 609.5 238.5Z" stroke="#2F528F" stroke-width="1.33333" stroke-miterlimit="8" fill="#7F6000" fill-rule="evenodd"/><text fill="#FFFFFF" font-family="Microsoft YaHei,Microsoft YaHei_MSFontService,sans-serif" font-weight="400" font-size="16" transform="translate(640.033 228)">IPFS / AR</text><path d="M6.6667-0.333333 166.674-0.333333 166.674 23.3001 166.341 22.9667 214.956 22.9667 214.956 23.6334 166.007 23.6334 166.007 0 166.341 0.333333 6.6667 0.333333ZM8 4 0 0 8-4ZM213.622 19.3001 221.622 23.3001 213.622 27.3001Z" fill="#00B0F0" transform="matrix(1 0 0 -1 388.5 245.8)"/><path d="M748.167 222.167 844.953 222.167 844.953 234.15 844.62 233.817 941.073 233.817 941.073 234.483 844.287 234.483 844.287 222.5 844.62 222.833 748.167 222.833ZM749.5 226.5 741.5 222.5 749.5 218.5ZM939.74 230.15 947.74 234.15 939.74 238.15Z" fill="#00B0F0"/><path d="M175 464.834C175 461.059 178.059 458 181.834 458L286.166 458C289.941 458 293 461.059 293 464.834L293 492.166C293 495.941 289.941 499 286.166 499L181.834 499C178.059 499 175 495.941 175 492.166Z" stroke="#2F5597" stroke-width="2" stroke-miterlimit="8" stroke-dasharray="8 6" fill="#333F50" fill-rule="evenodd"/><text fill="#BFBFBF" font-family="DengXian,DengXian_MSFontService,sans-serif" font-weight="400" font-size="14" transform="translate(186.675 475)">Key Pair_ buyer</text><text fill="#BFBFBF" font-family="DengXian,DengXian_MSFontService,sans-serif" font-weight="400" font-size="14" transform="translate(186.675 492)">DecryptionData</text><path d="M6.6667-0.333333 167.616-0.333333 167.616 294.101 167.283 293.768 214.956 293.768 214.956 294.435 166.949 294.435 166.949 0 167.283 0.333333 6.6667 0.333333ZM8 4 0 0 8-4ZM213.622 290.101 221.622 294.101 213.622 298.101Z" fill="#00B0F0" transform="matrix(1 0 0 -1 388.5 516.601)"/><path d="M675.833 402.5 675.833 487.181 675.167 487.181 675.167 402.5ZM679.5 485.847 675.5 493.847 671.5 485.847Z" fill="#00B0F0"/><path d="M942 153.5C942 148.806 945.806 145 950.5 145L1062.5 145C1067.19 145 1071 148.806 1071 153.5L1071 187.5C1071 192.194 1067.19 196 1062.5 196L950.5 196C945.806 196 942 192.194 942 187.5Z" stroke="#2F5597" stroke-width="2" stroke-miterlimit="8" stroke-dasharray="8 6" fill="#333F50" fill-rule="evenodd"/><text fill="#BFBFBF" font-family="DengXian,DengXian_MSFontService,sans-serif" font-weight="400" font-size="14" transform="translate(954.118 167)">Key Pair_</text><text fill="#BFBFBF" font-family="DengXian,DengXian_MSFontService,sans-serif" font-weight="400" font-size="14" transform="translate(1011.45 167)">offical</text><text fill="#BFBFBF" font-family="DengXian,DengXian_MSFontService,sans-serif" font-weight="400" font-size="14" transform="translate(954.118 184)">encryptData</text><path d="M947 581.334C947 571.208 955.208 563 965.334 563L1208.67 563C1218.79 563 1227 571.208 1227 581.334L1227 654.666C1227 664.792 1218.79 673 1208.67 673L965.334 673C955.208 673 947 664.792 947 654.666Z" stroke="#2F5597" stroke-width="2" stroke-miterlimit="8" stroke-dasharray="8 6" fill="none" fill-rule="evenodd"/><text fill="#A6A6A6" font-family="DengXian,DengXian_MSFontService,sans-serif" font-weight="400" font-size="14.6667" transform="translate(965.395 655)">Publish the Box</text><path d="M964 584.167C964 580.209 967.209 577 971.167 577L1064.83 577C1068.79 577 1072 580.209 1072 584.167L1072 612.833C1072 616.791 1068.79 620 1064.83 620L971.167 620C967.209 620 964 616.791 964 612.833Z" stroke="#7030A0" stroke-width="2" stroke-miterlimit="8" stroke-dasharray="8 6" fill="#532CE2" fill-rule="evenodd"/><text fill="#FFFFFF" font-family="DengXian,DengXian_MSFontService,sans-serif" font-weight="400" font-size="18.6667" transform="translate(981.185 604)">Publisher</text><rect x="414" y="458" width="126" height="48" fill="#3B3838"/><text fill="#BFBFBF" font-family="DengXian,DengXian_MSFontService,sans-serif" font-weight="400" font-size="14" transform="translate(423.799 478)">Buyer Data</text><text fill="#BFBFBF" font-family="DengXian,DengXian_MSFontService,sans-serif" font-weight="400" font-size="14" transform="translate(423.799 495)">Deliver Data</text><rect x="763" y="169" width="126" height="45" fill="#3B3838"/><text fill="#BFBFBF" font-family="DengXian,DengXian_MSFontService,sans-serif" font-weight="400" font-size="14" transform="translate(772.407 187)">Buyer Data</text><text fill="#BFBFBF" font-family="DengXian,DengXian_MSFontService,sans-serif" font-weight="400" font-size="14" transform="translate(772.407 204)">Deliver Data</text></g></svg>