<svg width="832" height="567" xmlns="http://www.w3.org/2000/svg" xmlns:xlink="http://www.w3.org/1999/xlink" overflow="hidden"><defs><clipPath id="clip0"><rect x="0" y="0" width="832" height="567"/></clipPath></defs><g clip-path="url(#clip0)"><rect x="0" y="0" width="832" height="566.659" fill="#131321"/><path d="M422.5 375.941C422.5 371.157 426.38 367.279 431.167 367.279L516.833 367.279C521.62 367.279 525.5 371.157 525.5 375.941L525.5 410.586C525.5 415.37 521.62 419.248 516.833 419.248L431.167 419.248C426.38 419.248 422.5 415.37 422.5 410.586Z" stroke="#C04F15" stroke-width="1.33414" stroke-miterlimit="8" fill="#0D0D0D" fill-rule="evenodd"/><text fill="#FFFFFF" font-family="Aptos,Aptos_MSFontService,sans-serif" font-weight="400" font-size="14.68" transform="matrix(1 0 0 0.999399 437.258 389)">AES+ECDH</text><text fill="#FFFFFF" font-family="Aptos,Aptos_MSFontService,sans-serif" font-weight="400" font-size="14.68" transform="matrix(1 0 0 0.999399 448.931 406)">Encrypt</text><path d="M194 150.265C194 143.445 199.532 137.917 206.355 137.917L314.645 137.917C321.468 137.917 327 143.445 327 150.265L327 219.513C327 226.332 321.468 231.86 314.645 231.86L206.355 231.86C199.532 231.86 194 226.332 194 219.513Z" stroke="#215F9A" stroke-width="2.0012" stroke-miterlimit="8" stroke-dasharray="8.00481 6.00361" fill="none" fill-rule="evenodd"/><text fill="#FFFFFF" font-family="Aptos,Aptos_MSFontService,sans-serif" font-weight="400" font-size="16.0133" transform="matrix(1 0 0 0.999399 224.693 163)">Compress</text><path d="M665 190.719C665 186.947 668.059 183.889 671.833 183.889L756.167 183.889C759.94 183.889 763 186.947 763 190.719L763 218.035C763 221.807 759.94 224.865 756.167 224.865L671.833 224.865C668.059 224.865 665 221.807 665 218.035Z" stroke="#0C445E" stroke-width="2.0012" stroke-miterlimit="8" fill="#843C0C" fill-rule="evenodd"/><text fill="#FFFFFF" font-family="Microsoft YaHei,Microsoft YaHei_MSFontService,sans-serif" font-weight="400" font-size="16.0133" transform="matrix(1 0 0 0.999399 679.028 209)">IPFS / AR</text><path d="M226.5 192.461C226.5 188.555 229.668 185.389 233.577 185.389L288.423 185.389C292.332 185.389 295.5 188.555 295.5 192.461L295.5 210.297C295.5 214.203 292.332 217.369 288.423 217.369L233.577 217.369C229.668 217.369 226.5 214.203 226.5 210.297Z" stroke="#FFC000" stroke-width="1.33414" stroke-miterlimit="8" fill="#1C1E2C" fill-rule="evenodd"/><text fill="#FFFFFF" font-family="Aptos,Aptos_MSFontService,sans-serif" font-weight="400" font-size="14" transform="matrix(1 0 0 0.999399 250.015 205)">.zip</text><path d="M51 185.389C51 175.177 59.2827 166.9 69.5 166.9L131.5 166.9C141.717 166.9 150 175.177 150 185.389L150 185.389C150 195.6 141.717 203.877 131.5 203.877L69.5 203.877C59.2827 203.877 51 195.6 51 185.388Z" stroke="#FFFF00" stroke-width="2.0012" stroke-miterlimit="8" stroke-dasharray="8.00481 6.00361" fill="#2D3049" fill-rule="evenodd"/><text fill="#FFFFFF" font-family="Aptos,Aptos_MSFontService,sans-serif" font-weight="400" font-size="14.68" transform="matrix(1 0 0 0.999399 71.7355 191)">Evidence</text><path d="M390 121.746C390 109.703 399.769 99.9399 411.819 99.9399L534.181 99.9399C546.231 99.9399 556 109.703 556 121.746L556 248.032C556 260.075 546.231 269.838 534.181 269.838L411.819 269.838C399.769 269.838 390 260.075 390 248.032Z" stroke="#215F9A" stroke-width="2.0012" stroke-miterlimit="8" stroke-dasharray="8.00481 6.00361" fill="none" fill-rule="evenodd"/><path d="M405.5 154.263C405.5 150.479 408.569 147.411 412.356 147.411L455.644 147.411C459.431 147.411 462.5 150.479 462.5 154.263L462.5 171.541C462.5 175.325 459.431 178.393 455.644 178.393L412.356 178.393C408.569 178.393 405.5 175.325 405.5 171.541Z" stroke="#FFC000" stroke-width="1.33414" stroke-miterlimit="8" fill="#1C1E2C" fill-rule="evenodd"/><text fill="#FFFFFF" font-family="Aptos,Aptos_MSFontService,sans-serif" font-weight="400" font-size="14" transform="matrix(1 0 0 0.999399 422.415 167)">.zip</text><path d="M421.5 170.253C421.5 166.469 424.569 163.402 428.356 163.402L471.644 163.402C475.431 163.402 478.5 166.469 478.5 170.253L478.5 187.532C478.5 191.316 475.431 194.383 471.644 194.383L428.356 194.383C424.569 194.383 421.5 191.316 421.5 187.532Z" stroke="#FFC000" stroke-width="1.33414" stroke-miterlimit="8" fill="#1C1E2C" fill-rule="evenodd"/><text fill="#FFFFFF" font-family="Aptos,Aptos_MSFontService,sans-serif" font-weight="400" font-size="14" transform="matrix(1 0 0 0.999399 438.425 183)">.zip</text><path d="M437.5 186.244C437.5 182.46 440.569 179.392 444.356 179.392L487.644 179.392C491.431 179.392 494.5 182.46 494.5 186.244L494.5 203.522C494.5 207.306 491.431 210.374 487.644 210.374L444.356 210.374C440.569 210.374 437.5 207.306 437.5 203.522Z" stroke="#FFC000" stroke-width="1.33414" stroke-miterlimit="8" fill="#1C1E2C" fill-rule="evenodd"/><text fill="#FFFFFF" font-family="Aptos,Aptos_MSFontService,sans-serif" font-weight="400" font-size="14" transform="matrix(1 0 0 0.999399 454.434 199)">.zip</text><path d="M453.5 202.234C453.5 198.45 456.569 195.382 460.356 195.382L503.644 195.382C507.431 195.382 510.5 198.45 510.5 202.234L510.5 219.512C510.5 223.296 507.431 226.364 503.644 226.364L460.356 226.364C456.569 226.364 453.5 223.296 453.5 219.512Z" stroke="#FFC000" stroke-width="1.33414" stroke-miterlimit="8" fill="#1C1E2C" fill-rule="evenodd"/><text fill="#FFFFFF" font-family="Aptos,Aptos_MSFontService,sans-serif" font-weight="400" font-size="14" transform="matrix(1 0 0 0.999399 470.444 215)">.zip</text><path d="M469.5 218.224C469.5 214.44 472.569 211.373 476.356 211.373L519.644 211.373C523.431 211.373 526.5 214.44 526.5 218.224L526.5 235.503C526.5 239.287 523.431 242.354 519.644 242.354L476.356 242.354C472.569 242.354 469.5 239.287 469.5 235.503Z" stroke="#FFC000" stroke-width="1.33414" stroke-miterlimit="8" fill="#1C1E2C" fill-rule="evenodd"/><text fill="#FFFFFF" font-family="Aptos,Aptos_MSFontService,sans-serif" font-weight="400" font-size="14" transform="matrix(1 0 0 0.999399 486.454 231)">.zip</text><path d="M485.5 234.215C485.5 230.431 488.569 227.363 492.356 227.363L535.644 227.363C539.431 227.363 542.5 230.431 542.5 234.215L542.5 251.493C542.5 255.277 539.431 258.345 535.644 258.345L492.356 258.345C488.569 258.345 485.5 255.277 485.5 251.493Z" stroke="#FFC000" stroke-width="1.33414" stroke-miterlimit="8" fill="#1C1E2C" fill-rule="evenodd"/><text fill="#FFFFFF" font-family="Aptos,Aptos_MSFontService,sans-serif" font-weight="400" font-size="14" transform="matrix(1 0 0 0.999399 502.463 247)">.zip</text><text fill="#FFFFFF" font-family="Aptos,Aptos_MSFontService,sans-serif" font-weight="400" font-size="16.0133" transform="matrix(1 0 0 0.999399 435.757 127)">Crush files</text><path d="M644 149.411C644 139.199 652.283 130.921 662.5 130.921L765.5 130.921C775.717 130.921 784 139.199 784 149.411L784 223.365C784 233.577 775.717 241.854 765.5 241.854L662.5 241.854C652.283 241.854 644 233.577 644 223.365Z" stroke="#215F9A" stroke-width="2.0012" stroke-miterlimit="8" stroke-dasharray="8.00481 6.00361" fill="none" fill-rule="evenodd"/><text fill="#FFFFFF" font-family="Aptos,Aptos_MSFontService,sans-serif" font-weight="400" font-size="14.68" transform="matrix(1 0 0 0.999399 690.921 156)">Upload</text><path d="M407 341.202C407 333.802 413.002 327.803 420.407 327.803L526.593 327.803C533.997 327.803 540 333.802 540 341.202L540 416.343C540 423.743 533.997 429.742 526.593 429.742L420.407 429.742C413.002 429.742 407 423.743 407 416.343Z" stroke="#215F9A" stroke-width="2.0012" stroke-miterlimit="8" stroke-dasharray="8.00481 6.00361" fill="none" fill-rule="evenodd"/><path d="M218 320.495C218 313.492 223.68 307.815 230.688 307.815L292.312 307.815C299.319 307.815 305 313.492 305 320.495L305 331.113C305 338.116 299.319 343.793 292.312 343.793L230.688 343.793C223.68 343.793 218 338.116 218 331.113Z" stroke="#92D050" stroke-width="2.0012" stroke-miterlimit="8" stroke-dasharray="8.00481 6.00361" fill="#0B1E31" fill-rule="evenodd"/><text fill="#FFFFFF" font-family="Aptos,Aptos_MSFontService,sans-serif" font-weight="400" font-size="14" transform="matrix(1 0 0 0.999399 231.832 330)">password</text><path d="M262.001 231.856 262.285 301.028 260.284 301.036 259.999 231.865ZM265.282 299.682 261.312 307.698 257.277 299.715Z" fill="#00B0F0"/><path d="M671 319.144C671 312.335 676.523 306.816 683.335 306.816L744.665 306.816C751.477 306.816 757 312.335 757 319.144L757 329.467C757 336.275 751.477 341.795 744.665 341.795L683.335 341.795C676.523 341.795 671 336.275 671 329.467Z" stroke="#92D050" stroke-width="2.0012" stroke-miterlimit="8" stroke-dasharray="8.00481 6.00361" fill="#0B1E31" fill-rule="evenodd"/><text fill="#FFFFFF" font-family="Aptos,Aptos_MSFontService,sans-serif" font-weight="400" font-size="14" transform="matrix(1 0 0 0.999399 687.669 329)">CID(.zip)</text><path d="M1-3.24257e-06 1.00019 58.0887-0.999812 58.0887-1 3.24257e-06ZM4.00018 56.7554 0.000209974 64.7554-3.99982 56.7554Z" fill="#00B0F0" transform="matrix(-1.0006 0 0 1 714 241.855)"/><path d="M715.302 341.794 715.302 379.776 546.671 379.776 546.671 377.776 714.301 377.776 713.301 378.776 713.301 341.794ZM548.005 382.776 540 378.776 548.005 374.776Z" fill="#00B0F0"/><path d="M0-1 36.5928-1 36.5928 138.238 34.5928 138.238 34.5928 0 35.5928 1 0 1ZM39.5928 136.905 35.5928 144.905 31.5928 136.905Z" fill="#00B0F0" transform="matrix(1.83807e-16 1 1.0006 -1.83697e-16 262 343.793)"/><text fill="#FFFFFF" font-family="Aptos,Aptos_MSFontService,sans-serif" font-weight="400" font-size="16.0133" transform="matrix(1 0 0 0.999399 435.887 350)">Encryption</text><path d="M0-1 32.3937-1 32.3937 0.0233071 31.3937-0.976693 56.1206-0.976693 56.1206 1.02331 30.3937 1.02331 30.3937 0 31.3937 1 0 1ZM54.7873-3.97669 62.7873 0.0233071 54.7873 4.02331Z" fill="#00B0F0" transform="matrix(1.0006 0 0 -1 327 184.912)"/><path d="M556 183.889 600.921 183.889 600.921 185.933 599.921 184.933 637.171 184.933 637.171 186.933 598.92 186.933 598.92 184.889 599.921 185.889 556 185.889ZM635.837 181.933 643.842 185.933 635.837 189.933Z" fill="#00B0F0"/><path d="M0-1 23.1868-1 23.1868 0.326089 22.1868-0.673911 37.7068-0.673911 37.7068 1.32609 21.1868 1.32609 21.1868 0 22.1868 1 0 1ZM36.3734-3.67391 44.3734 0.326089 36.3734 4.32609Z" fill="#00B0F0" transform="matrix(1.0006 0 0 -1 150 185.215)"/><path d="M50 356.952C50 352.996 53.2087 349.79 57.1668 349.79L143.833 349.79C147.791 349.79 151 352.996 151 356.952L151 385.601C151 389.557 147.791 392.764 143.833 392.764L57.1668 392.764C53.2087 392.764 50 389.557 50 385.601Z" stroke="#0C445E" stroke-width="2.0012" stroke-miterlimit="8" fill="#7030A0" fill-rule="evenodd"/><text fill="#FFFFFF" font-family="Aptos,Aptos_MSFontService,sans-serif" font-weight="400" font-size="21.32" transform="matrix(1 0 0 0.999399 71.1216 378)">Minter</text><path d="M99.6692 349.976 99.03 210.549 101.031 210.54 101.67 349.967ZM96.0344 211.896 100 203.877 104.039 211.859Z" fill="#00B0F0"/><path d="M0 1-24.0003 1-23.0003 0-23.0003 372.302-24.0003 371.302 30.8981 371.302 30.8981 373.302-25.0003 373.302-25.0003-1 0-1ZM29.5647 368.302 37.5647 372.302 29.5647 376.302Z" fill="#00B0F0" transform="matrix(-6.12692e-17 -1 -1.0006 6.12323e-17 473.526 430.328)"/></g></svg>