<svg width="1280" height="720" xmlns="http://www.w3.org/2000/svg" xmlns:xlink="http://www.w3.org/1999/xlink" overflow="hidden"><g><rect x="0" y="0" width="1280" height="720" fill="#131321"/><path d="M271 243.107C271 235.868 276.868 230 284.107 230L356.893 230C364.132 230 370 235.868 370 243.107L370 256.893C370 264.132 364.132 270 356.893 270L284.107 270C276.868 270 271 264.132 271 256.893Z" fill="#2D3049" fill-rule="evenodd"/><text fill="#FFFFFF" font-family="DengXian,DengXian_MSFontService,sans-serif" font-weight="700" font-size="18.6667" transform="translate(291.93 256)">Minter</text><path d="M425 342C416.163 342 409 333.186 409 322.314L409 269.314C409 258.442 401.837 249.628 393 249.628 401.837 249.628 409 240.815 409 229.942L409 177.686C409 166.814 416.163 158 425 158" stroke="#505974" stroke-width="2" stroke-miterlimit="8" fill="none" fill-rule="evenodd"/><path d="M457 181.5C457 170.178 466.178 161 477.5 161L550.5 161C561.822 161 571 170.178 571 181.5L571 181.5C571 192.822 561.822 202 550.5 202L477.5 202C466.178 202 457 192.822 457 181.5Z" fill="#2D3049" fill-rule="evenodd"/><text fill="#FFFFFF" font-family="DengXian,DengXian_MSFontService,sans-serif" font-weight="400" font-size="16" transform="translate(489.925 187)">Hacker</text><path d="M456 243C456 231.954 464.954 223 476 223L550 223C561.046 223 570 231.954 570 243L570 243C570 254.046 561.046 263 550 263L476 263C464.954 263 456 254.046 456 243Z" fill="#2D3049" fill-rule="evenodd"/><text fill="#FFFFFF" font-family="Calibri,Calibri_MSFontService,sans-serif" font-weight="400" font-size="16" transform="translate(486.973 249)">Witness</text><path d="M458 315C458 303.954 466.954 295 478 295L565 295C576.046 295 585 303.954 585 315L585 315C585 326.046 576.046 335 565 335L478 335C466.954 335 458 326.046 458 315Z" fill="#1F4E79" fill-rule="evenodd"/><text fill="#FFFFFF" font-family="Calibri,Calibri_MSFontService,sans-serif" font-weight="400" font-size="16" transform="translate(483.978 321)">Accomplice</text><path d="M457 429C457 417.954 465.954 409 477 409L551 409C562.046 409 571 417.954 571 429L571 429C571 440.046 562.046 449 551 449L477 449C465.954 449 457 440.046 457 429Z" fill="#204367" fill-rule="evenodd"/><text fill="#FFFFFF" font-family="Calibri,Calibri_MSFontService,sans-serif" font-weight="400" font-size="16" transform="translate(486.316 434)">Principal</text><path d="M458 491C458 479.954 466.954 471 478 471L553 471C564.046 471 573 479.954 573 491L573 491C573 502.046 564.046 511 553 511L478 511C466.954 511 458 502.046 458 491Z" fill="#532CE2" fill-rule="evenodd"/><text fill="#FFFFFF" font-family="DengXian,DengXian_MSFontService,sans-serif" font-weight="400" font-size="16" transform="translate(495.271 496)">Police</text><path d="M458 548C458 536.954 466.954 528 478 528L553 528C564.046 528 573 536.954 573 548L573 548C573 559.046 564.046 568 553 568L478 568C466.954 568 458 559.046 458 548Z" fill="#532CE2" fill-rule="evenodd"/><text fill="#FFFFFF" font-family="Calibri,Calibri_MSFontService,sans-serif" font-weight="400" font-size="16" transform="translate(494.771 553)">Victim</text><path d="M458 605C458 593.954 466.954 585 478 585L575 585C586.046 585 595 593.954 595 605L595 605C595 616.046 586.046 625 575 625L478 625C466.954 625 458 616.046 458 605Z" fill="#532CE2" fill-rule="evenodd"/><text fill="#FFFFFF" font-family="DengXian,DengXian_MSFontService,sans-serif" font-weight="400" font-size="16" transform="translate(491.22 610)">The Public</text><path d="M618.5 179.029C618.5 168.244 627.244 159.5 638.029 159.5L898.971 159.5C909.757 159.5 918.5 168.244 918.5 179.029L918.5 232.971C918.5 243.757 909.757 252.5 898.971 252.5L638.029 252.5C627.244 252.5 618.5 243.757 618.5 232.971Z" stroke="#3B3838" stroke-width="1.33333" stroke-miterlimit="8" fill="none" fill-rule="evenodd"/><text fill="#FFFFFF" font-family="DengXian,DengXian_MSFontService,sans-serif" font-weight="400" font-size="16" transform="translate(633.683 191)">A sense of justice, compassion, civic</text><text fill="#FFFFFF" font-family="DengXian,DengXian_MSFontService,sans-serif" font-weight="400" font-size="16" transform="translate(633.683 210)">duties and responsibilities, and</text><text fill="#FFFFFF" font-family="DengXian,DengXian_MSFontService,sans-serif" font-weight="400" font-size="16" transform="translate(633.683 229)">monetary motivation.</text><path d="M619.5 285.435C619.5 277.187 626.187 270.5 634.435 270.5L939.565 270.5C947.814 270.5 954.5 277.187 954.5 285.435L954.5 348.565C954.5 356.814 947.814 363.5 939.565 363.5L634.435 363.5C626.187 363.5 619.5 356.814 619.5 348.565Z" stroke="#0070C0" stroke-width="1.33333" stroke-miterlimit="8" fill="none" fill-rule="evenodd"/><text fill="#FFFFFF" font-family="DengXian,DengXian_MSFontService,sans-serif" font-weight="400" font-size="16" transform="translate(632.683 293)">Still possessing a conscience, hoping for</text><text fill="#FFFFFF" font-family="DengXian,DengXian_MSFontService,sans-serif" font-weight="400" font-size="16" transform="translate(632.683 312)">redemption, feeling that the loot is unevenly</text><text fill="#FFFFFF" font-family="DengXian,DengXian_MSFontService,sans-serif" font-weight="400" font-size="16" transform="translate(632.683 331)">distributed, fearing being silenced, and</text><text fill="#FFFFFF" font-family="DengXian,DengXian_MSFontService,sans-serif" font-weight="400" font-size="16" transform="translate(632.683 351)">worrying about personal safety.</text><path d="M619.5 412.725C619.5 404.316 626.316 397.5 634.725 397.5L939.276 397.5C947.684 397.5 954.5 404.316 954.5 412.725L954.5 441.276C954.5 449.684 947.684 456.5 939.276 456.5L634.725 456.5C626.316 456.5 619.5 449.684 619.5 441.276Z" stroke="#1F4E79" stroke-width="1.33333" stroke-miterlimit="8" fill="none" fill-rule="evenodd"/><text fill="#FFFFFF" font-family="DengXian,DengXian_MSFontService,sans-serif" font-weight="400" font-size="16" transform="translate(632.742 422)">Fearing that the truth will be revealed and</text><text fill="#FFFFFF" font-family="DengXian,DengXian_MSFontService,sans-serif" font-weight="400" font-size="16" transform="translate(632.742 441)">suffering legal consequences.</text><path d="M619.5 489.562C619.5 480.691 626.691 473.5 635.562 473.5L881.438 473.5C890.309 473.5 897.5 480.691 897.5 489.562L897.5 606.438C897.5 615.309 890.309 622.5 881.438 622.5L635.562 622.5C626.691 622.5 619.5 615.309 619.5 606.438Z" stroke="#532CE2" stroke-width="1.33333" stroke-miterlimit="8" fill="none" fill-rule="evenodd"/><text fill="#FFFFFF" font-family="DengXian,DengXian_MSFontService,sans-serif" font-weight="400" font-size="16" transform="translate(633.028 534)">Eager to solve the case quickly,</text><text fill="#FFFFFF" font-family="DengXian,DengXian_MSFontService,sans-serif" font-weight="400" font-size="16" transform="translate(633.028 553)">reduce costs, seek the truth, and</text><text fill="#FFFFFF" font-family="DengXian,DengXian_MSFontService,sans-serif" font-weight="400" font-size="16" transform="translate(633.028 572)">possess a sense of justice!</text><text fill="#FFFFFF" font-family="DengXian,DengXian_MSFontService,sans-serif" font-weight="700" font-size="24" transform="translate(578.083 72)">User Group</text><path d="M270 513.107C270 505.868 275.868 500 283.107 500L355.893 500C363.132 500 369 505.868 369 513.107L369 526.893C369 534.132 363.132 540 355.893 540L283.107 540C275.868 540 270 534.132 270 526.893Z" fill="#2D3049" fill-rule="evenodd"/><text fill="#FFFFFF" font-family="DengXian,DengXian_MSFontService,sans-serif" font-weight="700" font-size="18.6667" transform="translate(295.189 526)">Buyer</text><path d="M424 634C415.163 634 408 625.186 408 614.314L408 539.225C408 528.353 400.837 519.539 392 519.539 400.837 519.539 408 510.726 408 499.854L408 425.686C408 414.814 415.163 406 424 406" stroke="#505974" stroke-width="2" stroke-miterlimit="8" fill="none" fill-rule="evenodd"/></g></svg>