<svg width="832" height="567" xmlns="http://www.w3.org/2000/svg" xmlns:xlink="http://www.w3.org/1999/xlink" overflow="hidden"><defs><clipPath id="clip0"><rect x="0" y="0" width="832" height="567"/></clipPath><clipPath id="clip1"><rect x="492" y="272" width="197" height="101"/></clipPath><clipPath id="clip2"><rect x="492" y="272" width="197" height="101"/></clipPath><linearGradient x1="171.161" y1="56.6856" x2="227.177" y2="92.6632" gradientUnits="userSpaceOnUse" spreadMethod="pad" id="fill3"><stop offset="0" stop-color="#F15A24"/><stop offset="0.21" stop-color="#F15A24"/><stop offset="0.68" stop-color="#FBB03B"/><stop offset="1" stop-color="#FBB03B"/></linearGradient><linearGradient x1="125.427" y1="106.149" x2="69.2052" y2="70.1483" gradientUnits="userSpaceOnUse" spreadMethod="pad" id="fill4"><stop offset="0" stop-color="#ED1E79"/><stop offset="0.21" stop-color="#ED1E79"/><stop offset="0.89" stop-color="#522785"/><stop offset="1" stop-color="#522785"/></linearGradient></defs><g clip-path="url(#clip0)"><rect x="0" y="0" width="832" height="566.659" fill="#131321"/><g><g><g><path d="M64.48 57.4889 73.2044 16.4667 80.7155 16.4667 71.9911 57.4889 64.48 57.4889Z" fill="#FFFFFF" transform="matrix(1 0 0 1.01252 499 172.896)"/><path d="M80.7733 45.7022C80.7733 36.3422 88.7467 28.3689 98.4533 28.3689 107.756 28.3689 113.302 36.2267 110.298 45.8755L88.1111 45.8755C88.4 49.5155 90.9422 51.6533 94.4667 51.6533 97.8178 51.6533 100.649 50.1511 102.556 47.6667L108.507 50.44C105.618 54.7155 100.187 58.0667 94.0622 58.0667 86.32 58.0667 80.7733 53.2133 80.7733 45.7022ZM89.3244 40.1555 103.769 40.1555C103.538 37.2667 101.227 34.7822 97.76 34.7822 94.3511 34.7822 91.0578 36.8044 89.3244 40.1555Z" fill="#FFFFFF" transform="matrix(1 0 0 1.01252 499 172.896)"/><path d="M115.324 45.7022C115.324 36.3422 123.298 28.3689 133.004 28.3689 142.307 28.3689 147.853 36.2267 144.849 45.8755L122.662 45.8755C122.951 49.5155 125.493 51.6533 129.018 51.6533 132.369 51.6533 135.2 50.1511 137.107 47.6667L143.058 50.44C140.169 54.7155 134.738 58.0667 128.613 58.0667 120.871 58.0667 115.324 53.2133 115.324 45.7022ZM123.876 40.1555 138.32 40.1555C138.089 37.2667 135.778 34.7822 132.311 34.7822 128.902 34.7822 125.551 36.8044 123.876 40.1555Z" fill="#FFFFFF" transform="matrix(1 0 0 1.01252 499 172.896)"/><path d="M157.56 50.4978 156.058 57.4889 148.547 57.4889 157.271 16.4667 164.782 16.4667 159.871 39.4622 171.484 28.8889 181.827 28.8889 167.96 41.2533 177.609 57.4889 168.942 57.4889 162.298 46.28 157.56 50.4978Z" fill="#FFFFFF" transform="matrix(1 0 0 1.01252 499 172.896)"/><path d="M44.0844 57.4889 48.7644 35.4756 42.9867 35.4756 44.4311 28.8889 50.2089 28.8889 50.4978 27.56C52.1155 19.5867 55.9289 16.4667 64.3644 16.4667L67.7733 16.4667 66.3289 23.0533 62.9778 23.0533C59.8578 23.0533 58.7022 24.0356 58.0667 27.0978L57.72 28.8889 65.1155 28.8889 63.7289 35.4756 56.2755 35.4756 51.5956 57.4889 44.0844 57.4889Z" fill="#FFFFFF" transform="matrix(1 0 0 1.01252 499 172.896)"/><path d="M22.6489 37.96C25.0756 37.44 26.9822 37.0355 28.8889 36.6311 29.64 36.4578 30.5644 35.9955 31.0844 36.92 31.6044 37.7867 30.7955 38.4222 30.3333 39 26 44.3733 21.6667 49.6889 17.2756 55.0044 13.2889 59.8578 9.36 64.7111 5.37333 69.5644 4.96889 70.0844 4.50667 70.5467 3.98667 70.9511 3.81333 71.0667 3.35111 71.1244 3.17778 71.0089 3.00444 70.8933 2.94667 70.4889 3.00444 70.2578 3.17778 69.68 3.46667 69.16 3.69778 68.64 6.64444 62.92 9.59111 57.2578 12.5378 51.5378 12.7689 51.0755 13.4622 50.5555 12.9422 49.9778 12.48 49.5155 11.8444 49.9778 11.3244 50.0933 9.99555 50.3822 8.60889 50.6711 7.28 50.9022 6.64444 51.0178 5.89333 51.1911 5.48889 50.5555 5.02667 49.8622 5.54667 49.2844 5.89333 48.7644 8.72444 44.4311 11.4978 40.0978 14.3289 35.7067 14.6756 35.1289 15.5422 34.5511 14.9644 33.8 14.5022 33.2222 13.7511 33.7422 13.1156 33.8578 12.0178 34.0889 10.9778 34.32 9.88 34.5511 9.18666 34.7244 8.37778 35.0711 7.85778 34.32 7.22222 33.4533 7.97333 32.76 8.43555 32.1822 11.44 28.4267 14.5022 24.7289 17.5644 21.0311 22.7644 14.6756 27.9644 8.26222 33.2222 1.90667 33.8 1.15556 34.4356-0.346667 35.4178 0.231111 36.5733 0.924444 35.2444 2.02222 34.8978 2.83111 32.1244 8.32 29.2933 13.7511 26.52 19.1822 26.2889 19.6444 25.6533 20.1644 26.1156 20.7422 26.5778 21.2044 27.2133 20.8 27.7911 20.7422 28.9467 20.5689 30.1022 20.28 31.2578 20.1644 31.9511 20.1067 32.76 19.5867 33.28 20.3378 33.8 21.0889 33.1644 21.7244 32.8178 22.3022 29.9867 26.6355 27.2133 30.9689 24.3822 35.3022 23.8622 36.0533 23.4 36.8044 22.6489 37.96Z" fill="#FFFFFF" transform="matrix(1 0 0 1.01252 499 172.896)"/></g></g></g><g clip-path="url(#clip1)"><g clip-path="url(#clip2)"><g><path d="M35.7239 145.12 29.5409 145.12C28.6576 145.055 27.8725 145.709 27.807 146.592 27.807 146.658 27.807 146.756 27.807 146.821L27.807 167.006C27.7089 167.889 28.3632 168.674 29.2465 168.772 29.3446 168.772 29.4428 168.772 29.5409 168.772L35.7239 168.772C42.8228 168.772 47.8281 163.963 47.8281 156.963 47.8281 149.962 42.8883 145.12 35.7239 145.12ZM43.2481 156.93C43.5098 161.019 40.402 164.552 36.3127 164.814 36.0837 164.814 35.8874 164.847 35.6584 164.814L32.3216 164.814 32.3216 149.013 35.6584 149.013C39.7477 148.882 43.15 152.088 43.2481 156.177 43.2808 156.439 43.2808 156.668 43.2481 156.93L43.2481 156.93Z" transform="matrix(1 0 0 1.00086 440.33 242.772)"/><path d="M82.1453 145.12 70.041 145.12C69.125 145.055 68.3726 145.742 68.3072 146.658 68.3072 146.723 68.3072 146.788 68.3072 146.854L68.3072 167.039C68.2418 167.922 68.896 168.707 69.7793 168.772 69.8775 168.772 69.9429 168.772 70.041 168.772L71.1533 168.772C72.0366 168.838 72.8217 168.184 72.8872 167.3 72.8872 167.202 72.8872 167.137 72.8872 167.039L72.8872 159.122 80.804 159.122C81.262 159.154 81.72 158.991 82.0471 158.664 82.3743 158.337 82.5378 157.879 82.5051 157.421L82.5051 157.061C82.5706 156.177 81.9163 155.392 81.033 155.327 80.9676 155.327 80.8694 155.327 80.804 155.327L72.8217 155.327 72.8217 149.177 82.1453 149.177C83.0613 149.242 83.8137 148.555 83.8791 147.639 83.8791 147.574 83.8791 147.508 83.8791 147.443L83.8791 147.017C83.8137 145.774 83.1921 145.12 82.1453 145.12Z" transform="matrix(1 0 0 1.00086 440.33 242.772)"/><path d="M110.639 145.12 109.527 145.12C108.644 145.055 107.859 145.709 107.793 146.625 107.793 146.69 107.793 146.788 107.793 146.854L107.793 167.039C107.695 167.922 108.317 168.707 109.2 168.805 109.298 168.805 109.429 168.805 109.527 168.805L110.639 168.805C111.523 168.871 112.308 168.216 112.373 167.333 112.373 167.235 112.373 167.169 112.373 167.071L112.373 146.854C112.439 145.938 111.752 145.185 110.836 145.12 110.803 145.087 110.737 145.087 110.639 145.12Z" transform="matrix(1 0 0 1.00086 440.33 242.772)"/><path d="M153.855 145.12 152.71 145.12C151.826 145.055 151.041 145.709 150.976 146.625 150.976 146.69 150.976 146.788 150.976 146.854L150.976 160.299 140.442 146.134C140.017 145.545 139.297 145.185 138.577 145.218L138.119 145.218C137.203 145.153 136.451 145.84 136.385 146.723 136.385 146.788 136.385 146.887 136.385 146.952L136.385 167.071C136.32 167.987 137.007 168.74 137.923 168.805 137.988 168.805 138.054 168.805 138.152 168.805L139.264 168.805C140.18 168.871 140.933 168.184 140.998 167.268 140.998 167.202 140.998 167.137 140.998 167.039L140.998 153.495 151.532 167.791C151.957 168.38 152.677 168.707 153.429 168.674L153.887 168.674C154.771 168.74 155.556 168.085 155.621 167.169 155.621 167.104 155.621 167.006 155.621 166.94L155.621 146.788C155.687 145.905 155 145.12 154.116 145.055 154.018 145.087 153.953 145.087 153.855 145.12L153.855 145.12Z" transform="matrix(1 0 0 1.00086 440.33 242.772)"/><path d="M182.382 145.12 181.335 145.12C180.451 145.055 179.666 145.709 179.601 146.625 179.601 146.69 179.601 146.788 179.601 146.854L179.601 167.039C179.535 167.922 180.19 168.707 181.106 168.772 181.171 168.772 181.269 168.772 181.335 168.772L182.48 168.772C183.363 168.838 184.148 168.184 184.213 167.268 184.213 167.202 184.213 167.104 184.213 167.039L184.213 146.854C184.213 145.905 183.461 145.12 182.512 145.12 182.447 145.12 182.414 145.12 182.382 145.12Z" transform="matrix(1 0 0 1.00086 440.33 242.772)"/><path d="M225.793 145.12 209.829 145.12C208.945 145.055 208.16 145.709 208.095 146.625 208.095 146.69 208.095 146.788 208.095 146.854L208.095 147.312C208.029 148.195 208.684 148.98 209.567 149.046 209.665 149.046 209.731 149.046 209.829 149.046L215.488 149.046 215.488 167.039C215.423 167.922 216.077 168.707 216.96 168.772 217.059 168.772 217.124 168.772 217.222 168.772L218.269 168.772C219.152 168.838 219.937 168.184 220.003 167.3 220.003 167.202 220.003 167.137 220.003 167.039L220.003 149.046 225.662 149.046C226.546 149.111 227.331 148.457 227.396 147.541 227.396 147.475 227.396 147.377 227.396 147.312L227.396 146.854C227.462 145.971 226.775 145.185 225.891 145.12 225.859 145.12 225.826 145.12 225.793 145.12L225.793 145.12Z" transform="matrix(1 0 0 1.00086 440.33 242.772)"/><path d="M268.452 145.84C268.158 145.349 267.602 145.087 267.046 145.153L265.639 145.153C264.854 145.12 264.134 145.545 263.742 146.2L258.18 155.098 252.684 146.298C252.324 145.611 251.572 145.185 250.787 145.251L249.38 145.251C248.824 145.218 248.301 145.48 247.973 145.938 247.712 146.461 247.81 147.083 248.202 147.508L255.956 159.187 255.956 167.071C255.89 167.955 256.545 168.74 257.428 168.805 257.526 168.805 257.591 168.805 257.69 168.805L258.736 168.805C259.62 168.871 260.405 168.216 260.47 167.333 260.47 167.235 260.47 167.169 260.47 167.071L260.47 159.187 268.158 147.508C268.747 146.625 268.583 146.101 268.452 145.84Z" transform="matrix(1 0 0 1.00086 440.33 242.772)"/><path d="M191.934 41.318C182.447 41.318 172.109 46.2251 161.15 55.7777 156.505 59.8669 152.186 64.2833 148.195 69.0269L148.195 69.0269C148.195 69.0269 153.528 74.8173 159.416 81.0003 163.342 76.1913 167.66 71.6768 172.273 67.522 181.989 59.0164 188.368 57.2171 191.999 57.2171 205.51 57.0535 216.601 67.8492 216.764 81.3601 216.764 94.6094 205.609 105.438 191.999 105.536 191.182 105.503 190.364 105.405 189.579 105.209 193.439 107.008 197.659 108.022 201.912 108.153 226.971 108.153 231.845 91.8287 232.172 90.651 232.925 87.6085 233.285 84.468 233.285 81.3274 233.187 59.2454 214.67 41.318 191.934 41.318Z" fill="url(#fill3)" transform="matrix(1 0 0 1.00086 440.33 242.772)"/><path d="M104.554 121.566C114.042 121.566 124.379 116.691 135.339 107.106 140.017 102.984 144.335 98.5351 148.359 93.7915L148.359 93.7915C148.359 93.7915 143.026 88.0011 137.171 81.8181 133.212 86.6271 128.861 91.1417 124.216 95.2964 114.5 103.802 108.12 105.601 104.489 105.601 90.9781 105.765 79.888 94.9692 79.7244 81.4583 79.7244 68.209 90.8473 57.3807 104.489 57.3152 105.307 57.3152 106.092 57.4134 106.91 57.6097 103.017 55.8104 98.8295 54.7962 94.544 54.6654 69.583 54.6654 64.6759 70.9243 64.3815 72.1347 63.6291 75.1772 63.2365 78.3177 63.2365 81.4583 63.2365 103.508 81.7527 121.566 104.554 121.566Z" fill="url(#fill4)" transform="matrix(1 0 0 1.00086 440.33 242.772)"/><path d="M201.781 107.793C189.022 107.499 175.675 97.4228 172.96 94.8384 165.959 88.361 149.733 70.7607 148.522 69.354 136.614 56.1048 120.519 41.2199 104.62 41.2199L104.62 41.2199C85.1223 41.3834 68.7325 54.4691 64.4469 72.0693 64.7413 70.9243 71.1533 54.3055 94.7075 54.829 107.466 55.1234 120.912 65.3629 123.594 67.9146 130.595 74.392 146.854 91.9922 148.064 93.399 159.94 106.648 175.97 121.533 191.967 121.533L191.967 121.533C210.777 121.599 227.265 108.938 232.074 90.7491 231.78 91.8287 225.27 108.382 201.781 107.793Z" fill="#29ABE2" transform="matrix(1 0 0 1.00086 440.33 242.772)"/></g></g></g><path d="M479 181.263C479 165.603 491.703 152.908 507.372 152.908L678.628 152.908C694.297 152.908 707 165.603 707 181.263L707 392.392C707 408.052 694.297 420.747 678.628 420.747L507.372 420.747C491.703 420.747 479 408.052 479 392.392Z" stroke="#215F9A" stroke-width="2.0012" stroke-miterlimit="8" stroke-dasharray="8.00481 6.00361" fill="none" fill-rule="evenodd"/><g><g><g><path d="M51.4868 0 51.4868 60.9072 102.966 83.9105 51.4868 0Z" fill="#BCBCBC" fill-opacity="0.6" transform="matrix(1 0 0 1.00072 151 161.911)"/><path d="M51.4868 0 0.000878929 83.9105 51.4868 60.9072 51.4868 0Z" fill="#BCBCBC" transform="matrix(1 0 0 1.00072 151 161.911)"/><path d="M51.4868 123.38 51.4868 164.765 103 93.4961 51.4868 123.38Z" fill="#BCBCBC" fill-opacity="0.6" transform="matrix(1 0 0 1.00072 151 161.911)"/><path d="M51.4868 164.765 51.4868 123.373 0.000878929 93.4961 51.4868 164.765Z" fill="#BCBCBC" transform="matrix(1 0 0 1.00072 151 161.911)"/><path d="M51.4868 113.801 102.966 83.9105 51.4868 60.9212 51.4868 113.801 51.4868 113.801Z" fill="#BCBCBC" fill-opacity="0.2" transform="matrix(1 0 0 1.00072 151 161.911)"/><path d="M0 83.9105 51.4859 113.801 51.4859 60.9212 0 83.9105Z" fill="#BCBCBC" fill-opacity="0.6" transform="matrix(1 0 0 1.00072 151 161.911)"/></g></g></g><text fill="#FFFFFF" font-family="Aptos,Aptos_MSFontService,sans-serif" font-weight="400" font-size="21.3333" transform="matrix(1 0 0 0.999399 157.365 375)">Ethereum</text><text fill="#FFFFFF" font-family="Aptos,Aptos_MSFontService,sans-serif" font-weight="400" font-size="21.3333" transform="matrix(1 0 0 0.999399 181.813 400)">EVM</text><text fill="#FFFFFF" font-family="Aptos,Aptos_MSFontService,sans-serif" font-weight="400" font-size="21.3333" transform="matrix(1 0 0 0.999399 562.798 401)">D</text><text fill="#FFFFFF" font-family="Aptos,Aptos_MSFontService,sans-serif" font-weight="400" font-size="21.3333" transform="matrix(1 0 0 0.999399 577.474 401)">finity</text></g></svg>