<?xml version="1.0" encoding="UTF-8"?>
<svg xmlns="http://www.w3.org/2000/svg" viewBox="0 0 200 200">
  <defs>
    <style>
      .cls-1, .cls-2 {
        stroke-width: 0px;
      }

      .cls-2 {
        fill: #c6a9fc;
      }
    </style>
  </defs>
  <g id="_图层_2" data-name="图层 2">
    <rect class="cls-1" width="200" height="200"/>
  </g>
  <g id="_图层_1" data-name="图层 1">
    <g>
      <path class="cls-2" d="m32.65,154.99h-6.05v9.7h-2.9v-9.7h-5.52v-2.37h14.47v2.37Z"/>
      <path class="cls-2" d="m33.58,155.52h2.62v.9l3.15-.9v1.95h-3.15v7.22h-2.62v-9.18Zm9.45,1.16l-2.73-1.16v2.86h2.73v-1.7Z"/>
      <path class="cls-2" d="m45.13,155.52h2.65v6.97h3.13v2.21h-3.4l-2.37-1.45v-7.73Zm12.52,0h-2.62v6.97h-3.15v2.21l3.15-.95v.95h2.62v-9.18Z"/>
      <path class="cls-2" d="m64.47,154.07v10.63l-2.62-1.45v-5.78l-1.89.02v-.92l4.52-2.5Zm.94,1.45h3.15v1.95h-3.15v-1.95Zm5.8,6.03v1.7l-2.39,1.45h-3.4v-2.21h3.15v-.95h2.65Z"/>
      <path class="cls-2" d="m73.94,152.62h2.58v2.83h3.19v2.02h-3.19v7.25h-2.58v-12.1Zm12.5,4.28l-2.37-1.45h-3.42v2.02h3.15v7.25h2.65v-7.81Z"/>
      <path class="cls-2" d="m99.12,152.62l4.33,4.07v3.17l-4.07-3.84v8.67h-2.65v-12.08h2.39Zm9.7,0l-4.35,4.07v3.17l4.07-3.84v8.67h2.65v-12.08h-2.37Z"/>
      <path class="cls-2" d="m113.29,158.37v-1.45l2.39-1.47h3.44v1.97h-3.17v.95h-2.67Zm0,2.22l2.39-1.45h3.44v1.62h-3.17v1.72h3.17v2.23h-3.44l-2.39-1.45v-2.67Zm12.6-3.67l-2.39-1.47h-3.44v1.97h3.17v1.72h-3.17v1.62h3.17v1.72h-3.09v2.23h5.75v-7.79Z"/>
      <path class="cls-2" d="m129.88,155.52h2.62v.9l3.15-.9v1.95h-3.15v7.22h-2.62v-9.18Zm9.45,1.16l-2.73-1.16v2.86h2.73v-1.7Z"/>
      <path class="cls-2" d="m141.39,152.62h2.65v6.57h1.18v1.53h-1.18v3.99h-2.65v-12.1Zm7.27,7.25l4.81-3.17-1.74-1.24-5.46,3.74v1.53l5.29,3.99,2.37-1.45-5.27-3.4Z"/>
      <path class="cls-2" d="m155.99,156.9l2.48-1.47h3.34v1.97h-3.17v1.72h3.17v1.62h-3.17v1.72h3.17v2.23h-3.34l-2.48-1.45v-6.34Zm12.68,0l-2.48-1.47h-3.36v1.97h3.17v1.72h-3.17v1.62h3.36l2.48-1.45v-2.39Zm-2.75,4.87v.69h-3.09v2.23h3.36l2.48-1.45v-1.47h-2.75Z"/>
      <path class="cls-2" d="m175.07,154.07v10.63l-2.62-1.45v-5.78l-1.89.02v-.92l4.51-2.5Zm.95,1.45h3.15v1.95h-3.15v-1.95Zm5.8,6.03v1.7l-2.39,1.45h-3.4v-2.21h3.15v-.95h2.65Z"/>
    </g>
    <g>
      <path class="cls-2" d="m90.41,67.6c-1.14-2.26-.52-5.01,1.48-6.56,1.47-1.14,2.95-2.28,4.42-3.43,2.31-1.79,5.62-1.37,7.41.94,1.79,2.31,1.37,5.62-.94,7.41-1.47,1.14-2.95,2.28-4.42,3.43-.37.29-.76.52-1.2.7.37-1.11.41-2.31.12-3.44,1.26-.97,2.51-1.95,3.77-2.92,1.07-.83,1.27-2.37.44-3.44-.83-1.07-2.37-1.27-3.44-.44-1.47,1.14-2.95,2.28-4.42,3.43-.11.09-.22.19-.32.3-.1.12-.2.24-.28.38-.09.14-.16.29-.22.45-.06.16-.11.33-.15.5-.04.17-.06.35-.07.52,0,.17,0,.35.01.52.03.31.11.63.23.92.04.1.08.2.1.31.03.12.05.23.06.35.01.13.01.26,0,.38,0,.13-.02.26-.05.39-.03.12-.06.25-.11.37-.04.09-.08.18-.13.27-.76-.44-1.53-.88-2.29-1.32Z"/>
      <path class="cls-2" d="m88.09,63.98c.37-.29.76-.52,1.2-.7-.12.38-.21.76-.26,1.15-.1.77-.05,1.54.14,2.29-.04.03-.07.06-.11.08-.88-.51-1.76-1.02-2.65-1.53.56-.43,1.12-.87,1.68-1.3Z"/>
      <path class="cls-2" d="m84.47,71.9c.14,1.11,1.02,1.98,2.12,2.12.42.05.86,0,1.25-.17.91.52,1.82,1.05,2.73,1.57-.14.11-.29.22-.43.34-1.77,1.37-4.22,1.48-6.11.26-1.88-1.22-2.79-3.5-2.26-5.68.9.52,1.8,1.04,2.7,1.56Z"/>
      <path class="cls-2" d="m93.46,69.36c.07-.12.13-.25.18-.38.06-.16.11-.33.15-.5.04-.17.06-.35.07-.52,0-.17,0-.35-.01-.52-.03-.31-.11-.63-.23-.92-.04-.1-.08-.2-.1-.31-.03-.12-.05-.23-.06-.35-.01-.13-.01-.26,0-.38,0-.13.02-.26.05-.39.03-.12.06-.25.11-.37.04-.11.1-.22.16-.32.05-.09.12-.18.19-.25.06-.07.13-.13.2-.19.06-.05.12-.09.18-.14,2.24,1.56,2.93,4.57,1.58,6.95-.82-.47-1.64-.94-2.45-1.42Z"/>
      <path class="cls-2" d="m111.32,66.6c-1.47-4.57.44-9.55,4.6-11.95,4.16-2.4,9.43-1.57,12.65,1.99,1.59-.92,3.19-1.84,4.78-2.76-3.13-4.03-8.04-6.28-13.13-6.02-5.1.26-9.75,2.99-12.46,7.32-.53-.07-1.05-.14-1.58-.2-.55,4.32-1.11,8.64-1.66,12.96.53.07,1.05.13,1.58.2.13.41.27.82.44,1.22,1.59-.92,3.19-1.84,4.78-2.76Z"/>
      <path class="cls-2" d="m115.41,71.98c-1.69.97-3.37,1.95-5.06,2.92,5.03,4.69,12.52,5.54,18.48,2.11,5.95-3.44,8.96-10.36,7.41-17.05-1.69.97-3.37,1.95-5.06,2.92.23,3.85-1.74,7.5-5.08,9.42-3.34,1.93-7.48,1.81-10.7-.31Z"/>
      <path class="cls-2" d="m96.65,100.61c-2.58,4.47-7.21,7.38-12.36,7.76-5.15.39-10.15-1.79-13.37-5.82-3.23-4.03-4.25-9.39-2.75-14.33,1.51-4.94,5.35-8.81,10.28-10.36.07-.53.13-1.05.2-1.58,4.32.55,8.64,1.11,12.96,1.66-.07.53-.13,1.05-.2,1.58,2.17,1.35,3.97,3.22,5.25,5.43v15.64Zm-23.64-9.11c-.34,2.68.39,5.38,2.05,7.52,1.66,2.14,4.09,3.53,6.77,3.87,2.68.34,5.38-.39,7.52-2.05,2.14-1.66,3.53-4.09,3.87-6.77.34-2.68-.39-5.38-2.05-7.52s-4.09-3.53-6.77-3.87c-2.68-.34-5.38.39-7.52,2.05-2.14,1.66-3.53,4.09-3.87,6.77Z"/>
      <path class="cls-2" d="m133.43,104.44c-.1,0-.21-.03-.31-.08l-28.41-16.4c-.29-.17-.4-.55-.23-.84.17-.3.55-.39.84-.23l28.41,16.4c.29.17.4.55.23.84-.11.2-.32.31-.54.31Z"/>
      <path class="cls-2" d="m100,51.81c-.34,0-.62-.28-.62-.62v-20.33c0-.34.28-.62.62-.62s.62.28.62.62v20.33c0,.34-.28.62-.62.62Z"/>
      <path class="cls-2" d="m143.3,52l-6.75,53.9-36.55,21.1-36.55-21.1-6.75-53.9,43.3-25,43.3,25Zm-41.63,25.97v44.19l31.76-18.34,5.96-47.64-37.72,21.78Zm-3.35,44.19v-44.19l-37.72-21.78,5.96,47.64,31.76,18.34ZM61.73,52.97l38.27,22.1,38.27-22.1-38.27-22.1-38.27,22.1Z"/>
    </g>
  </g>
</svg>